<svg height="512pt" viewBox="-58 0 512 512" width="512pt" xmlns="http://www.w3.org/2000/svg"><path d="m387.5 216.050781v248.46875c0 22.082031-17.898438 39.980469-39.980469 39.980469h-149.941406v-389.902344c0-49.449218 40.089844-89.539062 89.539063-89.539062h36.191406c.082031 10.75 3.621094 21.210937 10.113281 29.792968 35.089844 46.414063 54.078125 103.011719 54.078125 161.199219zm0 0" fill="#fff0d0"/><path d="m333.421875 54.851562c-6.492187-8.582031-10.03125-19.042968-10.113281-29.792968h-30c.082031 10.75 3.621094 21.210937 10.113281 29.792968 35.089844 46.414063 54.078125 103.011719 54.078125 161.199219v248.46875c0 22.082031-17.898438 39.980469-39.980469 39.980469h30c22.082031 0 39.980469-17.898438 39.980469-39.980469v-248.46875c0-58.1875-18.988281-114.785156-54.078125-161.199219zm0 0" fill="#edcfb2"/><path d="m323.308594 23.140625v1.917969c0 10.660156-3.410156 21.042968-9.730469 29.632812l-.746094 1.015625c-33.78125 45.910157-52.003906 101.417969-52.003906 158.414063v250.398437c0 22.082031 17.902344 39.980469 39.992187 39.980469h-253.339843c-22.082031 0-39.980469-17.898438-39.980469-39.980469v-250.398437c0-56.996094 18.222656-112.503906 52.003906-158.414063l.746094-1.015625c6.320312-8.589844 9.730469-18.972656 9.730469-29.632812v-1.917969c0-8.636719 7-15.640625 15.640625-15.640625h222.050781c8.636719 0 15.636719 7.003906 15.636719 15.640625zm0 0" fill="#fe5555"/><path d="m307.671875 7.5h-30c8.636719 0 15.636719 7.003906 15.636719 15.640625v1.917969c0 10.660156-3.410156 21.042968-9.730469 29.632812l-.746094 1.015625c-33.78125 45.910157-52.003906 101.417969-52.003906 158.414063v250.398437c0 22.082031 17.902344 39.980469 39.992187 39.980469h30c-22.089843 0-39.992187-17.898438-39.992187-39.980469v-250.398437c0-56.996094 18.222656-112.503906 52.003906-158.414063l.746094-1.015625c6.320313-8.589844 9.730469-18.972656 9.730469-29.632812v-1.917969c0-8.636719-7-15.640625-15.636719-15.640625zm0 0" fill="#e84141"/><path d="m7.5 215.039062h253.328125v220h-253.328125zm0 0" fill="#60d9fe"/><path d="m230.828125 215.039062h30v220h-30zm0 0" fill="#40ccf7"/><path d="m121.824219 289.234375c0 24.300781-19.699219 44-44 44s-44-19.699219-44-44 19.699219-44 44-44 44 19.699219 44 44zm0 0" fill="#ffd659"/><path d="m77.824219 303.234375c-7.71875 0-14-6.28125-14-14s6.28125-14 14-14 14 6.28125 14 14-6.28125 14-14 14zm0 0" fill="#e87a25"/><path d="m221.175781 360.4375c0 24.300781-19.699219 44-44 44s-44-19.699219-44-44 19.699219-44 44-44 44 19.699219 44 44zm0 0" fill="#ffd659"/><path d="m177.175781 374.4375c-7.71875 0-14-6.28125-14-14s6.28125-14 14-14 14 6.28125 14 14-6.28125 14-14 14zm0 0" fill="#e87a25"/><path d="m81.449219 400.6875c-8.273438 0-15-6.730469-15-15 0-8.273438 6.726562-15 15-15 8.269531 0 15 6.726562 15 15 0 8.269531-6.730469 15-15 15zm0 0" fill="#e87a25"/><path d="m188.949219 280.902344c-11.027344 0-20-8.972656-20-20s8.972656-20 20-20c11.027343 0 20 8.972656 20 20s-8.972657 20-20 20zm0 0" fill="#ffd659"/><path d="m387.5 423.25c4.144531 0 7.5-3.359375 7.5-7.5v-199.699219c0-58.652343-18.804688-117.035156-55.597656-165.726562-9.59375-12.679688-8.515625-26.691407-8.59375-27.183594 0-12.761719-10.378906-23.140625-23.136719-23.140625h-222.050781c-12.761719 0-23.140625 10.378906-23.140625 23.140625v1.917969c0 9.125-2.859375 17.832031-8.273438 25.1875l-.746093 1.015625c-6.894532 9.371093-13.253907 19.277343-18.898438 29.441406-2.011719 3.621094-.707031 8.1875 2.914062 10.199219 3.621094 2.011718 8.1875.707031 10.199219-2.914063 5.335938-9.613281 11.347657-18.976562 17.871094-27.839843l.746094-1.015626c7.320312-9.949218 11.1875-21.730468 11.1875-34.074218v-1.917969c0-4.488281 3.652343-8.140625 8.140625-8.140625h222.050781c4.488281 0 8.140625 3.652344 8.140625 8.140625v1.917969c0 9.125-2.863281 17.832031-8.273438 25.1875l-.746093 1.015625c-33.671875 45.761719-52.050781 99.664062-53.375 156.277343h-238.332031c.785156-31.5 7.214843-62.253906 19.144531-91.515624 1.566406-3.835938-.277344-8.210938-4.113281-9.777344-3.832032-1.5625-8.210938.277344-9.773438 4.113281-13.5 33.105469-20.34375 68.015625-20.34375 103.761719v250.398437c0 26.179688 21.300781 47.480469 47.480469 47.480469h300.039062c26.179688 0 47.480469-21.300781 47.480469-47.480469v-16.859375c0-4.140625-3.355469-7.5-7.5-7.5s-7.5 3.359375-7.5 7.5v16.859375c0 17.910157-14.570312 32.480469-32.480469 32.480469h-46.699219c-17.914062 0-32.492187-14.570312-32.492187-32.480469v-250.398437c0-93.992188 47.808594-147.972656 55.09375-160.855469 1.207031 2.117187 2.542969 4.160156 4.015625 6.105469 33.429688 44.242187 52.5625 98.984375 52.5625 156.679687v199.699219c0 4.140625 3.355469 7.5 7.5 7.5zm-340.019531 73.75c-17.910157 0-32.480469-14.570312-32.480469-32.480469v-21.980469h22.5c4.140625 0 7.5-3.355468 7.5-7.5 0-4.140624-3.359375-7.5-7.5-7.5h-22.5v-205h238.328125v205h-183.828125c-4.140625 0-7.5 3.359376-7.5 7.5 0 4.144532 3.359375 7.5 7.5 7.5h183.828125v21.980469c0 12.550781 4.898437 23.980469 12.882813 32.480469-6.527344 0-212.207032 0-218.730469 0zm0 0"/><path d="m318.214844 141.660156v306c0 4.140625 3.355468 7.5 7.5 7.5 4.140625 0 7.5-3.359375 7.5-7.5v-306c0-4.140625-3.359375-7.5-7.5-7.5-4.144532 0-7.5 3.359375-7.5 7.5zm0 0"/><path d="m247.5 47.5c4.144531 0 7.5-3.359375 7.5-7.5s-3.355469-7.5-7.5-7.5h-120c-4.140625 0-7.5 3.359375-7.5 7.5s3.359375 7.5 7.5 7.5zm0 0"/><path d="m129.324219 289.234375c0-28.394531-23.101563-51.5-51.5-51.5-28.398438 0-51.5 23.105469-51.5 51.5 0 28.398437 23.101562 51.5 51.5 51.5 28.398437 0 51.5-23.101563 51.5-51.5zm-88 0c0-20.125 16.375-36.5 36.5-36.5s36.5 16.375 36.5 36.5-16.375 36.5-36.5 36.5-36.5-16.375-36.5-36.5zm0 0"/><path d="m99.324219 289.234375c0-11.855469-9.644531-21.5-21.5-21.5s-21.5 9.644531-21.5 21.5 9.644531 21.5 21.5 21.5 21.5-9.644531 21.5-21.5zm-28 0c0-3.582031 2.914062-6.5 6.5-6.5 3.582031 0 6.5 2.917969 6.5 6.5 0 3.585937-2.917969 6.5-6.5 6.5-3.585938 0-6.5-2.914063-6.5-6.5zm0 0"/><path d="m177.175781 411.9375c28.398438 0 51.5-23.101562 51.5-51.5s-23.101562-51.5-51.5-51.5c-28.398437 0-51.5 23.101562-51.5 51.5s23.101563 51.5 51.5 51.5zm0-88c20.125 0 36.5 16.375 36.5 36.5s-16.375 36.5-36.5 36.5-36.5-16.375-36.5-36.5 16.375-36.5 36.5-36.5zm0 0"/><path d="m177.175781 381.9375c11.855469 0 21.5-9.644531 21.5-21.5s-9.644531-21.5-21.5-21.5-21.5 9.644531-21.5 21.5 9.644531 21.5 21.5 21.5zm0-28c3.585938 0 6.5 2.914062 6.5 6.5 0 3.582031-2.914062 6.5-6.5 6.5-3.582031 0-6.5-2.917969-6.5-6.5 0-3.585938 2.917969-6.5 6.5-6.5zm0 0"/><path d="m81.449219 408.1875c12.40625 0 22.5-10.09375 22.5-22.5s-10.09375-22.5-22.5-22.5c-12.410157 0-22.5 10.09375-22.5 22.5s10.09375 22.5 22.5 22.5zm0-30c4.136719 0 7.5 3.363281 7.5 7.5s-3.363281 7.5-7.5 7.5-7.5-3.363281-7.5-7.5 3.363281-7.5 7.5-7.5zm0 0"/><path d="m188.949219 288.402344c15.160156 0 27.5-12.335938 27.5-27.5 0-15.164063-12.339844-27.5-27.5-27.5-15.164063 0-27.5 12.335937-27.5 27.5 0 15.164062 12.335937 27.5 27.5 27.5zm0-40c6.890625 0 12.5 5.605468 12.5 12.5 0 6.894531-5.609375 12.5-12.5 12.5-6.894531 0-12.5-5.605469-12.5-12.5 0-6.894532 5.605469-12.5 12.5-12.5zm0 0"/></svg>