<svg height="512pt" viewBox="-122 0 512 512.001" width="512pt" xmlns="http://www.w3.org/2000/svg"><path d="m179.277344 67.5h-91.554688c-5.644531 0-10.222656-4.578125-10.222656-10.222656v-39.554688c0-5.644531 4.578125-10.222656 10.222656-10.222656h91.554688c5.644531 0 10.222656 4.578125 10.222656 10.222656v39.554688c0 5.644531-4.578125 10.222656-10.222656 10.222656zm0 0" fill="#60d9fe"/><path d="m179.277344 7.5h-30c5.644531 0 10.222656 4.578125 10.222656 10.222656v39.554688c0 5.644531-4.578125 10.222656-10.222656 10.222656h30c5.644531 0 10.222656-4.578125 10.222656-10.222656v-39.554688c0-5.644531-4.578125-10.222656-10.222656-10.222656zm0 0" fill="#40ccf7"/><path d="m241.5 144v360.5h-216v-360.5c0-17.855469 12.320312-33.351562 29.714844-37.375l7.570312-1.75c17.394532-4.023438 29.714844-19.519531 29.714844-37.375h82c0 17.855469 12.320312 33.351562 29.714844 37.375l7.570312 1.75c17.394532 4.023438 29.714844 19.519531 29.714844 37.375zm0 0" fill="#bdf9ff"/><g fill="#8cf2ff"><path d="m211.785156 106.625-7.570312-1.75c-17.394532-4.023438-29.714844-19.519531-29.714844-37.375h-30c0 17.855469 7 44 37.285156 54 16.957032 5.597656 29.714844 19.519531 29.714844 37.375v345.625h30v-360.5c0-17.855469-12.320312-33.351562-29.714844-37.375zm0 0"/><path d="m249.5 210h-232c-5.523438 0-10-4.476562-10-10v-40c0-5.523438 4.476562-10 10-10h232c5.523438 0 10 4.476562 10 10v40c0 5.523438-4.476562 10-10 10zm0 0"/><path d="m249.5 300h-232c-5.523438 0-10-4.476562-10-10v-40c0-5.523438 4.476562-10 10-10h232c5.523438 0 10 4.476562 10 10v40c0 5.523438-4.476562 10-10 10zm0 0"/><path d="m249.5 390h-232c-5.523438 0-10-4.476562-10-10v-40c0-5.523438 4.476562-10 10-10h232c5.523438 0 10 4.476562 10 10v40c0 5.523438-4.476562 10-10 10zm0 0"/><path d="m249.5 480h-232c-5.523438 0-10-4.476562-10-10v-40c0-5.523438 4.476562-10 10-10h232c5.523438 0 10 4.476562 10 10v40c0 5.523438-4.476562 10-10 10zm0 0"/></g><path d="m249.5 150h-30c5.523438 0 10 4.476562 10 10v40c0 5.523438-4.476562 10-10 10h30c5.523438 0 10-4.476562 10-10v-40c0-5.523438-4.476562-10-10-10zm0 0" fill="#6bdae8"/><path d="m249.5 240h-30c5.523438 0 10 4.476562 10 10v40c0 5.523438-4.476562 10-10 10h30c5.523438 0 10-4.476562 10-10v-40c0-5.523438-4.476562-10-10-10zm0 0" fill="#6bdae8"/><path d="m249.5 330h-30c5.523438 0 10 4.476562 10 10v40c0 5.523438-4.476562 10-10 10h30c5.523438 0 10-4.476562 10-10v-40c0-5.523438-4.476562-10-10-10zm0 0" fill="#6bdae8"/><path d="m249.5 420h-30c5.523438 0 10 4.476562 10 10v40c0 5.523438-4.476562 10-10 10h30c5.523438 0 10-4.476562 10-10v-40c0-5.523438-4.476562-10-10-10zm0 0" fill="#6bdae8"/><path d="m249.5 217.5c9.648438 0 17.5-7.851562 17.5-17.5v-40c0-9.648438-7.851562-17.5-17.5-17.5h-.53125c-.664062-20.824219-15.070312-38.457031-35.488281-43.175781l-7.570313-1.761719c-11.097656-2.5625-20.238281-11.144531-23.050781-22.929688 8.0625-1.660156 14.140625-8.8125 14.140625-17.355468v-39.554688c0-9.773437-7.949219-17.722656-17.722656-17.722656h-91.554688c-9.769531 0-17.722656 7.949219-17.722656 17.722656v39.554688c0 8.554687 6.09375 15.714844 14.171875 17.363281-2.636719 11.242187-11.394531 20.222656-23.089844 22.925781l-7.550781 1.757813c-20.429688 4.71875-34.835938 22.355469-35.5 43.175781h-.53125c-9.648438 0-17.5 7.851562-17.5 17.5v40c0 9.648438 7.851562 17.5 17.5 17.5h.5v15h-.5c-9.648438 0-17.5 7.851562-17.5 17.5v40c0 9.648438 7.851562 17.5 17.5 17.5h.5v15h-.5c-9.648438 0-17.5 7.851562-17.5 17.5v40c0 9.648438 7.851562 17.5 17.5 17.5h.5v15h-.5c-9.648438 0-17.5 7.851562-17.5 17.5v40c0 9.648438 7.851562 17.5 17.5 17.5h.5v17c0 4.144531 3.359375 7.5 7.5 7.5h216c4.140625 0 7.5-3.355469 7.5-7.5v-17h.5c9.648438 0 17.5-7.851562 17.5-17.5v-40c0-9.648438-7.851562-17.5-17.5-17.5h-.5v-15h.5c9.648438 0 17.5-7.851562 17.5-17.5v-40c0-9.648438-7.851562-17.5-17.5-17.5h-.5v-15h.5c9.648438 0 17.5-7.851562 17.5-17.5v-40c0-9.648438-7.851562-17.5-17.5-17.5h-.5v-15zm-164.5-199.777344c0-1.5 1.222656-2.722656 2.722656-2.722656h91.554688c1.5 0 2.722656 1.222656 2.722656 2.722656v39.554688c0 1.5-1.222656 2.722656-2.722656 2.722656-2.640625 0-7.753906 0-10.277344 0v-20.5c0-4.140625-3.359375-7.5-7.5-7.5s-7.5 3.359375-7.5 7.5v20.5h-13v-20.5c0-4.140625-3.359375-7.5-7.5-7.5s-7.5 3.359375-7.5 7.5v20.5h-13v-20.5c0-4.140625-3.359375-7.5-7.5-7.5s-7.5 3.359375-7.5 7.5v20.5c-2.527344 0-7.640625 0-10.277344 0-1.5 0-2.722656-1.222656-2.722656-2.722656zm-70 182.277344v-40c0-1.378906 1.121094-2.5 2.5-2.5h147.75c4.140625 0 7.5-3.359375 7.5-7.5s-3.359375-7.5-7.5-7.5h-132.210938c.652344-13.796875 10.285157-25.425781 23.882813-28.566406l7.546875-1.753906c18.4375-4.261719 31.972656-19.035157 34.929688-37.179688h68.226562c3.125 18.75 17.234375 33.09375 34.894531 37.175781l7.570313 1.761719c13.589844 3.140625 23.21875 14.765625 23.871094 28.5625h-36.460938c-4.140625 0-7.5 3.359375-7.5 7.5 0 4.144531 3.359375 7.5 7.5 7.5h52c1.378906 0 2.5 1.121094 2.5 2.5v40c0 1.378906-1.121094 2.5-2.5 2.5h-232c-1.378906 0-2.5-1.121094-2.5-2.5zm219 297h-201v-9.5h201zm0-84.5h-68.5c-4.140625 0-7.5 3.359375-7.5 7.5s3.359375 7.5 7.5 7.5h84c1.378906 0 2.5 1.121094 2.5 2.5v40c0 1.378906-1.121094 2.5-2.5 2.5h-232c-1.378906 0-2.5-1.121094-2.5-2.5v-40c0-1.378906 1.121094-2.5 2.5-2.5h116c4.140625 0 7.5-3.359375 7.5-7.5s-3.359375-7.5-7.5-7.5h-100.5v-15h201zm18-72.5v40c0 1.378906-1.121094 2.5-2.5 2.5h-232c-1.378906 0-2.5-1.121094-2.5-2.5v-40c0-1.378906 1.121094-2.5 2.5-2.5h232c1.378906 0 2.5 1.121094 2.5 2.5zm0-90v40c0 1.378906-1.121094 2.5-2.5 2.5h-179.75c-4.140625 0-7.5 3.359375-7.5 7.5s3.359375 7.5 7.5 7.5h164.25v15h-201v-15h4.5c4.140625 0 7.5-3.359375 7.5-7.5s-3.359375-7.5-7.5-7.5h-20c-1.378906 0-2.5-1.121094-2.5-2.5v-40c0-1.378906 1.121094-2.5 2.5-2.5h232c1.378906 0 2.5 1.121094 2.5 2.5zm-18-17.5h-201v-15h201zm0 0"/></svg>