<svg height="512pt" viewBox="-39 0 512 512" width="512pt" xmlns="http://www.w3.org/2000/svg"><path d="m425.5 143.152344v321.367187c0 22.082031-17.898438 39.980469-39.980469 39.980469h-149.941406v-389.902344c0-49.449218 40.089844-89.539062 89.539063-89.539062h36.191406c.082031 10.75 3.621094 21.210937 10.113281 29.792968l43.960937 58.148438c6.566407 8.683594 10.117188 19.269531 10.117188 30.152344zm0 0" fill="#fff0d0"/><path d="m415.382812 113-43.960937-58.148438c-6.492187-8.582031-10.03125-19.042968-10.113281-29.792968h-30c.082031 10.75 3.621094 21.210937 10.113281 29.792968l43.960937 58.148438c6.566407 8.683594 10.117188 19.269531 10.117188 30.152344v321.367187c0 22.082031-17.898438 39.980469-39.980469 39.980469h30c22.082031 0 39.980469-17.898438 39.980469-39.980469v-321.367187c0-10.882813-3.550781-21.46875-10.117188-30.152344zm0 0" fill="#edcfb2"/><path d="m361.308594 23.140625v1.917969c0 10.660156-3.410156 21.042968-9.730469 29.632812l-43.019531 58.46875c-6.320313 8.585938-9.730469 18.972656-9.730469 29.632813v321.726562c0 22.082031 17.902344 39.980469 39.992187 39.980469h-153.339843c-22.082031 0-39.980469-17.898438-39.980469-39.980469v-321.726562c0-10.660157 3.40625-21.046875 9.726562-29.632813l43.023438-58.46875c6.320312-8.589844 9.730469-18.972656 9.730469-29.632812v-1.917969c0-8.636719 7-15.640625 15.640625-15.640625h122.050781c8.636719 0 15.636719 7.003906 15.636719 15.640625zm0 0" fill="#60d9fe"/><path d="m345.671875 7.5h-30c8.636719 0 15.636719 7.003906 15.636719 15.640625v1.917969c0 10.660156-3.410156 21.042968-9.730469 29.632812l-43.019531 58.46875c-6.320313 8.585938-9.730469 18.972656-9.730469 29.632813v321.726562c0 22.082031 17.902344 39.980469 39.992187 39.980469h30c-22.089843 0-39.992187-17.898438-39.992187-39.980469v-321.726562c0-10.660157 3.410156-21.046875 9.730469-29.632813l43.019531-58.46875c6.320313-8.589844 9.730469-18.972656 9.730469-29.632812v-1.917969c0-8.636719-7-15.640625-15.636719-15.640625zm0 0" fill="#40ccf7"/><path d="m145.5 270h153.328125v86h-153.328125zm0 0" fill="#ffcd6b"/><path d="m268.828125 270h30v86h-30zm0 0" fill="#ffbd54"/><path d="m184.597656 196.074219-17.753906-10.085938c-7.667969-4.355469-14.027344-10.390625-18.730469-17.488281h-76.226562c-4.707031 7.097656-11.066407 13.132812-18.730469 17.488281l-17.753906 10.085938c-17.25 9.804687-27.902344 28.085937-27.902344 47.894531v244.222656c0 9.007813 7.316406 16.308594 16.347656 16.308594h172.304688c9.027344 0 16.34375-7.300781 16.34375-16.308594v-244.222656c0-19.808594-10.652344-38.089844-27.898438-47.894531zm0 0" fill="#bdf9ff"/><path d="m184.597656 196.074219-17.753906-10.085938c-7.667969-4.355469-14.027344-10.390625-18.730469-17.488281h-35.21875c4.703125 14.351562 12.730469 26.050781 23.199219 31.996094l17.75 10.089844c17.25 9.800781 27.902344 28.085937 27.902344 47.894531v229.707031c0 9.007812-7.316406 16.3125-16.347656 16.3125h30.753906c9.027344 0 16.34375-7.304688 16.34375-16.3125v-244.21875c0-19.808594-10.652344-38.089844-27.898438-47.894531zm0 0" fill="#8cf2ff"/><path d="m212.5 243.964844v244.222656c0 9.007812-7.320312 16.3125-16.347656 16.3125h-172.304688c-9.027344 0-16.347656-7.304688-16.347656-16.3125v-244.222656c0-12.070313 4-23.554688 11-32.925782h182.992188c6.996093 9.371094 11.007812 20.855469 11.007812 32.925782zm0 0" fill="#fff0d0"/><path d="m212.5 243.964844v244.222656c0 9.007812-7.320312 16.3125-16.347656 16.3125h-30.757813c9.03125 0 16.347657-7.304688 16.347657-16.3125v-229.703125c0-19.527344-10.335938-37.554687-27.136719-47.445313h46.886719c6.996093 9.371094 11.007812 20.855469 11.007812 32.925782zm0 0" fill="#edcfb2"/><path d="m162.996094 174.5h-106c-2.207032 0-4-1.789062-4-4v-32c0-2.210938 1.792968-4 4-4h106c2.210937 0 4 1.789062 4 4v32c0 2.210938-1.789063 4-4 4zm0 0" fill="#4c779f"/><path d="m162.996094 134.5h-30c2.210937 0 4 1.789062 4 4v32c0 2.210938-1.789063 4-4 4h30c2.210937 0 4-1.789062 4-4v-32c0-2.210938-1.789063-4-4-4zm0 0" fill="#3a5c7a"/><path d="m421.363281 108.476562-10.640625-14.074218c-2.496094-3.300782-7.199218-3.957032-10.503906-1.457032-3.304688 2.496094-3.957031 7.199219-1.460938 10.503907l10.640626 14.078125c5.546874 7.328125 8.601562 16.425781 8.601562 25.625v272.597656c0 4.144531 3.359375 7.5 7.5 7.5s7.5-3.355469 7.5-7.5v-272.597656c0-12.449219-4.132812-24.761719-11.636719-34.675782zm0 0"/><path d="m425.5 440.160156c-4.140625 0-7.5 3.359375-7.5 7.5v16.859375c0 17.910157-14.570312 32.480469-32.480469 32.480469h-46.699219c-17.914062 0-32.492187-14.570312-32.492187-32.480469v-321.730469c0-9.121093 2.863281-17.828124 8.273437-25.183593l43.019532-58.46875c1.394531-1.894531 2.660156-3.855469 3.800781-5.871094 1.207031 2.117187 2.542969 4.160156 4.015625 6.105469l14.023438 18.554687c1.476562 1.949219 3.71875 2.976563 5.988281 2.976563 1.574219 0 3.164062-.496094 4.519531-1.519532 3.300781-2.496093 3.957031-7.199218 1.457031-10.503906l-14.023437-18.554687c-5.472656-7.234375-8.523438-16.226563-8.59375-25.320313v-1.863281c0-12.761719-10.378906-23.140625-23.136719-23.140625h-122.050781c-12.761719 0-23.140625 10.378906-23.140625 23.140625v1.917969c0 9.125-2.859375 17.832031-8.269531 25.1875l-43.023438 58.472656c-4.042969 5.5-7.078125 11.726562-8.957031 18.28125h-83.230469c-6.34375 0-11.5 5.160156-11.5 11.5v32c0 3.550781 1.617188 6.730469 4.15625 8.84375-.070312.039062-.140625.085938-.214844.125l-17.746094 10.089844c-19.550781 11.105468-31.695312 31.957031-31.695312 54.410156v171.65625c0 4.140625 3.359375 7.5 7.5 7.5s7.5-3.359375 7.5-7.5v-171.65625c0-9.144531 2.671875-17.929688 7.421875-25.425781h175.152344c4.753906 7.496093 7.425781 16.28125 7.425781 25.425781v244.222656c0 4.855469-3.96875 8.808594-8.851562 8.808594h-172.296876c-4.882812 0-8.851562-3.953125-8.851562-8.808594v-40.191406c0-4.140625-3.359375-7.5-7.5-7.5s-7.5 3.359375-7.5 7.5v40.191406c0 13.128906 10.699219 23.808594 23.851562 23.808594h361.667969c26.179688 0 47.480469-21.300781 47.480469-47.480469v-16.859375c0-4.140625-3.359375-7.5-7.5-7.5zm-205.5-162.660156h71.328125v71h-71.328125zm-58.730469-159.894531 43.019531-58.46875c7.320313-9.949219 11.191407-21.734375 11.191407-34.078125v-1.917969c0-4.488281 3.652343-8.140625 8.140625-8.140625h122.050781c4.484375 0 8.136719 3.652344 8.136719 8.140625v1.917969c0 9.125-2.859375 17.832031-8.269532 25.1875l-43.019531 58.46875c-7.320312 9.949218-11.191406 21.730468-11.191406 34.074218v119.710938h-71.328125v-18.53125c0-22.449219-12.144531-43.296875-31.695312-54.410156l-17.757813-10.085938c-.070313-.042968-.140625-.085937-.210937-.125 2.542968-2.113281 4.160156-5.292968 4.160156-8.847656v-32c0-6.339844-5.15625-11.5-11.5-11.5h-6.925782c1.335938-3.332031 3.074219-6.503906 5.199219-9.394531zm-100.769531 24.394531h99v25h-99zm10.023438 40h78.949218c9.902344 10.074219 18.902344 12.828125 32.960938 21.542969h-144.867188c14.898438-9.230469 23.160156-11.589844 32.957032-21.542969zm147.777343 315c1.089844-2.726562 1.699219-5.699219 1.699219-8.808594v-124.691406h71.328125v101.019531c0 12.550781 4.898437 23.980469 12.882813 32.480469zm0 0"/><path d="m353.808594 141.660156v306c0 4.140625 3.359375 7.5 7.5 7.5 4.144531 0 7.5-3.359375 7.5-7.5v-306c0-4.140625-3.355469-7.5-7.5-7.5-4.140625 0-7.5 3.359375-7.5 7.5zm0 0"/><path d="m246.5 50.5h66c4.140625 0 7.5-3.359375 7.5-7.5s-3.359375-7.5-7.5-7.5h-66c-4.140625 0-7.5 3.359375-7.5 7.5s3.359375 7.5 7.5 7.5zm0 0"/></svg>