<svg height="511pt" viewBox="-58 1 511 511.999" width="511pt" xmlns="http://www.w3.org/2000/svg"><path d="m388 143.148438v225.691406c0 10.890625-3.550781 21.46875-10.109375 30.160156l-43.972656 58.148438c-6.488281 8.582031-10.027344 19.042968-10.109375 29.792968h-36.1875c-49.453125 0-89.542969-40.089844-89.542969-89.542968v-282.796876c0-49.453124 40.089844-89.542968 89.542969-89.542968h36.1875c.082031 10.75 3.621094 21.210937 10.109375 29.792968l43.972656 58.148438c6.558594 8.679688 10.109375 19.269531 10.109375 30.148438zm0 0" fill="#fff0d0"/><path d="m388 143.148438v225.691406c0 10.890625-3.550781 21.46875-10.109375 30.160156l-43.972656 58.148438c-6.488281 8.582031-10.027344 19.042968-10.109375 29.792968h-30c.082031-10.75 3.621094-21.210937 10.109375-29.792968l43.972656-58.148438c6.558594-8.691406 10.109375-19.269531 10.109375-30.160156v-225.691406c0-10.878907-3.550781-21.46875-10.109375-30.148438l-43.972656-58.148438c-6.488281-8.582031-10.027344-19.042968-10.109375-29.792968h30c.082031 10.75 3.621094 21.210937 10.109375 29.792968l43.972656 58.148438c6.558594 8.679688 10.109375 19.269531 10.109375 30.148438zm0 0" fill="#edcfb2"/><path d="m261.328125 369.199219c0 10.671875 3.410156 21.050781 9.730469 29.640625l43.019531 58.46875c6.320313 8.589844 9.730469 18.972656 9.730469 29.632812v1.917969c0 8.628906-7 15.640625-15.640625 15.640625h-222.046875c-8.640625 0-15.640625-7.011719-15.640625-15.640625v-1.917969c0-10.660156-3.410157-21.042968-9.730469-29.632812l-43.019531-58.46875c-6.320313-8.589844-9.730469-18.96875-9.730469-29.640625v-226.410157c0-10.660156 3.410156-21.039062 9.730469-29.628906l43.019531-58.46875c6.320312-8.589844 9.730469-18.972656 9.730469-29.632812v-1.917969c0-8.640625 7-15.640625 15.640625-15.640625h222.046875c8.640625 0 15.640625 7 15.640625 15.640625v1.917969c0 10.660156-3.410156 21.042968-9.730469 29.632812l-43.019531 58.46875c-6.320313 8.589844-9.730469 18.96875-9.730469 29.628906zm0 0" fill="#fe5555"/><path d="m271.058594 113.160156 43.019531-58.46875c6.320313-8.589844 9.730469-18.972656 9.730469-29.632812v-1.917969c0-8.640625-7-15.640625-15.640625-15.640625h-30c8.640625 0 15.640625 7 15.640625 15.640625v1.917969c0 10.660156-3.410156 21.042968-9.730469 29.632812l-43.019531 58.46875c-6.320313 8.589844-9.730469 18.96875-9.730469 29.628906v226.410157c0 10.671875 3.410156 21.050781 9.730469 29.640625l43.019531 58.46875c6.320313 8.589844 9.730469 18.972656 9.730469 29.632812v1.917969c0 8.628906-7 15.640625-15.640625 15.640625h30c8.640625 0 15.640625-7.011719 15.640625-15.640625v-1.917969c0-10.660156-3.410156-21.042968-9.730469-29.632812l-43.019531-58.46875c-6.320313-8.589844-9.730469-18.96875-9.730469-29.640625v-226.410157c0-10.660156 3.410156-21.039062 9.730469-29.628906zm0 0" fill="#e84141"/><path d="m8 166h253.328125v190h-253.328125zm0 0" fill="#bdf9ff"/><path d="m231.328125 166h30v190h-30zm0 0" fill="#8cf2ff"/><path d="m115 297c0 16.570312-13.433594 30-30 30-16.570312 0-30-13.429688-30-30s13.429688-30 30-30c16.566406 0 30 13.429688 30 30zm0 0" fill="#ffd659"/><path d="m85 267c-5.464844 0-10.585938 1.46875-15 4.023438 8.964844 5.1875 15 14.875 15 25.976562s-6.035156 20.789062-15 25.976562c4.414062 2.554688 9.535156 4.023438 15 4.023438 16.570312 0 30-13.433594 30-30 0-16.570312-13.429688-30-30-30zm0 0" fill="#ffbd54"/><path d="m210 275c0 16.570312-13.433594 30-30 30-16.570312 0-30-13.429688-30-30s13.429688-30 30-30c16.566406 0 30 13.429688 30 30zm0 0" fill="#60d9fe"/><path d="m180 245c-5.464844 0-10.585938 1.46875-15 4.023438 8.964844 5.1875 15 14.875 15 25.976562s-6.035156 20.789062-15 25.976562c4.414062 2.554688 9.535156 4.023438 15 4.023438 16.570312 0 30-13.433594 30-30 0-16.570312-13.429688-30-30-30zm0 0" fill="#40ccf7"/><path d="m142 218c0 16.570312-13.433594 30-30 30-16.570312 0-30-13.429688-30-30s13.429688-30 30-30c16.566406 0 30 13.429688 30 30zm0 0" fill="#fe5555"/><path d="m112 188c-5.464844 0-10.585938 1.46875-15 4.023438 8.964844 5.1875 15 14.875 15 25.976562s-6.035156 20.789062-15 25.976562c4.414062 2.554688 9.535156 4.023438 15 4.023438 16.570312 0 30-13.433594 30-30 0-16.570312-13.429688-30-30-30zm0 0" fill="#e84141"/><path d="m388 327.332031c4.140625 0 7.5-3.355469 7.5-7.5v-176.683593c0-12.4375-4.128906-24.75-11.628906-34.671876l-43.96875-58.152343c-9.59375-12.679688-8.515625-26.691407-8.59375-27.183594 0-12.761719-10.378906-23.140625-23.140625-23.140625h-222.046875c-12.761719 0-23.140625 10.378906-23.140625 23.140625-.152344 1.035156 1.285156 14.113281-8.273438 27.105469l-10.070312 13.6875c-2.457031 3.339844-1.738281 8.03125 1.597656 10.488281 3.332031 2.453125 8.027344 1.738281 10.484375-1.597656l10.070312-13.691407c12.5-16.984374 11.078126-35.238281 11.191407-35.992187 0-4.488281 3.648437-8.140625 8.140625-8.140625h222.046875c4.488281 0 8.140625 3.652344 8.140625 8.140625-.148438 1.03125 1.289062 14.113281-8.269532 27.101563l-43.023437 58.472656c-7.316406 9.949218-11.1875 21.730468-11.1875 34.074218v15.710938h-238.328125v-15.710938c0-9.121093 2.859375-17.832031 8.269531-25.183593l13.992188-19.015625c2.453125-3.335938 1.738281-8.03125-1.597657-10.488282-3.335937-2.453124-8.03125-1.738281-10.484374 1.597657l-13.992188 19.015625c-7.320312 9.949218-11.1875 21.730468-11.1875 34.074218v226.410157c0 12.351562 3.867188 24.136719 11.1875 34.082031l43.019531 58.472656c5.414063 7.351563 8.273438 16.0625 8.273438 25.183594v1.921875c0 12.757813 10.378906 23.136719 23.140625 23.136719h15.878906c4.140625 0 7.5-3.355469 7.5-7.5 0-4.140625-3.359375-7.5-7.5-7.5h-15.878906c-4.488282 0-8.140625-3.648438-8.140625-8.136719v-1.921875c0-12.34375-3.871094-24.125-11.191407-34.074219l-43.019531-58.46875c-5.410156-7.355469-8.269531-16.066406-8.269531-25.195312v-5.699219h238.328125v5.699219c0 12.351562 3.871094 24.136719 11.1875 34.085937l43.023437 58.46875c5.410157 7.355469 8.269532 16.0625 8.269532 25.183594v1.921875c0 4.488281-3.648438 8.140625-8.140625 8.140625h-174.167969c-4.144531 0-7.5 3.355469-7.5 7.5 0 4.140625 3.355469 7.5 7.5 7.5h174.167969c12.761719 0 23.140625-10.382812 23.140625-23.140625.113281-.726563-1.183594-14.261719 8.59375-27.1875l43.972656-58.152344c7.496094-9.929687 11.625-22.246093 11.625-34.679687v-16.839844c0-4.140625-3.355469-7.5-7.5-7.5-4.140625 0-7.5 3.359375-7.5 7.5v16.839844c0 9.191406-3.050781 18.300781-8.59375 25.636718l-43.96875 58.148438c-1.472656 1.949219-2.808594 3.992188-4.019531 6.109375-3.027344-5.355469-1.738281-2.835937-46.816407-64.339844-5.410156-7.355469-8.273437-16.066406-8.273437-25.195312v-226.410157c0-9.121093 2.863281-17.828124 8.273437-25.183593 45.039063-61.453125 43.789063-58.984375 46.816407-64.339844 3.390625 5.945313 3.511719 5.175781 47.988281 64.257813 5.542969 7.332031 8.59375 16.433593 8.59375 25.625v176.6875c0 4.140624 3.355469 7.496093 7.5 7.496093zm-372.5 21.167969v-175h238.328125v175zm0 0"/><path d="m248.933594 47.5c4.140625 0 7.5-3.359375 7.5-7.5s-3.359375-7.5-7.5-7.5h-120c-4.144532 0-7.5 3.359375-7.5 7.5s3.355468 7.5 7.5 7.5zm0 0"/><path d="m248.933594 472.5c4.140625 0 7.5-3.359375 7.5-7.5s-3.359375-7.5-7.5-7.5h-120c-4.144532 0-7.5 3.359375-7.5 7.5s3.355468 7.5 7.5 7.5zm0 0"/><path d="m85 259.5c-20.679688 0-37.5 16.820312-37.5 37.5s16.820312 37.5 37.5 37.5c20.675781 0 37.5-16.820312 37.5-37.5s-16.824219-37.5-37.5-37.5zm0 60c-12.40625 0-22.5-10.09375-22.5-22.5s10.09375-22.5 22.5-22.5 22.5 10.09375 22.5 22.5-10.09375 22.5-22.5 22.5zm0 0"/><path d="m180 237.5c-20.679688 0-37.5 16.820312-37.5 37.5s16.820312 37.5 37.5 37.5c20.675781 0 37.5-16.820312 37.5-37.5s-16.824219-37.5-37.5-37.5zm0 60c-12.40625 0-22.5-10.09375-22.5-22.5s10.09375-22.5 22.5-22.5 22.5 10.09375 22.5 22.5-10.09375 22.5-22.5 22.5zm0 0"/><path d="m112 180.5c-20.679688 0-37.5 16.820312-37.5 37.5s16.820312 37.5 37.5 37.5c20.675781 0 37.5-16.820312 37.5-37.5s-16.824219-37.5-37.5-37.5zm0 60c-12.40625 0-22.5-10.09375-22.5-22.5s10.09375-22.5 22.5-22.5 22.5 10.09375 22.5 22.5-10.09375 22.5-22.5 22.5zm0 0"/><path d="m315.710938 125.367188v260c0 4.144531 3.359374 7.5 7.5 7.5 4.144531 0 7.5-3.355469 7.5-7.5v-260c0-4.140626-3.355469-7.5-7.5-7.5-4.140626 0-7.5 3.359374-7.5 7.5zm0 0"/></svg>