<svg height="512pt" viewBox="-122 0 512 512" width="512pt" xmlns="http://www.w3.org/2000/svg"><path d="m227.332031 504.5h-187.664062c-8.929688 0-16.167969-7.238281-16.167969-16.167969v-404.664062c0-8.929688 7.238281-16.167969 16.167969-16.167969h187.660156c8.933594 0 16.171875 7.238281 16.171875 16.167969v404.660156c0 8.933594-7.238281 16.171875-16.167969 16.171875zm0 0" fill="#ffe491"/><path d="m227.332031 67.5h-30c8.929688 0 16.167969 7.238281 16.167969 16.167969v404.660156c0 8.933594-7.238281 16.171875-16.167969 16.171875h30c8.929688 0 16.167969-7.238281 16.167969-16.171875v-404.660156c0-8.929688-7.238281-16.167969-16.167969-16.167969zm0 0" fill="#ffd659"/><path d="m179.277344 67.5h-91.554688c-5.644531 0-10.222656-4.578125-10.222656-10.222656v-39.554688c0-5.644531 4.578125-10.222656 10.222656-10.222656h91.554688c5.644531 0 10.222656 4.578125 10.222656 10.222656v39.554688c0 5.644531-4.578125 10.222656-10.222656 10.222656zm0 0" fill="#ff9e4a"/><path d="m179.277344 7.5h-30c5.644531 0 10.222656 4.578125 10.222656 10.222656v39.554688c0 5.644531-4.578125 10.222656-10.222656 10.222656h30c5.644531 0 10.222656-4.578125 10.222656-10.222656v-39.554688c0-5.644531-4.578125-10.222656-10.222656-10.222656zm0 0" fill="#fc843a"/><path d="m249.5 158h-232c-5.523438 0-10-4.476562-10-10v-40c0-5.523438 4.476562-10 10-10h232c5.523438 0 10 4.476562 10 10v40c0 5.523438-4.476562 10-10 10zm0 0" fill="#ffd659"/><path d="m249.5 98h-30c5.523438 0 10 4.476562 10 10v40c0 5.523438-4.476562 10-10 10h30c5.523438 0 10-4.476562 10-10v-40c0-5.523438-4.476562-10-10-10zm0 0" fill="#ffbd54"/><path d="m249.5 258h-232c-5.523438 0-10-4.476562-10-10v-40c0-5.523438 4.476562-10 10-10h232c5.523438 0 10 4.476562 10 10v40c0 5.523438-4.476562 10-10 10zm0 0" fill="#ffd659"/><path d="m249.5 198h-30c5.523438 0 10 4.476562 10 10v40c0 5.523438-4.476562 10-10 10h30c5.523438 0 10-4.476562 10-10v-40c0-5.523438-4.476562-10-10-10zm0 0" fill="#ffbd54"/><path d="m249.5 358h-232c-5.523438 0-10-4.476562-10-10v-40c0-5.523438 4.476562-10 10-10h232c5.523438 0 10 4.476562 10 10v40c0 5.523438-4.476562 10-10 10zm0 0" fill="#ffd659"/><path d="m249.5 298h-30c5.523438 0 10 4.476562 10 10v40c0 5.523438-4.476562 10-10 10h30c5.523438 0 10-4.476562 10-10v-40c0-5.523438-4.476562-10-10-10zm0 0" fill="#ffbd54"/><path d="m249.5 458h-232c-5.523438 0-10-4.476562-10-10v-40c0-5.523438 4.476562-10 10-10h232c5.523438 0 10 4.476562 10 10v40c0 5.523438-4.476562 10-10 10zm0 0" fill="#ffd659"/><path d="m249.5 398h-30c5.523438 0 10 4.476562 10 10v40c0 5.523438-4.476562 10-10 10h30c5.523438 0 10-4.476562 10-10v-40c0-5.523438-4.476562-10-10-10zm0 0" fill="#ffbd54"/><path d="m198.5 279c0-55.226562-29.101562-100-65-100s-65 44.773438-65 100 29.101562 100 65 100 65-44.773438 65-100zm0 0" fill="#3bd387"/><path d="m159.5 287.472656c0 21.539063-11.640625 30.527344-26 30.527344s-26-8.988281-26-30.527344c0-21.539062 26-47.472656 26-47.472656s26 25.933594 26 47.472656zm0 0" fill="#ffd659"/><path d="m133.5 240s-6.167969 6.160156-12.496094 14.957031c6.664063 9.269531 13.507813 21.464844 13.507813 32.515625 0 14.746094-5.457031 23.605469-13.507813 27.730469 3.710938 1.898437 7.96875 2.796875 12.496094 2.796875 14.359375 0 26-8.988281 26-30.527344 0-21.539062-26-47.472656-26-47.472656zm0 0" fill="#ffbd54"/><path d="m267 148v-40c0-9.144531-7.050781-16.660156-16-17.425781v-6.902344c0-13.054687-10.617188-23.671875-23.671875-23.671875h-30.558594c.136719-.890625.230469-1.796875.230469-2.722656v-39.554688c0-9.773437-7.949219-17.722656-17.722656-17.722656h-91.554688c-9.773437 0-17.722656 7.949219-17.722656 17.722656v39.554688c0 .925781.09375 1.832031.230469 2.722656h-30.558594c-13.054687 0-23.671875 10.617188-23.671875 23.671875v6.902344c-8.949219.765625-16 8.28125-16 17.425781v40c0 9.144531 7.050781 16.660156 16 17.425781v25.148438c-8.949219.765625-16 8.28125-16 17.425781v40c0 9.144531 7.050781 16.660156 16 17.425781v25.148438c-8.949219.765625-16 8.28125-16 17.425781v40c0 9.144531 7.050781 16.660156 16 17.425781v25.148438c-8.949219.765625-16 8.28125-16 17.425781v40c0 9.144531 7.050781 16.660156 16 17.425781v22.902344c0 13.054687 10.617188 23.671875 23.671875 23.671875h187.65625c13.054687 0 23.671875-10.617188 23.671875-23.671875v-22.902344c8.949219-.765625 16-8.28125 16-17.425781v-40c0-9.144531-7.050781-16.660156-16-17.425781v-25.148438c8.949219-.765625 16-8.28125 16-17.425781v-40c0-9.144531-7.050781-16.660156-16-17.425781v-25.148438c8.949219-.765625 16-8.28125 16-17.425781v-40c0-9.144531-7.050781-16.660156-16-17.425781v-25.148438c8.949219-.765625 16-8.28125 16-17.425781zm-182-90.722656v-39.554688c0-1.5 1.222656-2.722656 2.722656-2.722656h91.554688c1.5 0 2.722656 1.222656 2.722656 2.722656v39.554688c0 1.5-1.222656 2.722656-2.722656 2.722656h-10.277344v-20.5c0-4.140625-3.359375-7.5-7.5-7.5s-7.5 3.359375-7.5 7.5v20.5h-13v-20.5c0-4.140625-3.359375-7.5-7.5-7.5s-7.5 3.359375-7.5 7.5v20.5h-13v-20.5c0-4.140625-3.359375-7.5-7.5-7.5s-7.5 3.359375-7.5 7.5v20.5h-10.277344c-1.5 0-2.722656-1.222656-2.722656-2.722656zm-45.328125 17.722656h187.65625c4.78125 0 8.671875 3.890625 8.671875 8.671875v6.828125h-205v-6.828125c0-4.78125 3.890625-8.671875 8.671875-8.671875zm-24.671875 73v-40c0-1.378906 1.121094-2.5 2.5-2.5h232c1.378906 0 2.5 1.121094 2.5 2.5v40c0 1.378906-1.121094 2.5-2.5 2.5h-180c-4.140625 0-7.5 3.359375-7.5 7.5s3.359375 7.5 7.5 7.5h166.5v25h-61.136719c-11.976562-12.265625-26.34375-19-41.363281-19-15.113281 0-29.40625 6.644531-41.40625 19h-61.09375v-25h6.5c4.140625 0 7.5-3.359375 7.5-7.5s-3.359375-7.5-7.5-7.5h-20c-1.378906 0-2.5-1.121094-2.5-2.5zm0 100v-40c0-1.378906 1.121094-2.5 2.5-2.5h62.945312c-8.097656 12.867188-13.832031 28.277344-16.886718 45h-46.058594c-1.378906 0-2.5-1.121094-2.5-2.5zm46.578125 17.5c-.738281 8.882812-.742187 16.773438-.160156 25h-30.417969v-25zm-46.578125 82.5v-40c0-1.378906 1.121094-2.5 2.5-2.5h45.699219c2.804687 16.628906 8.246093 32.023438 16.007812 45h-61.707031c-1.378906 0-2.5-1.121094-2.5-2.5zm161.777344 17.5h59.222656v25h-205v-25h59.222656c12.371094 13.636719 27.371094 21 43.277344 21s30.90625-7.363281 43.277344-21zm75.222656 42.5v40c0 1.378906-1.121094 2.5-2.5 2.5h-20.167969c-4.140625 0-7.5 3.359375-7.5 7.5s3.359375 7.5 7.5 7.5h6.667969v22.828125c0 4.78125-3.890625 8.671875-8.671875 8.671875h-187.65625c-4.78125 0-8.671875-3.890625-8.671875-8.671875v-22.828125h166.332031c4.144531 0 7.5-3.359375 7.5-7.5s-3.355469-7.5-7.5-7.5h-179.832031c-1.378906 0-2.5-1.121094-2.5-2.5v-40c0-1.378906 1.121094-2.5 2.5-2.5h232c1.378906 0 2.5 1.121094 2.5 2.5zm0-100v40c0 1.378906-1.121094 2.5-2.5 2.5h-61.707031c7.761719-12.976562 13.203125-28.371094 16.007812-45h45.699219c1.378906 0 2.5 1.121094 2.5 2.5zm-46.417969-17.5c.59375-8.363281.566407-16.394531-.152343-25h30.570312v25zm46.417969-82.5v40c0 1.378906-1.121094 2.5-2.5 2.5h-46.046875c-.558594-3.042969-1.203125-6.050781-1.941406-9.019531-1-4.019531-5.070313-6.472657-9.089844-5.46875-4.019531.996093-6.46875 5.066406-5.46875 9.085937 2.6875 10.800782 4.046875 22.207032 4.046875 33.902344 0 6.097656-.378906 12.09375-1.097656 17.941406-.023438.160156-.042969.324219-.054688.488282-2.308594 18.210937-8.027344 34.890624-16.675781 48.191406-10.84375 16.6875-24.933594 25.878906-39.671875 25.878906s-28.828125-9.191406-39.675781-25.878906c-8.644531-13.300782-14.367188-29.980469-16.671875-48.191406-.011719-.164063-.035156-.328126-.054688-.488282-.722656-5.847656-1.097656-11.84375-1.097656-17.941406 0-25.277344 6.328125-48.9375 17.824219-66.621094 10.847656-16.6875 24.9375-25.878906 39.675781-25.878906 16.078125 0 31.609375 11.199219 42.605469 30.722656 2.03125 3.609375 6.605469 4.886719 10.214843 2.855469 3.609376-2.035156 4.886719-6.605469 2.855469-10.214844-.839843-1.496093-1.707031-2.949219-2.597656-4.363281h62.921875c1.378906 0 2.5 1.121094 2.5 2.5zm0 0"/><path d="m138.796875 234.691406c-2.929687-2.921875-7.664063-2.921875-10.59375 0-.285156.28125-7.03125 7.042969-13.824219 16.632813-9.542968 13.46875-14.378906 25.628906-14.378906 36.148437 0 28.035156 17.304688 38.027344 33.5 38.027344s33.5-9.992188 33.5-38.027344c0-10.519531-4.839844-22.679687-14.382812-36.148437-6.789063-9.589844-13.535157-16.351563-13.820313-16.632813zm-5.296875 75.808594c-15.289062 0-18.5-12.523438-18.5-23.027344 0-11.902344 10.734375-27.195312 18.5-36.351562 7.769531 9.160156 18.5 24.449218 18.5 36.351562 0 10.503906-3.210938 23.027344-18.5 23.027344zm0 0"/></svg>