<svg height="511pt" viewBox="0 0 511 511.99992" width="511pt" xmlns="http://www.w3.org/2000/svg"><path d="m401.09375 337.152344c8.800781-25.453125 13.597656-52.777344 13.597656-81.226563 0-135.183593-107.949218-245.15625-242.347656-248.425781-3.371094-.082031-6.152344 2.636719-6.152344 6.007812v323.644532zm0 0" fill="#a2db74"/><path d="m172.347656 7.5c-1.792968-.042969-3.414062.710938-4.542968 1.925781 122.3125 15.53125 216.886718 119.972657 216.886718 246.5 0 28.449219-4.796875 55.773438-13.597656 81.226563h30c8.800781-25.453125 13.597656-52.777344 13.597656-81.226563 0-135.183593-107.949218-245.15625-242.34375-248.425781zm0 0" fill="#3bd387"/><path d="m369.140625 337.152344c10.199219-25.488282 15.550781-52.945313 15.550781-81.226563 0-58.359375-22.730468-113.230469-64-154.5-41.269531-41.269531-96.140625-64-154.5-64v299.726563zm0 0" fill="#ffd659"/><path d="m320.691406 101.425781c-41.269531-41.269531-96.140625-64-154.5-64v2.046875c46.984375 6.414063 90.390625 27.84375 124.5 61.953125 41.269532 41.269531 64 96.140625 64 154.5 0 28.28125-5.351562 55.738281-15.550781 81.226563h30c10.199219-25.488282 15.550781-52.945313 15.550781-81.226563 0-58.359375-22.730468-113.230469-64-154.5zm0 0" fill="#ffbd54"/><path d="m498.988281 256c3.375 0 6.09375 2.78125 6.011719 6.152344-3.269531 134.398437-113.277344 242.347656-248.5 242.347656s-245.230469-107.949219-248.5-242.347656c-.082031-3.371094 2.636719-6.152344 6.007812-6.152344zm0 0" fill="#a2db74"/><path d="m475.0625 256c0 132.203125-103.273438 240.277344-233.566406 248.035156 4.964844.296875 9.964844.464844 15.003906.464844 135.21875 0 245.226562-107.949219 248.496094-242.347656.082031-3.371094-2.632813-6.152344-6.007813-6.152344zm0 0" fill="#3bd387"/><path d="m475.0625 256c0 58.359375-22.738281 113.230469-64.019531 154.5s-96.167969 64-154.542969 64c-58.378906 0-113.265625-22.730469-154.546875-64s-64.019531-96.140625-64.019531-154.5zm0 0" fill="#fe5555"/><path d="m445.054688 256c0 58.359375-22.738282 113.230469-64.019532 154.5-37.726562 37.714844-86.8125 59.933594-139.539062 63.484375 4.96875.335937 9.972656.515625 15.003906.515625 58.375 0 113.261719-22.730469 154.542969-64s64.019531-96.140625 64.019531-154.5zm0 0" fill="#e84141"/><path d="m508.65625 252.574219c-2.5625-2.625-5.996094-4.074219-9.667969-4.074219h-76.914062c-.925781-32.894531-8.011719-64.753906-21.117188-94.804688-13.605469-31.203124-33.019531-59.015624-57.707031-82.660156-2.992188-2.867187-7.742188-2.765625-10.605469.226563-2.867187 2.992187-2.761719 7.738281.226563 10.605469 23.246094 22.265624 41.527344 48.449218 54.335937 77.824218 12.273438 28.148438 18.933594 57.992188 19.859375 88.808594h-15.011718c-1.847657-57.574219-25.132813-111.441406-66.0625-152.371094-40.914063-40.914062-94.753907-64.195312-152.304688-66.0625v-15.023437c49.132812 1.496093 95.9375 17.679687 135.457031 46.84375 3.332031 2.457031 8.027344 1.75 10.488281-1.582031 2.457032-3.332032 1.75-8.027344-1.582031-10.488282-42.414062-31.304687-92.734375-48.527344-145.523437-49.81249975-3.664063-.08593745-7.140625 1.27734375-9.765625 3.84374975-2.625 2.5625-4.074219 5.996094-4.074219 9.664063v234.988281h-144.679688c-3.667968 0-7.101562 1.449219-9.667968 4.074219-2.5625 2.628906-3.925782 6.09375-3.835938 9.761719 1.628906 67.042968 28.984375 129.816406 77.023438 176.753906 48.117187 47.015625 111.679687 72.910156 178.972656 72.910156s130.855469-25.894531 178.972656-72.910156c48.039063-46.9375 75.390625-109.710938 77.023438-176.753906.089844-3.667969-1.273438-7.132813-3.839844-9.761719zm-83.667969 175.789062c-45.296875 44.261719-105.136719 68.636719-168.488281 68.636719-63.355469 0-123.191406-24.375-168.492188-68.636719-44.859374-43.835937-70.558593-102.328125-72.46875-164.863281h15.03125c1.867188 57.550781 25.152344 111.390625 66.082032 152.308594l.921875.914062c1.464843 1.449219 3.371093 2.171875 5.277343 2.171875 1.929688 0 3.863282-.742187 5.328126-2.222656 2.917968-2.941406 2.894531-7.691406-.050782-10.605469l-.875-.871094c-38.089844-38.078124-59.816406-88.152343-61.675781-141.695312h275.171875c4.140625 0 7.5-3.355469 7.5-7.5 0-4.140625-3.359375-7.5-7.5-7.5h-147.0625v-203.421875c53.542969 1.859375 103.617188 23.574219 141.699219 61.65625 38.097656 38.097656 59.816406 88.195313 61.660156 141.765625h-24.546875c-4.144531 0-7.5 3.359375-7.5 7.5 0 4.144531 3.355469 7.5 7.5 7.5h114.917969c-1.859375 53.542969-23.585938 103.617188-61.675781 141.695312-39.867188 39.855469-92.867188 61.804688-149.242188 61.804688-45.4375 0-88.621094-14.125-124.882812-40.84375-3.335938-2.460938-8.03125-1.75-10.488282 1.585938-2.457031 3.335937-1.746094 8.03125 1.589844 10.488281 38.855469 28.632812 85.117188 43.769531 133.78125 43.769531 60.378906 0 117.148438-23.507812 159.847656-66.195312 40.925782-40.914063 64.214844-94.753907 66.078125-152.304688h15.03125c-1.90625 62.535156-27.605469 121.027344-72.46875 164.863281zm0 0"/><path d="m100.59375 296.515625c-2.402344-3.375-7.085938-4.160156-10.460938-1.757813-3.375 2.402344-4.160156 7.085938-1.757812 10.457032l8.699219 12.21875c1.464843 2.054687 3.769531 3.152344 6.117187 3.152344 1.503906 0 3.023438-.453126 4.34375-1.390626 3.371094-2.402343 4.160156-7.085937 1.757813-10.460937zm0 0"/><path d="m393.824219 306.972656 14.996093.351563c.0625.003906.121094.003906.179688.003906 4.0625 0 7.398438-3.242187 7.496094-7.324219.097656-4.140625-3.183594-7.578125-7.324219-7.675781l-14.996094-.351563c-4.152343-.105468-7.574219 3.183594-7.671875 7.324219s3.179688 7.574219 7.320313 7.671875zm0 0"/><path d="m245.96875 355.90625c4.144531 0 7.5-3.359375 7.5-7.5v-15c0-4.140625-3.355469-7.5-7.5-7.5-4.140625 0-7.5 3.359375-7.5 7.5v15c0 4.140625 3.359375 7.5 7.5 7.5zm0 0"/><path d="m318.632812 399.453125 15 .070313h.035157c4.125 0 7.476562-3.335938 7.5-7.464844.019531-4.144532-3.324219-7.515625-7.46875-7.535156l-15-.070313c-.011719 0-.023438 0-.035157 0-4.125 0-7.476562 3.335937-7.496093 7.464844-.019531 4.140625 3.320312 7.515625 7.464843 7.535156zm0 0"/><path d="m332.398438 339.621094c1.355468 2.511718 3.9375 3.9375 6.605468 3.9375 1.203125 0 2.425782-.289063 3.558594-.902344 3.644531-1.964844 5.003906-6.515625 3.035156-10.160156l-7.128906-13.199219c-1.96875-3.644531-6.515625-5.003906-10.164062-3.035156-3.644532 1.96875-5 6.519531-3.035157 10.164062zm0 0"/><path d="m162.835938 323.015625c1.472656 0 2.960937-.433594 4.261718-1.332031l12.332032-8.542969c3.40625-2.359375 4.253906-7.03125 1.898437-10.4375-2.359375-3.402344-7.03125-4.253906-10.4375-1.894531l-12.332031 8.542968c-3.40625 2.355469-4.253906 7.027344-1.894532 10.433594 1.457032 2.105469 3.792969 3.230469 6.171876 3.230469zm0 0"/><path d="m167.625 371.773438c-2.339844 3.417968-1.46875 8.085937 1.949219 10.425781l12.375 8.476562c1.296875.886719 2.773437 1.3125 4.230469 1.3125 2.390624 0 4.742187-1.140625 6.195312-3.261719 2.339844-3.417968 1.46875-8.085937-1.949219-10.425781l-12.375-8.476562c-3.417969-2.339844-8.085937-1.464844-10.425781 1.949219zm0 0"/><path d="m228.714844 110.710938-10.851563 10.355468c-3 2.859375-3.109375 7.605469-.25 10.601563 1.472657 1.546875 3.449219 2.324219 5.425781 2.324219 1.863282 0 3.726563-.6875 5.179688-2.074219l10.851562-10.355469c2.996094-2.859375 3.105469-7.609375.246094-10.605469-2.859375-2.992187-7.605468-3.105469-10.601562-.246093zm0 0"/><path d="m299.457031 145.472656-14.769531 2.636719c-4.078125.726563-6.792969 4.621094-6.0625 8.699219.648438 3.632812 3.808594 6.183594 7.375 6.183594.4375 0 .878906-.039063 1.324219-.117188l14.769531-2.636719c4.078125-.726562 6.792969-4.625 6.0625-8.703125-.726562-4.078125-4.625-6.796875-8.699219-6.0625zm0 0"/><path d="m221.496094 193.398438-14.375-4.292969c-3.972656-1.1875-8.148438 1.074219-9.332032 5.042969-1.1875 3.96875 1.070313 8.144531 5.039063 9.332031l14.375 4.292969c.714844.210937 1.4375.3125 2.148437.3125 3.230469 0 6.210938-2.101563 7.183594-5.355469 1.183594-3.96875-1.074218-8.148438-5.039062-9.332031zm0 0"/></svg>