<svg height="512pt" viewBox="-58 0 512 512" width="512pt" xmlns="http://www.w3.org/2000/svg"><path d="m387.5 143.152344v321.367187c0 22.082031-17.898438 39.980469-39.980469 39.980469h-149.941406v-389.902344c0-49.449218 40.089844-89.539062 89.539063-89.539062h36.191406c.082031 10.75 3.621094 21.210937 10.113281 29.792968l43.960937 58.148438c6.566407 8.683594 10.117188 19.269531 10.117188 30.152344zm0 0" fill="#fff0d0"/><path d="m377.382812 113-43.960937-58.148438c-6.492187-8.582031-10.03125-19.042968-10.113281-29.792968h-30c.082031 10.75 3.621094 21.210937 10.113281 29.792968l43.960937 58.148438c6.566407 8.683594 10.117188 19.269531 10.117188 30.152344v321.367187c0 22.082031-17.898438 39.980469-39.980469 39.980469h30c22.082031 0 39.980469-17.898438 39.980469-39.980469v-321.367187c0-10.882813-3.550781-21.46875-10.117188-30.152344zm0 0" fill="#edcfb2"/><path d="m323.308594 23.140625v1.917969c0 10.660156-3.410156 21.042968-9.730469 29.632812l-43.019531 58.46875c-6.320313 8.585938-9.730469 18.972656-9.730469 29.632813v321.726562c0 22.082031 17.902344 39.980469 39.992187 39.980469h-253.339843c-22.082031 0-39.980469-17.898438-39.980469-39.980469v-321.726562c0-10.660157 3.40625-21.046875 9.726562-29.632813l43.023438-58.46875c6.320312-8.589844 9.730469-18.972656 9.730469-29.632812v-1.917969c0-8.636719 7-15.640625 15.640625-15.640625h222.050781c8.636719 0 15.636719 7.003906 15.636719 15.640625zm0 0" fill="#f5b387"/><path d="m307.671875 7.5h-30c8.636719 0 15.636719 7.003906 15.636719 15.640625v1.917969c0 10.660156-3.410156 21.042968-9.730469 29.632812l-43.019531 58.46875c-6.320313 8.585938-9.730469 18.972656-9.730469 29.632813v321.726562c0 22.082031 17.902344 39.980469 39.992187 39.980469h30c-22.089843 0-39.992187-17.898438-39.992187-39.980469v-321.726562c0-10.660157 3.410156-21.046875 9.730469-29.632813l43.019531-58.46875c6.320313-8.589844 9.730469-18.972656 9.730469-29.632812v-1.917969c0-8.636719-7-15.640625-15.636719-15.640625zm0 0" fill="#db9a6c"/><path d="m7.5 190h253.328125v190h-253.328125zm0 0" fill="#ffd659"/><path d="m230.828125 190h30v190h-30zm0 0" fill="#ffbd54"/><path d="m180.5 286c0-38.660156-22.386719-70-50-70s-50 31.339844-50 70 22.386719 70 50 70 50-31.339844 50-70zm0 0" fill="#804d36"/><path d="m130.5 216c-5.226562 0-10.265625 1.128906-15 3.210938 20.285156 8.917968 35 35.445312 35 66.789062s-14.714844 57.871094-35 66.789062c4.734375 2.085938 9.773438 3.210938 15 3.210938 27.613281 0 50-31.339844 50-70s-22.386719-70-50-70zm0 0" fill="#663b29"/><path d="m247.5 47.5c4.144531 0 7.5-3.359375 7.5-7.5s-3.355469-7.5-7.5-7.5h-120c-4.140625 0-7.5 3.359375-7.5 7.5s3.359375 7.5 7.5 7.5zm0 0"/><path d="m171.957031 232.144531c-10.890625-15.25-25.613281-23.644531-41.457031-23.644531s-30.566406 8.394531-41.457031 23.644531c-10.347657 14.480469-16.042969 33.609375-16.042969 53.855469s5.695312 39.375 16.042969 53.855469c10.890625 15.25 25.613281 23.644531 41.457031 23.644531s30.566406-8.394531 41.457031-23.644531c10.347657-14.480469 16.042969-33.609375 16.042969-53.855469s-5.695312-39.375-16.042969-53.855469zm-41.457031 116.355469c-23.433594 0-42.5-28.039062-42.5-62.5s19.066406-62.5 42.5-62.5 42.5 28.039062 42.5 62.5-19.066406 62.5-42.5 62.5zm0 0"/><path d="m130.5 244.273438c-4.140625 0-7.5 3.359374-7.5 7.5v74.207031c0 4.144531 3.359375 7.5 7.5 7.5s7.5-3.355469 7.5-7.5v-74.207031c0-4.140626-3.359375-7.5-7.5-7.5zm0 0"/><path d="m387.5 423.332031c4.144531 0 7.5-3.355469 7.5-7.5v-272.683593c0-12.445313-4.132812-24.757813-11.636719-34.671876l-43.960937-58.152343c-5.46875-7.222657-8.515625-16.203125-8.59375-25.285157v-1.898437c.003906-12.761719-10.378906-23.140625-23.136719-23.140625h-222.050781c-12.761719 0-23.140625 10.378906-23.140625 23.140625v1.917969c0 19.5-12.082031 28.851562-17.597657 37.859375-2.453124 3.335937-1.738281 8.03125 1.597657 10.484375 3.335937 2.457031 8.03125 1.742187 10.484375-1.59375 5.082031-8.523438 20.515625-21.234375 20.515625-46.75v-1.917969c0-4.488281 3.652343-8.140625 8.140625-8.140625h222.050781c4.484375 0 8.140625 3.652344 8.140625 8.140625v1.917969c0 9.125-2.863281 17.832031-8.273438 25.1875l-43.019531 58.46875c-7.320312 9.945312-11.1875 21.730468-11.1875 34.078125v39.707031h-238.332031v-39.707031c0-20.640625 13.085938-29.65625 23.003906-45.210938 2.453125-3.335937 1.738282-8.03125-1.597656-10.488281-3.335938-2.453125-8.03125-1.738281-10.484375 1.597656-9.210937 14.832032-25.921875 27.261719-25.921875 54.101563v321.726562c0 26.179688 21.300781 47.480469 47.480469 47.480469h22.269531c4.140625 0 7.5-3.359375 7.5-7.5s-3.359375-7.5-7.5-7.5h-22.269531c-17.910157 0-32.480469-14.570312-32.480469-32.480469v-77.019531h238.328125v77.019531c0 12.550781 4.898437 23.980469 12.882813 32.480469-8.582032 0-158.707032 0-164.210938 0-4.140625 0-7.5 3.359375-7.5 7.5s3.359375 7.5 7.5 7.5h245.519531c26.179688 0 47.480469-21.300781 47.480469-47.480469v-16.859375c0-4.140625-3.355469-7.5-7.5-7.5s-7.5 3.359375-7.5 7.5v16.859375c0 17.910157-14.570312 32.480469-32.480469 32.480469h-46.699219c-17.914062 0-32.492187-14.570312-32.492187-32.480469.285156-104.535156.054687-249.371093 0-321.726562 0-9.128907 2.859375-17.835938 8.269531-25.1875 45.042969-61.453125 43.796875-58.984375 46.824219-64.339844 3.382813 5.933594 3.429687 5.070313 47.976563 64.261719 5.546874 7.324218 8.601562 16.425781 8.601562 25.621094v272.6875c0 4.140624 3.355469 7.496093 7.5 7.496093zm-372.5-50.832031v-175h238.328125v175zm0 0"/><path d="m315.8125 141.660156v306c0 4.140625 3.355469 7.5 7.5 7.5 4.140625 0 7.5-3.359375 7.5-7.5v-306c0-4.140625-3.359375-7.5-7.5-7.5-4.144531 0-7.5 3.359375-7.5 7.5zm0 0"/></svg>