<svg height="512pt" viewBox="-63 0 512 512" width="512pt" xmlns="http://www.w3.org/2000/svg"><path d="m327.5 504.5h-270c-27.613281 0-50-22.386719-50-50v-397c0-27.613281 22.386719-50 50-50h270c27.613281 0 50 22.386719 50 50v397c0 27.613281-22.386719 50-50 50zm0 0" fill="#bbeded"/><path d="m327.5 7.5h-30c27.613281 0 50 22.386719 50 50v397c0 27.613281-22.386719 50-50 50h30c27.613281 0 50-22.386719 50-50v-397c0-27.613281-22.386719-50-50-50zm0 0" fill="#ace0e0"/><path d="m57.5 474.5c-11.027344 0-20-8.972656-20-20v-397c0-11.027344 8.972656-20 20-20h270c11.027344 0 20 8.972656 20 20v397c0 11.027344-8.972656 20-20 20zm0 0" fill="#d1ffff"/><path d="m257.03125 283.375c-11.046875 0-20-8.953125-20-20v-40h40v40c0 11.042969-8.953125 20-20 20zm0 0" fill="#db7f76"/><path d="m127.96875 228.625c11.046875 0 20 8.953125 20 20v40h-40v-40c0-11.042969 8.953125-20 20-20zm0 0" fill="#db7f76"/><path d="m295.734375 108.332031v101.066407c0 15.914062-12.898437 28.816406-28.816406 28.816406h-19.691407c-11.425781 0-22.171874-5.429688-28.953124-14.625l-22.605469-30.671875c-6.78125-9.195313-17.527344-14.625-28.953125-14.625h-41.480469c-19.863281 0-35.96875-16.101563-35.96875-35.96875v-33.996094c0-19.863281 16.105469-35.964844 35.96875-35.964844h134.535156c19.863281 0 35.964844 16.105469 35.964844 35.96875zm0 0" fill="#f5a8a2"/><path d="m259.769531 72.363281h-30c19.863281 0 35.964844 16.105469 35.964844 35.96875v101.066407c0 14.242187-10.335937 26.0625-23.914063 28.390624 1.777344.269532 3.578126.425782 5.40625.425782h19.691407c15.917969 0 28.816406-12.902344 28.816406-28.816406v-101.066407c0-19.863281-16.101563-35.96875-35.964844-35.96875zm0 0" fill="#e89189"/><path d="m89.265625 403.667969v-101.066407c0-15.914062 12.898437-28.816406 28.816406-28.816406h19.691407c11.425781 0 22.171874 5.429688 28.953124 14.625l22.605469 30.671875c6.78125 9.195313 17.527344 14.625 28.953125 14.625h41.480469c19.863281 0 35.96875 16.101563 35.96875 35.96875v33.996094c0 19.863281-16.105469 35.964844-35.96875 35.964844h-134.535156c-19.863281 0-35.964844-16.105469-35.964844-35.96875zm0 0" fill="#f5a8a2"/><path d="m136.726562 288.410156 22.609376 30.671875c6.777343 9.195313 17.523437 14.625 28.949218 14.625h30c-11.425781 0-22.171875-5.429687-28.949218-14.625l-22.609376-30.671875c-6.78125-9.195312-17.523437-14.625-28.949218-14.625h-19.695313c-1.671875 0-3.308593.152344-4.902343.425782 9.347656 1.421874 17.851562 6.472656 23.546874 14.199218zm0 0" fill="#e89189"/><path d="m259.769531 333.707031h-30c19.863281 0 35.964844 16.101563 35.964844 35.964844v33.996094c0 19.863281-16.101563 35.96875-35.964844 35.96875h30c19.863281 0 35.964844-16.105469 35.964844-35.96875v-33.996094c0-19.863281-16.101563-35.964844-35.964844-35.964844zm0 0" fill="#e89189"/><path d="m327.5 0h-270c-31.707031 0-57.5 25.792969-57.5 57.5v38.5c0 4.140625 3.355469 7.5 7.5 7.5s7.5-3.359375 7.5-7.5v-38.5c0-23.433594 19.066406-42.5 42.5-42.5h270c23.433594 0 42.5 19.066406 42.5 42.5v397c0 23.433594-19.066406 42.5-42.5 42.5h-270c-23.433594 0-42.5-19.066406-42.5-42.5v-326.832031c0-4.144531-3.355469-7.5-7.5-7.5s-7.5 3.355469-7.5 7.5v326.832031c0 31.707031 25.792969 57.5 57.5 57.5h270c31.707031 0 57.5-25.792969 57.5-57.5v-397c0-31.707031-25.792969-57.5-57.5-57.5zm0 0"/><path d="m327.5 30h-270c-15.164062 0-27.5 12.335938-27.5 27.5v397c0 15.164062 12.335938 27.5 27.5 27.5h270c15.164062 0 27.5-12.335938 27.5-27.5v-198.5c0-4.140625-3.355469-7.5-7.5-7.5s-7.5 3.359375-7.5 7.5v113.476562h-18.300781c-4.144531 0-7.5 3.359376-7.5 7.5 0 4.140626 3.355469 7.5 7.5 7.5h18.300781v70.023438c0 6.894531-5.605469 12.5-12.5 12.5h-270c-6.894531 0-12.5-5.605469-12.5-12.5v-42h15.167969c4.140625 0 7.5-3.359375 7.5-7.5s-3.359375-7.5-7.5-7.5h-15.167969v-124.5625h19.832031c4.144531 0 7.5-3.355469 7.5-7.5 0-4.140625-3.355469-7.5-7.5-7.5h-19.832031v-133.863281h15.167969c4.140625 0 7.5-3.355469 7.5-7.5 0-4.140625-3.359375-7.5-7.5-7.5h-15.167969v-51.574219c0-6.894531 5.605469-12.5 12.5-12.5h270c6.894531 0 12.5 5.605469 12.5 12.5v85.765625h-18.300781c-4.144531 0-7.5 3.355469-7.5 7.5 0 4.140625 3.355469 7.5 7.5 7.5h18.300781v65.734375c0 4.140625 3.355469 7.5 7.5 7.5s7.5-3.359375 7.5-7.5c.007812-4.460938 0-138.941406 0-166.5 0-15.164062-12.335938-27.5-27.5-27.5zm0 0"/><path d="m303.234375 108.332031c0-23.96875-19.5-43.46875-43.46875-43.46875h-134.535156c-23.964844 0-43.464844 19.5-43.464844 43.46875v33.996094c0 23.96875 19.5 43.464844 43.464844 43.464844h41.484375c9.003906 0 17.570312 4.328125 22.914062 11.578125l22.605469 30.667968c4.503906 6.105469 10.507813 10.847657 17.292969 13.878907v21.453125c0 15.164062 12.339844 27.5 27.5 27.5 15.164062 0 27.5-12.335938 27.5-27.5v-22.226563c11.148437-6.210937 18.707031-18.109375 18.707031-31.746093zm-33.703125 155.039063c0 6.890625-5.609375 12.5-12.5 12.5-6.894531 0-12.5-5.609375-12.5-12.5v-17.746094c.894531.058594 1.792969.089844 2.691406.089844h19.695313c.878906 0 1.746093-.042969 2.609375-.105469v17.761719zm18.703125-53.972656c0 11.753906-9.5625 21.316406-21.316406 21.316406h-19.691407c-9.007812 0-17.574218-4.328125-22.914062-11.578125l-22.609375-30.667969c-8.15625-11.066406-21.238281-17.675781-34.988281-17.675781h-41.480469c-15.695313 0-28.46875-12.769531-28.46875-28.464844v-33.996094c0-15.699219 12.773437-28.46875 28.46875-28.46875h134.535156c15.695313 0 28.464844 12.769531 28.464844 28.46875zm0 0"/><path d="m259.769531 432.136719h-99.269531c-4.144531 0-7.5 3.355469-7.5 7.5 0 4.140625 3.355469 7.5 7.5 7.5h99.269531c23.964844 0 43.464844-19.5 43.464844-43.46875v-33.996094c0-23.96875-19.5-43.464844-43.464844-43.464844h-41.484375c-9.003906 0-17.570312-4.328125-22.914062-11.578125l-22.605469-30.667968c-4.503906-6.105469-10.507813-10.847657-17.292969-13.878907v-21.453125c0-15.164062-12.339844-27.5-27.5-27.5-15.164062 0-27.5 12.335938-27.5 27.5v22.226563c-11.148437 6.210937-18.707031 18.109375-18.707031 31.746093v101.066407c0 23.96875 19.5 43.46875 43.46875 43.46875h3.019531c4.140625 0 7.5-3.359375 7.5-7.5 0-4.144531-3.359375-7.5-7.5-7.5h-3.019531c-15.695313 0-28.46875-12.769531-28.46875-28.46875v-101.066407c0-11.753906 9.5625-21.316406 21.316406-21.316406h19.695313c9.003906 0 17.570312 4.328125 22.914062 11.578125l22.605469 30.667969c8.15625 11.066406 21.238281 17.675781 34.988281 17.675781h41.480469c15.699219 0 28.46875 12.769531 28.46875 28.464844v33.996094c0 15.699219-12.769531 28.46875-28.464844 28.46875zm-141.6875-165.851563c-.878906 0-1.75.042969-2.613281.105469v-17.761719c0-6.890625 5.609375-12.5 12.5-12.5 6.894531 0 12.5 5.609375 12.5 12.5v17.746094c-.894531-.058594-1.792969-.089844-2.691406-.089844zm0 0"/></svg>