<svg height="512pt" viewBox="-63 0 512 512" width="512pt" xmlns="http://www.w3.org/2000/svg"><path d="m327.5 504.5h-270c-27.613281 0-50-22.386719-50-50v-397c0-27.613281 22.386719-50 50-50h270c27.613281 0 50 22.386719 50 50v397c0 27.613281-22.386719 50-50 50zm0 0" fill="#bbeded"/><path d="m327.5 7.5h-30c27.613281 0 50 22.386719 50 50v397c0 27.613281-22.386719 50-50 50h30c27.613281 0 50-22.386719 50-50v-397c0-27.613281-22.386719-50-50-50zm0 0" fill="#ace0e0"/><path d="m57.5 474.5c-11.027344 0-20-8.972656-20-20v-397c0-11.027344 8.972656-20 20-20h270c11.027344 0 20 8.972656 20 20v397c0 11.027344-8.972656 20-20 20zm0 0" fill="#d1ffff"/><path d="m271.914062 208.839844h-122.175781c-36.582031 0-66.234375-29.65625-66.234375-66.238282v-46.175781c0-16.339843 13.246094-29.585937 29.585938-29.585937h136.746094c28.535156 0 51.667968 23.128906 51.667968 51.664062v60.746094c0 16.34375-13.25 29.589844-29.589844 29.589844zm0 0" fill="#fd825e"/><path d="m301.5 118.492188v60.765624c0 16.335938-13.242188 29.578126-29.582031 29.578126h-.878907c.300782-1.667969.460938-3.390626.460938-5.148438v-82.820312c0-11.800782-6.902344-21.980469-16.882812-26.730469-3.847657-1.839844-8.15625-2.859375-12.699219-2.859375h-157.957031c2.4375-13.878906 14.546874-24.441406 29.128906-24.441406h136.75c28.53125 0 51.660156 23.128906 51.660156 51.65625zm0 0" fill="#eb6044"/><path d="m271.914062 327h-122.175781c-36.582031 0-66.234375-29.65625-66.234375-66.238281v-46.171875c0-16.34375 13.246094-29.589844 29.585938-29.589844h136.746094c28.535156 0 51.667968 23.132812 51.667968 51.667969v60.746093c0 16.339844-13.25 29.585938-29.589844 29.585938zm0 0" fill="#fd825e"/><path d="m301.5 236.65625v60.765625c0 16.335937-13.242188 29.578125-29.582031 29.578125h-.878907c.300782-1.671875.460938-3.390625.460938-5.148438v-82.820312c0-11.800781-6.902344-21.980469-16.882812-26.730469-3.847657-1.839843-8.15625-2.859375-12.699219-2.859375h-157.957031c2.4375-13.882812 14.546874-24.441406 29.128906-24.441406h136.75c28.53125 0 51.660156 23.128906 51.660156 51.65625zm0 0" fill="#eb6044"/><path d="m271.914062 445.164062h-122.175781c-36.582031 0-66.234375-29.65625-66.234375-66.238281v-46.175781c0-16.339844 13.246094-29.585938 29.585938-29.585938h136.746094c28.535156 0 51.667968 23.128907 51.667968 51.664063v60.746094c0 16.339843-13.25 29.589843-29.589844 29.589843zm0 0" fill="#fd825e"/><path d="m301.5 354.820312v60.761719c0 16.335938-13.242188 29.578125-29.582031 29.578125h-.878907c.300782-1.667968.460938-3.386718.460938-5.148437v-82.820313c0-11.800781-6.902344-21.980468-16.882812-26.730468-3.847657-1.839844-8.15625-2.859376-12.699219-2.859376h-157.957031c2.4375-13.878906 14.546874-24.441406 29.128906-24.441406h136.75c28.53125 0 51.660156 23.128906 51.660156 51.660156zm0 0" fill="#eb6044"/><path d="m76 332.75v46.175781c0 40.660157 33.078125 73.738281 73.738281 73.738281h122.175781c20.449219 0 37.085938-16.640624 37.085938-37.089843v-60.746094c0-11.96875-3.582031-23.113281-9.71875-32.433594 6.171875-6.769531 9.71875-15.679687 9.71875-24.984375v-60.742187c0-11.582031-3.410156-22.867188-9.699219-32.449219 6.15625-6.769531 9.699219-15.671875 9.699219-24.96875v-60.75c0-32.621094-26.539062-59.160156-59.160156-59.160156h-136.75c-20.449219 0-37.089844 16.640625-37.089844 37.089844v46.171874c0 15.585938 4.898438 30.578126 13.90625 43.070313-8.644531 6.9375-13.90625 17.515625-13.90625 28.917969v46.171875c0 15.59375 4.898438 30.585937 13.90625 43.074219-8.46875 6.800781-13.90625 17.234374-13.90625 28.914062zm218 82.824219c0 12.179687-9.90625 22.089843-22.085938 22.089843h-122.175781c-32.386719 0-58.734375-26.351562-58.734375-58.738281v-46.171875c0-12.179687 9.90625-22.089844 22.085938-22.089844h136.746094c24.355468 0 44.167968 19.8125 44.167968 44.164063v60.746094zm-203-154.8125v-46.171875c0-8.722656 5.152344-16.648438 13.125-20.195313 2.828125-1.257812 5.847656-1.894531 8.964844-1.894531h15.660156c4.140625 0 7.5-3.359375 7.5-7.5s-3.359375-7.5-7.5-7.5h-15.660156c-3.285156 0-6.503906.425781-9.625 1.261719-8.0625-10.300781-12.464844-22.964844-12.464844-36.160157v-46.171874c0-12.179688 9.910156-22.089844 22.089844-22.089844h136.75c24.351562 0 44.160156 19.808594 44.160156 44.160156v60.75c0 4.910156-1.65625 9.640625-4.59375 13.460938-10.789062-9.734376-24.824219-15.210938-39.566406-15.210938h-89.464844c-4.140625 0-7.5 3.359375-7.5 7.5s3.359375 7.5 7.5 7.5h89.464844c12.992187 0 25.261718 5.683594 33.660156 15.589844.066406.082031.140625.160156.210938.238281 6.636718 7.917969 10.289062 17.96875 10.289062 28.34375v60.738281c0 4.914063-1.660156 9.648438-4.601562 13.46875-10.488282-9.449218-24.363282-15.214844-39.5625-15.214844h-136.746094c-3.324219 0-6.546875.445313-9.617188 1.269532-8.066406-10.292969-12.472656-22.964844-12.472656-36.171875zm0 0"/><path d="m327.5 0h-270c-31.707031 0-57.5 25.792969-57.5 57.5v326.207031c0 4.144531 3.359375 7.5 7.5 7.5s7.5-3.355469 7.5-7.5v-326.207031c0-23.433594 19.066406-42.5 42.5-42.5h270c23.433594 0 42.5 19.066406 42.5 42.5v397c0 23.433594-19.066406 42.5-42.5 42.5h-270c-23.433594 0-42.5-19.066406-42.5-42.5v-39.125c0-4.140625-3.359375-7.5-7.5-7.5s-7.5 3.359375-7.5 7.5v39.125c0 31.707031 25.792969 57.5 57.5 57.5h270c31.707031 0 57.5-25.792969 57.5-57.5v-397c0-31.707031-25.792969-57.5-57.5-57.5zm0 0"/><path d="m347.5 103.25c4.140625 0 7.5-3.359375 7.5-7.5v-38.25c0-15.164062-12.335938-27.5-27.5-27.5h-270c-15.164062 0-27.5 12.335938-27.5 27.5v397c0 15.164062 12.335938 27.5 27.5 27.5h270c15.164062 0 27.5-12.335938 27.5-27.5 0-238.90625.007812-324.511719 0-326.75 0-4.140625-3.359375-7.5-7.5-7.5s-7.5 3.359375-7.5 7.5v65.960938h-18.300781c-4.140625 0-7.5 3.359374-7.5 7.5 0 4.140624 3.359375 7.5 7.5 7.5h18.300781v160.765624h-18.300781c-4.140625 0-7.5 3.359376-7.5 7.5 0 4.140626 3.359375 7.5 7.5 7.5h18.300781v70.023438c0 6.894531-5.605469 12.5-12.5 12.5h-270c-6.894531 0-12.5-5.605469-12.5-12.5v-42h15.167969c4.140625 0 7.5-3.359375 7.5-7.5s-3.359375-7.5-7.5-7.5h-15.167969v-94h19.832031c4.144531 0 7.5-3.359375 7.5-7.5s-3.355469-7.5-7.5-7.5h-19.832031v-164.425781h15.167969c4.140625 0 7.5-3.355469 7.5-7.5 0-4.140625-3.359375-7.5-7.5-7.5h-15.167969v-51.574219c0-6.894531 5.605469-12.5 12.5-12.5h270c6.894531 0 12.5 5.605469 12.5 12.5v38.25c0 4.140625 3.359375 7.5 7.5 7.5zm0 0"/></svg>