<svg height="512pt" viewBox="0 0 512 512" width="512pt" xmlns="http://www.w3.org/2000/svg"><path d="m154.253906 365.410156h-92.015625c-30.230469 0-54.738281-24.507812-54.738281-54.738281v-54.722656c0-30.230469 24.507812-54.738281 54.738281-54.738281h92.015625c30.230469 0 54.738282 24.507812 54.738282 54.738281v54.722656c0 30.230469-24.507813 54.738281-54.738282 54.738281zm0 0" fill="#3bd387"/><path d="m154.253906 201.210938h-92.015625c-.269531 0-.535156.015624-.804687.019531 22.851562.425781 42.28125 14.847656 50.0625 35.0625 6.503906 16.898437 15.863281 32.558593 28.324218 45.699219l14.074219 14.851562c13.324219 14.058594 13.910157 36.171875.84375 50.472656-10.644531 11.65625-26.933593 16.375-43.59375 18.089844h43.109375c30.230469 0 54.738282-24.507812 54.738282-54.734375v-54.726563c0-30.226562-24.507813-54.734374-54.738282-54.734374zm0 0" fill="#37c487"/><path d="m326 232.5v272h-140v-272h51.980469v75.949219c0 9.960937 8.070312 18.019531 18.019531 18.019531s18.019531-8.058594 18.019531-18.019531v-75.949219zm0 0" fill="#fff0d0"/><path d="m296 232.5h30v272h-30zm0 0" fill="#edcfb2"/><path d="m325.535156 254.5h-139.070312c-45.542969 0-82.464844-36.921875-82.464844-82.464844v-82.070312c0-45.542969 36.921875-82.464844 82.464844-82.464844h139.074218c45.539063 0 82.460938 36.921875 82.460938 82.464844v82.074218c0 45.539063-36.921875 82.460938-82.464844 82.460938zm0 0" fill="#3bd387"/><path d="m325.535156 7.5h-30c45.542969 0 82.464844 36.921875 82.464844 82.464844v82.074218c0 45.542969-36.921875 82.460938-82.464844 82.460938h30c45.542969 0 82.464844-36.917969 82.464844-82.460938v-82.074218c0-45.542969-36.921875-82.464844-82.464844-82.464844zm0 0" fill="#37c487"/><path d="m445.167969 458.863281h-99.742188c-32.765625 0-59.332031-26.5625-59.332031-59.332031v-59.316406c0-32.765625 26.566406-59.332032 59.332031-59.332032h99.742188c32.769531 0 59.332031 26.566407 59.332031 59.332032v59.316406c0 32.769531-26.5625 59.332031-59.332031 59.332031zm0 0" fill="#3bd387"/><path d="m445.167969 280.882812h-30c32.769531 0 59.332031 26.566407 59.332031 59.332032v59.316406c0 32.769531-26.5625 59.332031-59.332031 59.332031h30c32.769531 0 59.332031-26.5625 59.332031-59.332031v-59.316406c0-32.765625-26.5625-59.332032-59.332031-59.332032zm0 0" fill="#37c487"/><path d="m445.167969 273.382812h-9c-4.144531 0-7.5 3.359376-7.5 7.5 0 4.144532 3.355469 7.5 7.5 7.5h9c28.578125 0 51.832031 23.253907 51.832031 51.832032v59.316406c0 28.582031-23.253906 51.832031-51.832031 51.832031h-99.742188c-28.578125 0-51.832031-23.25-51.832031-51.832031v-59.316406c0-28.578125 23.253906-51.832032 51.832031-51.832032h58.824219c4.140625 0 7.5-3.355468 7.5-7.5 0-4.140624-3.359375-7.5-7.5-7.5h-58.824219c-4.070312 0-8.054687.386719-11.925781 1.089844v-12.828125c45.890625-4.042969 82-42.683593 82-89.605469v-82.078124c0-14.902344-3.722656-29.671876-10.765625-42.707032-1.96875-3.644531-6.519531-5-10.164063-3.03125-3.644531 1.96875-5 6.519532-3.035156 10.164063 5.863282 10.851562 8.964844 23.152343 8.964844 35.574219v82.074218c0 41.335938-33.628906 74.964844-74.964844 74.964844h-139.074218c-41.332032 0-74.960938-33.628906-74.960938-74.964844v-82.074218c0-41.332032 33.628906-74.960938 74.960938-74.960938h139.074218c17.332032 0 34.234375 6.050781 47.59375 17.042969 3.199219 2.632812 7.925782 2.171875 10.554688-1.027344 2.632812-3.199219 2.171875-7.925781-1.023438-10.554687-16.035156-13.195313-36.324218-20.460938-57.121094-20.460938h-139.078124c-49.605469 0-89.960938 40.355469-89.960938 89.960938v82.074218c0 7.472656.921875 14.730469 2.644531 21.675782h-36.90625c-34.316406 0-62.238281 27.921874-62.238281 62.238281v54.722656c0 34.316406 27.921875 62.238281 62.238281 62.238281h33.699219c4.140625 0 7.5-3.359375 7.5-7.5s-3.359375-7.5-7.5-7.5h-33.699219c-26.046875 0-47.238281-21.191406-47.238281-47.238281v-54.722656c0-26.046875 21.191406-47.238281 47.238281-47.238281h42.082031c13.03125 29.074218 41.058594 50.015624 74.179688 52.933593v89.578125c-7.316406 4.386719-15.628906 6.6875-24.25 6.6875h-26.3125c-4.140625 0-7.5 3.359375-7.5 7.5 0 4.144532 3.359375 7.5 7.5 7.5h26.3125c8.433594 0 16.636719-1.679687 24.25-4.90625v136.496094c0 4.140625 3.359375 7.5 7.5 7.5h140c4.140625 0 7.5-3.359375 7.5-7.5v-39.222656c3.871094.699218 7.855469 1.085937 11.925781 1.085937h99.742188c36.851562 0 66.832031-29.980469 66.832031-66.832031v-59.316406c0-36.851563-29.980469-66.832032-66.832031-66.832032zm-199.6875-11.382812h21.039062v46.449219c0 5.800781-4.71875 10.519531-10.519531 10.519531s-10.519531-4.71875-10.519531-10.519531zm73.019531 235h-73.019531v-87.578125c0-4.144531-3.359375-7.5-7.5-7.5s-7.5 3.355469-7.5 7.5v87.578125h-36.980469v-235h36.980469v46.449219c0 14.074219 11.449219 25.519531 25.519531 25.519531s25.519531-11.445312 25.519531-25.519531v-46.449219h36.980469v17.066406c-23.476562 10.378906-39.90625 33.875-39.90625 61.148438v59.316406c0 27.273438 16.429688 50.769531 39.90625 61.148438zm0 0"/><path d="m175.394531 82.433594c0-4.140625-3.359375-7.5-7.5-7.5-4.144531 0-7.5 3.359375-7.5 7.5v5c0 4.144531 3.355469 7.5 7.5 7.5 4.140625 0 7.5-3.355469 7.5-7.5zm0 0"/><path d="m219.445312 82.433594c0-4.140625-3.355468-7.5-7.5-7.5-4.140624 0-7.5 3.359375-7.5 7.5v5c0 4.144531 3.359376 7.5 7.5 7.5 4.144532 0 7.5-3.355469 7.5-7.5zm0 0"/><path d="m263.5 82.433594c0-4.140625-3.359375-7.5-7.5-7.5s-7.5 3.359375-7.5 7.5v5c0 4.144531 3.359375 7.5 7.5 7.5s7.5-3.355469 7.5-7.5zm0 0"/><path d="m307.554688 82.433594c0-4.140625-3.359376-7.5-7.5-7.5-4.144532 0-7.5 3.359375-7.5 7.5v5c0 4.144531 3.355468 7.5 7.5 7.5 4.140624 0 7.5-3.355469 7.5-7.5zm0 0"/><path d="m197.421875 121c0-4.140625-3.359375-7.5-7.5-7.5-4.144531 0-7.5 3.359375-7.5 7.5v5c0 4.140625 3.355469 7.5 7.5 7.5 4.140625 0 7.5-3.359375 7.5-7.5zm0 0"/><path d="m241.472656 121c0-4.140625-3.359375-7.5-7.5-7.5s-7.5 3.359375-7.5 7.5v5c0 4.140625 3.359375 7.5 7.5 7.5s7.5-3.359375 7.5-7.5zm0 0"/><path d="m285.527344 121c0-4.140625-3.359375-7.5-7.5-7.5s-7.5 3.359375-7.5 7.5v5c0 4.140625 3.359375 7.5 7.5 7.5s7.5-3.359375 7.5-7.5zm0 0"/><path d="m329.578125 121c0-4.140625-3.355469-7.5-7.5-7.5-4.140625 0-7.5 3.359375-7.5 7.5v5c0 4.140625 3.359375 7.5 7.5 7.5 4.144531 0 7.5-3.359375 7.5-7.5zm0 0"/><path d="m197.421875 43.734375c0-4.140625-3.359375-7.5-7.5-7.5-4.144531 0-7.5 3.359375-7.5 7.5v5c0 4.140625 3.355469 7.5 7.5 7.5 4.140625 0 7.5-3.359375 7.5-7.5zm0 0"/><path d="m241.472656 43.734375c0-4.140625-3.359375-7.5-7.5-7.5s-7.5 3.359375-7.5 7.5v5c0 4.140625 3.359375 7.5 7.5 7.5s7.5-3.359375 7.5-7.5zm0 0"/><path d="m285.527344 43.734375c0-4.140625-3.359375-7.5-7.5-7.5s-7.5 3.359375-7.5 7.5v5c0 4.140625 3.359375 7.5 7.5 7.5s7.5-3.359375 7.5-7.5zm0 0"/><path d="m329.578125 43.734375c0-4.140625-3.355469-7.5-7.5-7.5-4.140625 0-7.5 3.359375-7.5 7.5v5c0 4.140625 3.359375 7.5 7.5 7.5 4.144531 0 7.5-3.359375 7.5-7.5zm0 0"/><path d="m189.921875 196.210938c-4.144531 0-7.5 3.359374-7.5 7.5v5c0 4.140624 3.355469 7.5 7.5 7.5 4.140625 0 7.5-3.359376 7.5-7.5v-5c0-4.140626-3.359375-7.5-7.5-7.5zm0 0"/><path d="m233.972656 196.210938c-4.140625 0-7.5 3.359374-7.5 7.5v5c0 4.140624 3.359375 7.5 7.5 7.5s7.5-3.359376 7.5-7.5v-5c0-4.140626-3.359375-7.5-7.5-7.5zm0 0"/><path d="m278.027344 196.210938c-4.140625 0-7.5 3.359374-7.5 7.5v5c0 4.140624 3.359375 7.5 7.5 7.5s7.5-3.359376 7.5-7.5v-5c0-4.140626-3.359375-7.5-7.5-7.5zm0 0"/><path d="m322.078125 196.210938c-4.140625 0-7.5 3.359374-7.5 7.5v5c0 4.140624 3.359375 7.5 7.5 7.5 4.144531 0 7.5-3.359376 7.5-7.5v-5c0-4.140626-3.355469-7.5-7.5-7.5zm0 0"/><path d="m351.605469 82.433594c0-4.140625-3.355469-7.5-7.5-7.5-4.140625 0-7.5 3.359375-7.5 7.5v5c0 4.144531 3.359375 7.5 7.5 7.5 4.144531 0 7.5-3.355469 7.5-7.5zm0 0"/><path d="m167.894531 154.171875c-4.144531 0-7.5 3.359375-7.5 7.5v5c0 4.140625 3.355469 7.5 7.5 7.5 4.140625 0 7.5-3.359375 7.5-7.5v-5c0-4.140625-3.359375-7.5-7.5-7.5zm0 0"/><path d="m211.945312 154.171875c-4.140624 0-7.5 3.359375-7.5 7.5v5c0 4.140625 3.359376 7.5 7.5 7.5 4.144532 0 7.5-3.359375 7.5-7.5v-5c0-4.140625-3.355468-7.5-7.5-7.5zm0 0"/><path d="m256 154.171875c-4.140625 0-7.5 3.359375-7.5 7.5v5c0 4.140625 3.359375 7.5 7.5 7.5s7.5-3.359375 7.5-7.5v-5c0-4.140625-3.359375-7.5-7.5-7.5zm0 0"/><path d="m300.054688 154.171875c-4.144532 0-7.5 3.359375-7.5 7.5v5c0 4.140625 3.355468 7.5 7.5 7.5 4.140624 0 7.5-3.359375 7.5-7.5v-5c0-4.140625-3.359376-7.5-7.5-7.5zm0 0"/><path d="m344.105469 154.171875c-4.140625 0-7.5 3.359375-7.5 7.5v5c0 4.140625 3.359375 7.5 7.5 7.5 4.144531 0 7.5-3.359375 7.5-7.5v-5c0-4.140625-3.355469-7.5-7.5-7.5zm0 0"/><path d="m358.742188 324.285156c0-4.140625-3.355469-7.5-7.5-7.5-4.140626 0-7.5 3.359375-7.5 7.5v5c0 4.144532 3.359374 7.5 7.5 7.5 4.144531 0 7.5-3.355468 7.5-7.5zm0 0"/><path d="m402.796875 324.285156c0-4.140625-3.359375-7.5-7.5-7.5s-7.5 3.359375-7.5 7.5v5c0 4.144532 3.359375 7.5 7.5 7.5s7.5-3.355468 7.5-7.5zm0 0"/><path d="m439.351562 336.785156c4.140626 0 7.5-3.355468 7.5-7.5v-5c0-4.140625-3.359374-7.5-7.5-7.5-4.140624 0-7.5 3.359375-7.5 7.5v5c0 4.144532 3.355469 7.5 7.5 7.5zm0 0"/><path d="m321.71875 364.3125v5c0 4.140625 3.355469 7.5 7.5 7.5 4.140625 0 7.5-3.359375 7.5-7.5v-5c0-4.144531-3.359375-7.5-7.5-7.5-4.144531 0-7.5 3.355469-7.5 7.5zm0 0"/><path d="m365.769531 364.3125v5c0 4.140625 3.359375 7.5 7.5 7.5 4.144531 0 7.5-3.359375 7.5-7.5v-5c0-4.144531-3.355469-7.5-7.5-7.5-4.140625 0-7.5 3.355469-7.5 7.5zm0 0"/><path d="m409.824219 364.3125v5c0 4.140625 3.359375 7.5 7.5 7.5s7.5-3.359375 7.5-7.5v-5c0-4.144531-3.359375-7.5-7.5-7.5s-7.5 3.355469-7.5 7.5zm0 0"/><path d="m468.878906 369.3125v-5c0-4.144531-3.359375-7.5-7.5-7.5-4.144531 0-7.5 3.355469-7.5 7.5v5c0 4.140625 3.355469 7.5 7.5 7.5 4.140625 0 7.5-3.359375 7.5-7.5zm0 0"/><path d="m351.242188 396.023438c-4.140626 0-7.5 3.359374-7.5 7.5v5c0 4.140624 3.359374 7.5 7.5 7.5 4.144531 0 7.5-3.359376 7.5-7.5v-5c0-4.140626-3.355469-7.5-7.5-7.5zm0 0"/><path d="m395.296875 396.023438c-4.140625 0-7.5 3.359374-7.5 7.5v5c0 4.140624 3.359375 7.5 7.5 7.5s7.5-3.359376 7.5-7.5v-5c0-4.140626-3.359375-7.5-7.5-7.5zm0 0"/><path d="m431.851562 408.523438c0 4.140624 3.359376 7.5 7.5 7.5 4.140626 0 7.5-3.359376 7.5-7.5v-5c0-4.140626-3.359374-7.5-7.5-7.5-4.140624 0-7.5 3.359374-7.5 7.5zm0 0"/><path d="m68.53125 239.355469c0-4.144531-3.359375-7.5-7.5-7.5s-7.5 3.355469-7.5 7.5v5c0 4.140625 3.359375 7.5 7.5 7.5s7.5-3.359375 7.5-7.5zm0 0"/><path d="m105.085938 231.855469c-4.144532 0-7.5 3.355469-7.5 7.5v5c0 4.140625 3.355468 7.5 7.5 7.5 4.140624 0 7.5-3.359375 7.5-7.5v-5c0-4.144531-3.359376-7.5-7.5-7.5zm0 0"/><path d="m31.503906 279.378906v5c0 4.140625 3.359375 7.5 7.5 7.5s7.5-3.359375 7.5-7.5v-5c0-4.144531-3.359375-7.5-7.5-7.5s-7.5 3.355469-7.5 7.5zm0 0"/><path d="m75.558594 279.378906v5c0 4.140625 3.355468 7.5 7.5 7.5 4.140625 0 7.5-3.359375 7.5-7.5v-5c0-4.144531-3.359375-7.5-7.5-7.5-4.144532 0-7.5 3.355469-7.5 7.5zm0 0"/><path d="m127.109375 291.878906c4.144531 0 7.5-3.359375 7.5-7.5v-5c0-4.144531-3.355469-7.5-7.5-7.5-4.140625 0-7.5 3.355469-7.5 7.5v5c0 4.140625 3.359375 7.5 7.5 7.5zm0 0"/><path d="m61.03125 311.09375c-4.140625 0-7.5 3.355469-7.5 7.5v5c0 4.140625 3.359375 7.5 7.5 7.5s7.5-3.359375 7.5-7.5v-5c0-4.144531-3.359375-7.5-7.5-7.5zm0 0"/><path d="m105.085938 311.09375c-4.144532 0-7.5 3.355469-7.5 7.5v5c0 4.140625 3.355468 7.5 7.5 7.5 4.140624 0 7.5-3.359375 7.5-7.5v-5c0-4.144531-3.359376-7.5-7.5-7.5zm0 0"/><path d="m156.636719 323.59375v-5c0-4.144531-3.355469-7.5-7.5-7.5-4.140625 0-7.5 3.355469-7.5 7.5v5c0 4.140625 3.359375 7.5 7.5 7.5 4.144531 0 7.5-3.359375 7.5-7.5zm0 0"/></svg>