<svg height="512pt" viewBox="-63 0 512 512" width="512pt" xmlns="http://www.w3.org/2000/svg"><path d="m327.5 504.5h-270c-27.613281 0-50-22.386719-50-50v-397c0-27.613281 22.386719-50 50-50h270c27.613281 0 50 22.386719 50 50v397c0 27.613281-22.386719 50-50 50zm0 0" fill="#bbeded"/><path d="m327.5 7.5h-30c27.613281 0 50 22.386719 50 50v397c0 27.613281-22.386719 50-50 50h30c27.613281 0 50-22.386719 50-50v-397c0-27.613281-22.386719-50-50-50zm0 0" fill="#ace0e0"/><path d="m57.5 474.5c-11.027344 0-20-8.972656-20-20v-397c0-11.027344 8.972656-20 20-20h270c11.027344 0 20 8.972656 20 20v397c0 11.027344-8.972656 20-20 20zm0 0" fill="#d1ffff"/><path d="m264.882812 179.28125h-144.765624c-21.449219 0-39-17.546875-39-39v-22c0-21.449219 17.550781-39 39-39h144.765624c21.449219 0 39 17.550781 39 39v22c0 21.453125-17.550781 39-39 39zm0 0" fill="#fd825e"/><path d="m264.882812 79.28125h-30c21.449219 0 39 17.550781 39 39v22c0 21.453125-17.550781 39-39 39h30c21.449219 0 39-17.546875 39-39v-22c0-21.449219-17.550781-39-39-39zm0 0" fill="#eb6044"/><path d="m264.882812 306h-144.765624c-21.449219 0-39-17.550781-39-39v-22c0-21.449219 17.550781-39 39-39h144.765624c21.449219 0 39 17.550781 39 39v22c0 21.449219-17.550781 39-39 39zm0 0" fill="#fd825e"/><path d="m264.882812 206h-30c21.449219 0 39 17.550781 39 39v22c0 21.449219-17.550781 39-39 39h30c21.449219 0 39-17.550781 39-39v-22c0-21.449219-17.550781-39-39-39zm0 0" fill="#eb6044"/><path d="m264.882812 432.71875h-144.765624c-21.449219 0-39-17.550781-39-39v-22c0-21.453125 17.550781-39 39-39h144.765624c21.449219 0 39 17.546875 39 39v22c0 21.449219-17.550781 39-39 39zm0 0" fill="#fd825e"/><path d="m264.882812 332.71875h-30c21.449219 0 39 17.546875 39 39v22c0 21.449219-17.550781 39-39 39h30c21.449219 0 39-17.550781 39-39v-22c0-21.453125-17.550781-39-39-39zm0 0" fill="#eb6044"/><path d="m120.117188 186.785156h144.765624c25.640626 0 46.5-20.859375 46.5-46.5v-22c0-25.640625-20.859374-46.5-46.5-46.5h-144.765624c-25.640626 0-46.5 20.859375-46.5 46.5v22c0 25.640625 20.859374 46.5 46.5 46.5zm-31.5-68.503906c0-17.367188 14.128906-31.5 31.5-31.5h144.765624c17.371094 0 31.5 14.132812 31.5 31.5v22c0 17.1875-13.832031 31.191406-30.949218 31.488281v-40.28125c0-4.140625-3.355469-7.5-7.5-7.5-4.144532 0-7.5 3.359375-7.5 7.5v40.292969h-28.621094v-40.292969c0-4.140625-3.359375-7.5-7.5-7.5-4.144531 0-7.5 3.359375-7.5 7.5v40.292969h-28.625v-40.292969c0-4.140625-3.355469-7.5-7.5-7.5-4.140625 0-7.5 3.359375-7.5 7.5v40.292969h-28.621094v-40.292969c0-4.140625-3.359375-7.5-7.5-7.5s-7.5 3.359375-7.5 7.5v40.28125c-17.117187-.296875-30.949218-14.300781-30.949218-31.488281zm0 0"/><path d="m73.617188 267c0 25.640625 20.859374 46.5 46.5 46.5h144.765624c25.640626 0 46.5-20.859375 46.5-46.5v-22c0-25.640625-20.859374-46.5-46.5-46.5h-8.300781c-4.140625 0-7.5 3.359375-7.5 7.5s3.359375 7.5 7.5 7.5h8.300781c17.371094 0 31.5 14.132812 31.5 31.5v22c0 17.183594-13.832031 31.191406-30.949218 31.484375v-40.277344c0-4.140625-3.355469-7.5-7.5-7.5-4.144532 0-7.5 3.359375-7.5 7.5v40.292969h-28.621094v-40.292969c0-4.140625-3.359375-7.5-7.5-7.5-4.144531 0-7.5 3.359375-7.5 7.5v40.292969h-28.625v-40.292969c0-4.140625-3.355469-7.5-7.5-7.5-4.140625 0-7.5 3.359375-7.5 7.5v40.292969h-28.621094v-40.292969c0-4.140625-3.359375-7.5-7.5-7.5s-7.5 3.359375-7.5 7.5v40.28125c-17.117187-.296875-30.949218-14.304687-30.949218-31.488281v-22c0-17.367188 14.128906-31.5 31.5-31.5h104.464843c4.144531 0 7.5-3.355469 7.5-7.5 0-4.140625-3.355469-7.5-7.5-7.5h-104.464843c-25.640626 0-46.5 20.859375-46.5 46.5zm0 0"/><path d="m73.617188 393.71875c0 25.636719 20.859374 46.5 46.5 46.5h144.765624c25.640626 0 46.5-20.859375 46.5-46.5v-22c0-25.640625-20.859374-46.5-46.5-46.5h-144.765624c-25.640626 0-46.5 20.859375-46.5 46.5zm15-22.003906c0-17.367188 14.128906-31.5 31.5-31.5h144.765624c17.371094 0 31.5 14.132812 31.5 31.5v22c0 17.183594-13.832031 31.191406-30.949218 31.488281v-40.28125c0-4.140625-3.355469-7.5-7.5-7.5-4.144532 0-7.5 3.359375-7.5 7.5v40.292969h-28.621094v-40.292969c0-4.140625-3.359375-7.5-7.5-7.5-4.144531 0-7.5 3.359375-7.5 7.5v40.292969h-28.625v-40.292969c0-4.140625-3.355469-7.5-7.5-7.5-4.140625 0-7.5 3.359375-7.5 7.5v40.292969h-28.621094v-40.292969c0-4.140625-3.359375-7.5-7.5-7.5s-7.5 3.359375-7.5 7.5v40.28125c-17.117187-.296875-30.949218-14.304687-30.949218-31.488281zm0 0"/><path d="m327.5 0h-270c-31.707031 0-57.5 25.792969-57.5 57.5v38.5c0 4.140625 3.359375 7.5 7.5 7.5s7.5-3.359375 7.5-7.5v-38.5c0-23.433594 19.066406-42.5 42.5-42.5h270c23.433594 0 42.5 19.066406 42.5 42.5v397c0 23.433594-19.066406 42.5-42.5 42.5h-270c-23.433594 0-42.5-19.066406-42.5-42.5v-326.832031c0-4.144531-3.359375-7.5-7.5-7.5s-7.5 3.355469-7.5 7.5v326.832031c0 31.707031 25.792969 57.5 57.5 57.5h270c31.707031 0 57.5-25.792969 57.5-57.5v-397c0-31.707031-25.792969-57.5-57.5-57.5zm0 0"/><path d="m327.5 30h-270c-15.164062 0-27.5 12.335938-27.5 27.5v397c0 15.164062 12.335938 27.5 27.5 27.5h270c15.164062 0 27.5-12.335938 27.5-27.5v-38.417969c0-4.140625-3.355469-7.5-7.5-7.5s-7.5 3.359375-7.5 7.5v38.417969c0 6.894531-5.605469 12.5-12.5 12.5h-270c-6.894531 0-12.5-5.605469-12.5-12.5v-14.285156h15.167969c4.140625 0 7.5-3.355469 7.5-7.5 0-4.140625-3.359375-7.5-7.5-7.5h-15.167969v-209.003906h19.832031c4.144531 0 7.5-3.359376 7.5-7.5 0-4.140626-3.355469-7.5-7.5-7.5h-19.832031v-109.585938h15.167969c4.140625 0 7.5-3.359375 7.5-7.5s-3.359375-7.5-7.5-7.5h-15.167969v-19.125c0-6.894531 5.605469-12.5 12.5-12.5h270c6.894531 0 12.5 5.605469 12.5 12.5v114.285156h-18.300781c-4.144531 0-7.5 3.355469-7.5 7.5 0 4.140625 3.355469 7.5 7.5 7.5h18.300781v134.648438h-33.890625c-4.144531 0-7.5 3.359375-7.5 7.5 0 4.144531 3.355469 7.5 7.5 7.5h33.890625v47.648437c0 4.144531 3.355469 7.5 7.5 7.5s7.5-3.355469 7.5-7.5c0-7.609375 0-316.570312 0-326.582031 0-15.164062-12.335938-27.5-27.5-27.5zm0 0"/></svg>