<svg height="512pt" viewBox="-57 0 512 512" width="512pt" xmlns="http://www.w3.org/2000/svg"><path d="m187.5 248.039062v236.460938c0 11.046875-8.953125 20-20 20h-140c-11.046875 0-20-8.953125-20-20v-236.460938c0-28.945312 10.175781-56.96875 28.75-79.171874 18.574219-22.203126 28.75-50.226563 28.75-79.175782v-48.042968h65v48.042968c0 28.949219 10.175781 56.972656 28.75 79.175782 18.574219 22.203124 28.75 50.226562 28.75 79.171874zm0 0" fill="#fe5555"/><path d="m158.75 168.867188c-18.574219-22.203126-28.75-50.226563-28.75-79.175782v-48.042968h-30v48.042968c0 28.949219 10.175781 56.972656 28.75 79.175782 18.574219 22.203124 28.75 50.226562 28.75 79.171874v236.460938c0 11.046875-8.953125 20-20 20h30c11.046875 0 20-8.953125 20-20v-236.460938c0-28.945312-10.175781-56.96875-28.75-79.171874zm0 0" fill="#e84141"/><path d="m390.5 308.007812v166.492188c0 16.570312-13.429688 30-30 30h-120c-16.570312 0-30-13.429688-30-30v-166.492188c0-15.074218 5.3125-29.667968 15-41.214843 9.6875-11.550781 15-26.140625 15-41.214844v-11.078125h120v11.078125c0 15.074219 5.3125 29.664063 15 41.214844 9.6875 11.546875 15 26.140625 15 41.214843zm0 0" fill="#3bd387"/><path d="m375.5 266.792969c-9.6875-11.550781-15-26.140625-15-41.214844v-11.078125h-30v11.078125c0 15.074219 5.3125 29.664063 15 41.214844 9.6875 11.546875 15 26.140625 15 41.214843v166.492188c0 16.570312-13.429688 30-30 30h30c16.570312 0 30-13.429688 30-30v-166.492188c0-15.074218-5.3125-29.667968-15-41.214843zm0 0" fill="#37c487"/><path d="m7.5 268h180v154h-180zm0 0" fill="#3bd387"/><path d="m157.5 268h30v154h-30zm0 0" fill="#37c487"/><path d="m210.5 314h180v154h-180zm0 0" fill="#ffd659"/><path d="m360.5 314h30v154h-30zm0 0" fill="#ffbd54"/><path d="m124.523438 320.121094c8.398437 8.398437 6.277343 24.132812-8.484376 38.894531-17.769531 17.765625-53.800781 27.511719-59.042968 22.273437-4.03125-4.03125 14.71875-21.777343 26.496094-47.988281 11.707031-26.046875 32.636718-21.574219 41.03125-13.179687zm0 0" fill="#fe5555"/><path d="m366.5 232h-132c-2.210938 0-4-1.789062-4-4v-92c0-2.210938 1.789062-4 4-4h132c2.210938 0 4 1.789062 4 4v92c0 2.210938-1.789062 4-4 4zm0 0" fill="#fe5555"/><path d="m366.5 132h-30c2.210938 0 4 1.789062 4 4v92c0 2.210938-1.789062 4-4 4h30c2.210938 0 4-1.789062 4-4v-92c0-2.210938-1.789062-4-4-4zm0 0" fill="#e84141"/><path d="m133.5 67.5h-72c-2.210938 0-4-1.789062-4-4v-52c0-2.210938 1.789062-4 4-4h72c2.210938 0 4 1.789062 4 4v52c0 2.210938-1.789062 4-4 4zm0 0" fill="#4c779f"/><path d="m133.5 7.5h-30c2.210938 0 4 1.789062 4 4v52c0 2.210938-1.789062 4-4 4h30c2.210938 0 4-1.789062 4-4v-52c0-2.210938-1.789062-4-4-4zm0 0" fill="#3a5c7a"/><path d="m324.566406 362.179688c8.394532 8.394531 6.273438 24.132812-8.484375 38.890624-17.769531 17.769532-53.804687 27.515626-59.042969 22.273438-4.03125-4.03125 14.714844-21.777344 26.496094-47.988281 11.703125-26.046875 32.632813-21.574219 41.03125-13.175781zm0 0" fill="#fe5555"/><path d="m164.503906 164.058594c-17.414062-20.828125-27.003906-47.238282-27.003906-74.367188v-15.421875c4.371094-1.632812 7.5-5.835937 7.5-10.769531v-52c0-6.339844-5.160156-11.5-11.5-11.5h-72c-6.339844 0-11.5 5.160156-11.5 11.5v52c0 4.933594 3.128906 9.136719 7.5 10.769531v15.421875c0 13.542969-2.34375 26.851563-6.960938 39.554688-4.621093 12.722656-11.363281 24.4375-20.042968 34.8125-19.664063 23.507812-30.496094 53.335937-30.496094 83.980468v236.460938c0 15.164062 12.335938 27.5 27.5 27.5h140c15.164062 0 27.5-12.335938 27.5-27.5v-236.460938c0-15.296874-2.644531-30.328124-7.859375-44.679687-5.226563-14.375-12.839844-27.597656-22.636719-39.300781zm-99.503906-149.058594h65v45h-65zm-22.996094 158.679688c9.800782-11.71875 17.414063-24.941407 22.636719-39.308594 5.214844-14.351563 7.859375-29.386719 7.859375-44.679688v-14.691406h50v14.691406c0 30.640625 10.828125 60.46875 30.496094 83.992188 8.675781 10.363281 15.417968 22.074218 20.042968 34.796875 4.617188 12.707031 6.960938 26.015625 6.960938 39.558593v12.460938h-109c-4.144531 0-7.5 3.359375-7.5 7.5s3.355469 7.5 7.5 7.5h109v139h-165v-139h24.082031c4.144531 0 7.5-3.359375 7.5-7.5s-3.355469-7.5-7.5-7.5h-24.082031v-12.460938c0-27.132812 9.589844-53.539062 27.003906-74.359374zm125.496094 323.320312h-140c-6.894531 0-12.5-5.605469-12.5-12.5v-55h165v55c0 6.894531-5.605469 12.5-12.5 12.5zm0 0"/><path d="m393.679688 283.523438c-2.851563-7.863282-7.03125-15.113282-12.4375-21.554688-5.621094-6.699219-9.558594-14.511719-11.605469-22.914062 4.816406-1.371094 8.363281-5.800782 8.363281-11.054688v-92c0-6.339844-5.160156-11.5-11.5-11.5h-71.5c-4.144531 0-7.5 3.359375-7.5 7.5s3.355469 7.5 7.5 7.5h68v85h-15v-22.5c0-4.140625-3.355469-7.5-7.5-7.5s-7.5 3.359375-7.5 7.5v22.5h-25v-22.5c0-4.140625-3.355469-7.5-7.5-7.5s-7.5 3.359375-7.5 7.5v22.5h-25v-22.5c0-4.140625-3.355469-7.5-7.5-7.5s-7.5 3.359375-7.5 7.5v22.5h-15v-85h24.75c4.144531 0 7.5-3.359375 7.5-7.5s-3.355469-7.5-7.5-7.5h-28.25c-6.339844 0-11.5 5.160156-11.5 11.5v92c0 5.246094 3.535156 9.675781 8.347656 11.050781-.488281 1.988281-1.066406 3.957031-1.769531 5.894531-2.25 6.207032-5.554687 11.9375-9.824219 17.023438-10.804687 12.878906-16.753906 29.230469-16.753906 46.042969v166.488281c0 20.679688 16.820312 37.5 37.5 37.5h120c20.679688 0 37.5-16.820312 37.5-37.5v-26.582031c0-4.144531-3.355469-7.5-7.5-7.5s-7.5 3.355469-7.5 7.5v12.582031h-165v-139h165v94.332031c0 4.144531 3.355469 7.5 7.5 7.5s7.5-3.355469 7.5-7.5v-107.820312c0-8.386719-1.453125-16.628907-4.320312-24.488281zm-162.433594-11.914063c5.398437-6.4375 9.582031-13.6875 12.433594-21.546875 1.253906-3.449219 2.234374-6.980469 2.945312-10.5625h107.757812c2.328126 11.8125 7.5625 22.808594 15.371094 32.109375 4.269532 5.089844 7.574219 10.820313 9.828125 17.039063 2.097657 5.746093 3.222657 11.746093 3.386719 17.851562h-164.9375c.34375-12.757812 4.996094-25.09375 13.214844-34.890625zm129.253906 225.390625h-120c-12.070312 0-21.949219-9.554688-22.476562-21.5h164.949218c-.523437 11.945312-10.402344 21.5-22.472656 21.5zm0 0"/><path d="m63.046875 390.179688c5.015625 0 11.851563-1.15625 21.167969-4.292969 14.90625-5.019531 28.441406-12.882813 37.128906-21.570313 14.4375-14.4375 19.160156-31.226562 12.960938-43.367187l9.5625-9.558594c2.929687-2.929687 2.929687-7.679687-.003907-10.605469-2.925781-2.929687-7.675781-2.929687-10.605469 0l-9.464843 9.464844c-6.203125-3.546875-13.765625-4.972656-20.796875-3.683594-7.808594 1.433594-18.71875 6.703125-26.34375 23.660156-5.488282 12.214844-12.515625 22.417969-18.160156 30.617188-3.132813 4.550781-5.605469 8.144531-7.253907 11.257812-3.222656 6.089844-3.070312 10.964844.457031 14.492188 1.910157 1.910156 5.308594 3.585938 11.351563 3.585938zm7.800781-20.828126c5.671875-8.242187 13.441406-19.523437 19.488282-32.976562 3.917968-8.722656 9.234374-13.929688 15.367187-15.054688.886719-.164062 1.769531-.238281 2.636719-.238281 4.488281 0 8.558594 2.023438 10.882812 4.34375 5.734375 5.738281 2.167969 17.632813-8.484375 28.285157-12.050781 12.050781-32.785156 19.367187-43.621093 21.132812 1.179687-1.789062 2.515624-3.730469 3.730468-5.492188zm0 0"/><path d="m343.90625 342.839844c-2.929688-2.929688-7.679688-2.929688-10.605469 0l-9.464843 9.464844c-6.203126-3.542969-13.765626-4.972657-20.800782-3.683594-7.808594 1.433594-18.71875 6.703125-26.339844 23.660156-5.492187 12.214844-12.515624 22.417969-18.160156 30.617188-3.132812 4.550781-5.609375 8.144531-7.257812 11.257812-3.222656 6.089844-3.066406 10.964844.457031 14.488281 1.910156 1.914063 5.3125 3.589844 11.355469 3.589844 5.011718 0 11.851562-1.15625 21.164062-4.292969 14.910156-5.019531 28.441406-12.882812 37.132813-21.570312 14.4375-14.4375 19.15625-31.226563 12.960937-43.367188l9.558594-9.558594c2.929688-2.929687 2.929688-7.675781 0-10.605468zm-33.128906 52.925781c-12.050782 12.050781-32.785156 19.367187-43.621094 21.132813 1.179688-1.785157 2.519531-3.730469 3.730469-5.492188 5.671875-8.242188 13.441406-19.523438 19.488281-32.976562 3.921875-8.722657 9.234375-13.929688 15.367188-15.054688.890624-.164062 1.769531-.238281 2.636718-.238281 4.492188 0 8.558594 2.023437 10.882813 4.347656 5.734375 5.734375 2.167969 17.628906-8.484375 28.28125zm0 0"/></svg>