<svg height="512pt" viewBox="-58 0 512 512" width="512pt" xmlns="http://www.w3.org/2000/svg"><path d="m383.5 504.5h-372c-2.210938 0-4-1.789062-4-4v-489c0-2.210938 1.789062-4 4-4h372c2.210938 0 4 1.789062 4 4v489c0 2.210938-1.789062 4-4 4zm0 0" fill="#3a5c7a"/><path d="m383.5 7.5h-30c2.210938 0 4 1.789062 4 4v489c0 2.210938-1.789062 4-4 4h30c2.210938 0 4-1.789062 4-4v-489c0-2.210938-1.789062-4-4-4zm0 0" fill="#355570"/><path d="m37.5 470.5v-429c0-2.210938 1.789062-4 4-4h312c2.210938 0 4 1.789062 4 4v429c0 2.210938-1.789062 4-4 4h-312c-2.210938 0-4-1.789062-4-4zm0 0" fill="#60d9fe"/><path d="m353.5 37.5h-30c2.210938 0 4 1.789062 4 4v429c0 2.210938-1.789062 4-4 4h30c2.210938 0 4-1.789062 4-4v-429c0-2.210938-1.789062-4-4-4zm0 0" fill="#40ccf7"/><path d="m37.5 166h320v30h-320zm0 0" fill="#4c779f"/><path d="m37.5 316h320v30h-320zm0 0" fill="#4c779f"/><path d="m327.5 166h30v30h-30zm0 0" fill="#3a5c7a"/><path d="m327.5 316h30v30h-30zm0 0" fill="#3a5c7a"/><g fill="#fe5555"><path d="m107.5 166h-30c-2.761719 0-5-2.238281-5-5v-50c0-2.761719 2.238281-5 5-5h30c2.761719 0 5 2.238281 5 5v50c0 2.761719-2.238281 5-5 5zm0 0"/><path d="m177.5 166h-30c-2.761719 0-5-2.238281-5-5v-50c0-2.761719 2.238281-5 5-5h30c2.761719 0 5 2.238281 5 5v50c0 2.761719-2.238281 5-5 5zm0 0"/><path d="m247.5 166h-30c-2.761719 0-5-2.238281-5-5v-50c0-2.761719 2.238281-5 5-5h30c2.761719 0 5 2.238281 5 5v50c0 2.761719-2.238281 5-5 5zm0 0"/><path d="m317.5 166h-30c-2.761719 0-5-2.238281-5-5v-50c0-2.761719 2.238281-5 5-5h30c2.761719 0 5 2.238281 5 5v50c0 2.761719-2.238281 5-5 5zm0 0"/></g><path d="m107.5 316h-30c-2.761719 0-5-2.238281-5-5v-50c0-2.761719 2.238281-5 5-5h30c2.761719 0 5 2.238281 5 5v50c0 2.761719-2.238281 5-5 5zm0 0" fill="#ffd659"/><path d="m177.5 316h-30c-2.761719 0-5-2.238281-5-5v-50c0-2.761719 2.238281-5 5-5h30c2.761719 0 5 2.238281 5 5v50c0 2.761719-2.238281 5-5 5zm0 0" fill="#ffd659"/><path d="m247.5 316h-30c-2.761719 0-5-2.238281-5-5v-50c0-2.761719 2.238281-5 5-5h30c2.761719 0 5 2.238281 5 5v50c0 2.761719-2.238281 5-5 5zm0 0" fill="#ffd659"/><path d="m317.5 316h-30c-2.761719 0-5-2.238281-5-5v-50c0-2.761719 2.238281-5 5-5h30c2.761719 0 5 2.238281 5 5v50c0 2.761719-2.238281 5-5 5zm0 0" fill="#ffd659"/><path d="m107.5 474.5h-30c-2.761719 0-5-2.238281-5-5v-50c0-2.761719 2.238281-5 5-5h30c2.761719 0 5 2.238281 5 5v50c0 2.761719-2.238281 5-5 5zm0 0" fill="#8cf2ff"/><path d="m177.5 474.5h-30c-2.761719 0-5-2.238281-5-5v-50c0-2.761719 2.238281-5 5-5h30c2.761719 0 5 2.238281 5 5v50c0 2.761719-2.238281 5-5 5zm0 0" fill="#8cf2ff"/><path d="m247.5 474.5h-30c-2.761719 0-5-2.238281-5-5v-50c0-2.761719 2.238281-5 5-5h30c2.761719 0 5 2.238281 5 5v50c0 2.761719-2.238281 5-5 5zm0 0" fill="#8cf2ff"/><path d="m317.5 474.5h-30c-2.761719 0-5-2.238281-5-5v-50c0-2.761719 2.238281-5 5-5h30c2.761719 0 5 2.238281 5 5v50c0 2.761719-2.238281 5-5 5zm0 0" fill="#8cf2ff"/><path d="m357.5 423.417969c4.140625 0 7.5-3.359375 7.5-7.5v-374.417969c0-6.339844-5.160156-11.5-11.5-11.5h-312c-6.339844 0-11.5 5.160156-11.5 11.5v429c0 6.339844 5.160156 11.5 11.5 11.5h312c6.339844 0 11.5-5.160156 11.5-11.5v-22.6875c0-4.140625-3.359375-7.5-7.5-7.5s-7.5 3.359375-7.5 7.5v19.1875h-20v-47.5c0-6.894531-5.605469-12.5-12.5-12.5h-30c-6.894531 0-12.5 5.605469-12.5 12.5v47.5h-15v-47.5c0-6.894531-5.605469-12.5-12.5-12.5h-30c-6.894531 0-12.5 5.605469-12.5 12.5v47.5h-15v-47.5c0-6.894531-5.605469-12.5-12.5-12.5h-30c-6.894531 0-12.5 5.605469-12.5 12.5v47.5h-15v-47.5c0-6.894531-5.605469-12.5-12.5-12.5h-30c-6.894531 0-12.5 5.605469-12.5 12.5v47.5h-20v-113.5h24.5c4.140625 0 7.5-3.359375 7.5-7.5s-3.359375-7.5-7.5-7.5h-24.5v-15h305v15h-248.5c-4.140625 0-7.5 3.359375-7.5 7.5s3.359375 7.5 7.5 7.5h248.5v62.417969c0 4.140625 3.359375 7.5 7.5 7.5zm-42.5-1.417969v11h-25v-11zm-25 26h25v19h-25zm-45-26v11h-25v-11zm-25 26h25v19h-25zm-45-26v11h-25v-11zm-25 26h25v19h-25zm-45-26v11h-25v-11zm-25 26h25v19h-25zm-35-274.5h305v15h-305zm60-49h-25v-11h25zm-25 15h25v19h-25zm95-15h-25v-11h25zm-25 15h25v19h-25zm95-15h-25v-11h25zm-25 15h25v19h-25zm95-15h-25v-11h25zm-25 15h25v19h-25zm60-94.5v113.5h-20v-47.5c0-6.894531-5.605469-12.5-12.5-12.5h-30c-6.894531 0-12.5 5.605469-12.5 12.5v47.5h-15v-47.5c0-6.894531-5.605469-12.5-12.5-12.5h-30c-6.894531 0-12.5 5.605469-12.5 12.5v47.5h-15v-47.5c0-6.894531-5.605469-12.5-12.5-12.5h-30c-6.894531 0-12.5 5.605469-12.5 12.5v47.5h-15v-47.5c0-6.894531-5.605469-12.5-12.5-12.5h-30c-6.894531 0-12.5 5.605469-12.5 12.5v47.5h-20v-113.5zm-245 229.5h-25v-11h25zm-25 34v-19h25v19zm95-34h-25v-11h25zm-25 34v-19h25v19zm95-34h-25v-11h25zm-25 34v-19h25v19zm95-34h-25v-11h25zm-25 34v-19h25v19zm40 0v-47.5c0-6.894531-5.605469-12.5-12.5-12.5h-30c-6.894531 0-12.5 5.605469-12.5 12.5v47.5h-15v-47.5c0-6.894531-5.605469-12.5-12.5-12.5h-30c-6.894531 0-12.5 5.605469-12.5 12.5v47.5h-15v-47.5c0-6.894531-5.605469-12.5-12.5-12.5h-30c-6.894531 0-12.5 5.605469-12.5 12.5v47.5h-15v-47.5c0-6.894531-5.605469-12.5-12.5-12.5h-30c-6.894531 0-12.5 5.605469-12.5 12.5v47.5h-20v-105h305v105zm0 0"/><path d="m383.5 0h-372c-6.339844 0-11.5 5.160156-11.5 11.5v52.5c0 4.140625 3.359375 7.5 7.5 7.5s7.5-3.359375 7.5-7.5v-49h365v482h-365v-401.332031c0-4.144531-3.359375-7.5-7.5-7.5s-7.5 3.355469-7.5 7.5v404.832031c0 6.339844 5.160156 11.5 11.5 11.5h372c6.339844 0 11.5-5.160156 11.5-11.5v-489c0-6.339844-5.160156-11.5-11.5-11.5zm0 0"/></svg>