<svg height="512pt" viewBox="-60 0 512 512" width="512pt" xmlns="http://www.w3.org/2000/svg"><path d="m352.820312 117.457031.140626 347.089844c0 22.066406-17.847657 39.953125-39.863282 39.953125h-252.597656c22.023438 0 39.871094-17.886719 39.871094-39.953125l-.140625-347.089844c0-22.066406 17.847656-39.957031 39.863281-39.957031h243.402344c1.152344 0 1.394531 1.621094.289062 1.953125-11.75 3.554687-30.964844 13.160156-30.964844 38.003906zm0 0" fill="#edcfb2"/><path d="m259.6875 464.527344v-457.027344h-252.1875v457.027344c0 22.074218 17.816406 39.972656 39.800781 39.972656h252.199219c-21.992188 0-39.8125-17.898438-39.8125-39.972656zm0 0" fill="#fff0d0"/><path d="m391.90625 77.265625c-.617188-4.210937-4.152344-7.265625-8.410156-7.265625h-52.25c-4.140625 0-7.5 3.359375-7.5 7.5s3.359375 7.5 7.5 7.5h27.5625c-8.753906 8.332031-13.492188 19.453125-13.492188 32.464844l.140625 347.074218c0 17.898438-14.515625 32.460938-32.359375 32.460938h-13.601562c-17.816406 0-32.308594-14.566406-32.308594-32.472656v-16.613282c0-4.140624-3.359375-7.5-7.5-7.5s-7.5 3.359376-7.5 7.5v16.613282c0 12.546875 4.875 23.976562 12.828125 32.472656h-217.714844c-17.808593 0-32.300781-14.566406-32.300781-32.472656v-400.527344c0-4.140625-3.355469-7.5-7.5-7.5-4.140625 0-7.5 3.359375-7.5 7.5v400.527344c0 26.175781 21.21875 47.472656 47.300781 47.472656h265.796875c26.117188 0 47.359375-21.289062 47.359375-47.464844l-.140625-347.074218c0-19.0625 13.949219-27.289063 25.625-30.828126 4.074219-1.222656 6.582032-5.160156 5.964844-9.367187zm0 0"/><path d="m7.5 39c4.140625 0 7.5-3.359375 7.5-7.5v-16.5h237.1875v400.832031c0 4.144531 3.359375 7.5 7.5 7.5 4.144531 0 7.5-3.355469 7.5-7.5v-330.832031h32.3125c4.140625 0 7.5-3.359375 7.5-7.5s-3.359375-7.5-7.5-7.5h-32.3125v-62.5c0-4.140625-3.355469-7.5-7.5-7.5h-252.1875c-4.140625 0-7.5 3.359375-7.5 7.5v24c0 4.140625 3.359375 7.5 7.5 7.5zm0 0"/><path d="m213.832031 84.605469h-175.289062c-4.140625 0-7.5 3.359375-7.5 7.5s3.359375 7.5 7.5 7.5h175.289062c4.140625 0 7.5-3.359375 7.5-7.5s-3.355469-7.5-7.5-7.5zm0 0"/><path d="m146.335938 139.5h-109.117188c-4.140625 0-7.5 3.359375-7.5 7.5s3.359375 7.5 7.5 7.5h109.117188c4.140624 0 7.5-3.359375 7.5-7.5s-3.355469-7.5-7.5-7.5zm0 0"/><path d="m213.832031 139.355469h-33.332031c-4.140625 0-7.5 3.359375-7.5 7.5 0 4.144531 3.359375 7.5 7.5 7.5h33.332031c4.144531 0 7.5-3.355469 7.5-7.5 0-4.140625-3.355469-7.5-7.5-7.5zm0 0"/><path d="m146.335938 173.925781h-109.117188c-4.140625 0-7.5 3.359375-7.5 7.5 0 4.144531 3.359375 7.5 7.5 7.5h109.117188c4.140624 0 7.5-3.355469 7.5-7.5 0-4.140625-3.355469-7.5-7.5-7.5zm0 0"/><path d="m213.832031 173.785156h-33.332031c-4.140625 0-7.5 3.359375-7.5 7.5s3.359375 7.5 7.5 7.5h33.332031c4.144531 0 7.5-3.359375 7.5-7.5s-3.355469-7.5-7.5-7.5zm0 0"/><path d="m146.335938 208.355469h-109.117188c-4.140625 0-7.5 3.355469-7.5 7.5 0 4.140625 3.359375 7.5 7.5 7.5h109.117188c4.140624 0 7.5-3.359375 7.5-7.5 0-4.144531-3.355469-7.5-7.5-7.5zm0 0"/><path d="m213.832031 208.210938h-33.332031c-4.140625 0-7.5 3.359374-7.5 7.5 0 4.144531 3.359375 7.5 7.5 7.5h33.332031c4.144531 0 7.5-3.355469 7.5-7.5 0-4.140626-3.355469-7.5-7.5-7.5zm0 0"/><path d="m146.335938 242.78125h-109.117188c-4.140625 0-7.5 3.359375-7.5 7.5 0 4.144531 3.359375 7.5 7.5 7.5h109.117188c4.140624 0 7.5-3.355469 7.5-7.5 0-4.140625-3.355469-7.5-7.5-7.5zm0 0"/><path d="m213.832031 242.640625h-33.332031c-4.140625 0-7.5 3.355469-7.5 7.5 0 4.140625 3.359375 7.5 7.5 7.5h33.332031c4.144531 0 7.5-3.359375 7.5-7.5 0-4.144531-3.355469-7.5-7.5-7.5zm0 0"/><path d="m146.335938 277.207031h-109.117188c-4.140625 0-7.5 3.359375-7.5 7.5 0 4.144531 3.359375 7.5 7.5 7.5h109.117188c4.140624 0 7.5-3.355469 7.5-7.5 0-4.140625-3.355469-7.5-7.5-7.5zm0 0"/><path d="m213.832031 277.066406h-33.332031c-4.140625 0-7.5 3.359375-7.5 7.5s3.359375 7.5 7.5 7.5h33.332031c4.144531 0 7.5-3.359375 7.5-7.5s-3.355469-7.5-7.5-7.5zm0 0"/><path d="m146.335938 311.636719h-109.117188c-4.140625 0-7.5 3.355469-7.5 7.5 0 4.140625 3.359375 7.5 7.5 7.5h109.117188c4.140624 0 7.5-3.359375 7.5-7.5 0-4.144531-3.355469-7.5-7.5-7.5zm0 0"/><path d="m213.832031 311.492188h-33.332031c-4.140625 0-7.5 3.359374-7.5 7.5 0 4.144531 3.359375 7.5 7.5 7.5h33.332031c4.144531 0 7.5-3.355469 7.5-7.5 0-4.140626-3.355469-7.5-7.5-7.5zm0 0"/><path d="m146.335938 346.0625h-109.117188c-4.140625 0-7.5 3.359375-7.5 7.5s3.359375 7.5 7.5 7.5h109.117188c4.140624 0 7.5-3.359375 7.5-7.5s-3.355469-7.5-7.5-7.5zm0 0"/><path d="m213.832031 345.921875h-33.332031c-4.140625 0-7.5 3.355469-7.5 7.5 0 4.140625 3.359375 7.5 7.5 7.5h33.332031c4.144531 0 7.5-3.359375 7.5-7.5 0-4.144531-3.355469-7.5-7.5-7.5zm0 0"/><path d="m146.335938 380.488281h-109.117188c-4.140625 0-7.5 3.359375-7.5 7.5 0 4.144531 3.359375 7.5 7.5 7.5h109.117188c4.140624 0 7.5-3.355469 7.5-7.5 0-4.140625-3.355469-7.5-7.5-7.5zm0 0"/><path d="m213.832031 380.347656h-33.332031c-4.140625 0-7.5 3.359375-7.5 7.5s3.359375 7.5 7.5 7.5h33.332031c4.144531 0 7.5-3.359375 7.5-7.5s-3.355469-7.5-7.5-7.5zm0 0"/><path d="m146.335938 414.917969h-109.117188c-4.140625 0-7.5 3.355469-7.5 7.5 0 4.140625 3.359375 7.5 7.5 7.5h109.117188c4.140624 0 7.5-3.359375 7.5-7.5 0-4.144531-3.355469-7.5-7.5-7.5zm0 0"/><path d="m213.832031 414.773438h-33.332031c-4.140625 0-7.5 3.359374-7.5 7.5 0 4.144531 3.359375 7.5 7.5 7.5h33.332031c4.144531 0 7.5-3.355469 7.5-7.5 0-4.140626-3.355469-7.5-7.5-7.5zm0 0"/></svg>