<svg height="512pt" viewBox="-49 0 512 512.00013" width="512pt" xmlns="http://www.w3.org/2000/svg"><path d="m201.285156 111.082031-39.875-39.878906c-5.449218-5.449219-5.449218-14.289063 0-19.738281l39.875-39.875c5.453125-5.453125 14.289063-5.453125 19.742188 0l39.875 39.875c5.453125 5.449218 5.453125 14.289062 0 19.738281l-39.875 39.878906c-5.453125 5.449219-14.289063 5.449219-19.742188 0zm0 0" fill="#ffa954"/><path d="m139.597656 128.230469-39.878906-39.875c-5.449219-5.453125-5.449219-14.289063 0-19.742188l39.878906-39.875c5.449219-5.449219 14.289063-5.449219 19.738282 0l39.875 39.875c5.453124 5.453125 5.453124 14.289063 0 19.742188l-39.875 39.875c-5.449219 5.449219-14.289063 5.449219-19.738282 0zm0 0" fill="#ffbd54"/><path d="m264.121094 121.519531-39.878906-39.878906c-5.449219-5.449219-5.449219-14.289063 0-19.738281l39.878906-39.875c5.449218-5.453125 14.289062-5.453125 19.738281 0l39.875 39.875c5.453125 5.449218 5.453125 14.289062 0 19.738281l-39.875 39.878906c-5.449219 5.449219-14.289063 5.449219-19.738281 0zm0 0" fill="#ffbd54"/><path d="m80.460938 159.101562-39.878907-39.875c-5.449219-5.453124-5.449219-14.289062 0-19.742187l39.878907-39.875c5.449218-5.449219 14.289062-5.449219 19.738281 0l39.875 39.875c5.453125 5.453125 5.453125 14.289063 0 19.742187l-39.875 39.875c-5.449219 5.453126-14.289063 5.453126-19.738281 0zm0 0" fill="#ffd659"/><path d="m320.953125 162.746094-39.875-39.875c-5.449219-5.453125-5.449219-14.289063 0-19.742188l39.875-39.875c5.453125-5.449218 14.289063-5.449218 19.742187 0l39.875 39.875c5.449219 5.453125 5.449219 14.289063 0 19.742188l-39.875 39.875c-5.453124 5.449218-14.289062 5.449218-19.742187 0zm0 0" fill="#ffd659"/><path d="m201.710938 165.191406-43.324219-43.328125c-5.925781-5.921875-5.925781-15.523437 0-21.445312l43.324219-43.328125c5.925781-5.921875 15.527343-5.921875 21.449218 0l43.328125 43.328125c5.921875 5.921875 5.921875 15.523437 0 21.445312l-43.328125 43.328125c-5.921875 5.921875-15.527344 5.921875-21.449218 0zm0 0" fill="#ffd659"/><path d="m401.5 143h-390c-2.207031 0-4-1.789062-4-4v-22c0-2.207031 1.792969-4 4-4h390c2.210938 0 4 1.792969 4 4v22c0 2.210938-1.789062 4-4 4zm0 0" fill="#edcfb2"/><path d="m401.5 113h-30c2.210938 0 4 1.792969 4 4v22c0 2.210938-1.789062 4-4 4h30c2.210938 0 4-1.789062 4-4v-22c0-2.207031-1.789062-4-4-4zm0 0" fill="#cfb49b"/><path d="m396.5 143v321.519531c0 22.082031-17.898438 39.980469-39.980469 39.980469h-149.941406v-361.5zm0 0" fill="#fff0d0"/><path d="m396.5 143v321.519531c0 22.082031-17.898438 39.980469-39.980469 39.980469h-30c22.082031 0 39.980469-17.898438 39.980469-39.980469v-321.519531zm0 0" fill="#edcfb2"/><path d="m309.820312 504.5h-253.339843c-22.082031 0-39.980469-17.898438-39.980469-39.980469v-321.519531h253.328125v321.519531c0 22.082031 17.902344 39.980469 39.992187 39.980469zm0 0" fill="#ffd659"/><path d="m309.820312 504.5h-30c-22.089843 0-39.992187-17.898438-39.992187-39.980469v-321.519531h30v321.519531c0 22.082031 17.902344 39.980469 39.992187 39.980469zm0 0" fill="#ffbd54"/><path d="m16.5 208h253v190h-253zm0 0" fill="#804d36"/><path d="m239.828125 208h29.671875v190h-29.671875zm0 0" fill="#663b29"/><g fill="#ffd659"><path d="m85.730469 287.757812-23.332031-23.328124c-3.1875-3.191407-3.1875-8.363282 0-11.550782l23.332031-23.328125c3.1875-3.191406 8.359375-3.191406 11.546875 0l23.328125 23.328125c3.191406 3.1875 3.191406 8.359375 0 11.550782l-23.328125 23.328124c-3.1875 3.1875-8.359375 3.1875-11.546875 0zm0 0"/><path d="m135.632812 360.066406-29.753906-29.757812c-4.070312-4.066406-4.070312-10.664063 0-14.730469l29.753906-29.757813c4.070313-4.066406 10.664063-4.066406 14.730469 0l29.757813 29.757813c4.070312 4.066406 4.070312 10.664063 0 14.730469l-29.757813 29.757812c-4.066406 4.066406-10.660156 4.066406-14.730469 0zm0 0"/><path d="m191.347656 279.816406-16.964844-16.964844c-2.320312-2.316406-2.320312-6.078124 0-8.394531l16.964844-16.96875c2.316406-2.316406 6.078125-2.316406 8.394532 0l16.96875 16.96875c2.316406 2.316407 2.316406 6.078125 0 8.394531l-16.96875 16.964844c-2.316407 2.320313-6.074219 2.320313-8.394532 0zm0 0"/><path d="m215.132812 369.894531-21.007812-21.007812c-2.871094-2.871094-2.871094-7.527344 0-10.398438l21.007812-21.011719c2.875-2.871093 7.527344-2.871093 10.402344 0l21.007813 21.011719c2.871093 2.871094 2.871093 7.527344 0 10.398438l-21.007813 21.007812c-2.875 2.875-7.527344 2.875-10.402344 0zm0 0"/><path d="m58.40625 361.589844-17.019531-17.019532c-2.324219-2.328124-2.324219-6.097656 0-8.425781l17.019531-17.019531c2.328125-2.328125 6.101562-2.328125 8.429688 0l17.019531 17.019531c2.324219 2.328125 2.324219 6.097657 0 8.425781l-17.019531 17.019532c-2.328126 2.328125-6.101563 2.328125-8.429688 0zm0 0"/></g><path d="m324.8125 214.945312v232.710938c0 4.144531 3.355469 7.5 7.5 7.5 4.140625 0 7.5-3.355469 7.5-7.5v-232.710938c0-4.144531-3.359375-7.5-7.5-7.5-4.144531 0-7.5 3.355469-7.5 7.5zm0 0"/><path d="m80.425781 293.054688c2.960938 2.960937 6.894531 4.589843 11.078125 4.589843s8.121094-1.628906 11.078125-4.589843l23.328125-23.328126c2.957032-2.960937 4.589844-6.894531 4.589844-11.078124 0-4.183594-1.632812-8.121094-4.589844-11.078126l-23.328125-23.328124c-2.960937-2.960938-6.894531-4.589844-11.078125-4.589844-4.1875 0-8.117187 1.628906-11.078125 4.585937l-23.328125 23.332031c-2.960937 2.957032-4.589844 6.890626-4.589844 11.078126 0 4.183593 1.628907 8.117187 4.589844 11.078124zm-12.722656-34.878907 23.328125-23.328125c.261719-.261718.6875-.257812.941406 0l23.332032 23.332032c.128906.128906.195312.285156.195312.46875 0 .183593-.066406.339843-.199219.472656l-23.328125 23.328125c-.257812.257812-.683594.261719-.941406 0l-23.328125-23.328125c-.128906-.128906-.195313-.289063-.195313-.472656 0-.183594.066407-.339844.195313-.472657zm0 0"/><path d="m100.574219 310.269531c-6.984375 6.988281-6.984375 18.351563 0 25.339844l29.757812 29.757813c3.382813 3.382812 7.882813 5.246093 12.667969 5.246093s9.285156-1.863281 12.667969-5.246093l29.757812-29.757813c6.984375-6.988281 6.984375-18.351563 0-25.339844l-29.757812-29.757812c-3.382813-3.382813-7.882813-5.246094-12.667969-5.246094s-9.285156 1.863281-12.667969 5.246094zm42.425781-20.003906c.449219 0 1.316406.109375 2.0625.851563l29.757812 29.757812c1.136719 1.140625 1.136719 2.988281 0 4.125l-29.757812 29.761719c-.742188.742187-1.609375.851562-2.0625.851562s-1.316406-.109375-2.0625-.851562l-29.757812-29.757813c-1.136719-1.140625-1.136719-2.988281 0-4.125l29.757812-29.761718c.746094-.742188 1.613281-.851563 2.0625-.851563zm0 0"/><path d="m186.042969 285.117188c2.539062 2.539062 5.914062 3.9375 9.503906 3.9375s6.964844-1.398438 9.503906-3.9375l16.964844-16.96875c5.234375-5.238282 5.234375-13.761719 0-19.003907l-16.964844-16.964843c-2.539062-2.539063-5.914062-3.9375-9.503906-3.9375s-6.964844 1.398437-9.503906 3.9375l-16.964844 16.964843c-2.539063 2.539063-3.9375 5.914063-3.9375 9.503907 0 3.589843 1.398437 6.964843 3.9375 9.503906zm9.503906-41.226563 14.757813 14.757813-14.757813 14.757812-14.757813-14.757812zm0 0"/><path d="m209.828125 312.171875-21.007813 21.007813c-5.789062 5.792968-5.789062 15.214843 0 21.007812l21.007813 21.007812c2.808594 2.808594 6.539063 4.351563 10.507813 4.351563 3.964843 0 7.695312-1.542969 10.503906-4.351563l21.007812-21.007812c5.789063-5.792969 5.789063-15.214844 0-21.007812l-21.007812-21.007813c-2.808594-2.808594-6.539063-4.351563-10.503906-4.351563-3.96875 0-7.699219 1.542969-10.507813 4.351563zm31.308594 31.511719-20.800781 20.804687-20.804688-20.804687 20.804688-20.804688zm0 0"/><path d="m36.085938 349.867188 17.019531 17.023437c2.625 2.621094 6.070312 3.933594 9.515625 3.933594 3.449218 0 6.894531-1.3125 9.519531-3.933594l17.019531-17.019531c2.539063-2.542969 3.941406-5.921875 3.941406-9.519532 0-3.59375-1.402343-6.972656-3.941406-9.515624l-17.019531-17.019532c-5.246094-5.246094-13.785156-5.246094-19.035156 0l-17.019531 17.019532c-5.246094 5.25-5.246094 13.785156 0 19.03125zm26.535156-24.355469 14.839844 14.839843-14.839844 14.839844-14.839844-14.839844zm0 0"/><path d="m401.5 105.488281h-10.707031c-1.0625-2.84375-2.707031-5.460937-4.917969-7.671875l-39.882812-39.882812c-5.683594-5.683594-13.800782-7.492188-21.046876-5.445313l-6.804687-6.804687c-2.933594-2.929688-7.683594-2.929688-10.609375 0-2.925781 2.929687-2.925781 7.679687.003906 10.609375l4.878906 4.878906-37.371093 37.445313-38.324219-38.589844 32.710938-32.710938c2.515624-2.519531 6.589843-2.539062 9.128906.003906l6.347656 6.347657c2.929688 2.925781 7.679688 2.925781 10.605469-.003907 2.929687-2.929687 2.929687-7.675781 0-10.605468l-6.34375-6.339844c-8.378907-8.394531-21.964844-8.40625-30.351563-.003906l-11.019531 11.019531-21.464844-21.460937c-8.363281-8.363282-21.976562-8.367188-30.347656 0l-24.246094 24.25-7.09375-7.097657c-8.371093-8.367187-21.980469-8.367187-30.347656 0l-29.886719 29.878907c-8.492187-7.417969-21.257812-7.003907-29.253906.992187l-39.878906 39.878906c-3.125 3.125-5.144532 7.09375-5.917969 11.316407h-17.859375c-6.339844 0-11.5 5.15625-11.5 11.5v22c0 5.480468 3.859375 10.070312 9 11.21875v1.613281c0 4.140625 3.355469 7.5 7.5 7.5s7.5-3.359375 7.5-7.5v-1.335938h238.328125v50.003907h-238.328125v-16.667969c0-4.140625-3.355469-7.5-7.5-7.5s-7.5 3.359375-7.5 7.5v280.695312c0 26.179688 21.300781 47.480469 47.480469 47.480469h300.039062c26.179688 0 47.480469-21.300781 47.480469-47.480469v-16.769531c0-4.144531-3.359375-7.5-7.5-7.5-4.144531 0-7.5 3.355469-7.5 7.5v16.769531c0 17.910157-14.570312 32.480469-32.480469 32.480469h-46.699219c-17.914062 0-32.492187-14.570312-32.492187-32.480469v-314.027343h111.671875v265.378906c0 4.144531 3.355469 7.5 7.5 7.5s7.5-3.355469 7.5-7.5v-265.660156c5.140625-1.148438 9-5.738282 9-11.21875v-22c0-6.34375-5.160156-11.503907-11.5-11.503907zm-139.171875 110.003907v175.003906h-238.328125v-175.003906zm-205.847656 281.507812c-17.910157 0-32.480469-14.570312-32.480469-32.480469v-59.023437h238.328125v59.023437c0 12.550781 4.898437 23.980469 12.882813 32.480469-6.527344 0-212.207032 0-218.730469 0zm278.90625-428.457031 36.949219 36.945312h-83.019532l36.933594-36.941406c2.519531-2.515625 6.621094-2.519531 9.136719-.003906zm-128.371094-6.160157c2.992187-2.992187 7.847656-2.992187 10.839844 0l43.109375 43.109376h-97.058594zm-.421875-45.5c2.519531-2.519531 6.617188-2.519531 9.132812 0l21.460938 21.460938-11.265625 11.269531c-3.882813-2.890625-8.558594-4.476562-13.488281-4.476562-11.199219 0-16.878906 7.734375-17.734375 8.34375l-12.351563-12.351563zm-61.691406 17.148438c2.519531-2.515625 6.617187-2.515625 9.132812 0l30.058594 30.058594-34.652344 33.535156-34.375-33.765625zm-99.019532 70.75 39.882813-39.878906c2.515625-2.519532 6.613281-2.519532 9.132813 0 42.394531 42.445312 39.921874 39.847656 40.476562 40.585937h-90.097656c.1875-.246093.382812-.484375.605468-.707031zm-30.882812 30.710938v-15h383v15zm0 0"/></svg>