<svg height="512pt" viewBox="-59 0 512 512" width="512pt" xmlns="http://www.w3.org/2000/svg"><path d="m361.5 504.5h-330c-13.253906 0-24-10.746094-24-24v-372c0-13.253906 10.746094-24 24-24h330c13.253906 0 24 10.746094 24 24v372c0 13.253906-10.746094 24-24 24zm0 0" fill="#bdf9ff"/><path d="m361.5 84.5h-30c13.253906 0 24 10.746094 24 24v372c0 13.253906-10.746094 24-24 24h30c13.253906 0 24-10.746094 24-24v-372c0-13.253906-10.746094-24-24-24zm0 0" fill="#8cf2ff"/><path d="m368.5 57.5h-344c-4.417969 0-8-3.582031-8-8v-34c0-4.417969 3.582031-8 8-8h344c4.417969 0 8 3.582031 8 8v34c0 4.417969-3.582031 8-8 8zm0 0" fill="#4c779f"/><path d="m368.5 7.5h-30c4.417969 0 8 3.582031 8 8v34c0 4.417969-3.582031 8-8 8h30c4.417969 0 8-3.582031 8-8v-34c0-4.417969-3.582031-8-8-8zm0 0" fill="#3a5c7a"/><path d="m385.5 136.898438v343.601562c0 13.25-10.75 24-24 24h-330c-13.25 0-24-10.75-24-24v-343.601562zm0 0" fill="#ff9e4a"/><path d="m385.5 136.898438v343.601562c0 13.25-10.75 24-24 24h-30c13.25 0 24-10.75 24-24v-343.601562zm0 0" fill="#fc843a"/><path d="m42 57.5h309v27h-309zm0 0" fill="#8cf2ff"/><path d="m294.5 319c0-66.273438-43.875-120-98-120s-98 53.726562-98 120 43.875 120 98 120 98-53.726562 98-120zm0 0" fill="#60d9fe"/><path d="m242.5 322.121094c0 29.371094-20.59375 58.667968-46 58.667968s-46-29.296874-46-58.667968 20.59375-47.695313 46-47.695313 46 18.324219 46 47.695313zm0 0" fill="#ffd659"/><path d="m196.5 274.425781c-5.253906 0-10.296875.796875-15 2.300781 18.035156 5.765626 31 22.097657 31 45.394532s-12.964844 46.53125-31 55.152344c4.703125 2.246093 9.746094 3.515624 15 3.515624 25.40625 0 46-29.296874 46-58.667968s-20.59375-47.695313-46-47.695313zm0 0" fill="#ffbd54"/><path d="m194.9375 255.296875c-6.5625 8.488281-1.207031 19.03125.441406 21.847656.277344.472657.722656.820313 1.253906.96875 3.140626.886719 14.6875 3.410157 21.25-5.078125 6.113282-7.90625 5.132813-21.785156 4.492188-27.039062-.144531-1.179688-1.222656-2.015625-2.402344-1.855469-5.242187.703125-18.921875 3.25-25.035156 11.15625zm0 0" fill="#3bd387"/><path d="m302 319c0-70.304688-47.328125-127.5-105.5-127.5s-105.5 57.195312-105.5 127.5 47.328125 127.5 105.5 127.5 105.5-57.195312 105.5-127.5zm-196 0c0-62.03125 40.597656-112.5 90.5-112.5s90.5 50.46875 90.5 112.5-40.597656 112.5-90.5 112.5-90.5-50.46875-90.5-112.5zm0 0"/><path d="m385.5 468.5c-4.144531 0-7.5 3.359375-7.5 7.5v4.5c0 9.097656-7.402344 16.5-16.5 16.5h-330c-9.097656 0-16.5-7.402344-16.5-16.5v-288.5c0-4.140625-3.355469-7.5-7.5-7.5s-7.5 3.359375-7.5 7.5v288.5c0 17.367188 14.132812 31.5 31.5 31.5h330c17.367188 0 31.5-14.132812 31.5-31.5v-4.5c0-4.140625-3.355469-7.5-7.5-7.5zm0 0"/><path d="m361.5 77h-3v-12h10c8.546875 0 15.5-6.953125 15.5-15.5v-34c0-8.546875-6.953125-15.5-15.5-15.5h-344c-8.546875 0-15.5 6.953125-15.5 15.5v34c0 8.546875 6.953125 15.5 15.5 15.5h10v12h-3c-17.367188 0-31.5 14.132812-31.5 31.5v51.25c0 4.140625 3.355469 7.5 7.5 7.5s7.5-3.359375 7.5-7.5v-15.351562h363v299.4375c0 4.140624 3.355469 7.5 7.5 7.5s7.5-3.359376 7.5-7.5v-335.335938c0-17.367188-14.132812-31.5-31.5-31.5zm-337.5-27.5v-34c0-.277344.226562-.5.5-.5h344c.273438 0 .5.222656.5.5v34c0 .277344-.226562.5-.5.5h-344c-.273438 0-.5-.222656-.5-.5zm-9 79.898438v-20.898438c0-9.097656 7.402344-16.5 16.5-16.5h260.667969c4.140625 0 7.5-3.359375 7.5-7.5s-3.359375-7.5-7.5-7.5h-242.667969v-12h294v12h-19.332031c-4.144531 0-7.5 3.359375-7.5 7.5s3.355469 7.5 7.5 7.5h37.332031c9.097656 0 16.5 7.402344 16.5 16.5v20.898438zm0 0"/><path d="m250 322.121094c0-20.335938-9.140625-37.515625-24.453125-47.097656 5.652344-9.589844 5.164063-22.625 4.273437-29.929688-.648437-5.328125-5.515624-9.105469-10.84375-8.386719-7.976562 1.070313-22.480468 4.3125-29.972656 14.003907-4.5 5.820312-5.246094 12.078124-4.550781 17.460937-24.816406 5.179687-41.453125 26.214844-41.453125 53.949219 0 35.25 25 66.167968 53.5 66.167968s53.5-30.917968 53.5-66.167968zm-49.128906-62.238282c2.695312-3.488281 8.578125-5.882812 14.472656-7.273437.140625 6.054687-.695312 12.351563-3.390625 15.835937-2.828125 3.660157-7.929687 3.488282-11.105469 2.941407-1.714844-3.804688-2.527344-8.203125.023438-11.503907zm-42.871094 62.238282c0-21.390625 12.671875-36.839844 31.976562-39.707032 1.214844 1.390626 2.804688 2.40625 4.617188 2.917969 5.8125 1.640625 12.625 1.914063 18.429688-.015625 13.816406 6.089844 21.976562 19.632813 21.976562 36.804688 0 26.78125-18.351562 51.167968-38.5 51.167968s-38.5-24.386718-38.5-51.167968zm0 0"/></svg>