<svg height="512pt" viewBox="-32 0 511 512" width="512pt" xmlns="http://www.w3.org/2000/svg"><path d="m224 135.5c-24.851562 0-45-20.148438-45-45v-38c0-24.851562 20.148438-45 45-45 24.855469 0 45 20.148438 45 45v38c0 24.851562-20.144531 45-45 45zm0 0" fill="#3bd387"/><path d="m224 7.5c-5.261719 0-10.304688.910156-15 2.570312 17.476562 6.179688 30 22.835938 30 42.429688v38c0 19.59375-12.523438 36.25-30 42.429688 4.695312 1.660156 9.738281 2.570312 15 2.570312 24.855469 0 45-20.148438 45-45v-38c0-24.851562-20.144531-45-45-45zm0 0" fill="#37c487"/><path d="m224 504.5c-21.664062 0-39.585938-17.007812-40.898438-38.816406l-14.996093-249.292969c-1.953125-32.472656 23.636719-59.890625 55.894531-59.890625 32.261719 0 57.847656 27.417969 55.894531 59.890625l-14.996093 249.292969c-1.3125 21.808594-19.234376 38.816406-40.898438 38.816406zm0 0" fill="#fe621d"/><path d="m224 156.5c-5.203125 0-10.230469.722656-15 2.054688 24.796875 6.933593 42.535156 30.601562 40.894531 57.835937l-14.996093 249.292969c-.992188 16.488281-11.480469 30.222656-25.898438 35.949218 4.65625 1.847657 9.714844 2.867188 15 2.867188 21.664062 0 39.585938-17.007812 40.898438-38.816406l14.996093-249.292969c1.953125-32.472656-23.632812-59.890625-55.894531-59.890625zm0 0" fill="#e04c0f"/><path d="m64 135.5c-24.851562 0-45-20.148438-45-45v-38c0-24.851562 20.148438-45 45-45 24.855469 0 45 20.148438 45 45v38c0 24.851562-20.144531 45-45 45zm0 0" fill="#3bd387"/><path d="m64 7.5c-5.261719 0-10.304688.910156-15 2.570312 17.476562 6.179688 30 22.835938 30 42.429688v38c0 19.59375-12.523438 36.25-30 42.429688 4.695312 1.660156 9.738281 2.570312 15 2.570312 24.855469 0 45-20.148438 45-45v-38c0-24.851562-20.144531-45-45-45zm0 0" fill="#37c487"/><path d="m64 504.5c-21.664062 0-39.585938-17.007812-40.898438-38.816406l-14.996093-249.292969c-1.953125-32.472656 23.636719-59.890625 55.894531-59.890625 32.261719 0 57.847656 27.417969 55.894531 59.890625l-14.996093 249.292969c-1.3125 21.808594-19.234376 38.816406-40.898438 38.816406zm0 0" fill="#fe621d"/><path d="m64 156.5c-5.203125 0-10.230469.722656-15 2.054688 24.796875 6.933593 42.535156 30.601562 40.894531 57.835937l-14.996093 249.292969c-.992188 16.488281-11.480469 30.222656-25.898438 35.949218 4.65625 1.847657 9.714844 2.867188 15 2.867188 21.664062 0 39.585938-17.007812 40.898438-38.816406l14.996093-249.292969c1.953125-32.472656-23.632812-59.890625-55.894531-59.890625zm0 0" fill="#e04c0f"/><path d="m384 135.5c-24.851562 0-45-20.148438-45-45v-38c0-24.851562 20.148438-45 45-45 24.855469 0 45 20.148438 45 45v38c0 24.851562-20.144531 45-45 45zm0 0" fill="#3bd387"/><path d="m384 7.5c-5.261719 0-10.304688.910156-15 2.570312 17.476562 6.179688 30 22.835938 30 42.429688v38c0 19.59375-12.523438 36.25-30 42.429688 4.695312 1.660156 9.738281 2.570312 15 2.570312 24.855469 0 45-20.148438 45-45v-38c0-24.851562-20.144531-45-45-45zm0 0" fill="#37c487"/><path d="m384 504.5c-21.664062 0-39.585938-17.007812-40.898438-38.816406l-14.996093-249.292969c-1.953125-32.472656 23.636719-59.890625 55.894531-59.890625 32.261719 0 57.847656 27.417969 55.894531 59.890625l-14.996093 249.292969c-1.3125 21.808594-19.234376 38.816406-40.898438 38.816406zm0 0" fill="#fe621d"/><path d="m384 156.5c-5.203125 0-10.230469.722656-15 2.054688 24.796875 6.933593 42.535156 30.601562 40.894531 57.835937l-14.996093 249.292969c-.992188 16.488281-11.480469 30.222656-25.898438 35.949218 4.65625 1.847657 9.714844 2.867188 15 2.867188 21.664062 0 39.585938-17.007812 40.898438-38.816406l14.996093-249.292969c1.953125-32.472656-23.632812-59.890625-55.894531-59.890625zm0 0" fill="#e04c0f"/><path d="m231.664062 149.472656v-7.035156c25.328126-3.722656 44.839844-25.589844 44.839844-51.9375v-38c0-28.945312-23.550781-52.5-52.5-52.5-28.949218 0-52.5 23.554688-52.5 52.5v38c0 26.457031 19.671875 48.394531 45.160156 51.976562v6.957032c-14.773437 1.6875-28.320312 8.457031-38.726562 19.507812-12.066406 12.816406-18.375 30.273438-17.316406 47.898438l14.996094 249.292968c1.546874 25.71875 22.800781 45.867188 48.386718 45.867188 25.582032 0 46.835938-20.148438 48.382813-45.867188l2.523437-41.902343c.246094-4.136719-2.902344-7.691407-7.039062-7.9375-4.121094-.261719-7.6875 2.898437-7.933594 7.035156l-2.523438 41.902344c-1.070312 17.816406-15.746093 31.769531-33.410156 31.769531-17.664062 0-32.34375-13.953125-33.414062-31.769531l-14.996094-249.292969c-.824219-13.714844 3.886719-26.753906 13.261719-36.710938 9.246093-9.820312 21.726562-15.226562 35.148437-15.226562 13.417969 0 25.898438 5.40625 35.144532 15.226562 9.378906 9.957032 14.089843 22.996094 13.261718 36.710938l-10.550781 175.390625c-.246094 4.136719 2.902344 7.6875 7.039063 7.9375 4.140624.246094 7.6875-2.902344 7.933593-7.035156l10.550781-175.390625c1.0625-17.625-5.25-35.085938-17.3125-47.898438-10.332031-10.96875-23.761718-17.71875-38.40625-19.46875zm-45.160156-58.972656v-38c0-20.679688 16.820313-37.5 37.5-37.5 20.675782 0 37.5 16.820312 37.5 37.5v38c0 18.054688-12.824218 33.164062-29.839844 36.710938v-16.519532l14.925782-8.886718c3.558594-2.121094 4.726562-6.722657 2.605468-10.28125-2.121093-3.558594-6.722656-4.726563-10.28125-2.609376l-7.25 4.320313v-12.4375l14.925782-8.890625c3.558594-2.117188 4.726562-6.722656 2.605468-10.28125-2.117187-3.558594-6.71875-4.726562-10.28125-2.605469l-7.25 4.320313v-4.339844c0-4.144531-3.359374-7.5-7.5-7.5-4.144531 0-7.5 3.355469-7.5 7.5v4.53125l-7.574218-4.511719c-3.558594-2.121093-8.164063-.953125-10.28125 2.605469-2.121094 3.558594-.953125 8.160156 2.605468 10.28125l15.25 9.082031v12.433594l-7.574218-4.507813c-3.558594-2.117187-8.164063-.953124-10.28125 2.605469-2.121094 3.558594-.953125 8.160157 2.605468 10.28125l15.25 9.082031v16.386719c-17.175781-3.417969-30.160156-18.605469-30.160156-36.769531zm0 0"/><path d="m249.996094 218.222656h-50c-4.140625 0-7.5 3.359375-7.5 7.5 0 4.144532 3.359375 7.5 7.5 7.5h50c4.140625 0 7.5-3.355468 7.5-7.5 0-4.140625-3.359375-7.5-7.5-7.5zm0 0"/><path d="m248.394531 259.277344h-46.800781c-4.140625 0-7.5 3.359375-7.5 7.5 0 4.144531 3.359375 7.5 7.5 7.5h46.800781c4.140625 0 7.5-3.355469 7.5-7.5 0-4.140625-3.355469-7.5-7.5-7.5zm0 0"/><path d="m246.792969 300.335938h-43.597657c-4.144531 0-7.5 3.355468-7.5 7.5 0 4.140624 3.355469 7.5 7.5 7.5h43.597657c4.144531 0 7.5-3.359376 7.5-7.5 0-4.144532-3.355469-7.5-7.5-7.5zm0 0"/><path d="m245.195312 341.390625h-40.402343c-4.140625 0-7.5 3.355469-7.5 7.5 0 4.140625 3.359375 7.5 7.5 7.5h40.402343c4.140626 0 7.5-3.359375 7.5-7.5 0-4.144531-3.359374-7.5-7.5-7.5zm0 0"/><path d="m243.59375 382.445312h-37.199219c-4.140625 0-7.5 3.355469-7.5 7.5 0 4.140626 3.359375 7.5 7.5 7.5h37.199219c4.144531 0 7.5-3.359374 7.5-7.5 0-4.144531-3.355469-7.5-7.5-7.5zm0 0"/><path d="m241.996094 423.5h-34c-4.140625 0-7.5 3.355469-7.5 7.5s3.359375 7.5 7.5 7.5h34c4.140625 0 7.5-3.355469 7.5-7.5s-3.359375-7.5-7.5-7.5zm0 0"/><path d="m71.660156 149.472656v-7.035156c25.332032-3.722656 44.839844-25.589844 44.839844-51.9375v-38c0-28.945312-23.550781-52.5-52.5-52.5s-52.5 23.554688-52.5 52.5v38c0 26.457031 19.675781 48.394531 45.160156 51.976562v6.953126c-6.605468.761718-13 2.546874-19.085937 5.355468-3.761719 1.734375-5.402344 6.191406-3.667969 9.953125 1.738281 3.761719 6.191406 5.402344 9.953125 3.664063 6.332031-2.921875 13.105469-4.402344 20.140625-4.402344 13.421875 0 25.902344 5.40625 35.148438 15.226562 9.378906 9.957032 14.085937 22.996094 13.261718 36.714844l-14.996094 249.292969c-1.070312 17.8125-15.75 31.765625-33.414062 31.765625s-32.339844-13.953125-33.410156-31.769531l-14.996094-249.292969c-.632812-10.46875 1.992188-20.644531 7.589844-29.421875 2.226562-3.496094 1.199218-8.132813-2.296875-10.355469-3.488281-2.230468-8.125-1.199218-10.355469 2.292969-7.304688 11.464844-10.734375 24.738281-9.910156 38.386719l14.996094 249.292968c1.546874 25.71875 22.800781 45.867188 48.382812 45.867188 25.585938 0 46.839844-20.148438 48.386719-45.867188l14.996093-249.292968c1.0625-17.625-5.25-35.085938-17.316406-47.898438-10.328125-10.96875-23.757812-17.71875-38.40625-19.46875zm-45.160156-58.972656v-38c0-20.679688 16.824219-37.5 37.5-37.5 20.679688 0 37.5 16.820312 37.5 37.5v38c0 18.054688-12.824219 33.164062-29.839844 36.710938v-16.519532l14.929688-8.886718c3.558594-2.121094 4.726562-6.722657 2.605468-10.28125-2.121093-3.558594-6.722656-4.726563-10.28125-2.609376l-7.253906 4.320313v-12.4375l14.929688-8.890625c3.558594-2.117188 4.726562-6.722656 2.605468-10.28125-2.121093-3.558594-6.722656-4.726562-10.28125-2.605469l-7.253906 4.320313v-4.339844c0-4.144531-3.355468-7.5-7.5-7.5-4.140625 0-7.5 3.355469-7.5 7.5v4.53125l-7.570312-4.511719c-3.558594-2.121093-8.164063-.953125-10.28125 2.605469-2.121094 3.558594-.953125 8.160156 2.605468 10.28125l15.246094 9.082031v12.433594l-7.570312-4.507813c-3.558594-2.117187-8.164063-.953124-10.28125 2.605469-2.121094 3.558594-.953125 8.160157 2.605468 10.28125l15.246094 9.082031v16.386719c-17.171875-3.417969-30.160156-18.605469-30.160156-36.769531zm0 0"/><path d="m89.996094 218.222656h-50c-4.144532 0-7.5 3.359375-7.5 7.5 0 4.144532 3.355468 7.5 7.5 7.5h50c4.140625 0 7.5-3.355468 7.5-7.5 0-4.140625-3.359375-7.5-7.5-7.5zm0 0"/><path d="m88.394531 259.277344h-46.800781c-4.140625 0-7.5 3.359375-7.5 7.5 0 4.144531 3.359375 7.5 7.5 7.5h46.800781c4.140625 0 7.5-3.355469 7.5-7.5 0-4.140625-3.359375-7.5-7.5-7.5zm0 0"/><path d="m86.792969 300.335938h-43.597657c-4.144531 0-7.5 3.355468-7.5 7.5 0 4.140624 3.355469 7.5 7.5 7.5h43.597657c4.144531 0 7.5-3.359376 7.5-7.5 0-4.144532-3.355469-7.5-7.5-7.5zm0 0"/><path d="m85.195312 341.390625h-40.402343c-4.140625 0-7.5 3.355469-7.5 7.5 0 4.140625 3.359375 7.5 7.5 7.5h40.402343c4.140626 0 7.5-3.359375 7.5-7.5 0-4.144531-3.359374-7.5-7.5-7.5zm0 0"/><path d="m83.59375 382.445312h-37.199219c-4.140625 0-7.5 3.355469-7.5 7.5 0 4.140626 3.359375 7.5 7.5 7.5h37.199219c4.144531 0 7.5-3.359374 7.5-7.5 0-4.144531-3.355469-7.5-7.5-7.5zm0 0"/><path d="m81.996094 423.5h-34c-4.144532 0-7.5 3.355469-7.5 7.5s3.355468 7.5 7.5 7.5h34c4.140625 0 7.5-3.355469 7.5-7.5s-3.359375-7.5-7.5-7.5zm0 0"/><path d="m430.070312 168.941406c-10.332031-10.96875-23.761718-17.71875-38.40625-19.46875v-7.039062c25.328126-3.71875 44.839844-25.585938 44.839844-51.933594v-38c0-6.15625-1.058594-12.191406-3.144531-17.9375-1.417969-3.894531-5.722656-5.902344-9.613281-4.488281-3.890625 1.417969-5.902344 5.71875-4.484375 9.613281 1.488281 4.09375 2.242187 8.40625 2.242187 12.8125v38c0 18.050781-12.824218 33.164062-29.839844 36.710938v-16.519532l14.925782-8.886718c3.5625-2.121094 4.726562-6.726563 2.609375-10.285157-2.121094-3.554687-6.722657-4.722656-10.28125-2.605469l-7.253907 4.320313v-12.4375l14.929688-8.890625c3.558594-2.117188 4.726562-6.722656 2.605469-10.28125-2.121094-3.558594-6.722657-4.726562-10.28125-2.605469l-7.253907 4.320313v-4.339844c0-4.144531-3.359374-7.5-7.5-7.5-4.140624 0-7.5 3.355469-7.5 7.5v4.53125l-7.570312-4.511719c-3.5625-2.121093-8.164062-.953125-10.28125 2.605469-2.121094 3.558594-.953125 8.160156 2.605469 10.28125l15.246093 9.082031v12.433594l-7.574218-4.507813c-3.554688-2.117187-8.160156-.953124-10.277344 2.605469-2.121094 3.558594-.953125 8.160157 2.605469 10.28125l15.246093 9.082031v16.386719c-17.175781-3.421875-30.160156-18.605469-30.160156-36.773437v-38c0-20.675782 16.824219-37.5 37.5-37.5 6.246094 0 12.425782 1.5625 17.871094 4.523437 3.636719 1.976563 8.191406.628907 10.167969-3.011719 1.980469-3.640624.632812-8.191406-3.007813-10.167968-7.636718-4.148438-16.292968-6.339844-25.03125-6.339844-28.949218 0-52.5 23.550781-52.5 52.5v38c0 26.457031 19.675782 48.394531 45.160156 51.976562v6.957032c-14.773437 1.6875-28.320312 8.457031-38.726562 19.507812-12.066406 12.8125-18.375 30.273438-17.316406 47.898438l14.996094 249.292968c1.546874 25.71875 22.800781 45.867188 48.386718 45.867188 25.585938 0 46.835938-20.148438 48.382813-45.867188l15-249.292968c1.058593-17.625-5.253907-35.085938-17.316407-47.898438zm2.34375 46.996094-15 249.292969c-1.070312 17.816406-15.746093 31.769531-33.410156 31.769531-17.664062 0-32.339844-13.953125-33.414062-31.769531l-14.996094-249.292969c-.824219-13.714844 3.886719-26.753906 13.265625-36.710938 9.246094-9.820312 21.726563-15.226562 35.144531-15.226562 13.417969 0 25.898438 5.40625 35.144532 15.226562 9.378906 9.957032 14.089843 22.996094 13.265624 36.710938zm0 0"/><path d="m409.996094 218.222656h-50c-4.140625 0-7.5 3.359375-7.5 7.5 0 4.144532 3.359375 7.5 7.5 7.5h50c4.140625 0 7.5-3.355468 7.5-7.5 0-4.140625-3.359375-7.5-7.5-7.5zm0 0"/><path d="m408.394531 259.277344h-46.800781c-4.140625 0-7.5 3.359375-7.5 7.5 0 4.144531 3.359375 7.5 7.5 7.5h46.800781c4.144531 0 7.5-3.355469 7.5-7.5 0-4.140625-3.355469-7.5-7.5-7.5zm0 0"/><path d="m406.796875 300.335938h-43.601563c-4.140624 0-7.5 3.355468-7.5 7.5 0 4.140624 3.359376 7.5 7.5 7.5h43.601563c4.140625 0 7.5-3.359376 7.5-7.5 0-4.144532-3.359375-7.5-7.5-7.5zm0 0"/><path d="m405.195312 341.390625h-40.398437c-4.144531 0-7.5 3.355469-7.5 7.5 0 4.140625 3.355469 7.5 7.5 7.5h40.398437c4.140626 0 7.5-3.359375 7.5-7.5 0-4.144531-3.359374-7.5-7.5-7.5zm0 0"/><path d="m403.597656 382.445312h-37.199218c-4.144532 0-7.5 3.355469-7.5 7.5 0 4.140626 3.355468 7.5 7.5 7.5h37.199218c4.140625 0 7.5-3.359374 7.5-7.5 0-4.144531-3.359375-7.5-7.5-7.5zm0 0"/><path d="m401.996094 423.5h-34c-4.140625 0-7.5 3.355469-7.5 7.5s3.359375 7.5 7.5 7.5h34c4.140625 0 7.5-3.355469 7.5-7.5s-3.359375-7.5-7.5-7.5zm0 0"/></svg>