<svg height="512pt" viewBox="0 -58 512 512" width="512pt" xmlns="http://www.w3.org/2000/svg"><path d="m500.5 387.5h-270.992188v-190h270.992188c2.210938 0 4 1.789062 4 4v182c0 2.210938-1.789062 4-4 4zm0 0" fill="#60d9fe"/><path d="m500.5 197.5h-30c2.210938 0 4 1.789062 4 4v182c0 2.210938-1.789062 4-4 4h30c2.210938 0 4-1.789062 4-4v-182c0-2.210938-1.789062-4-4-4zm0 0" fill="#40ccf7"/><path d="m393.308594 197.5h60v190h-60zm0 0" fill="#fff0d0"/><path d="m234.121094 197.5v190h-222.621094c-2.210938 0-4-1.789062-4-4v-182c0-2.210938 1.789062-4 4-4zm0 0" fill="#ffbd54"/><path d="m127.5 197.5v190h-116c-2.210938 0-4-1.789062-4-4v-182c0-2.210938 1.789062-4 4-4zm0 0" fill="#ffd659"/><g fill="#ffa954"><path d="m194.578125 197.5c0 11.050781-8.949219 20-20 20-11.046875 0-20-8.949219-20-20zm0 0"/><path d="m212.996094 274.5c0 10.492188-8.507813 19-19 19-10.496094 0-19-8.507812-19-19s8.503906-19 19-19c10.492187 0 19 8.507812 19 19zm0 0"/><path d="m66 236.5c0 11.046875-8.953125 20-20 20s-20-8.953125-20-20 8.953125-20 20-20 20 8.953125 20 20zm0 0"/><path d="m96.441406 288.929688c0 8.285156-6.714844 15-15 15-8.28125 0-15-6.714844-15-15 0-8.285157 6.71875-15 15-15 8.285156 0 15 6.714843 15 15zm0 0"/><path d="m60.257812 353.238281c0 8.285157-6.71875 15-15 15-8.285156 0-15-6.714843-15-15 0-8.28125 6.714844-15 15-15 8.28125 0 15 6.71875 15 15zm0 0"/><path d="m198.503906 387.5h-40c0-11.039062 8.957032-20.003906 19.996094-20.003906 11.050781 0 20.003906 8.964844 20.003906 20.003906zm0 0"/><path d="m146.761719 342.988281c0 10.640625-8.632813 19.261719-19.261719 19.261719s-19.261719-8.621094-19.261719-19.261719c0-10.628906 8.632813-19.25 19.261719-19.25s19.261719 8.621094 19.261719 19.25zm0 0"/></g><path d="m146.761719 342.988281c0 10.640625-8.632813 19.261719-19.261719 19.261719v-38.511719c10.628906 0 19.261719 8.621094 19.261719 19.25zm0 0" fill="#fa9f43"/><path d="m393.308594 11.5v182c0 2.210938-1.789063 4-4 4h-218.617188c-2.210937 0-4-1.789062-4-4v-182c0-2.210938 1.789063-4 4-4h218.617188c2.210937 0 4 1.789062 4 4zm0 0" fill="#ffbd54"/><path d="m389.308594 7.5h-30c2.210937 0 4 1.789062 4 4v182c0 2.210938-1.789063 4-4 4h30c2.210937 0 4-1.789062 4-4v-182c0-2.210938-1.789063-4-4-4zm0 0" fill="#ffa954"/><path d="m286.691406 7.5v190h-116c-2.210937 0-4-1.789062-4-4v-182c0-2.210938 1.789063-4 4-4zm0 0" fill="#ffd659"/><path d="m353.769531 7.5c0 11.050781-8.949219 20-20 20s-20-8.949219-20-20zm0 0" fill="#ffa954"/><path d="m372.183594 84.5c0 10.492188-8.503906 19-19 19-10.492188 0-19-8.507812-19-19s8.507812-19 19-19c10.496094 0 19 8.507812 19 19zm0 0" fill="#ffa954"/><path d="m225.191406 46.5c0 11.046875-8.957031 20-20 20-11.046875 0-20-8.953125-20-20s8.953125-20 20-20c11.042969 0 20 8.953125 20 20zm0 0" fill="#ffa954"/><path d="m255.632812 98.929688c0 8.285156-6.714843 15-15 15-8.285156 0-15-6.714844-15-15 0-8.285157 6.714844-15 15-15 8.285157 0 15 6.714843 15 15zm0 0" fill="#ffa954"/><path d="m219.445312 163.238281c0 8.285157-6.714843 15-15 15-8.285156 0-15-6.714843-15-15 0-8.28125 6.714844-15 15-15 8.285157 0 15 6.71875 15 15zm0 0" fill="#ffa954"/><path d="m357.695312 197.5h-40c0-11.039062 8.953126-20.003906 19.996094-20.003906 11.050782 0 20.003906 8.964844 20.003906 20.003906zm0 0" fill="#ffa954"/><path d="m305.949219 152.988281c0 10.640625-8.628907 19.261719-19.257813 19.261719-10.632812 0-19.261718-8.621094-19.261718-19.261719 0-10.628906 8.628906-19.25 19.261718-19.25 10.628906 0 19.257813 8.621094 19.257813 19.25zm0 0" fill="#ffa954"/><path d="m305.949219 152.988281c0 10.640625-8.628907 19.261719-19.257813 19.261719v-38.511719c10.628906 0 19.257813 8.621094 19.257813 19.25zm0 0" fill="#fa9f43"/><path d="m193.996094 301c14.609375 0 26.5-11.886719 26.5-26.5s-11.890625-26.5-26.5-26.5c-14.613282 0-26.5 11.886719-26.5 26.5s11.886718 26.5 26.5 26.5zm0-38c6.339844 0 11.5 5.160156 11.5 11.5s-5.160156 11.5-11.5 11.5c-6.34375 0-11.5-5.160156-11.5-11.5s5.15625-11.5 11.5-11.5zm0 0"/><path d="m73.5 236.5c0-15.164062-12.335938-27.5-27.5-27.5s-27.5 12.335938-27.5 27.5 12.335938 27.5 27.5 27.5 27.5-12.335938 27.5-27.5zm-40 0c0-6.894531 5.605469-12.5 12.5-12.5s12.5 5.605469 12.5 12.5-5.605469 12.5-12.5 12.5-12.5-5.605469-12.5-12.5zm0 0"/><path d="m103.941406 288.929688c0-12.40625-10.089844-22.5-22.5-22.5-12.40625 0-22.5 10.09375-22.5 22.5s10.09375 22.5 22.5 22.5c12.410156 0 22.5-10.09375 22.5-22.5zm-30 0c0-4.136719 3.367188-7.5 7.5-7.5 4.136719 0 7.5 3.363281 7.5 7.5 0 4.136718-3.363281 7.5-7.5 7.5-4.132812 0-7.5-3.367188-7.5-7.5zm0 0"/><path d="m45.253906 375.738281c12.40625 0 22.5-10.09375 22.5-22.5 0-12.402343-10.09375-22.5-22.5-22.5s-22.5 10.097657-22.5 22.5c0 12.40625 10.09375 22.5 22.5 22.5zm0-30c4.136719 0 7.5 3.367188 7.5 7.5 0 4.136719-3.363281 7.5-7.5 7.5-4.136718 0-7.5-3.363281-7.5-7.5 0-4.132812 3.367188-7.5 7.5-7.5zm0 0"/><path d="m353.183594 58c-14.609375 0-26.5 11.886719-26.5 26.5s11.890625 26.5 26.5 26.5c14.613281 0 26.5-11.886719 26.5-26.5s-11.886719-26.5-26.5-26.5zm0 38c-6.339844 0-11.5-5.160156-11.5-11.5s5.160156-11.5 11.5-11.5c6.34375 0 11.5 5.160156 11.5 11.5s-5.160156 11.5-11.5 11.5zm0 0"/><path d="m205.191406 19c-15.164062 0-27.5 12.335938-27.5 27.5s12.335938 27.5 27.5 27.5c15.164063 0 27.5-12.335938 27.5-27.5s-12.335937-27.5-27.5-27.5zm0 40c-6.894531 0-12.5-5.605469-12.5-12.5s5.605469-12.5 12.5-12.5c6.890625 0 12.5 5.605469 12.5 12.5s-5.609375 12.5-12.5 12.5zm0 0"/><path d="m263.132812 98.929688c0-12.40625-10.09375-22.5-22.5-22.5s-22.5 10.09375-22.5 22.5 10.09375 22.5 22.5 22.5 22.5-10.09375 22.5-22.5zm-30 0c0-4.136719 3.363282-7.5 7.5-7.5 4.136719 0 7.5 3.363281 7.5 7.5 0 4.136718-3.363281 7.5-7.5 7.5-4.136718 0-7.5-3.367188-7.5-7.5zm0 0"/><path d="m204.445312 140.738281c-12.40625 0-22.5 10.097657-22.5 22.5 0 12.40625 10.09375 22.5 22.5 22.5s22.5-10.09375 22.5-22.5c0-12.402343-10.09375-22.5-22.5-22.5zm0 30c-4.136718 0-7.5-3.363281-7.5-7.5 0-4.132812 3.363282-7.5 7.5-7.5 4.136719 0 7.5 3.367188 7.5 7.5 0 4.136719-3.363281 7.5-7.5 7.5zm0 0"/><path d="m500.5 190c-23.1875 0-82.679688 0-99.691406 0v-178.5c0-6.339844-5.15625-11.5-11.5-11.5-37.589844 0-153.753906 0-218.617188 0-6.34375 0-11.5 5.160156-11.5 11.5v89.8125c0 4.144531 3.355469 7.5 7.5 7.5 4.140625 0 7.5-3.355469 7.5-7.5v-86.3125h105v112.316406c-11.117187 3.25-19.261718 13.527344-19.261718 25.671875 0 12.152344 8.144531 22.433594 19.261718 25.683594v11.328125c-39.730468 0-65.394531 0-105 0v-56.261719c0-4.140625-3.359375-7.5-7.5-7.5-4.144531 0-7.5 3.359375-7.5 7.5v56.261719c-23.964844 0-129.089844 0-147.691406 0-6.339844 0-11.5 5.160156-11.5 11.5v182c0 6.339844 5.160156 11.5 11.5 11.5h72.75c4.140625 0 7.5-3.355469 7.5-7.5s-3.359375-7.5-7.5-7.5h-69.25v-175h105v112.316406c-11.113281 3.25-19.261719 13.527344-19.261719 25.671875 0 12.152344 8.148438 22.433594 19.261719 25.683594v11.328125h-4c-4.140625 0-7.5 3.355469-7.5 7.5s3.359375 7.5 7.5 7.5h384.5c6.339844 0 11.5-5.160156 11.5-11.5v-182c0-6.339844-5.160156-11.5-11.5-11.5zm-258.878906 15h144.1875v175h-144.1875zm86.078125-15c2.28125-3.035156 5.910156-5.003906 9.988281-5.003906 4.085938 0 7.71875 1.96875 10.003906 5.003906zm58.109375 0h-21.660156c-3.273438-11.53125-13.890626-20.003906-26.457032-20.003906-12.5625 0-23.175781 8.472656-26.449218 20.003906h-17.050782v-11.328125c11.113282-3.25 19.257813-13.527344 19.257813-25.683594 0-12.144531-8.144531-22.421875-19.257813-25.671875v-112.316406h13.125c3.277344 11.527344 13.890625 20 26.453125 20s23.179688-8.472656 26.453125-20h25.585938zm-42.042969-175c-2.285156 3.035156-5.914063 5-9.996094 5-4.078125 0-7.710937-1.964844-9.992187-5zm-68.835937 137.988281c0-6.476562 5.273437-11.75 11.761718-11.75 6.484375 0 11.757813 5.273438 11.757813 11.75 0 6.484375-5.273438 11.761719-11.757813 11.761719-6.488281 0-11.761718-5.273438-11.761718-11.761719zm-90.355469 52.011719c-2.285157 3.035156-5.914063 5-9.996094 5-4.078125 0-7.710937-1.964844-9.992187-5zm-68.835938 137.988281c0-6.476562 5.277344-11.75 11.761719-11.75s11.761719 5.273438 11.761719 11.75c0 6.484375-5.277344 11.761719-11.761719 11.761719s-11.761719-5.273438-11.761719-11.761719zm19.261719 25.683594c11.113281-3.25 19.261719-13.527344 19.261719-25.683594 0-12.144531-8.148438-22.421875-19.261719-25.671875v-112.316406h13.128906c3.273438 11.527344 13.886719 20 26.449219 20 12.566406 0 23.179687-8.472656 26.453125-20h25.589844v175h-21.664063c-3.273437-11.53125-13.890625-20.003906-26.457031-20.003906-12.5625 0-23.175781 8.472656-26.449219 20.003906h-17.050781zm33.507812 11.328125c2.28125-3.035156 5.914063-5.003906 9.992188-5.003906 4.085938 0 7.71875 1.96875 10 5.003906zm328.492188 0h-36.191406v-22.75c0-4.144531-3.355469-7.5-7.5-7.5-4.140625 0-7.5 3.355469-7.5 7.5v22.75h-45v-175h45v120.25c0 4.144531 3.359375 7.5 7.5 7.5 4.144531 0 7.5-3.355469 7.5-7.5v-120.25h36.191406zm0 0"/></svg>