<svg height="512pt" viewBox="0 0 512 511" width="512pt" xmlns="http://www.w3.org/2000/svg"><path d="m489.5 306.5h-467c-8.285156 0-15-6.71875-15-15 0-8.285156 6.714844-15 15-15h467c8.285156 0 15 6.714844 15 15 0 8.28125-6.714844 15-15 15zm0 0" fill="#d1ffff"/><path d="m489.5 276.5h-30c8.285156 0 15 6.714844 15 15 0 8.28125-6.714844 15-15 15h30c8.285156 0 15-6.71875 15-15 0-8.285156-6.714844-15-15-15zm0 0" fill="#bbeded"/><path d="m444.5 505h-377c-11.046875 0-20-8.957031-20-20v-128c0-11.046875 8.953125-20 20-20h377c11.046875 0 20 8.953125 20 20v128c0 11.042969-8.953125 20-20 20zm0 0" fill="#d1ffff"/><path d="m444.5 337h-30c11.046875 0 20 8.953125 20 20v128c0 11.042969-8.953125 20-20 20h30c11.046875 0 20-8.957031 20-20v-128c0-11.046875-8.953125-20-20-20zm0 0" fill="#bbeded"/><path d="m87 306.5h338v30.5h-338zm0 0" fill="#4c779f"/><path d="m473.992188 116.5c2.257812 0 4.0625 1.867188 4.007812 4.121094-2.1875 86.464844-72.980469 155.878906-160 155.878906s-157.8125-69.414062-160-155.878906c-.054688-2.253906 1.75-4.121094 4.007812-4.121094zm0 0" fill="#3bd387"/><path d="m473.992188 116.5h-30c2.257812 0 4.0625 1.867188 4.003906 4.121094-2.058594 81.4375-64.980469 147.738281-144.996094 155.175781 4.9375.457031 9.941406.703125 15 .703125 87.019531 0 157.8125-69.414062 160-155.878906.054688-2.253906-1.75-4.121094-4.007812-4.121094zm0 0" fill="#37c487"/><path d="m448.039062 116.5c0 71.679688-58.335937 130-130.039062 130s-130.039062-58.320312-130.039062-130zm0 0" fill="#fe5555"/><path d="m418.039062 116.5c0 66.605469-50.375 121.667969-115.039062 129.128906 4.921875.566406 9.925781.871094 15 .871094 71.703125 0 130.039062-58.320312 130.039062-130zm0 0" fill="#e84141"/><path d="m254 166.5c0 60.75-49.25 110-110 110s-110-49.25-110-110c0-60.753906 49.25-110 110-110s110 49.246094 110 110zm0 0" fill="#ff9e4a"/><path d="m144 56.5c-5.070312 0-10.058594.351562-14.945312 1.015625 53.679687 7.292969 95.054687 53.300781 95.054687 108.984375 0 55.679688-41.375 101.691406-95.054687 108.984375 4.886718.664063 9.875 1.015625 14.945312 1.015625 60.75 0 110-49.25 110-110 0-60.753906-49.25-110-110-110zm0 0" fill="#fc843a"/><path d="m173.6875 8.917969c-13.300781 3.835937-15.757812 18.890625-16.1875 23.082031-.070312.703125.128906 1.402344.566406 1.960938 2.59375 3.316406 12.695313 14.742187 25.992188 10.90625 12.386718-3.574219 21.941406-18.765626 25.277344-24.722657.75-1.339843.261718-3.03125-1.085938-3.765625-5.992188-3.261718-22.175781-11.035156-34.5625-7.460937zm0 0" fill="#3bd387"/><path d="m244 471.5h-124c-2.210938 0-4-1.792969-4-4v-92c0-2.210938 1.789062-4 4-4h124c2.210938 0 4 1.789062 4 4v92c0 2.207031-1.789062 4-4 4zm0 0" fill="#4c779f"/><path d="m314 471.5h-32c-2.210938 0-4-1.792969-4-4v-92c0-2.210938 1.789062-4 4-4h32c2.210938 0 4 1.789062 4 4v92c0 2.207031-1.789062 4-4 4zm0 0" fill="#60d9fe"/><path d="m107.703125 76.199219-5.144531 4.746093c-3.042969 2.8125-3.234375 7.554688-.421875 10.597657 1.476562 1.605469 3.492187 2.414062 5.511719 2.414062 1.820312 0 3.644531-.65625 5.085937-1.988281l5.140625-4.746094c3.046875-2.8125 3.234375-7.554687.425781-10.597656-2.808593-3.046875-7.554687-3.234375-10.597656-.425781zm0 0"/><path d="m180.988281 76.199219c-3.042969-2.808594-7.789062-2.617188-10.597656.421875-2.8125 3.046875-2.621094 7.789062.421875 10.601562l5.140625 4.746094c1.445313 1.332031 3.269531 1.988281 5.085937 1.988281 2.023438 0 4.035157-.8125 5.515626-2.410156 2.808593-3.046875 2.621093-7.789063-.421876-10.601563zm0 0"/><path d="m144.046875 83.308594c-4.140625 0-7.5 3.355468-7.5 7.5v7.121094c0 4.140624 3.359375 7.5 7.5 7.5 4.144531 0 7.5-3.359376 7.5-7.5v-7.121094c0-4.144532-3.355469-7.5-7.5-7.5zm0 0"/><path d="m489.5 268.988281h-102.042969c17.425781-7.941406 33.519531-18.910156 47.59375-32.648437 31.421875-30.675782 49.335938-71.710938 50.445313-115.539063.082031-3.085937-1.105469-6.125-3.261719-8.339843-2.1875-2.242188-5.113281-3.480469-8.246094-3.480469h-57.820312c-4.144531 0-7.5 3.359375-7.5 7.5s3.355469 7.5 7.5 7.5h24.136719c-3.890626 64.070312-57.253907 115.003906-122.304688 115.003906-24.65625 0-48.175781-7.234375-68.429688-20.945313 7.632813-15.574218 11.929688-33.070312 11.929688-51.554687 0-14.984375-2.824219-29.316406-7.957031-42.503906h130.457031c4.144531 0 7.5-3.359375 7.5-7.5s-3.355469-7.5-7.5-7.5h-137.5625c-18.671875-33.136719-52.949219-56.351563-92.792969-59.605469.816407-1.917969 1.882813-3.824219 3.25-5.605469 7.929688 7.492188 15.992188 9.28125 21.835938 9.28125 3.34375 0 5.960937-.578125 7.410156-.996093 6.195313-1.789063 18.296875-7.835938 29.738281-28.265626 1.351563-2.410156 1.671875-5.199218.90625-7.851562-.761718-2.652344-2.519531-4.839844-4.949218-6.164062-20.566407-11.195313-34.03125-9.8710942-40.226563-8.082032-4.332031 1.25-18.304687 6.851563-21.296875 27.332032-6.933594 5.914062-10.570312 13.402343-12.445312 20.117187-61.949219 3.195313-111.367188 54.605469-111.367188 117.34375 0 43.960937 24.269531 82.355469 60.113281 102.503906h-64.113281c-12.40625 0-22.5 10.09375-22.5 22.5s10.09375 22.5 22.5 22.5h57v15.503907h-12c-15.164062 0-27.5 12.335937-27.5 27.5v128.003906c0 15.164062 12.335938 27.503906 27.5 27.503906h316.5c4.144531 0 7.5-3.359375 7.5-7.5 0-4.144531-3.355469-7.5-7.5-7.5h-316.5c-6.894531 0-12.5-5.609375-12.5-12.503906v-128.003906c0-6.894532 5.605469-12.5 12.5-12.5h60.5c4.144531 0 7.5-3.359376 7.5-7.5 0-4.144532-3.355469-7.5-7.5-7.5h-33.5v-15.503907h323v15.503907h-257.25c-4.144531 0-7.5 3.355468-7.5 7.5 0 4.140624 3.355469 7.5 7.5 7.5h284.25c6.894531 0 12.5 5.605468 12.5 12.5v128.003906c0 6.894531-5.605469 12.503906-12.5 12.503906h-28.25c-4.144531 0-7.5 3.355469-7.5 7.5 0 4.140625 3.355469 7.5 7.5 7.5h28.25c15.164062 0 27.5-12.339844 27.5-27.503906v-128.003906c0-15.164063-12.335938-27.5-27.5-27.5h-12v-15.503907h57c12.40625 0 22.5-10.09375 22.5-22.5s-10.09375-22.5-22.5-22.5zm-171.5-15c73.324219 0 133.425781-57.660156 137.332031-130.007812h15.039063c-1.867188 38.558593-18.046875 74.53125-45.800782 101.625-28.65625 27.976562-66.503906 43.382812-106.570312 43.382812-30.648438 0-59.863281-8.917969-85.011719-25.859375 3.289063-3.808594 6.328125-7.835937 9.113281-12.046875 22.53125 14.996094 48.59375 22.90625 75.898438 22.90625zm-95.683594.011719c8.339844 5.824219 17.105469 10.824219 26.210938 14.988281h-47.140625c7.527343-4.230469 14.542969-9.265625 20.929687-14.988281zm-46.546875-237.898438c6.613281-1.90625 16.300781.839844 24.453125 4.613282-4.890625 7.535156-11.625 15.015625-18.238281 16.925781-7.402344 2.136719-13.769531-3.503906-16.757813-6.828125.757813-4.410156 3.144532-12.578125 10.542969-14.710938zm-134.269531 150.382813c0-56.507813 45.957031-102.480469 102.453125-102.503906h.007813c.003906 0 .007812-.003907.011718-.003907h.027344c56.519531 0 102.5 45.984376 102.5 102.507813 0 56.519531-45.980469 102.503906-102.5 102.503906s-102.5-45.984375-102.5-102.503906zm448 132.503906h-467c-4.136719 0-7.5-3.363281-7.5-7.5s3.363281-7.5 7.5-7.5h467c4.136719 0 7.5 3.363281 7.5 7.5s-3.363281 7.5-7.5 7.5zm0 0"/><path d="m120 363.992188c-6.339844 0-11.5 5.160156-11.5 11.5v92.003906c0 6.339844 5.160156 11.5 11.5 11.5h124c6.339844 0 11.5-5.15625 11.5-11.5v-92.003906c0-6.339844-5.160156-11.5-11.5-11.5zm120.5 100.003906h-117v-85.003906h117zm0 0"/><path d="m282 363.992188c-6.339844 0-11.5 5.160156-11.5 11.5v92.003906c0 6.339844 5.160156 11.5 11.5 11.5h32c6.339844 0 11.5-5.15625 11.5-11.5v-92.003906c0-6.339844-5.160156-11.5-11.5-11.5zm28.5 100.003906h-25v-85.003906h25zm0 0"/></svg>