<svg height="512pt" viewBox="-63 0 512 512" width="512pt" xmlns="http://www.w3.org/2000/svg"><path d="m327.5 504.5h-270c-27.613281 0-50-22.386719-50-50v-397c0-27.613281 22.386719-50 50-50h270c27.613281 0 50 22.386719 50 50v397c0 27.613281-22.386719 50-50 50zm0 0" fill="#bbeded"/><path d="m327.5 7.5h-30c27.613281 0 50 22.386719 50 50v397c0 27.613281-22.386719 50-50 50h30c27.613281 0 50-22.386719 50-50v-397c0-27.613281-22.386719-50-50-50zm0 0" fill="#ace0e0"/><path d="m57.5 474.5c-11.027344 0-20-8.972656-20-20v-397c0-11.027344 8.972656-20 20-20h270c11.027344 0 20 8.972656 20 20v397c0 11.027344-8.972656 20-20 20zm0 0" fill="#d1ffff"/><path d="m279.011719 154.769531 2.5 15.917969c.253906 1.601562-.988281 3.050781-2.609375 3.050781-6.046875 0-11.539063-3.503906-14.085938-8.984375-4.644531-10.007812-12.355468-18.355468-22.160156-23.414062-20.15625-10.402344-70.960938-9.132813-70.960938-9.132813-24.160156 0-43.746093-19.585937-43.746093-43.746093v-10.203126c0-4.292968 3.480469-7.773437 7.773437-7.773437h48.121094c19.394531 0 38.300781 6.09375 54.042969 17.421875 12.570312 9.046875 22.914062 20.835938 30.242187 34.480469 5.421875 10.105469 9.105469 21.054687 10.882813 32.382812zm0 0" fill="#fd825e"/><path d="m281.511719 170.6875-2.5-15.917969c-1.78125-11.328125-5.460938-22.277343-10.886719-32.378906-7.328125-13.644531-17.667969-25.4375-30.238281-34.484375-15.746094-11.324219-34.648438-17.417969-54.042969-17.417969h-30c19.394531 0 38.296875 6.09375 54.042969 17.417969 12.570312 9.046875 22.910156 20.839844 30.238281 34.484375 3.625 6.746094 6.449219 13.875 8.46875 21.238281 7.933594 5.117188 14.21875 12.503906 18.222656 21.125 2.546875 5.480469 8.039063 8.988282 14.082032 8.988282 1.625-.003907 2.863281-1.453126 2.613281-3.054688zm0 0" fill="#eb6044"/><path d="m279.011719 244.769531 2.5 15.917969c.253906 1.601562-.988281 3.050781-2.609375 3.050781-6.046875 0-11.539063-3.503906-14.085938-8.984375-4.644531-10.007812-12.355468-18.355468-22.160156-23.414062-20.15625-10.402344-70.960938-9.132813-70.960938-9.132813-24.160156 0-43.746093-19.585937-43.746093-43.746093v-10.203126c0-4.292968 3.480469-7.773437 7.773437-7.773437h48.121094c19.394531 0 38.300781 6.09375 54.042969 17.421875 12.570312 9.042969 22.914062 20.835938 30.242187 34.480469 5.421875 10.105469 9.105469 21.054687 10.882813 32.382812zm0 0" fill="#fd825e"/><path d="m281.511719 260.6875-2.5-15.917969c-1.78125-11.328125-5.460938-22.277343-10.886719-32.378906-7.328125-13.644531-17.667969-25.4375-30.238281-34.484375-15.746094-11.324219-34.648438-17.417969-54.042969-17.417969h-30c19.394531 0 38.296875 6.09375 54.042969 17.417969 12.570312 9.046875 22.910156 20.839844 30.238281 34.484375 3.625 6.746094 6.449219 13.875 8.46875 21.238281 7.933594 5.117188 14.21875 12.503906 18.222656 21.125 2.546875 5.480469 8.039063 8.988282 14.082032 8.988282 1.625-.003907 2.863281-1.453126 2.613281-3.054688zm0 0" fill="#eb6044"/><path d="m279.011719 334.769531 2.5 15.917969c.253906 1.601562-.988281 3.050781-2.609375 3.050781-6.046875 0-11.539063-3.503906-14.085938-8.984375-4.644531-10.007812-12.355468-18.355468-22.160156-23.414062-20.15625-10.402344-70.960938-9.132813-70.960938-9.132813-24.160156 0-43.746093-19.585937-43.746093-43.746093v-10.203126c0-4.292968 3.480469-7.773437 7.773437-7.773437h48.121094c19.394531 0 38.300781 6.09375 54.042969 17.421875 12.570312 9.042969 22.914062 20.835938 30.242187 34.480469 5.421875 10.105469 9.105469 21.054687 10.882813 32.382812zm0 0" fill="#fd825e"/><path d="m281.511719 350.6875-2.5-15.917969c-1.78125-11.328125-5.460938-22.277343-10.886719-32.378906-7.328125-13.644531-17.667969-25.4375-30.238281-34.484375-15.746094-11.324219-34.648438-17.417969-54.042969-17.417969h-30c19.394531 0 38.296875 6.09375 54.042969 17.417969 12.570312 9.046875 22.910156 20.839844 30.238281 34.484375 3.625 6.746094 6.449219 13.875 8.46875 21.238281 7.933594 5.117188 14.21875 12.503906 18.222656 21.125 2.546875 5.480469 8.039063 8.988282 14.082032 8.988282 1.625-.003907 2.863281-1.453126 2.613281-3.054688zm0 0" fill="#eb6044"/><path d="m279.011719 424.769531 2.5 15.917969c.253906 1.601562-.988281 3.050781-2.609375 3.050781-6.046875 0-11.539063-3.503906-14.085938-8.984375-4.644531-10.007812-12.355468-18.355468-22.160156-23.414062-20.15625-10.402344-70.960938-9.132813-70.960938-9.132813-24.160156 0-43.746093-19.585937-43.746093-43.746093v-10.203126c0-4.292968 3.480469-7.773437 7.773437-7.773437h48.121094c19.394531 0 38.300781 6.09375 54.042969 17.421875 12.570312 9.042969 22.914062 20.835938 30.242187 34.480469 5.421875 10.105469 9.105469 21.054687 10.882813 32.382812zm0 0" fill="#fd825e"/><path d="m281.511719 440.6875-2.5-15.917969c-1.78125-11.328125-5.460938-22.277343-10.886719-32.378906-7.328125-13.644531-17.667969-25.4375-30.238281-34.484375-15.746094-11.324219-34.648438-17.417969-54.042969-17.417969h-30c19.394531 0 38.296875 6.09375 54.042969 17.417969 12.570312 9.046875 22.910156 20.839844 30.238281 34.484375 3.625 6.746094 6.449219 13.875 8.46875 21.238281 7.933594 5.117188 14.21875 12.503906 18.222656 21.125 2.546875 5.480469 8.039063 8.988282 14.082032 8.988282 1.625-.003907 2.863281-1.453126 2.613281-3.054688zm0 0" fill="#eb6044"/><path d="m327.5 0h-270c-31.707031 0-57.5 25.792969-57.5 57.5v326.9375c0 4.144531 3.355469 7.5 7.5 7.5s7.5-3.355469 7.5-7.5v-326.9375c0-23.433594 19.066406-42.5 42.5-42.5h270c23.433594 0 42.5 19.066406 42.5 42.5v397c0 23.433594-19.066406 42.5-42.5 42.5h-270c-23.433594 0-42.5-19.066406-42.5-42.5v-38.394531c0-4.144531-3.355469-7.5-7.5-7.5s-7.5 3.355469-7.5 7.5v38.394531c0 31.707031 25.792969 57.5 57.5 57.5h270c31.707031 0 57.5-25.792969 57.5-57.5v-397c0-31.707031-25.792969-57.5-57.5-57.5zm0 0"/><path d="m347.5 296.433594c4.144531 0 7.5-3.355469 7.5-7.5v-231.433594c0-15.164062-12.335938-27.5-27.5-27.5h-270c-15.164062 0-27.5 12.335938-27.5 27.5v397c0 15.164062 12.335938 27.5 27.5 27.5h270c15.164062 0 27.5-12.335938 27.5-27.5v-133.566406c0-4.144532-3.355469-7.5-7.5-7.5s-7.5 3.355468-7.5 7.5v48.542968h-21.691406c-4.144532 0-7.5 3.355469-7.5 7.5 0 4.140626 3.355468 7.5 7.5 7.5h21.691406v70.023438c0 6.894531-5.605469 12.5-12.5 12.5h-270c-6.894531 0-12.5-5.605469-12.5-12.5v-42h18.617188c4.144531 0 7.5-3.355469 7.5-7.5s-3.355469-7.5-7.5-7.5h-18.617188v-162.371094h44.761719c4.140625 0 7.5-3.355468 7.5-7.5 0-4.140625-3.359375-7.5-7.5-7.5h-44.761719v-86.453125h26.964844c4.140625 0 7.5-3.355469 7.5-7.5 0-4.140625-3.359375-7.5-7.5-7.5h-26.964844v-61.175781c0-6.894531 5.605469-12.5 12.5-12.5h270c6.894531 0 12.5 5.605469 12.5 12.5v136.210938h-31.828125c-4.144531 0-7.5 3.355468-7.5 7.5 0 4.140624 3.355469 7.5 7.5 7.5h31.828125v80.222656c0 4.140625 3.355469 7.5 7.5 7.5zm0 0"/><path d="m288.921875 169.523438-2.5-15.917969c-7.792969-49.621094-49.703125-90.621094-102.578125-90.621094h-2.925781c-4.144531 0-7.5 3.359375-7.5 7.5 0 4.144531 3.355469 7.5 7.5 7.5h2.925781c9.382812 0 18.554688 1.53125 27.253906 4.476563l-11.539062 42.84375c-13.71875-.867188-25.253906-.664063-27.953125-.597657-17.1875-.042969-31.59375-12.113281-35.25-28.222656h15.433593c4.144532 0 7.5-3.355469 7.5-7.5 0-4.140625-3.355468-7.5-7.5-7.5h-16.339843v-3.226563c0-.148437.121093-.273437.273437-.273437h8.695313c4.140625 0 7.5-3.355469 7.5-7.5 0-4.140625-3.359375-7.5-7.5-7.5h-8.695313c-8.421875 0-15.273437 6.851563-15.273437 15.273437v3.226563h-16.992188c-4.144531 0-7.5 3.359375-7.5 7.5 0 4.144531 3.355469 7.5 7.5 7.5h17.625c3.863281 24.457031 25.085938 43.222656 50.613281 43.222656.0625 0 .125-.003906.1875-.003906 13.59375-.34375 52.199219.492187 67.335938 8.300781 8.101562 4.183594 14.777344 11.253906 18.796875 19.90625 3.761719 8.097656 11.957031 13.328125 20.886719 13.328125 2.96875 0 5.777344-1.292969 7.707031-3.550781 1.929687-2.253906 2.773437-5.230469 2.3125-8.164062zm-63.941406-80.933594c9.777343 5.421875 18.5 12.824218 25.613281 21.277344l-16.082031 20.503906c-6.078125-1.652344-12.914063-2.839844-19.789063-3.6875zm23.964843 47.679687 10.699219-13.636719c11.523438 19.496094 12.082031 36.03125 13.128907 40.765626-1.890626-2.226563-6.671876-16.910157-23.828126-27.128907zm0 0"/><path d="m288.921875 259.523438-2.5-15.917969c-4.65625-29.652344-21.105469-55.203125-44.15625-71.785157-17.125-12.320312-37.328125-18.835937-58.421875-18.835937h-48.121094c-8.421875 0-15.273437 6.851563-15.273437 15.273437v3.226563h-16.992188c-4.144531 0-7.5 3.359375-7.5 7.5 0 4.144531 3.355469 7.5 7.5 7.5h17.625c3.863281 24.457031 25.085938 43.222656 50.613281 43.222656.0625 0 .125-.003906.1875-.003906 13.59375-.34375 52.199219.492187 67.335938 8.300781 8.101562 4.183594 14.777344 11.253906 18.796875 19.90625 3.761719 8.097656 11.957031 13.328125 20.886719 13.328125 2.96875 0 5.777344-1.292969 7.707031-3.550781 1.929687-2.253906 2.773437-5.230469 2.3125-8.164062zm-38.328125-59.65625-16.082031 20.503906c-6.078125-1.652344-12.914063-2.835938-19.789063-3.683594l10.257813-38.097656c9.777343 5.421875 18.5 12.824218 25.613281 21.277344zm-78.988281 14.839843c-17.1875-.042969-31.59375-12.113281-35.25-28.222656h15.433593c4.144532 0 7.5-3.355469 7.5-7.5 0-4.140625-3.355468-7.5-7.5-7.5h-16.339843v-3.226563c0-.148437.121093-.273437.273437-.273437h48.121094c9.382812 0 18.554688 1.53125 27.253906 4.476563l-11.535156 42.84375c-9.828125-.621094-20.414062-.78125-27.957031-.597657zm77.339843 11.5625 10.699219-13.636719c11.515625 19.480469 12.085938 36.175782 13.128907 40.765626-1.890626-2.226563-6.671876-16.910157-23.828126-27.128907zm0 0"/><path d="m288.921875 349.523438-2.5-15.917969c-1.914063-12.195313-5.847656-23.894531-11.6875-34.765625-7.824219-14.5625-19.050781-27.367188-32.46875-37.023438-17.125-12.320312-37.328125-18.832031-58.425781-18.832031h-48.121094c-8.417969 0-15.269531 6.851563-15.269531 15.273437v3.226563h-16.996094c-4.140625 0-7.5 3.359375-7.5 7.5 0 4.144531 3.359375 7.5 7.5 7.5h17.628906c3.863281 24.457031 25.085938 43.21875 50.613281 43.21875h.1875c13.59375-.34375 52.199219.488281 67.332032 8.300781 8.105468 4.183594 14.78125 11.253906 18.800781 19.90625 3.757813 8.097656 11.957031 13.328125 20.882813 13.328125 2.96875 0 5.78125-1.292969 7.710937-3.550781s2.773437-5.230469 2.3125-8.164062zm-38.328125-59.65625-16.082031 20.503906c-6.078125-1.652344-12.914063-2.835938-19.789063-3.683594l10.257813-38.097656c2.925781 1.625 5.773437 3.425781 8.523437 5.40625 6.316406 4.542968 12.066406 9.902344 17.089844 15.871094zm-78.988281 14.839843c-17.1875-.042969-31.59375-12.113281-35.25-28.222656h15.433593c4.144532 0 7.5-3.355469 7.5-7.5 0-4.140625-3.355468-7.5-7.5-7.5h-16.339843v-3.226563c0-.148437.121093-.273437.273437-.273437h48.121094c9.382812 0 18.554688 1.53125 27.253906 4.476563l-11.535156 42.84375c-9.828125-.621094-20.414062-.78125-27.957031-.597657zm77.339843 11.5625 10.699219-13.636719c11.515625 19.480469 12.085938 36.175782 13.128907 40.765626-.457032-.542969-6.671876-16.910157-23.828126-27.128907zm0 0"/><path d="m274.734375 388.839844c-7.824219-14.5625-19.050781-27.363282-32.46875-37.019532-17.125-12.320312-37.328125-18.835937-58.425781-18.835937h-48.121094c-8.417969 0-15.269531 6.851563-15.269531 15.273437v3.226563h-16.996094c-4.140625 0-7.5 3.359375-7.5 7.5 0 4.144531 3.359375 7.5 7.5 7.5h17.628906c3.863281 24.457031 25.085938 43.222656 50.613281 43.222656.0625 0 .125-.003906.1875-.003906 13.59375-.34375 52.199219.488281 67.332032 8.300781 8.105468 4.183594 14.78125 11.253906 18.800781 19.90625 3.757813 8.097656 11.957031 13.328125 20.882813 13.328125 2.96875 0 5.78125-1.292969 7.710937-3.550781 1.929687-2.253906 2.769531-5.230469 2.3125-8.164062l-2.5-15.917969c-1.914063-12.195313-5.847656-23.890625-11.6875-34.765625zm-24.140625-8.972656-16.082031 20.503906c-6.078125-1.652344-12.914063-2.835938-19.789063-3.683594l10.257813-38.097656c9.777343 5.421875 18.5 12.824218 25.613281 21.277344zm-78.988281 14.839843c-17.1875-.042969-31.59375-12.113281-35.25-28.222656h15.433593c4.144532 0 7.5-3.355469 7.5-7.5 0-4.140625-3.355468-7.5-7.5-7.5h-16.339843v-3.226563c0-.148437.121093-.273437.273437-.273437h48.121094c9.382812 0 18.554688 1.53125 27.253906 4.476563l-11.535156 42.84375c-9.828125-.621094-20.414062-.78125-27.957031-.597657zm77.339843 11.5625 10.699219-13.636719c11.515625 19.480469 12.085938 36.175782 13.128907 40.765626-.457032-.542969-6.671876-16.910157-23.828126-27.128907zm0 0"/></svg>