<svg height="512pt" viewBox="0 0 512 512" width="512pt" xmlns="http://www.w3.org/2000/svg"><path d="m50 78.5h412v396h-412zm0 0" fill="#4c779f"/><path d="m7.5 7.5h497v100h-497zm0 0" fill="#fe5555"/><path d="m474.5 7.5h30v100h-30zm0 0" fill="#e84141"/><path d="m7.5 107.5h60v347h-60zm0 0" fill="#d1ffff"/><path d="m37.5 107.5h30v347h-30zm0 0" fill="#bbeded"/><path d="m444.5 107.5h60v347h-60zm0 0" fill="#d1ffff"/><path d="m474.5 107.5h30v347h-30zm0 0" fill="#bbeded"/><path d="m67.5 333h123v121.5h-123zm0 0" fill="#f5b387"/><path d="m160.5 333h30v121.5h-30zm0 0" fill="#db9a6c"/><path d="m67.5 211.5h80v121.5h-80zm0 0" fill="#db9a6c"/><path d="m315.5 296.5h129v158h-129zm0 0" fill="#f5b387"/><path d="m414.5 296.5h30v158h-30zm0 0" fill="#db9a6c"/><path d="m444.5 296.5h-80v-134h80zm0 0" fill="#db9a6c"/><path d="m414.5 162.5h30v134h-30zm0 0" fill="#c48252"/><path d="m299.5 70h-87c-8.285156 0-15-6.714844-15-15s6.714844-15 15-15h87c8.285156 0 15 6.714844 15 15s-6.714844 15-15 15zm0 0" fill="#ffd659"/><path d="m7.5 454.5h497v50h-497zm0 0" fill="#3a5c7a"/><g fill="#bdf9ff"><path d="m125.75 107.5h40v310h-40zm0 0"/><path d="m346.25 107.5h40v310h-40zm0 0"/><path d="m236 107.5h40v310h-40zm0 0"/></g><path d="m504.5 0h-56.75c-4.140625 0-7.5 3.355469-7.5 7.5s3.359375 7.5 7.5 7.5h49.25v85c-145.6875 0-336.199219 0-482 0v-85h400.375c4.140625 0 7.5-3.355469 7.5-7.5s-3.359375-7.5-7.5-7.5h-407.875c-4.140625 0-7.5 3.355469-7.5 7.5v497c0 4.144531 3.359375 7.5 7.5 7.5h497c4.140625 0 7.5-3.355469 7.5-7.5 0-22.035156 0-475.597656 0-497 0-4.144531-3.359375-7.5-7.5-7.5zm-7.5 115v332h-45c0-17.234375 0-317.023438 0-332zm-60 40h-43.25v-40h43.25zm-43.25 15h43.25v119h-43.25zm-15-55v295h-25v-295zm-70.75 181.5v150.5h-110v-114c0-4.144531-3.359375-7.5-7.5-7.5h-17.25v-210.5h55.25v302.5c0 4.144531 3.359375 7.5 7.5 7.5h40c4.140625 0 7.5-3.355469 7.5-7.5v-302.5h55.25v174h-23.25c-4.140625 0-7.5 3.355469-7.5 7.5zm-189.75 29h-43.25v-106.5h43.25zm-43.25 15h43.25v77c0 4.144531 3.359375 7.5 7.5 7.5h40c4.140625 0 7.5-3.355469 7.5-7.5v-77h9.75v106.5h-108zm193.5-225.5v295h-25v-295zm-110.25 0v295h-25v-295zm-98.25 0v12.832031c0 4.144531 3.359375 7.5 7.5 7.5s7.5-3.355469 7.5-7.5v-12.832031h43.25v89h-43.25v-44.167969c0-4.140625-3.359375-7.5-7.5-7.5s-7.5 3.359375-7.5 7.5v287.167969h-45v-332zm437 382h-482v-35h368.75c4.140625 0 7.5-3.355469 7.5-7.5s-3.359375-7.5-7.5-7.5h-60.75v-143h15.75v113.5c0 4.144531 3.359375 7.5 7.5 7.5h40c4.140625 0 7.5-3.355469 7.5-7.5v-113.5h43.25v143h-21c-4.140625 0-7.5 3.355469-7.5 7.5s3.359375 7.5 7.5 7.5h81zm0 0"/><path d="m212.5 32.5c-12.40625 0-22.5 10.09375-22.5 22.5s10.09375 22.5 22.5 22.5h87c12.40625 0 22.5-10.09375 22.5-22.5s-10.09375-22.5-22.5-22.5zm94.5 22.5c0 4.136719-3.363281 7.5-7.5 7.5h-87c-4.136719 0-7.5-3.363281-7.5-7.5s3.363281-7.5 7.5-7.5h87c4.136719 0 7.5 3.363281 7.5 7.5zm0 0"/></svg>