<svg height="512.001pt" viewBox="0 0 512.001 512.001" width="512.001pt" xmlns="http://www.w3.org/2000/svg"><path d="m316.957031 44.398438h64.59375v154.203124h-64.59375zm0 0" fill="#ffbd54"/><path d="m316.957031 44.398438h64.59375v154.203124h-64.59375zm0 0" fill="#ffbd54"/><path d="m224.878906 44.398438h118.472656v154.203124h-118.472656zm0 0" fill="#ffd659"/><path d="m224.878906 44.398438h118.472656v154.203124h-118.472656zm0 0" fill="#ffd659"/><path d="m130.519531 198.601562h-66.792969c-14.269531 0-25.835937-11.570312-25.835937-25.839843v-79.488281c0-14.273438 11.566406-25.839844 25.835937-25.839844h66.792969c14.273438 0 25.839844 11.570312 25.839844 25.839844v79.488281c0 14.269531-11.566406 25.839843-25.839844 25.839843zm0 0" fill="#fe5555"/><path d="m290.726562 13.976562v161.851563c0 11.96875-9.703124 21.671875-21.671874 21.671875h-81.277344v-186.796875c1.710937-1.609375 3.441406-3.203125 6.867187-3.203125 6.917969 0 6.917969 6.503906 13.832031 6.503906 6.832032 0 6.917969-6.347656 13.585938-6.5.082031-.003906.164062-.003906.25-.003906 6.921875 0 6.921875 6.503906 13.839844 6.503906 6.914062 0 6.914062-6.503906 13.835937-6.503906 6.917969 0 6.917969 6.503906 13.839844 6.503906 5.644531 0 6.683594-4.328125 10.636719-5.925781.890625-.355469 1.925781-.578125 3.199218-.578125 6.652344 0 6.910157 6.011719 13.0625 6.476562zm0 0" fill="#db9a6c"/><path d="m277.664062 7.5c-1.273437 0-2.308593.222656-3.199218.578125-3.949219 1.597656-4.992188 5.925781-10.636719 5.925781-1.226563 0-2.230469-.210937-3.101563-.546875v162.371094c0 11.96875-9.703124 21.671875-21.671874 21.671875h30c11.96875 0 21.671874-9.703125 21.671874-21.671875v-161.851563c-6.152343-.464843-6.410156-6.476562-13.0625-6.476562zm0 0" fill="#c48252"/><path d="m243.742188 197.5h-137.332032c-11.96875 0-21.671875-9.703125-21.671875-21.671875v-168.296875c6.140625.472656 6.402344 6.472656 13.046875 6.472656 6.917969 0 6.917969-6.503906 13.839844-6.503906 6.914062 0 6.914062 6.503906 13.832031 6.503906s6.917969-6.503906 13.839844-6.503906c6.917969 0 6.917969 6.503906 13.835937 6.503906 6.914063 0 6.914063-6.503906 13.835938-6.503906 6.917969 0 6.917969 6.503906 13.835938 6.503906 3.496093 0 5.226562-1.65625 6.96875-3.300781 1.714843-1.609375 3.445312-3.203125 6.871093-3.203125 6.914063 0 6.914063 6.503906 13.832031 6.503906 6.832032 0 6.917969-6.347656 13.585938-6.5v168.324219c0 11.96875 9.703125 21.671875 21.679688 21.671875zm0 0" fill="#f5b387"/><path d="m374.5 373.152344h-307.65625c-14.980469 0-27.664062-11.050782-29.714844-25.890625l-28.894531-209.015625c-.667969-4.804688 3.070313-9.09375 7.921875-9.09375h388.34375v214c0 16.570312-13.429688 30-30 30zm0 0" fill="#d1ffff"/><path d="m504.5 110.910156c0 8.285156-6.714844 15-15 15h-47c-4.417969 0-8 3.582032-8 8v298.089844h-30v-306.089844c0-16.566406 13.429688-30 30-30h55c8.285156 0 15 6.71875 15 15zm0 0" fill="#ace0e0"/><path d="m485.9375 464.617188-46.273438-46.273438c-2.8125-2.816406-6.628906-4.394531-10.605468-4.394531h-346.007813c-3.976562 0-7.792969 1.578125-10.605469 4.394531l-45.550781 45.550781c-5.859375 5.855469-5.859375 15.355469 0 21.210938 5.855469 5.859375 15.355469 5.859375 21.210938 0l41.160156-41.15625h333.578125l41.882812 41.882812c2.929688 2.929688 6.769532 4.394531 10.609376 4.394531 3.835937 0 7.675781-1.464843 10.605468-4.394531 5.855469-5.859375 5.855469-15.355469-.003906-21.214843zm0 0" fill="#d1ffff"/><path d="m67.5 474.5c0 16.570312-13.429688 30-30 30s-30-13.429688-30-30 13.429688-30 30-30 30 13.429688 30 30zm0 0" fill="#4c779f"/><path d="m504.5 474.5c0 16.570312-13.429688 30-30 30s-30-13.429688-30-30 13.429688-30 30-30 30 13.429688 30 30zm0 0" fill="#4c779f"/><path d="m474.5 437c-1.765625 0-3.5.132812-5.203125.367188l-24.332031-24.332032c-.925782-.921875-1.921875-1.734375-2.964844-2.472656v-26.8125c0-4.144531-3.355469-7.5-7.5-7.5s-7.5 3.355469-7.5 7.5v22.699219h-15v-280.539063c0-12.40625 10.09375-22.5 22.5-22.5h55c4.136719 0 7.5 3.363282 7.5 7.5 0 4.136719-3.363281 7.5-7.5 7.5h-47c-8.546875 0-15.5 6.953125-15.5 15.5v217.964844c0 4.144531 3.355469 7.5 7.5 7.5s7.5-3.355469 7.5-7.5v-217.964844c0-.273437.226562-.5.5-.5h47c12.40625 0 22.5-10.09375 22.5-22.5s-10.09375-22.5-22.5-22.5h-55c-19.238281 0-35.128906 14.5625-37.25 33.242188h-8.199219v-77.253906c0-4.140626-3.359375-7.5-7.5-7.5h-83.320312v-22.917969c0-3.921875-3.019531-7.179688-6.929688-7.480469-.132812-.007812-.1875-.027344-.1875-.027344-1.226562-.484375-4.933593-6.472656-13.453125-6.472656-2.15625 0-4.1875.382812-5.984375 1.121094-4.242187 1.703125-6.628906 5.015625-7.453125 5.34375 0 0-.109375.035156-.394531.035156-.289063 0-.394531-.035156-.398437-.035156-1.21875-.480469-4.929688-6.464844-13.441407-6.464844-8.550781 0-12.191406 5.976562-13.4375 6.464844-.003906 0-.109375.035156-.402343.035156-.289063 0-.394532-.035156-.398438-.035156-1.21875-.476563-4.921875-6.464844-13.441406-6.464844-.097656 0-.195313.0117188-.292969.015625-.042969 0-.082031-.0039062-.125-.0039062-8.226563.1835932-11.800781 5.9804692-13.011719 6.4531252 0 0-.109375.035156-.398437.035156-.292969 0-.398438-.035156-.398438-.035156-1.21875-.476563-4.925781-6.464844-13.441406-6.464844-9.035156 0-12.214844 6.5-13.839844 6.5-.242187 0-.367187-.023438-.390625-.035156-1.269531-.519532-4.90625-6.464844-13.441406-6.464844-8.554688 0-12.191406 5.976562-13.441406 6.464844 0 0-.105469.035156-.398438.035156-.289062 0-.398437-.035156-.398437-.035156-1.21875-.480469-4.929688-6.464844-13.429688-6.464844-8.554687 0-12.195312 5.976562-13.441406 6.464844 0 0-.109375.035156-.398437.035156-.292969 0-.398438-.035156-.398438-.035156-1.21875-.476563-4.925781-6.464844-13.441406-6.464844-8.554688 0-12.207032 5.984375-13.441406 6.464844-.019532.007812-.148438.035156-.398438.035156-.242188 0-.367188-.023438-.394531-.035156-1.136719-.46875-4.597657-5.839844-12.074219-6.4140628-4.363281-.3281252-8.074219 3.1210938-8.074219 7.4804688v52.398438h-13.507812c-18.382813 0-33.339844 14.957031-33.339844 33.339843v28.382813h-14.234375c-4.480469 0-8.742188 1.9375-11.683594 5.320312-2.945312 3.378906-4.28125 7.863282-3.667968 12.304688l28.894531 209.011718c2.546875 18.449219 18.519531 32.363282 37.144531 32.363282h307.65625c8.4375 0 16.226562-2.800782 22.5-7.519532v33.316407h-269.332031c-4.144531 0-7.5 3.359375-7.5 7.5 0 4.144531 3.355469 7.5 7.5 7.5h301.390625c1.894531 0 3.832031.730469 5.296875 2.195312l19.546875 19.542969c-4.210938 2.777344-7.832032 6.382812-10.628906 10.582031l-15.132813-15.125c-1.40625-1.40625-3.3125-2.195312-5.300781-2.195312h-333.570313c-1.988281 0-3.898437.789062-5.300781 2.195312l-15.195312 15.195313c-2.789063-4.207032-6.402344-7.820313-10.605469-10.609375l19.585937-19.585938c1.414063-1.414062 3.292969-2.195312 5.296875-2.195312h12.613281c4.144532 0 7.5-3.355469 7.5-7.5 0-4.140625-3.355468-7.5-7.5-7.5h-12.613281c-6.007812 0-11.65625 2.339843-15.902343 6.585937l-24.347657 24.347656c-1.734375-.246093-3.5-.382812-5.300781-.382812-20.679688 0-37.5 16.820312-37.5 37.5s16.820312 37.5 37.5 37.5 37.5-16.820312 37.5-37.5c0-1.796875-.136719-3.5625-.378906-5.292969l17.757812-17.757812h327.355469l17.660156 17.652343c-.253906 1.765626-.394531 3.566407-.394531 5.398438 0 20.679688 16.824219 37.5 37.5 37.5 20.679688 0 37.5-16.820312 37.5-37.5 0-20.675781-16.820312-37.5-37.5-37.5zm-100.449219-315.347656h-23.199219v-69.753906h23.199219zm-38.199219-69.753906v69.753906h-37.621093v-69.753906zm-99.703124-30.398438c9.070312 0 12.21875-6.5 13.839843-6.5.292969 0 .398438.035156.402344.035156 1.21875.476563 4.921875 6.464844 13.4375 6.464844 9.144531 0 12.167969-6.5 13.832031-6.5 1.0625 0 2.289063 2.222656 5.570313 4.234375v102.417969h-18.613281v-89.214844c0-4.144531-3.355469-7.5-7.5-7.5-4.140626 0-7.5 3.355469-7.5 7.5v89.214844h-20.058594v-101.527344c1.773437.804688 3.929687 1.375 6.589844 1.375zm-190.757813 71.769531c0-10.113281 8.226563-18.339843 18.339844-18.339843h13.507812v46.722656h-31.847656zm329.109375 272.382813h-307.65625c-11.175781 0-20.757812-8.347656-22.289062-19.417969l-28.894532-209.011719c-.007812-.0625-.027344-.226562.121094-.398437s.316406-.171875.375-.171875h79.679688c4.140624 0 7.5-3.355469 7.5-7.5 0-4.140625-3.359376-7.5-7.5-7.5h-3.597657v-101.09375c1.558594.570312 3.386719.941406 5.542969.941406 8.554688 0 12.191406-5.976562 13.441406-6.464844 0 0 .105469-.035156.398438-.035156.289062 0 .398437.035156.398437.035156 1.21875.476563 4.921875 6.464844 13.441407 6.464844 8.554687 0 12.191406-5.976562 13.441406-6.464844 0 0 .105468-.035156.398437-.035156.238281 0 .367188.023438.390625.035156 1.273438.523438 4.902344 6.464844 13.4375 6.464844 9.15625 0 12.171875-6.5 13.839844-6.5.292969 0 .398438.035156.398438.035156 1.21875.480469 4.929687 6.464844 13.433593 6.464844 8.546875 0 12.199219-5.964844 13.445313-6.464844 0 0 .109375-.035156.394531-.035156.292969 0 .398437.035156.398437.035156 1.222657.476563 4.925782 6.464844 13.441407 6.464844 2.410156 0 4.410156-.464844 6.082031-1.148438v101.300782h-86.394531c-4.144531 0-7.5 3.359375-7.5 7.5 0 4.144531 3.355469 7.5 7.5 7.5h268.832031v206.5c0 12.40625-10.09375 22.5-22.5 22.5zm-337 131.347656c-12.40625 0-22.5-10.09375-22.5-22.5s10.09375-22.5 22.5-22.5c12.296875 0 22.5 9.996094 22.5 22.5 0 12.40625-10.09375 22.5-22.5 22.5zm437 0c-12.40625 0-22.5-10.09375-22.5-22.5 0-12.347656 10.046875-22.5 22.5-22.5 12.40625 0 22.5 10.09375 22.5 22.5s-10.09375 22.5-22.5 22.5zm0 0"/><path d="m78 167.5c-4.140625 0-7.5 3.355469-7.5 7.5v150c0 4.144531 3.359375 7.5 7.5 7.5s7.5-3.355469 7.5-7.5v-150c0-4.144531-3.359375-7.5-7.5-7.5zm0 0"/><path d="m124 167.5c-4.140625 0-7.5 3.355469-7.5 7.5v150c0 4.144531 3.359375 7.5 7.5 7.5s7.5-3.355469 7.5-7.5v-150c0-4.144531-3.359375-7.5-7.5-7.5zm0 0"/><path d="m170 167.5c-4.140625 0-7.5 3.355469-7.5 7.5v150c0 4.144531 3.359375 7.5 7.5 7.5s7.5-3.355469 7.5-7.5v-150c0-4.144531-3.359375-7.5-7.5-7.5zm0 0"/><path d="m216 167.5c-4.140625 0-7.5 3.355469-7.5 7.5v150c0 4.144531 3.359375 7.5 7.5 7.5s7.5-3.355469 7.5-7.5v-150c0-4.144531-3.359375-7.5-7.5-7.5zm0 0"/><path d="m262 167.5c-4.144531 0-7.5 3.355469-7.5 7.5v150c0 4.144531 3.355469 7.5 7.5 7.5s7.5-3.355469 7.5-7.5v-150c0-4.144531-3.355469-7.5-7.5-7.5zm0 0"/><path d="m308 167.5c-4.144531 0-7.5 3.355469-7.5 7.5v150c0 4.144531 3.355469 7.5 7.5 7.5s7.5-3.355469 7.5-7.5v-150c0-4.144531-3.355469-7.5-7.5-7.5zm0 0"/><path d="m354 167.5c-4.144531 0-7.5 3.355469-7.5 7.5v150c0 4.144531 3.355469 7.5 7.5 7.5s7.5-3.355469 7.5-7.5v-150c0-4.144531-3.355469-7.5-7.5-7.5zm0 0"/></svg>