<svg height="512pt" viewBox="-58 0 512 512" width="512pt" xmlns="http://www.w3.org/2000/svg"><path d="m128.5 339.5c-38.660156 0-70-31.339844-70-70v-192c0-38.660156 31.339844-70 70-70s70 31.339844 70 70v192c0 38.660156-31.339844 70-70 70zm0 0" fill="#f5b387"/><path d="m128.5 7.5c-5.152344 0-10.164062.570312-15 1.628906 31.449219 6.867188 55 34.863282 55 68.371094v192c0 33.507812-23.550781 61.503906-55 68.371094 4.835938 1.058594 9.847656 1.628906 15 1.628906 38.660156 0 70-31.339844 70-70v-192c0-38.660156-31.339844-70-70-70zm0 0" fill="#db9a6c"/><path d="m153.5 109.488281h-95v-30h95c8.285156 0 15 6.714844 15 15 0 8.285157-6.714844 15-15 15zm0 0" fill="#edbfa1"/><path d="m153.5 169h-95v-30h95c8.285156 0 15 6.714844 15 15s-6.714844 15-15 15zm0 0" fill="#edbfa1"/><path d="m268.5 339.5c-38.660156 0-70-31.339844-70-70v-192c0-38.660156 31.339844-70 70-70s70 31.339844 70 70v192c0 38.660156-31.339844 70-70 70zm0 0" fill="#f5b387"/><path d="m268.5 7.5c-5.152344 0-10.164062.570312-15 1.628906 31.449219 6.867188 55 34.863282 55 68.371094v192c0 33.507812-23.550781 61.503906-55 68.371094 4.835938 1.058594 9.847656 1.628906 15 1.628906 38.660156 0 70-31.339844 70-70v-192c0-38.660156-31.339844-70-70-70zm0 0" fill="#db9a6c"/><path d="m293.5 109.488281h-95v-30h95c8.285156 0 15 6.714844 15 15 0 8.285157-6.714844 15-15 15zm0 0" fill="#edbfa1"/><path d="m293.5 169h-95v-30h95c8.285156 0 15 6.714844 15 15s-6.714844 15-15 15zm0 0" fill="#edbfa1"/><path d="m387.5 165.949219v298.570312c0 22.082031-17.898438 39.980469-39.980469 39.980469h-149.941406v-344.589844c3.160156-2.96875 6.351563-5.910156 12.671875-5.910156 12.761719 0 12.761719 12 25.519531 12 12.601563 0 12.761719-11.710938 25.058594-11.988281.152344-.011719.300781-.011719.460937-.011719 12.769532 0 12.769532 12 25.53125 12 12.757813 0 12.757813-12 25.53125-12 12.757813 0 12.757813 12 25.527344 12 10.410156 0 12.332032-7.988281 19.621094-10.929688 1.640625-.660156 3.550781-1.070312 5.898438-1.070312 12.273437 0 12.75 11.089844 24.101562 11.949219zm0 0" fill="#edcfb2"/><path d="m387.5 165.949219v298.570312c0 22.082031-17.898438 39.980469-39.980469 39.980469h-30c22.082031 0 39.980469-17.898438 39.980469-39.980469v-309.449219c1.640625-.660156 3.550781-1.070312 5.898438-1.070312 12.273437 0 12.75 11.089844 24.101562 11.949219zm0 0" fill="#cfb49b"/><path d="m300.820312 504.5h-253.339843c-22.082031 0-39.980469-17.898438-39.980469-39.980469v-310.460937c11.328125.871094 11.808594 11.941406 24.070312 11.941406 12.757813 0 12.757813-12 25.53125-12 12.757813 0 12.757813 12 25.519532 12 12.757812 0 12.757812-12 25.527344-12 12.761718 0 12.761718 12 25.523437 12 12.757813 0 12.757813-12 25.527344-12 12.761719 0 12.761719 12 25.519531 12 6.453125 0 9.640625-3.058594 12.859375-6.089844 3.160156-2.96875 6.351563-5.910156 12.671875-5.910156 12.761719 0 12.761719 12 25.519531 12 12.601563 0 12.761719-11.710938 25.058594-11.988281v310.507812c0 22.082031 17.902344 39.980469 39.992187 39.980469zm0 0" fill="#fff0d0"/><path d="m387.5 423.5c4.144531 0 7.5-3.355469 7.5-7.5v-250.050781c0-3.921875-3.023438-7.179688-6.933594-7.476563-7-.53125-9.488281-11.972656-24.667968-11.972656-7.371094 0-12.226563 2.738281-17.398438 7.570312v-76.570312c0-17.6875-5.808594-34.347656-16.789062-48.179688-2.578126-3.246093-7.296876-3.785156-10.539063-1.207031-3.242187 2.574219-3.785156 7.292969-1.207031 10.535157 8.855468 11.152343 13.535156 24.585937 13.535156 38.851562v77.734375c-.242188-.226563-.484375-.449219-.753906-.699219-3.28125-3.085937-7.683594-7.199218-15.496094-7.917968-3.0625-8.789063-11.429688-15.117188-21.25-15.117188h-87.5v-14.511719h87.5c12.40625 0 22.5-10.09375 22.5-22.5s-10.09375-22.5-22.5-22.5h-87.242188c2.800782-31.890625 29.636719-56.988281 62.242188-56.988281 9.296875 0 18.242188 1.992188 26.585938 5.921875 3.746093 1.757813 8.214843.152344 9.980468-3.59375 1.761719-3.75.15625-8.214844-3.59375-9.980469-10.355468-4.875-21.449218-7.347656-32.972656-7.347656-30.824219 0-57.496094 18.09375-69.972656 44.214844-3.757813-7.886719-8.867188-15.15625-15.226563-21.519532-14.644531-14.636718-34.109375-22.695312-54.800781-22.695312-42.734375 0-77.5 34.765625-77.5 77.5v69.746094c-10.726562 2.78125-12.421875 11.253906-19.429688 11.253906-7.539062 0-9.660156-10.855469-23.496093-11.917969-4.304688-.34375-8.074219 3.074219-8.074219 7.476563v37.941406c0 4.144531 3.355469 7.5 7.5 7.5s7.5-3.355469 7.5-7.5v-25.300781c3.496094 3.183593 8.3125 6.800781 16.570312 6.800781 15.8125 0 17.367188-12 25.527344-12 8.097656 0 9.851563 12 25.523438 12 15.808594 0 17.367187-12 25.527344-12 8.105468 0 9.777343 12 25.523437 12 15.808594 0 17.367187-12 25.527344-12 8.105469 0 9.773437 12 25.519531 12 16.132812 0 17.265625-12 25.53125-12 8.105469 0 9.773438 12 25.519531 12 9.0625 0 13.984375-4.363281 17.5625-7.71875v298.738281c0 12.550781 4.894531 23.980469 12.878907 32.480469h-218.730469c-17.910157 0-32.480469-14.570312-32.480469-32.480469v-240.519531c0-4.144531-3.355469-7.5-7.5-7.5s-7.5 3.355469-7.5 7.5v240.519531c0 26.179688 21.300781 47.480469 47.480469 47.480469h300.039062c26.179688 0 47.480469-21.300781 47.480469-47.480469v-16.6875c0-4.140625-3.355469-7.5-7.5-7.5s-7.5 3.359375-7.5 7.5v16.6875c0 17.910157-14.570312 32.480469-32.480469 32.480469h-46.699219c-17.914062 0-32.492187-14.570312-32.492187-32.480469v-299.605469c5.125 4.753907 9.539063 8.585938 18.492187 8.585938 15.820313 0 17.351563-12 25.527344-12 8.109375 0 9.777344 12 25.53125 12 .101563 0 .808594-.015625 1.113282-.035156 14.488281-.597656 16.777343-11.964844 24.40625-11.964844 6.46875 0 7.921874 6.683594 16.601562 10.304688v244.195312c0 4.144531 3.355469 7.5 7.5 7.5zm-86.5-329.011719c0 4.136719-3.363281 7.5-7.5 7.5h-87.5v-15h87.5c4.136719 0 7.5 3.363281 7.5 7.5zm-147.5-7.5c4.136719 0 7.5 3.363281 7.5 7.5s-3.363281 7.5-7.5 7.5h-87.5v-15zm-19.828125 71.511719c-8.105469 0-9.777344-12-25.523437-12-15.808594 0-17.382813 12-25.527344 12-6.480469 0-7.929688-6.710938-16.621094-10.316406v-1.683594h87.5c.6875 0 1.347656.101562 1.976562.273438-12.464843 1.835937-14.472656 11.726562-21.804687 11.726562zm42.316406-4.996094c-.265625-12.179687-10.25-22.003906-22.488281-22.003906h-87.5v-14.511719h87.5c12.40625 0 22.5-10.09375 22.5-22.5s-10.09375-22.5-22.5-22.5h-87.242188c2.800782-31.890625 29.636719-56.988281 62.242188-56.988281 16.6875 0 32.386719 6.5 44.195312 18.300781 11.804688 11.8125 18.304688 27.511719 18.304688 44.199219v78.273438c-2.132812 1.910156-3.535156 2.726562-6.28125 2.726562-3.84375 0-5.117188-1.675781-8.730469-4.996094zm110.832031 4.996094c-8.109374 0-9.777343-12-25.53125-12-.128906 0-.257812.011719-.386718.019531-.082032 0-.160156-.007812-.242188-.007812-14.949218.339843-17.132812 11.988281-24.890625 11.988281-8.105469 0-9.773437-12-25.519531-12-1.53125 0-2.9375.136719-4.25.367188v-.367188h87.5c2.6875 0 5.042969 1.425781 6.367188 3.582031-6.160157 4.003907-7.542969 8.417969-13.046876 8.417969zm0 0"/><path d="m318 200v260c0 4.144531 3.355469 7.5 7.5 7.5s7.5-3.355469 7.5-7.5v-260c0-4.144531-3.355469-7.5-7.5-7.5s-7.5 3.355469-7.5 7.5zm0 0"/></svg>