<svg height="512pt" viewBox="-142 0 512 512" width="512pt" xmlns="http://www.w3.org/2000/svg"><path d="m220.5 77.5v212c0 33.136719-26.863281 60-60 60h-54c-33.136719 0-60-26.863281-60-60v-162h-27c-6.628906 0-12-5.371094-12-12v-96c0-6.628906 5.371094-12 12-12h131c38.660156 0 70 31.339844 70 70zm0 0" fill="#4c779f"/><path d="m150.5 7.5h-30c38.660156 0 70 31.339844 70 70v212c0 33.136719-26.863281 60-60 60h30c33.136719 0 60-26.863281 60-60v-212c0-38.660156-31.339844-70-70-70zm0 0" fill="#3a5c7a"/><path d="m121.5 90.5h-114v-50h114c5.523438 0 10 4.476562 10 10v30c0 5.523438-4.476562 10-10 10zm0 0" fill="#fe5555"/><path d="m121.5 40.5h-30c5.523438 0 10 4.476562 10 10v30c0 5.523438-4.476562 10-10 10h30c5.523438 0 10-4.476562 10-10v-30c0-5.523438-4.476562-10-10-10zm0 0" fill="#e84141"/><path d="m108.230469 349.5h50v30h-50zm0 0" fill="#bbeded"/><path d="m119.230469 379.5h28v125h-28zm0 0" fill="#4c779f"/><path d="m117.5 224h-20c-5.523438 0-10-4.476562-10-10v-40c0-5.523438 4.476562-10 10-10h20c5.523438 0 10 4.476562 10 10v40c0 5.523438-4.476562 10-10 10zm0 0" fill="#60d9fe"/><path d="m220.5 120.25c-4.140625 0-7.5 3.355469-7.5 7.5v161.75c0 28.949219-23.550781 52.5-52.5 52.5h-54c-28.949219 0-52.5-23.550781-52.5-52.5v-5.75c0-4.144531-3.359375-7.5-7.5-7.5s-7.5 3.355469-7.5 7.5v5.75c0 35.273438 27.203125 64.296875 61.730469 67.234375v22.765625c0 4.144531 3.359375 7.5 7.5 7.5h3.5v117.5c0 4.144531 3.359375 7.5 7.5 7.5h28c4.144531 0 7.5-3.355469 7.5-7.5v-117.5h3.5c4.144531 0 7.5-3.355469 7.5-7.5v-22.722656c34.78125-2.679688 62.269531-31.820313 62.269531-67.277344v-161.75c0-4.144531-3.359375-7.5-7.5-7.5zm-69.769531 236.75v15h-35v-15zm-11 140h-13v-110h13zm0 0"/><path d="m150.5 0h-131c-10.753906 0-19.5 8.746094-19.5 19.5v96c0 10.753906 8.746094 19.5 19.5 19.5h19.5v116.875c0 4.144531 3.359375 7.5 7.5 7.5s7.5-3.355469 7.5-7.5v-124.375c0-4.144531-3.359375-7.5-7.5-7.5h-27c-2.480469 0-4.5-2.019531-4.5-4.5v-17.5h106.5c9.648438 0 17.5-7.851562 17.5-17.5v-30c0-9.648438-7.851562-17.5-17.5-17.5h-67.332031c-4.144531 0-7.5 3.355469-7.5 7.5s3.355469 7.5 7.5 7.5h67.332031c1.378906 0 2.5 1.121094 2.5 2.5v30c0 1.378906-1.121094 2.5-2.5 2.5h-106.5v-35h7.332031c4.144531 0 7.5-3.355469 7.5-7.5s-3.355469-7.5-7.5-7.5h-7.332031v-13.5c0-2.480469 2.019531-4.5 4.5-4.5h131c34.460938 0 62.5 28.035156 62.5 62.5v18.5c0 4.144531 3.359375 7.5 7.5 7.5s7.5-3.355469 7.5-7.5v-18.5c0-42.734375-34.765625-77.5-77.5-77.5zm0 0"/><path d="m117.5 231.5c9.648438 0 17.5-7.851562 17.5-17.5v-40c0-9.648438-7.851562-17.5-17.5-17.5h-20c-9.648438 0-17.5 7.851562-17.5 17.5v40c0 9.648438 7.851562 17.5 17.5 17.5zm-22.5-17.5v-40c0-1.378906 1.121094-2.5 2.5-2.5h20c1.378906 0 2.5 1.121094 2.5 2.5v40c0 1.378906-1.121094 2.5-2.5 2.5h-20c-1.378906 0-2.5-1.121094-2.5-2.5zm0 0"/></svg>