<svg height="512pt" viewBox="0 0 512 512" width="512pt" xmlns="http://www.w3.org/2000/svg"><path d="m500.5 504.5h-489c-2.210938 0-4-1.789062-4-4v-489c0-2.210938 1.789062-4 4-4h489c2.210938 0 4 1.789062 4 4v489c0 2.210938-1.789062 4-4 4zm0 0" fill="#3a5c7a"/><path d="m500.5 7.5h-30c2.210938 0 4 1.789062 4 4v489c0 2.210938-1.789062 4-4 4h30c2.210938 0 4-1.789062 4-4v-489c0-2.210938-1.789062-4-4-4zm0 0" fill="#355570"/><path d="m37.5 394.226562v-352.726562c0-2.210938 1.789062-4 4-4h429c2.210938 0 4 1.789062 4 4v352.726562c0 2.210938-1.789062 4-4 4h-429c-2.210938 0-4-1.789062-4-4zm0 0" fill="#60d9fe"/><path d="m470.5 37.5h-30c2.210938 0 4 1.789062 4 4v352.726562c0 2.210938-1.789062 4-4 4h30c2.210938 0 4-1.789062 4-4v-352.726562c0-2.210938-1.789062-4-4-4zm0 0" fill="#40ccf7"/><path d="m37.5 204h437v30h-437zm0 0" fill="#4c779f"/><path d="m444.5 204h30v30h-30zm0 0" fill="#3a5c7a"/><path d="m256 398.226562c-24.851562 0-45-20.144531-45-45v-38c0-24.851562 20.148438-45 45-45s45 20.148438 45 45v38c0 24.851563-20.148438 45-45 45zm0 0" fill="#3bd387"/><path d="m256 270.226562c-5.261719 0-10.308594.914063-15 2.574219 17.476562 6.175781 30 22.835938 30 42.425781v38c0 19.59375-12.523438 36.253907-30 42.429688 4.691406 1.660156 9.738281 2.570312 15 2.570312 24.851562 0 45-20.144531 45-45v-38c0-24.851562-20.148438-45-45-45zm0 0" fill="#37c487"/><path d="m136 398.226562c-24.851562 0-45-20.144531-45-45v-38c0-24.851562 20.148438-45 45-45s45 20.148438 45 45v38c0 24.851563-20.148438 45-45 45zm0 0" fill="#3bd387"/><path d="m136 270.226562c-5.261719 0-10.308594.914063-15 2.574219 17.476562 6.175781 30 22.835938 30 42.425781v38c0 19.59375-12.523438 36.253907-30 42.429688 4.691406 1.660156 9.738281 2.570312 15 2.570312 24.851562 0 45-20.144531 45-45v-38c0-24.851562-20.148438-45-45-45zm0 0" fill="#37c487"/><path d="m376 398.226562c-24.851562 0-45-20.144531-45-45v-38c0-24.851562 20.148438-45 45-45s45 20.148438 45 45v38c0 24.851563-20.148438 45-45 45zm0 0" fill="#3bd387"/><path d="m376 270.226562c-5.261719 0-10.308594.914063-15 2.574219 17.476562 6.175781 30 22.835938 30 42.425781v38c0 19.59375-12.523438 36.253907-30 42.429688 4.691406 1.660156 9.738281 2.570312 15 2.570312 24.851562 0 45-20.144531 45-45v-38c0-24.851562-20.148438-45-45-45zm0 0" fill="#37c487"/><path d="m256 204c-24.851562 0-45-20.148438-45-45v-38c0-24.851562 20.148438-45 45-45s45 20.148438 45 45v38c0 24.851562-20.148438 45-45 45zm0 0" fill="#3bd387"/><path d="m256 76c-5.261719 0-10.308594.910156-15 2.570312 17.476562 6.179688 30 22.835938 30 42.429688v38c0 19.59375-12.523438 36.25-30 42.429688 4.691406 1.660156 9.738281 2.570312 15 2.570312 24.851562 0 45-20.148438 45-45v-38c0-24.851562-20.148438-45-45-45zm0 0" fill="#37c487"/><path d="m136 204c-24.851562 0-45-20.148438-45-45v-38c0-24.851562 20.148438-45 45-45s45 20.148438 45 45v38c0 24.851562-20.148438 45-45 45zm0 0" fill="#3bd387"/><path d="m136 76c-5.261719 0-10.308594.910156-15 2.570312 17.476562 6.179688 30 22.835938 30 42.429688v38c0 19.59375-12.523438 36.25-30 42.429688 4.691406 1.660156 9.738281 2.570312 15 2.570312 24.851562 0 45-20.148438 45-45v-38c0-24.851562-20.148438-45-45-45zm0 0" fill="#37c487"/><path d="m376 204c-24.851562 0-45-20.148438-45-45v-38c0-24.851562 20.148438-45 45-45s45 20.148438 45 45v38c0 24.851562-20.148438 45-45 45zm0 0" fill="#3bd387"/><path d="m376 76c-5.261719 0-10.308594.910156-15 2.570312 17.476562 6.179688 30 22.835938 30 42.429688v38c0 19.59375-12.523438 36.25-30 42.429688 4.691406 1.660156 9.738281 2.570312 15 2.570312 24.851562 0 45-20.148438 45-45v-38c0-24.851562-20.148438-45-45-45zm0 0" fill="#37c487"/><g fill="#ffd659"><path d="m164 470h-56c-2.210938 0-4-1.789062-4-4v-32c0-2.210938 1.789062-4 4-4h56c2.210938 0 4 1.789062 4 4v32c0 2.210938-1.789062 4-4 4zm0 0"/><path d="m284 470h-56c-2.210938 0-4-1.789062-4-4v-32c0-2.210938 1.789062-4 4-4h56c2.210938 0 4 1.789062 4 4v32c0 2.210938-1.789062 4-4 4zm0 0"/><path d="m404 470h-56c-2.210938 0-4-1.789062-4-4v-32c0-2.210938 1.789062-4 4-4h56c2.210938 0 4 1.789062 4 4v32c0 2.210938-1.789062 4-4 4zm0 0"/></g><path d="m482 394.226562c0-16.617187 0-338.429687 0-352.726562 0-6.339844-5.160156-11.5-11.5-11.5h-429c-6.339844 0-11.5 5.160156-11.5 11.5v22.167969c0 4.140625 3.359375 7.5 7.5 7.5s7.5-3.359375 7.5-7.5v-18.667969h422v151.5h-54.308594c9.746094-9.535156 15.808594-22.820312 15.808594-37.5v-38c0-28.949219-23.550781-52.5-52.5-52.5s-52.5 23.550781-52.5 52.5v38c0 14.679688 6.0625 27.964844 15.808594 37.5h-46.617188c9.746094-9.535156 15.808594-22.820312 15.808594-37.5v-38c0-28.949219-23.550781-52.5-52.5-52.5s-52.5 23.550781-52.5 52.5v38c0 14.679688 6.0625 27.964844 15.808594 37.5h-46.617188c9.746094-9.535156 15.808594-22.820312 15.808594-37.5v-38c0-28.949219-23.550781-52.5-52.5-52.5s-52.5 23.550781-52.5 52.5v38c0 14.679688 6.0625 27.964844 15.808594 37.5h-54.308594v-100.667969c0-4.140625-3.359375-7.5-7.5-7.5s-7.5 3.359375-7.5 7.5v298.394531c0 6.34375 5.160156 11.5 11.5 11.5h429c6.339844 0 11.5-5.160156 11.5-11.5zm-143.5-235.226562v-38c0-20.679688 16.820312-37.5 37.5-37.5s37.5 16.820312 37.5 37.5v38c0 18.054688-12.824219 33.167969-29.84375 36.710938v-16.515626l14.933594-8.890624c3.558594-2.121094 4.722656-6.722657 2.605468-10.28125-2.121093-3.558594-6.722656-4.726563-10.28125-2.609376l-7.257812 4.324219v-12.4375l14.933594-8.894531c3.558594-2.117188 4.722656-6.722656 2.605468-10.28125-2.121093-3.558594-6.722656-4.726562-10.285156-2.605469l-7.253906 4.324219v-4.34375c0-4.144531-3.355469-7.5-7.5-7.5-4.140625 0-7.5 3.355469-7.5 7.5v4.527344l-7.566406-4.507813c-3.5625-2.121093-8.164063-.953125-10.285156 2.605469-2.117188 3.558594-.953126 8.160156 2.605468 10.28125l15.246094 9.078125v12.4375l-7.566406-4.507813c-3.5625-2.117187-8.164063-.953124-10.28125 2.605469-2.121094 3.558594-.953125 8.160157 2.605468 10.28125l15.242188 9.078125v16.390625c-17.171875-3.417969-30.15625-18.605469-30.15625-36.769531zm-120 0v-38c0-20.679688 16.820312-37.5 37.5-37.5s37.5 16.820312 37.5 37.5v38c0 18.054688-12.824219 33.167969-29.84375 36.710938v-16.515626l14.933594-8.890624c3.558594-2.121094 4.722656-6.722657 2.605468-10.28125-2.121093-3.558594-6.722656-4.726563-10.28125-2.609376l-7.257812 4.324219v-12.4375l14.933594-8.894531c3.558594-2.117188 4.722656-6.722656 2.605468-10.28125-2.121093-3.558594-6.722656-4.726562-10.285156-2.605469l-7.253906 4.324219v-4.34375c0-4.144531-3.355469-7.5-7.5-7.5-4.140625 0-7.5 3.355469-7.5 7.5v4.527344l-7.566406-4.507813c-3.5625-2.121093-8.164063-.953125-10.285156 2.605469-2.117188 3.558594-.953126 8.160156 2.605468 10.28125l15.246094 9.078125v12.4375l-7.566406-4.507813c-3.558594-2.117187-8.164063-.953124-10.28125 2.605469-2.121094 3.558594-.953125 8.160157 2.605468 10.28125l15.242188 9.078125v16.390625c-17.171875-3.417969-30.15625-18.605469-30.15625-36.769531zm-120 0v-38c0-20.679688 16.820312-37.5 37.5-37.5s37.5 16.820312 37.5 37.5v38c0 18.054688-12.824219 33.167969-29.84375 36.710938v-16.515626l14.933594-8.890624c3.558594-2.121094 4.722656-6.722657 2.605468-10.28125-2.121093-3.558594-6.722656-4.726563-10.28125-2.609376l-7.257812 4.324219v-12.4375l14.933594-8.894531c3.558594-2.117188 4.722656-6.722656 2.605468-10.28125-2.121093-3.558594-6.722656-4.726562-10.285156-2.605469l-7.253906 4.324219v-4.34375c0-4.144531-3.355469-7.5-7.5-7.5-4.140625 0-7.5 3.355469-7.5 7.5v4.527344l-7.566406-4.507813c-3.5625-2.121093-8.164063-.953125-10.285156 2.605469-2.117188 3.558594-.953126 8.160156 2.605468 10.28125l15.246094 9.078125v12.4375l-7.566406-4.507813c-3.558594-2.117187-8.164063-.953124-10.28125 2.605469-2.121094 3.558594-.953125 8.160157 2.605468 10.28125l15.242188 9.078125v16.390625c-17.171875-3.417969-30.15625-18.605469-30.15625-36.769531zm368.5 52.5v15h-422v-15zm-323.34375 178.4375v-16.515625l14.933594-8.890625c3.558594-2.121094 4.722656-6.722656 2.605468-10.28125-2.121093-3.558594-6.722656-4.726562-10.28125-2.605469l-7.257812 4.320313v-12.4375l14.933594-8.894532c3.558594-2.117187 4.722656-6.722656 2.605468-10.28125-2.121093-3.554687-6.722656-4.722656-10.285156-2.605468l-7.253906 4.324218v-4.34375c0-4.140624-3.355469-7.5-7.5-7.5-4.140625 0-7.5 3.359376-7.5 7.5v4.53125l-7.566406-4.511718c-3.5625-2.117188-8.164063-.949219-10.285156 2.605468-2.117188 3.558594-.953126 8.164063 2.605468 10.28125l15.246094 9.082032v12.433594l-7.566406-4.507813c-3.558594-2.117187-8.164063-.949219-10.28125 2.605469-2.121094 3.5625-.953125 8.164062 2.605468 10.285156l15.242188 9.078125v16.390625c-17.171875-3.425781-30.15625-18.609375-30.15625-36.773438v-38c0-20.675781 16.820312-37.5 37.5-37.5s37.5 16.824219 37.5 37.5v38c0 18.054688-12.824219 33.167969-29.84375 36.710938zm120 0v-16.515625l14.933594-8.890625c3.558594-2.121094 4.722656-6.722656 2.605468-10.28125-2.121093-3.558594-6.722656-4.726562-10.28125-2.605469l-7.257812 4.320313v-12.4375l14.933594-8.894532c3.558594-2.117187 4.722656-6.722656 2.605468-10.28125-2.121093-3.554687-6.722656-4.722656-10.285156-2.605468l-7.253906 4.324218v-4.34375c0-4.140624-3.355469-7.5-7.5-7.5-4.140625 0-7.5 3.359376-7.5 7.5v4.53125l-7.566406-4.511718c-3.5625-2.117188-8.164063-.949219-10.285156 2.605468-2.117188 3.558594-.953126 8.164063 2.605468 10.28125l15.246094 9.082032v12.433594l-7.566406-4.507813c-3.558594-2.117187-8.164063-.949219-10.28125 2.605469-2.121094 3.5625-.953125 8.164062 2.605468 10.285156l15.242188 9.078125v16.390625c-17.171875-3.425781-30.15625-18.609375-30.15625-36.773438v-38c0-20.675781 16.820312-37.5 37.5-37.5s37.5 16.824219 37.5 37.5v38c0 18.054688-12.824219 33.167969-29.84375 36.710938zm120 0v-16.515625l14.933594-8.890625c3.558594-2.121094 4.722656-6.722656 2.605468-10.28125-2.121093-3.558594-6.722656-4.726562-10.28125-2.605469l-7.257812 4.320313v-12.4375l14.933594-8.894532c3.558594-2.117187 4.722656-6.722656 2.605468-10.28125-2.121093-3.554687-6.722656-4.722656-10.285156-2.605468l-7.253906 4.324218v-4.34375c0-4.140624-3.355469-7.5-7.5-7.5-4.140625 0-7.5 3.359376-7.5 7.5v4.53125l-7.566406-4.511718c-3.5625-2.117188-8.164063-.949219-10.285156 2.605468-2.117188 3.558594-.953126 8.164063 2.605468 10.28125l15.246094 9.082032v12.433594l-7.566406-4.507813c-3.5625-2.117187-8.164063-.949219-10.28125 2.605469-2.121094 3.5625-.953125 8.164062 2.605468 10.285156l15.242188 9.078125v16.390625c-17.171875-3.425781-30.15625-18.609375-30.15625-36.773438v-38c0-20.675781 16.820312-37.5 37.5-37.5s37.5 16.824219 37.5 37.5v38c0 18.054688-12.824219 33.167969-29.84375 36.710938zm29.035156.789062c9.746094-9.535156 15.808594-22.820312 15.808594-37.5v-38c0-28.945312-23.550781-52.5-52.5-52.5s-52.5 23.554688-52.5 52.5v38c0 14.679688 6.0625 27.964844 15.808594 37.5h-46.617188c9.746094-9.535156 15.808594-22.820312 15.808594-37.5v-38c0-28.945312-23.550781-52.5-52.5-52.5s-52.5 23.554688-52.5 52.5v38c0 14.679688 6.0625 27.964844 15.808594 37.5h-46.617188c9.746094-9.535156 15.808594-22.820312 15.808594-37.5v-38c0-28.945312-23.550781-52.5-52.5-52.5s-52.5 23.554688-52.5 52.5v38c0 14.679688 6.0625 27.964844 15.808594 37.5h-54.308594v-149.226562h422v149.226562zm0 0"/><path d="m500.5 0h-84.832031c-4.144531 0-7.5 3.355469-7.5 7.5s3.355469 7.5 7.5 7.5h81.332031v433c0 4.144531 3.359375 7.5 7.5 7.5s7.5-3.355469 7.5-7.5v-436.5c0-6.339844-5.160156-11.5-11.5-11.5zm0 0"/><path d="m504.5 472.5c-4.140625 0-7.5 3.355469-7.5 7.5v17h-482v-482h369.667969c4.140625 0 7.5-3.355469 7.5-7.5s-3.359375-7.5-7.5-7.5h-373.167969c-6.339844 0-11.5 5.160156-11.5 11.5v489c0 6.339844 5.160156 11.5 11.5 11.5h489c6.339844 0 11.5-5.160156 11.5-11.5v-20.5c0-4.144531-3.359375-7.5-7.5-7.5zm0 0"/><path d="m108 422.5c-6.339844 0-11.5 5.160156-11.5 11.5v32c0 6.339844 5.160156 11.5 11.5 11.5h56c6.339844 0 11.5-5.160156 11.5-11.5v-32c0-6.339844-5.160156-11.5-11.5-11.5zm52.5 40h-49v-25h49zm0 0"/><path d="m228 422.5c-6.339844 0-11.5 5.160156-11.5 11.5v32c0 6.339844 5.160156 11.5 11.5 11.5h56c6.339844 0 11.5-5.160156 11.5-11.5v-32c0-6.339844-5.160156-11.5-11.5-11.5zm52.5 40h-49v-25h49zm0 0"/><path d="m348 422.5c-6.339844 0-11.5 5.160156-11.5 11.5v32c0 6.339844 5.160156 11.5 11.5 11.5h56c6.339844 0 11.5-5.160156 11.5-11.5v-32c0-6.339844-5.160156-11.5-11.5-11.5zm52.5 40h-49v-25h49zm0 0"/></svg>