<svg height="512pt" viewBox="-59 0 512 512" width="512pt" xmlns="http://www.w3.org/2000/svg"><path d="m338.5 57.5h-284c-4.417969 0-8-3.582031-8-8v-34c0-4.417969 3.582031-8 8-8h284c4.417969 0 8 3.582031 8 8v34c0 4.417969-3.582031 8-8 8zm0 0" fill="#4c779f"/><path d="m338.5 7.5h-30c4.417969 0 8 3.582031 8 8v34c0 4.417969-3.582031 8-8 8h30c4.417969 0 8-3.582031 8-8v-34c0-4.417969-3.582031-8-8-8zm0 0" fill="#3a5c7a"/><path d="m335.5 504.5h-278c-27.613281 0-50-22.386719-50-50v-320c0-27.613281 22.386719-50 50-50h278c27.613281 0 50 22.386719 50 50v320c0 27.613281-22.386719 50-50 50zm0 0" fill="#bdf9ff"/><path d="m335.5 84.5h-30c27.613281 0 50 22.386719 50 50v320c0 27.613281-22.386719 50-50 50h30c27.613281 0 50-22.386719 50-50v-320c0-27.613281-22.386719-50-50-50zm0 0" fill="#8cf2ff"/><path d="m56.5 57.5h280v27h-280zm0 0" fill="#8cf2ff"/><path d="m7.5 164.058594v290.441406c0 27.613281 22.386719 50 50 50h278c27.613281 0 50-22.386719 50-50v-290.441406zm0 0" fill="#3bd387"/><path d="m355.5 164.058594v290.441406c0 27.613281-22.386719 50-50 50h30c27.613281 0 50-22.386719 50-50v-290.441406zm0 0" fill="#37c487"/><path d="m107.894531 448.191406c-16.5 0-30-13.5-30-30s13.5-30 30-30 30 13.5 30 30-13.5 30-30 30zm0 0" fill="#37c487"/><path d="m107.894531 388.191406c-5.457031 0-10.582031 1.480469-15 4.054688 8.945313 5.207031 15 14.898437 15 25.945312 0 11.042969-6.054687 20.734375-15 25.941406 4.417969 2.574219 9.542969 4.058594 15 4.058594 16.5 0 30-13.5 30-30s-13.5-30-30-30zm0 0" fill="#2fa874"/><path d="m207.320312 371.242188c-16.5 0-30-13.5-30-30s13.5-30 30-30 30 13.5 30 30-13.5 30-30 30zm0 0" fill="#37c487"/><path d="m207.320312 311.242188c-5.457031 0-10.582031 1.484374-15 4.054687 8.945313 5.210937 15 14.902344 15 25.945313 0 11.042968-6.054687 20.738281-15 25.945312 4.417969 2.570312 9.542969 4.054688 15 4.054688 16.5 0 30-13.5 30-30s-13.5-30-30-30zm0 0" fill="#2fa874"/><path d="m288.882812 418.191406c-16.5 0-30-13.5-30-30s13.5-30 30-30 30 13.5 30 30-13.5 30-30 30zm0 0" fill="#37c487"/><path d="m288.882812 358.191406c-5.457031 0-10.582031 1.480469-15 4.054688 8.945313 5.207031 15 14.898437 15 25.945312 0 11.042969-6.054687 20.734375-15 25.941406 4.417969 2.574219 9.542969 4.058594 15 4.058594 16.5 0 30-13.5 30-30s-13.5-30-30-30zm0 0" fill="#2fa874"/><path d="m208.597656 470.972656c-16.5 0-30-13.5-30-30s13.5-30 30-30 30 13.5 30 30-13.5 30-30 30zm0 0" fill="#37c487"/><path d="m208.597656 410.972656c-5.457031 0-10.582031 1.484375-15 4.058594 8.949219 5.207031 15 14.898438 15 25.941406 0 11.046875-6.050781 20.738282-15 25.945313 4.417969 2.574219 9.542969 4.054687 15 4.054687 16.5 0 30-13.5 30-30s-13.5-30-30-30zm0 0" fill="#2fa874"/><path d="m112.363281 358.183594c-16.5 0-30-13.5-30-30s13.5-30 30-30 30 13.5 30 30-13.5 30-30 30zm0 0" fill="#37c487"/><path d="m112.363281 298.183594c-5.457031 0-10.582031 1.480468-15 4.054687 8.945313 5.207031 15 14.902344 15 25.945313 0 11.042968-6.054687 20.738281-15 25.945312 4.417969 2.570313 9.542969 4.054688 15 4.054688 16.5 0 30-13.5 30-30s-13.5-30-30-30zm0 0" fill="#2fa874"/><path d="m290.046875 329.046875c-16.5 0-30-13.5-30-30s13.5-30 30-30 30 13.5 30 30-13.5 30-30 30zm0 0" fill="#37c487"/><path d="m290.046875 269.046875c-5.457031 0-10.582031 1.480469-15 4.054687 8.945313 5.207032 15 14.902344 15 25.945313s-6.054687 20.734375-15 25.941406c4.417969 2.574219 9.542969 4.058594 15 4.058594 16.5 0 30-13.5 30-30s-13.5-30-30-30zm0 0" fill="#2fa874"/><path d="m266.382812 251.34375c-16.5 0-30-13.5-30-30s13.5-30 30-30 30 13.5 30 30-13.5 30-30 30zm0 0" fill="#37c487"/><path d="m266.382812 191.34375c-5.457031 0-10.582031 1.484375-15 4.058594 8.945313 5.207031 15 14.898437 15 25.941406 0 11.046875-6.054687 20.738281-15 25.945312 4.417969 2.574219 9.542969 4.054688 15 4.054688 16.5 0 30-13.5 30-30s-13.5-30-30-30zm0 0" fill="#2fa874"/><path d="m99.898438 266.121094c-16.5 0-30-13.5-30-30s13.5-30 30-30 30 13.5 30 30-13.5 30-30 30zm0 0" fill="#37c487"/><path d="m99.898438 206.121094c-5.457032 0-10.578126 1.484375-15 4.054687 8.949218 5.210938 15 14.902344 15 25.945313 0 11.042968-6.050782 20.738281-15 25.945312 4.421874 2.570313 9.542968 4.054688 15 4.054688 16.5 0 30-13.5 30-30s-13.5-30-30-30zm0 0" fill="#2fa874"/><path d="m187.351562 285.980469c-16.5 0-30-13.5-30-30s13.5-30 30-30 30 13.5 30 30-13.5 30-30 30zm0 0" fill="#37c487"/><path d="m187.351562 225.984375c-5.457031 0-10.578124 1.480469-15 4.054687 8.949219 5.207032 15 14.898438 15 25.945313 0 11.042969-6.050781 20.734375-15 25.941406 4.421876 2.574219 9.542969 4.058594 15 4.058594 16.5 0 30-13.5 30-30s-13.5-30-30-30zm0 0" fill="#2fa874"/><path d="m306.5 57.5h30v27h-30zm0 0" fill="#6bdae8"/><path d="m107.894531 380.691406c-20.679687 0-37.5 16.820313-37.5 37.5 0 20.675782 16.820313 37.5 37.5 37.5 20.675781 0 37.5-16.824218 37.5-37.5 0-20.679687-16.824219-37.5-37.5-37.5zm0 60c-12.40625 0-22.5-10.09375-22.5-22.5s10.09375-22.5 22.5-22.5 22.5 10.09375 22.5 22.5-10.09375 22.5-22.5 22.5zm0 0"/><path d="m169.816406 341.242188c0 20.675781 16.824219 37.5 37.5 37.5 20.679688 0 37.5-16.824219 37.5-37.5 0-20.679688-16.820312-37.5-37.5-37.5-20.675781 0-37.5 16.820312-37.5 37.5zm60 0c0 12.40625-10.09375 22.5-22.5 22.5s-22.5-10.09375-22.5-22.5 10.09375-22.5 22.5-22.5 22.5 10.09375 22.5 22.5zm0 0"/><path d="m288.882812 350.691406c-20.679687 0-37.5 16.820313-37.5 37.5 0 20.675782 16.820313 37.5 37.5 37.5 20.675782 0 37.5-16.824218 37.5-37.5 0-20.679687-16.824218-37.5-37.5-37.5zm0 60c-12.40625 0-22.5-10.09375-22.5-22.5s10.09375-22.5 22.5-22.5 22.5 10.09375 22.5 22.5-10.09375 22.5-22.5 22.5zm0 0"/><path d="m208.597656 403.472656c-20.679687 0-37.5 16.824219-37.5 37.503906 0 20.675782 16.820313 37.496094 37.5 37.496094 20.675782 0 37.5-16.820312 37.5-37.5 0-20.675781-16.824218-37.5-37.5-37.5zm0 60c-12.40625 0-22.5-10.09375-22.5-22.5s10.09375-22.5 22.5-22.5 22.5 10.09375 22.5 22.503906c0 12.40625-10.09375 22.496094-22.5 22.496094zm0 0"/><path d="m112.363281 290.683594c-20.679687 0-37.5 16.820312-37.5 37.5 0 20.675781 16.820313 37.5 37.5 37.5 20.675781 0 37.5-16.824219 37.5-37.5 0-20.679688-16.824219-37.5-37.5-37.5zm0 60c-12.40625 0-22.5-10.09375-22.5-22.5s10.09375-22.5 22.5-22.5 22.5 10.09375 22.5 22.5-10.09375 22.5-22.5 22.5zm0 0"/><path d="m290.046875 261.546875c-20.679687 0-37.5 16.820313-37.5 37.5 0 20.675781 16.820313 37.5 37.5 37.5 20.675781 0 37.5-16.824219 37.5-37.5 0-20.679687-16.824219-37.5-37.5-37.5zm0 60c-12.40625 0-22.5-10.09375-22.5-22.5s10.09375-22.5 22.5-22.5 22.5 10.09375 22.5 22.5-10.09375 22.5-22.5 22.5zm0 0"/><path d="m266.382812 183.84375c-20.679687 0-37.5 16.824219-37.5 37.5 0 20.679688 16.820313 37.5 37.5 37.5 20.675782 0 37.5-16.820312 37.5-37.5 0-20.675781-16.824218-37.5-37.5-37.5zm0 60c-12.40625 0-22.5-10.09375-22.5-22.5s10.09375-22.5 22.5-22.5 22.5 10.09375 22.5 22.5-10.09375 22.5-22.5 22.5zm0 0"/><path d="m99.898438 198.621094c-20.679688 0-37.5 16.820312-37.5 37.5 0 20.679687 16.824218 37.5 37.5 37.5 20.675781 0 37.5-16.820313 37.5-37.5 0-20.679688-16.824219-37.5-37.5-37.5zm0 60c-12.40625 0-22.5-10.09375-22.5-22.5s10.09375-22.5 22.5-22.5 22.5 10.09375 22.5 22.5-10.09375 22.5-22.5 22.5zm0 0"/><path d="m187.351562 218.480469c-20.675781 0-37.5 16.824219-37.5 37.5 0 20.679687 16.824219 37.5 37.5 37.5 20.679688 0 37.5-16.820313 37.5-37.5 0-20.675781-16.820312-37.5-37.5-37.5zm0 60c-12.40625 0-22.5-10.09375-22.5-22.5s10.09375-22.5 22.5-22.5 22.5 10.09375 22.5 22.5-10.09375 22.5-22.5 22.5zm0 0"/><path d="m344 77.632812v-13.660156c5.835938-2.226562 10-7.863281 10-14.472656v-34c0-8.546875-6.953125-15.5-15.5-15.5h-205.5c-4.144531 0-7.5 3.355469-7.5 7.5s3.355469 7.5 7.5 7.5h205.5c.273438 0 .5.226562.5.5v34c0 .273438-.226562.5-.5.5h-284c-.273438 0-.5-.226562-.5-.5v-34c0-.273438.226562-.5.5-.5h45.398438c4.140624 0 7.5-3.355469 7.5-7.5s-3.359376-7.5-7.5-7.5h-45.398438c-8.546875 0-15.5 6.953125-15.5 15.5v34c0 6.609375 4.164062 12.246094 10 14.472656v13.660156c-27.6875 4.121094-49 28.050782-49 56.867188v249.167969c0 4.140625 3.355469 7.5 7.5 7.5s7.5-3.359375 7.5-7.5v-212.109375h309.5c4.144531 0 7.5-3.359375 7.5-7.5 0-4.144532-3.355469-7.5-7.5-7.5h-309.5v-22.058594c0-23.433594 19.066406-42.5 42.5-42.5h278c23.433594 0 42.5 19.066406 42.5 42.5v22.058594h-21.25c-4.144531 0-7.5 3.355468-7.5 7.5 0 4.140625 3.355469 7.5 7.5 7.5h21.25v282.941406c0 23.433594-19.066406 42.5-42.5 42.5h-278c-23.433594 0-42.5-19.066406-42.5-42.5v-38.75c0-4.144531-3.355469-7.5-7.5-7.5s-7.5 3.355469-7.5 7.5v38.75c0 31.707031 25.792969 57.5 57.5 57.5h278c31.707031 0 57.5-25.792969 57.5-57.5v-320c0-28.816406-21.3125-52.746094-49-56.867188zm-280-.632812v-12h265v12zm0 0"/></svg>