<svg height="512pt" viewBox="-103 0 512 512" width="512pt" xmlns="http://www.w3.org/2000/svg"><path d="m209.140625 80.5h-171.640625c-16.570312 0-30 13.429688-30 30v334c0 33.136719 26.863281 60 60 60h170c33.136719 0 60-26.863281 60-60v-275.640625c0-48.800781-39.558594-88.359375-88.359375-88.359375zm58.359375 143.070312c0 12.101563-9.808594 21.917969-21.921875 21.917969-16.117187 0-30.699219-6.527343-41.269531-17.089843-10.558594-10.570313-17.089844-25.160157-17.089844-41.277344v-54.699219c0-12.109375 9.816406-21.921875 21.921875-21.921875 32.230469 0 58.359375 26.128906 58.359375 58.359375zm0 0" fill="#bdf9ff"/><path d="m209.140625 80.5h-30c48.800781 0 88.359375 39.558594 88.359375 88.359375v275.640625c0 33.136719-26.863281 60-60 60h30c33.136719 0 60-26.863281 60-60v-275.640625c0-48.800781-39.558594-88.359375-88.359375-88.359375zm0 0" fill="#8cf2ff"/><path d="m197.902344 113.601562c-5.890625-2-12.195313-3.101562-18.761719-3.101562-12.105469 0-21.921875 9.8125-21.921875 21.921875v54.699219c0 16.117187 6.53125 30.707031 17.089844 41.277344 10.570312 10.5625 25.152344 17.089843 41.269531 17.089843 4.109375 0 7.953125-1.132812 11.238281-3.097656-8.5625-2.90625-16.242187-7.734375-22.507812-13.992187-10.558594-10.570313-17.089844-25.160157-17.089844-41.277344v-54.699219c0-8 4.285156-14.992187 10.683594-18.820313zm0 0" fill="#8cf2ff"/><path d="m135.992188 50.5h-92c-2.207032 0-4-1.789062-4-4v-35c0-2.210938 1.792968-4 4-4h92c2.210937 0 4 1.789062 4 4v35c0 2.210938-1.789063 4-4 4zm0 0" fill="#4c779f"/><path d="m135.992188 7.5h-30c2.210937 0 4 1.789062 4 4v35c0 2.210938-1.789063 4-4 4h30c2.210937 0 4-1.789062 4-4v-35c0-2.210938-1.789063-4-4-4zm0 0" fill="#3a5c7a"/><path d="m52.992188 50.5h74v30h-74zm0 0" fill="#8cf2ff"/><path d="m96.992188 50.5h30v30h-30zm0 0" fill="#6bdae8"/><path d="m7.5 277h290v166h-290zm0 0" fill="#ffd659"/><path d="m267.5 277h30v166h-30zm0 0" fill="#ffbd54"/><path d="m195.5 361c0-29.269531-19.25-53-43-53s-43 23.730469-43 53 19.25 53 43 53 43-23.730469 43-53zm0 0" fill="#fe5555"/><path d="m102 361c0 33.359375 22.652344 60.5 50.5 60.5s50.5-27.140625 50.5-60.5-22.652344-60.5-50.5-60.5-50.5 27.140625-50.5 60.5zm86 0c0 25.089844-15.925781 45.5-35.5 45.5s-35.5-20.410156-35.5-45.5 15.925781-45.5 35.5-45.5 35.5 20.410156 35.5 45.5zm0 0"/><path d="m275 223.570312v-54.710937c0-36.3125-29.546875-65.859375-65.859375-65.859375-16.222656 0-29.421875 13.195312-29.421875 29.421875v54.699219c0 17.589844 6.851562 34.132812 19.292969 46.585937 12.445312 12.433594 28.984375 19.28125 46.566406 19.28125 16.226563 0 29.421875-13.195312 29.421875-29.417969zm-80.28125-36.449218v-54.699219c0-7.953125 6.46875-14.421875 14.421875-14.421875 28.042969 0 50.859375 22.816406 50.859375 50.859375v54.710937c0 7.949219-6.46875 14.417969-14.421875 14.417969-13.578125 0-26.351563-5.289062-35.960937-14.890625-9.605469-9.613281-14.898438-22.390625-14.898438-35.976562zm0 0"/><path d="m209.140625 73h-74.648437v-15h1.5c6.34375 0 11.5-5.160156 11.5-11.5v-35c0-6.339844-5.15625-11.5-11.5-11.5h-92c-6.339844 0-11.5 5.160156-11.5 11.5v35c0 6.339844 5.160156 11.5 11.5 11.5h1.5v15h-7.992188c-20.679688 0-37.5 16.820312-37.5 37.5v17.5c0 4.144531 3.355469 7.5 7.5 7.5s7.5-3.355469 7.5-7.5v-17.5c0-12.40625 10.09375-22.5 22.5-22.5h171.640625c44.585937 0 80.859375 36.273438 80.859375 80.859375v100.640625h-275v-109.625c0-4.144531-3.355469-7.5-7.5-7.5s-7.5 3.355469-7.5 7.5v284.625c0 37.21875 30.28125 67.5 67.5 67.5h170c37.21875 0 67.5-30.28125 67.5-67.5v-28.667969c0-4.140625-3.355469-7.5-7.5-7.5s-7.5 3.359375-7.5 7.5v19.667969h-233.625c-4.144531 0-7.5 3.355469-7.5 7.5s3.355469 7.5 7.5 7.5h233.273438c-2.988282 26.132812-25.230469 46.5-52.148438 46.5h-170c-26.917969 0-49.160156-20.367188-52.148438-46.5h9.148438c4.144531 0 7.5-3.355469 7.5-7.5s-3.355469-7.5-7.5-7.5h-9.5v-151h275v99.25c0 4.144531 3.355469 7.5 7.5 7.5s7.5-3.355469 7.5-7.5v-214.890625c0-52.855469-43.003906-95.859375-95.859375-95.859375zm-161.648437-58h85v28h-85zm13 58v-15h59v15zm0 0"/></svg>