<svg height="512pt" viewBox="-49 0 512 512" width="512pt" xmlns="http://www.w3.org/2000/svg"><path d="m163.5 93.429688c0-34.792969-27.757812-63-62-63s-62 28.207031-62 63c0 34.792968 27.757812 63 62 63s62-28.207032 62-63zm0 0" fill="#804d36"/><path d="m101.5 30.429688c-5.152344 0-10.152344.648437-14.941406 1.851562 27.023437 6.796875 47.0625 31.589844 47.0625 61.148438 0 29.558593-20.039063 54.351562-47.0625 61.144531 4.789062 1.203125 9.789062 1.855469 14.941406 1.855469 34.242188 0 62-28.207032 62-63 0-34.792969-27.757812-63-62-63zm0 0" fill="#663b29"/><path d="m376.109375 93.429688c0-34.792969-27.757813-63-62-63s-62 28.207031-62 63c0 34.792968 27.757813 63 62 63s62-28.207032 62-63zm0 0" fill="#804d36"/><path d="m314.109375 30.429688c-5.152344 0-10.152344.648437-14.9375 1.851562 27.019531 6.796875 47.058594 31.589844 47.058594 61.148438 0 29.558593-20.039063 54.351562-47.058594 61.144531 4.785156 1.203125 9.785156 1.855469 14.9375 1.855469 34.242187 0 62-28.207032 62-63 0-34.792969-27.757813-63-62-63zm0 0" fill="#663b29"/><path d="m276.214844 70.5c0-34.792969-27.757813-63-62-63-34.242188 0-62 28.207031-62 63s27.757812 63 62 63c34.242187 0 62-28.207031 62-63zm0 0" fill="#804d36"/><path d="m214.214844 7.5c-5.152344 0-10.152344.648438-14.941406 1.851562 27.023437 6.796876 47.0625 31.589844 47.0625 61.148438s-20.039063 54.351562-47.0625 61.148438c4.785156 1.203124 9.789062 1.851562 14.941406 1.851562 34.242187 0 62-28.207031 62-63s-27.757813-63-62-63zm0 0" fill="#663b29"/><path d="m401.5 143h-390c-2.210938 0-4-1.789062-4-4v-22c0-2.210938 1.789062-4 4-4h390c2.210938 0 4 1.789062 4 4v22c0 2.210938-1.789062 4-4 4zm0 0" fill="#edcfb2"/><path d="m401.5 113h-30c2.210938 0 4 1.789062 4 4v22c0 2.210938-1.789062 4-4 4h30c2.210938 0 4-1.789062 4-4v-22c0-2.210938-1.789062-4-4-4zm0 0" fill="#cfb49b"/><path d="m396.5 143v321.519531c0 22.082031-17.898438 39.980469-39.980469 39.980469h-149.941406v-361.5zm0 0" fill="#fff0d0"/><path d="m396.5 143v321.519531c0 22.082031-17.898438 39.980469-39.980469 39.980469h-30c22.082031 0 39.980469-17.898438 39.980469-39.980469v-321.519531zm0 0" fill="#edcfb2"/><path d="m309.820312 504.5h-253.339843c-22.082031 0-39.980469-17.898438-39.980469-39.980469v-321.519531h253.328125v321.519531c0 22.082031 17.902344 39.980469 39.992187 39.980469zm0 0" fill="#804d36"/><path d="m309.820312 504.5h-30c-22.089843 0-39.992187-17.898438-39.992187-39.980469v-321.519531h30v321.519531c0 22.082031 17.902344 39.980469 39.992187 39.980469zm0 0" fill="#663b29"/><path d="m16.5 208h253.328125v190h-253.328125zm0 0" fill="#fe5555"/><path d="m239.828125 208h30v190h-30zm0 0" fill="#e84141"/><path d="m198.5 304c0-34.792969-27.757812-63-62-63s-62 28.207031-62 63 27.757812 63 62 63 62-28.207031 62-63zm0 0" fill="#804d36"/><path d="m136.5 241c-5.152344 0-10.152344.648438-14.941406 1.851562 27.023437 6.796876 47.0625 31.589844 47.0625 61.148438s-20.039063 54.351562-47.0625 61.148438c4.789062 1.203124 9.789062 1.851562 14.941406 1.851562 34.242188 0 62-28.207031 62-63s-27.757812-63-62-63zm0 0" fill="#663b29"/><path d="m80.84375 62.640625-.425781.257813c-3.550781 2.132812-4.699219 6.742187-2.5625 10.289062 1.40625 2.34375 3.886719 3.636719 6.433593 3.636719 1.316407 0 2.648438-.34375 3.859376-1.070313l.425781-.257812c3.550781-2.132813 4.699219-6.742188 2.5625-10.292969-2.132813-3.550781-6.742188-4.699219-10.292969-2.5625zm0 0"/><path d="m128.3125 82.089844-.425781.257812c-3.550781 2.132813-4.699219 6.742188-2.5625 10.292969 1.40625 2.339844 3.886719 3.636719 6.433593 3.636719 1.316407 0 2.648438-.347656 3.855469-1.074219l.429688-.257813c3.550781-2.132812 4.695312-6.742187 2.5625-10.292968-2.132813-3.550782-6.742188-4.699219-10.292969-2.5625zm0 0"/><path d="m311.929688 69.792969.484374.109375c.558594.125 1.117188.1875 1.667969.1875 3.425781 0 6.515625-2.359375 7.304688-5.84375.917969-4.035156-1.613281-8.054688-5.652344-8.972656l-.488281-.109376c-4.035156-.90625-8.054688 1.613282-8.972656 5.65625-.917969 4.039063 1.613281 8.054688 5.65625 8.972657zm0 0"/><path d="m336.460938 104.46875.484374.105469c.554688.125 1.105469.1875 1.652344.1875 3.429688 0 6.523438-2.371094 7.308594-5.855469.910156-4.042969-1.628906-8.054688-5.671875-8.964844l-.484375-.109375c-4.046875-.902343-8.054688 1.632813-8.964844 5.671875-.90625 4.042969 1.632813 8.054688 5.675782 8.964844zm0 0"/><path d="m294.667969 100.6875.484375.109375c.5625.128906 1.117187.1875 1.667968.1875 3.425782 0 6.519532-2.359375 7.308594-5.839844.917969-4.039062-1.617187-8.058593-5.65625-8.976562l-.484375-.109375c-4.039062-.910156-8.058593 1.617187-8.972656 5.65625-.917969 4.039062 1.613281 8.054687 5.652344 8.972656zm0 0"/><path d="m324.808594 214.949219v232.710937c0 4.144532 3.359375 7.5 7.5 7.5 4.144531 0 7.5-3.355468 7.5-7.5v-232.710937c0-4.140625-3.355469-7.5-7.5-7.5-4.140625 0-7.5 3.359375-7.5 7.5zm0 0"/><path d="m401.5 105.5h-18.921875c.679687-3.964844 1.03125-7.996094 1.03125-12.070312 0-38.875-31.175781-70.5-69.5-70.5-14.292969 0-28.042969 4.410156-39.613281 12.5625-12-21.183594-34.519532-35.492188-60.285156-35.492188-28.746094 0-53.472657 17.796875-64.035157 43.097656-12.859375-12.816406-30.226562-20.167968-48.675781-20.167968-38.320312 0-69.5 31.625-69.5 70.5 0 4.074218.351562 8.105468 1.03125 12.070312h-21.53125c-6.339844 0-11.5 5.160156-11.5 11.5v22c0 5.480469 3.859375 10.074219 9 11.21875v9.449219c0 4.140625 3.359375 7.5 7.5 7.5s7.5-3.359375 7.5-7.5v-9.167969h238.328125v50h-238.328125v-8.667969c0-4.140625-3.359375-7.5-7.5-7.5s-7.5 3.359375-7.5 7.5v272.6875c0 26.179688 21.300781 47.480469 47.480469 47.480469h300.039062c26.179688 0 47.480469-21.300781 47.480469-47.480469v-16.859375c0-4.144531-3.359375-7.5-7.5-7.5s-7.5 3.355469-7.5 7.5v16.859375c0 17.910157-14.570312 32.480469-32.480469 32.480469h-46.699219c-17.914062 0-32.492187-14.570312-32.492187-32.480469v-314.019531h111.671875v265.167969c0 4.140625 3.359375 7.5 7.5 7.5s7.5-3.359375 7.5-7.5v-265.449219c5.140625-1.148438 9-5.738281 9-11.21875v-22c0-6.339844-5.160156-11.5-11.5-11.5zm-345.019531 391.5c-17.910157 0-32.480469-14.570312-32.480469-32.480469v-59.019531h22.5c4.140625 0 7.5-3.355469 7.5-7.5s-3.359375-7.5-7.5-7.5h-22.5v-175h238.328125v175h-183.828125c-4.140625 0-7.5 3.355469-7.5 7.5s3.359375 7.5 7.5 7.5h183.828125v59.019531c0 12.550781 4.898437 23.980469 12.882813 32.480469-6.527344 0-212.207032 0-218.730469 0zm257.628906-459.070312c30.050781 0 54.5 24.898437 54.5 55.5 0 4.09375-.445313 8.132812-1.304687 12.070312h-92.773438c5.972656-10.574219 9.179688-22.597656 9.179688-35 0-7.253906-1.085938-14.25-3.101563-20.839844 9.546875-7.589844 21.273437-11.730468 33.5-11.730468zm-99.898437-22.929688c30.050781 0 54.5 24.898438 54.5 55.5 0 12.820312-4.324219 25.121094-12.222657 35h-84.554687c-7.898438-9.878906-12.222656-22.179688-12.222656-35 0-30.601562 24.449218-55.5 54.5-55.5zm-167.210938 78.429688c0-30.601563 24.449219-55.5 54.5-55.5 17.433594 0 33.640625 8.421874 43.910156 22.648437-.449218 3.242187-.699218 6.554687-.699218 9.921875 0 12.402344 3.203124 24.425781 9.179687 35h-105.585937c-.859376-3.9375-1.304688-7.976562-1.304688-12.070312zm-32 42.070312v-15h383v15c-16.09375 0-383 0-383 0zm0 0"/><path d="m197.003906 53.894531c1.3125 0 2.644532-.34375 3.855469-1.070312l.425781-.257813c3.550782-2.132812 4.699219-6.742187 2.566406-10.292968-2.132812-3.550782-6.742187-4.699219-10.292968-2.5625l-.425782.257812c-3.550781 2.132812-4.699218 6.742188-2.566406 10.292969 1.410156 2.339843 3.890625 3.632812 6.4375 3.632812zm0 0"/><path d="m244.472656 73.347656c1.3125 0 2.644532-.347656 3.855469-1.074218l.425781-.257813c3.550782-2.132813 4.699219-6.742187 2.5625-10.289063-2.132812-3.550781-6.742187-4.703124-10.289062-2.566406l-.429688.257813c-3.546875 2.136719-4.695312 6.742187-2.5625 10.292969 1.40625 2.339843 3.890625 3.636718 6.4375 3.636718zm0 0"/><path d="m200.515625 90.519531-.429687.253907c-3.550782 2.132812-4.699219 6.742187-2.570313 10.292968 1.40625 2.339844 3.890625 3.640625 6.4375 3.640625 1.316406 0 2.644531-.347656 3.855469-1.070312l.425781-.257813c3.550781-2.132812 4.703125-6.738281 2.570313-10.292968-2.132813-3.550782-6.738282-4.699219-10.289063-2.566407zm0 0"/><path d="m136.5 374.5c38.320312 0 69.5-31.625 69.5-70.5s-31.179688-70.5-69.5-70.5-69.5 31.625-69.5 70.5 31.179688 70.5 69.5 70.5zm0-126c30.050781 0 54.5 24.898438 54.5 55.5s-24.449219 55.5-54.5 55.5-54.5-24.898438-54.5-55.5 24.449219-55.5 54.5-55.5zm0 0"/><path d="m119.289062 287.394531c1.316407 0 2.648438-.34375 3.855469-1.070312l.429688-.257813c3.546875-2.132812 4.695312-6.742187 2.5625-10.292968-2.132813-3.550782-6.742188-4.699219-10.292969-2.5625l-.425781.257812c-3.550781 2.132812-4.699219 6.742188-2.5625 10.292969 1.40625 2.339843 3.886719 3.632812 6.433593 3.632812zm0 0"/><path d="m166.757812 306.847656c1.3125 0 2.644532-.347656 3.855469-1.074218l.425781-.257813c3.550782-2.132813 4.699219-6.742187 2.566407-10.289063-2.132813-3.550781-6.742188-4.703124-10.292969-2.566406l-.425781.257813c-3.550781 2.136719-4.699219 6.742187-2.566407 10.292969 1.410157 2.339843 3.890626 3.636718 6.4375 3.636718zm0 0"/><path d="m122.796875 324.019531-.429687.257813c-3.546876 2.132812-4.695313 6.742187-2.5625 10.292968 1.410156 2.339844 3.890624 3.636719 6.4375 3.636719 1.3125 0 2.644531-.347656 3.855468-1.074219l.425782-.257812c3.550781-2.132812 4.699218-6.742188 2.566406-10.289062-2.136719-3.554688-6.742188-4.703126-10.292969-2.566407zm0 0"/></svg>