<svg height="512pt" viewBox="-58 0 512 512.001" width="512pt" xmlns="http://www.w3.org/2000/svg"><path d="m387.5 143.15625v321.363281c0 22.082031-17.898438 39.980469-39.980469 39.980469h-149.9375v-389.902344c0-49.449218 40.085938-89.535156 89.535157-89.535156h36.191406c.082031 10.75 3.621094 21.207031 10.113281 29.789062l43.960937 58.148438c6.566407 8.683594 10.117188 19.269531 10.117188 30.15625zm0 0" fill="#fff0d0"/><path d="m377.382812 113-43.960937-58.148438c-6.492187-8.582031-10.03125-19.039062-10.113281-29.789062h-30c.082031 10.75 3.621094 21.207031 10.113281 29.789062l43.960937 58.148438c6.566407 8.683594 10.117188 19.269531 10.117188 30.15625v321.363281c0 22.082031-17.898438 39.980469-39.980469 39.980469h30c22.082031 0 39.980469-17.898438 39.980469-39.980469v-321.363281c0-10.886719-3.550781-21.472656-10.117188-30.15625zm0 0" fill="#edcfb2"/><path d="m323.308594 23.140625v1.921875c0 10.660156-3.40625 21.039062-9.726563 29.628906l-43.023437 58.46875c-6.320313 8.589844-9.726563 18.972656-9.726563 29.632813v321.726562c0 22.082031 17.898438 39.980469 39.988281 39.980469h-253.339843c-22.078125 0-39.980469-17.898438-39.980469-39.980469v-321.726562c0-10.660157 3.410156-21.042969 9.726562-29.632813l43.023438-58.46875c6.320312-8.589844 9.730469-18.96875 9.730469-29.628906v-1.921875c0-8.636719 7.003906-15.640625 15.640625-15.640625h222.050781c8.636719 0 15.636719 7.003906 15.636719 15.640625zm0 0" fill="#ffd659"/><path d="m307.671875 7.5h-30c8.636719 0 15.636719 7.003906 15.636719 15.640625v1.921875c0 10.660156-3.40625 21.039062-9.726563 29.628906l-43.023437 58.46875c-6.320313 8.589844-9.726563 18.972656-9.726563 29.632813v321.726562c0 22.082031 17.898438 39.980469 39.988281 39.980469h30c-22.089843 0-39.988281-17.898438-39.988281-39.980469v-321.726562c0-10.660157 3.40625-21.042969 9.726563-29.632813l43.023437-58.46875c6.320313-8.589844 9.726563-18.96875 9.726563-29.628906v-1.921875c0-8.636719-7-15.640625-15.636719-15.640625zm0 0" fill="#ffbd54"/><path d="m150.5 286.324219h-60c-5.523438 0-10-4.476563-10-10v-60c0-5.523438 4.476562-10 10-10h60c5.523438 0 10 4.476562 10 10v60c0 5.523437-4.476562 10-10 10zm0 0" fill="#bdf9ff"/><path d="m150.5 206.324219h-30c5.523438 0 10 4.476562 10 10v60c0 5.523437-4.476562 10-10 10h30c5.523438 0 10-4.476563 10-10v-60c0-5.523438-4.476562-10-10-10zm0 0" fill="#8cf2ff"/><path d="m110.5 352.324219h-60c-5.523438 0-10-4.476563-10-10v-60c0-5.523438 4.476562-10 10-10h60c5.523438 0 10 4.476562 10 10v60c0 5.523437-4.476562 10-10 10zm0 0" fill="#bdf9ff"/><path d="m110.5 272.324219h-30c5.523438 0 10 4.476562 10 10v60c0 5.523437-4.476562 10-10 10h30c5.523438 0 10-4.476563 10-10v-60c0-5.523438-4.476562-10-10-10zm0 0" fill="#8cf2ff"/><path d="m190.5 352.324219h-60c-5.523438 0-10-4.476563-10-10v-60c0-5.523438 4.476562-10 10-10h60c5.523438 0 10 4.476562 10 10v60c0 5.523437-4.476562 10-10 10zm0 0" fill="#bdf9ff"/><path d="m190.5 272.324219h-30c5.523438 0 10 4.476562 10 10v60c0 5.523437-4.476562 10-10 10h30c5.523438 0 10-4.476563 10-10v-60c0-5.523438-4.476562-10-10-10zm0 0" fill="#8cf2ff"/><path d="m383.363281 108.480469-4.980469-6.585938c-2.496093-3.308593-7.203124-3.960937-10.503906-1.460937-3.304687 2.496094-3.957031 7.199218-1.460937 10.503906l4.984375 6.589844c5.542968 7.328125 8.597656 16.425781 8.597656 25.625v321.367187c0 17.910157-14.570312 32.480469-32.480469 32.480469h-46.699219c-17.914062 0-32.488281-14.570312-32.488281-32.480469v-321.726562c0-9.125 2.859375-17.835938 8.265625-25.1875l43.023438-58.46875c1.394531-1.894531 2.660156-3.855469 3.800781-5.871094 1.207031 2.117187 2.542969 4.160156 4.015625 6.105469l19.691406 26.050781c1.472656 1.949219 3.71875 2.976563 5.988282 2.976563 1.574218 0 3.164062-.496094 4.515624-1.519532 3.304688-2.496094 3.960938-7.199218 1.460938-10.503906l-19.691406-26.050781c-5.472656-7.234375-8.523438-16.226563-8.589844-25.320313v-1.863281c-.003906-12.757813-10.382812-23.140625-23.140625-23.140625h-174.046875c-4.140625 0-7.5 3.359375-7.5 7.5 0 4.144531 3.359375 7.5 7.5 7.5h174.046875c4.488281 0 8.136719 3.652344 8.136719 8.140625v1.921875c0 9.121094-2.859375 17.828125-8.269532 25.183594l-43.023437 58.472656c-7.316406 9.945312-11.183594 21.726562-11.183594 34.078125v321.722656c0 12.554688 4.894531 23.984375 12.878907 32.480469h-218.730469c-17.910157 0-32.480469-14.570312-32.480469-32.480469v-48.683593c0-4.144532-3.359375-7.5-7.5-7.5s-7.5 3.355468-7.5 7.5v48.683593c0 26.179688 21.300781 47.480469 47.480469 47.480469h300.039062c26.183594 0 47.480469-21.300781 47.480469-47.480469v-321.367187c0-12.445313-4.132812-24.761719-11.636719-34.671875zm0 0"/><path d="m315.808594 141.660156v306c0 4.144532 3.359375 7.5 7.5 7.5 4.144531 0 7.5-3.355468 7.5-7.5v-306c0-4.140625-3.355469-7.5-7.5-7.5-4.140625 0-7.5 3.359375-7.5 7.5zm0 0"/><path d="m7.5 391.335938c4.140625 0 7.5-3.359376 7.5-7.5v-241.042969c0-9.125 2.859375-17.835938 8.269531-25.1875l43.023438-58.46875c7.320312-9.949219 11.1875-21.734375 11.1875-34.078125v-1.917969c0-4.488281 3.652343-8.140625 8.140625-8.140625h16.066406c4.140625 0 7.5-3.355469 7.5-7.5s-3.359375-7.5-7.5-7.5h-16.066406c-12.757813 0-23.140625 10.382812-23.140625 23.140625v1.917969c0 9.125-2.859375 17.832031-8.269531 25.1875l-43.023438 58.46875c-7.316406 9.945312-11.1875 21.730468-11.1875 34.078125v241.042969c0 4.140624 3.359375 7.5 7.5 7.5zm0 0"/><path d="m127.5 47.5h120c4.140625 0 7.5-3.355469 7.5-7.5 0-4.140625-3.359375-7.5-7.5-7.5h-120c-4.140625 0-7.5 3.359375-7.5 7.5 0 4.144531 3.359375 7.5 7.5 7.5zm0 0"/><path d="m150.5 198.820312h-60c-9.648438 0-17.5 7.851563-17.5 17.5v48.503907h-22.5c-9.648438 0-17.5 7.851562-17.5 17.5v60c0 9.648437 7.851562 17.5 17.5 17.5h60c3.71875 0 7.164062-1.171875 10-3.160157 2.839844 1.988282 6.28125 3.160157 10 3.160157h60c9.648438 0 17.5-7.851563 17.5-17.5v-60c0-9.648438-7.851562-17.5-17.5-17.5h-22.5v-48.503907c0-9.648437-7.851562-17.5-17.5-17.5zm-62.5 17.5c0-1.378906 1.121094-2.5 2.5-2.5h60c1.378906 0 2.5 1.121094 2.5 2.5v48.503907h-22.5c-3.71875 0-7.160156 1.175781-10 3.160156-2.835938-1.984375-6.28125-3.160156-10-3.160156h-22.5zm22.5 128.503907h-60c-1.378906 0-2.5-1.121094-2.5-2.5v-60c0-1.378907 1.121094-2.5 2.5-2.5h60c1.378906 0 2.5 1.121093 2.5 2.5v60c0 1.378906-1.121094 2.5-2.5 2.5zm82.5-62.5v60c0 1.378906-1.121094 2.5-2.5 2.5h-60c-1.378906 0-2.5-1.121094-2.5-2.5v-60c0-1.378907 1.121094-2.5 2.5-2.5h60c1.378906 0 2.5 1.121093 2.5 2.5zm0 0"/></svg>