<svg height="512pt" viewBox="-65 0 512 512" width="512pt" xmlns="http://www.w3.org/2000/svg"><path d="m157.5 237h-130c-8.285156 0-15-6.714844-15-15s6.714844-15 15-15h130c8.285156 0 15 6.714844 15 15s-6.714844 15-15 15zm0 0" fill="#4c779f"/><path d="m157.5 207h-30c8.285156 0 15 6.714844 15 15s-6.714844 15-15 15h30c8.285156 0 15-6.714844 15-15s-6.714844-15-15-15zm0 0" fill="#3a5c7a"/><path d="m152.5 207h-120c0-33.136719 26.863281-60 60-60s60 26.863281 60 60zm0 0" fill="#d1ffff"/><path d="m92.5 147c-5.179688 0-10.207031.65625-15 1.890625 25.878906 6.660156 45 30.152344 45 58.109375h30c0-33.136719-26.863281-60-60-60zm0 0" fill="#bbeded"/><path d="m177.5 431.066406v39.433594c0 18.777344-15.222656 34-34 34h-102c-18.777344 0-34-15.222656-34-34v-39.433594c0-31.195312 5.066406-62.183594 15-91.753906s15-60.558594 15-91.753906v-10.558594h110v10.558594c0 31.195312 5.066406 62.179687 15 91.753906 9.933594 29.570312 15 60.558594 15 91.753906zm0 0" fill="#bdf9ff"/><path d="m162.5 339.3125c-9.933594-29.574219-15-60.558594-15-91.753906v-10.558594h-30v10.558594c0 31.195312 5.066406 62.183594 15 91.753906s15 60.558594 15 91.753906v39.433594c0 18.777344-15.222656 34-34 34h30c18.777344 0 34-15.222656 34-34v-39.433594c0-31.195312-5.066406-62.183594-15-91.753906zm0 0" fill="#8cf2ff"/><path d="m374.5 431.066406v39.433594c0 18.777344-15.222656 34-34 34h-102c-18.777344 0-34-15.222656-34-34v-39.433594c0-31.195312 5.066406-62.183594 15-91.753906s15-60.558594 15-91.753906v-10.558594h110v10.558594c0 31.195312 5.066406 62.179687 15 91.753906 9.933594 29.570312 15 60.558594 15 91.753906zm0 0" fill="#bdf9ff"/><path d="m359.5 339.3125c-9.933594-29.574219-15-60.558594-15-91.753906v-10.558594h-30v10.558594c0 31.195312 5.066406 62.183594 15 91.753906s15 60.558594 15 91.753906v39.433594c0 18.777344-15.222656 34-34 34h30c18.777344 0 34-15.222656 34-34v-39.433594c0-31.195312-5.066406-62.183594-15-91.753906zm0 0" fill="#8cf2ff"/><path d="m346.5 237h-114c-2.210938 0-4-1.789062-4-4v-221.5c0-2.210938 1.789062-4 4-4h114c2.210938 0 4 1.789062 4 4v221.5c0 2.210938-1.789062 4-4 4zm0 0" fill="#804d36"/><path d="m346.5 7.5h-30c2.210938 0 4 1.789062 4 4v221.5c0 2.210938-1.789062 4-4 4h30c2.210938 0 4-1.789062 4-4v-221.5c0-2.210938-1.789062-4-4-4zm0 0" fill="#663b29"/><path d="m228.5 136h122v46h-122zm0 0" fill="#ffd659"/><path d="m320.5 136h30v46h-30zm0 0" fill="#ffbd54"/><path d="m155 247.558594v-3.058594h2.5c12.40625 0 22.5-10.09375 22.5-22.5 0-11.703125-8.980469-21.34375-20.414062-22.398438-3.699219-33.75-32.367188-60.101562-67.085938-60.101562s-63.386719 26.351562-67.085938 60.101562c-11.433593 1.054688-20.414062 10.695313-20.414062 22.398438 0 12.40625 10.09375 22.5 22.5 22.5h2.5v3.058594c0 12.226562-.8125 24.578125-2.410156 36.707031-.542969 4.105469 2.347656 7.875 6.453125 8.414063 4.109375.546874 7.875-2.347657 8.417969-6.453126 1.6875-12.773437 2.539062-25.785156 2.539062-38.667968v-3.058594h95v3.058594c0 32.066406 5.179688 63.742187 15.390625 94.140625 9.695313 28.859375 14.609375 58.925781 14.609375 89.367187v39.433594c0 14.613281-11.886719 26.5-26.5 26.5h-102c-14.613281 0-26.5-11.886719-26.5-26.5v-39.433594c0-30.441406 4.914062-60.511718 14.609375-89.367187 2.519531-7.5 4.765625-15.203125 6.675781-22.890625 1-4.023438-1.449218-8.089844-5.472656-9.089844-4.015625-.996094-8.085938 1.453125-9.085938 5.472656-1.8125 7.300782-3.945312 14.609375-6.335937 21.730469-10.210937 30.402344-15.390625 62.074219-15.390625 94.144531v39.433594c0 22.882812 18.617188 41.5 41.5 41.5h102c22.882812 0 41.5-18.617188 41.5-41.5v-39.433594c0-32.070312-5.179688-63.742187-15.390625-94.144531-9.695313-28.855469-14.609375-58.921875-14.609375-89.363281zm-62.5-93.058594c26.402344 0 48.316406 19.59375 51.964844 45h-103.929688c3.648438-25.40625 25.5625-45 51.964844-45zm-65 75c-4.136719 0-7.5-3.363281-7.5-7.5s3.363281-7.5 7.5-7.5h130c4.136719 0 7.5 3.363281 7.5 7.5s-3.363281 7.5-7.5 7.5zm0 0"/><path d="m374.5 443.082031c4.144531 0 7.5-3.355469 7.5-7.5v-4.515625c0-32.070312-5.179688-63.742187-15.390625-94.144531-9.695313-28.859375-14.609375-58.925781-14.609375-89.363281v-4.460938c3.570312-1.957031 6-5.746094 6-10.097656 0-8.949219 0-193.390625 0-221.5 0-6.339844-5.160156-11.5-11.5-11.5h-114c-6.339844 0-11.5 5.160156-11.5 11.5v20.5c0 4.144531 3.355469 7.5 7.5 7.5s7.5-3.355469 7.5-7.5v-17h107v113.5h-107v-64.832031c0-4.144531-3.355469-7.5-7.5-7.5s-7.5 3.355469-7.5 7.5v169.332031c0 4.351562 2.429688 8.140625 6 10.097656v4.460938c0 30.4375-4.914062 60.507812-14.609375 89.363281-10.210937 30.402344-15.390625 62.074219-15.390625 94.144531v39.433594c0 22.882812 18.617188 41.5 41.5 41.5h102c22.882812 0 41.5-18.617188 41.5-41.5v-2.667969c0-4.140625-3.355469-7.5-7.5-7.5s-7.5 3.359375-7.5 7.5v2.667969c0 14.613281-11.886719 26.5-26.5 26.5h-102c-14.613281 0-26.5-11.886719-26.5-26.5v-39.433594c0-30.441406 4.914062-60.507812 14.609375-89.367187 10.210937-30.398438 15.390625-62.074219 15.390625-94.140625v-3.058594h95v3.058594c0 32.066406 5.179688 63.742187 15.390625 94.140625 9.695313 28.859375 14.609375 58.925781 14.609375 89.367187v4.515625c0 4.144531 3.355469 7.5 7.5 7.5zm-31.5-299.582031v31h-107v-31zm-107 86v-40h107v40zm0 0"/><path d="m92.5 160.835938c-4.140625 0-7.5 3.355468-7.5 7.5v.5c0 4.140624 3.359375 7.5 7.5 7.5s7.5-3.359376 7.5-7.5v-.5c0-4.144532-3.359375-7.5-7.5-7.5zm0 0"/><path d="m69 176c-4.140625 0-7.5 3.355469-7.5 7.5v.5c0 4.144531 3.359375 7.5 7.5 7.5s7.5-3.355469 7.5-7.5v-.5c0-4.144531-3.359375-7.5-7.5-7.5zm0 0"/><path d="m116 176c-4.140625 0-7.5 3.355469-7.5 7.5v.5c0 4.144531 3.359375 7.5 7.5 7.5s7.5-3.355469 7.5-7.5v-.5c0-4.144531-3.359375-7.5-7.5-7.5zm0 0"/></svg>