<svg height="512pt" viewBox="0 -93 512 512" width="512pt" xmlns="http://www.w3.org/2000/svg"><path d="m154.691406 7.5 19.546875 79.828125h93.761719l-18.804688-76.785156c-.4375-1.785157-2.042968-3.042969-3.886718-3.042969zm0 0" fill="#663b29"/><path d="m249.195312 10.542969c-.4375-1.785157-2.042968-3.042969-3.886718-3.042969h-30c1.84375 0 3.449218 1.257812 3.886718 3.042969l18.804688 76.785156h30zm0 0" fill="#5c3425"/><path d="m432.464844 87.328125v78.179687c0 2.207032-1.789063 3.992188-4 3.992188h-320.929688c-2.210937 0-4-1.785156-4-3.992188v-78.179687zm0 0" fill="#5c3525"/><path d="m402.464844 87.328125v78.179687c0 2.207032-1.789063 3.992188-4 3.992188h30c2.210937 0 4-1.785156 4-3.992188v-78.179687zm0 0" fill="#4a2a1e"/><path d="m216.84375 7.5-19.546875 79.828125h-93.761719l18.804688-76.785156c.4375-1.785157 2.042968-3.042969 3.886718-3.042969zm0 0" fill="#804d36"/><path d="m319.15625 7.5 19.546875 79.828125h93.761719l-18.804688-76.785156c-.4375-1.785157-2.042968-3.042969-3.886718-3.042969zm0 0" fill="#663b29"/><path d="m413.660156 10.542969c-.4375-1.785157-2.042968-3.042969-3.886718-3.042969h-30c1.84375 0 3.449218 1.257812 3.886718 3.042969l18.804688 76.785156h30zm0 0" fill="#5c3425"/><path d="m381.308594 7.5-19.546875 79.828125h-93.761719l18.804688-76.785156c.4375-1.785157 2.042968-3.042969 3.886718-3.042969zm0 0" fill="#804d36"/><path d="m197.296875 87.328125v82.171875h-89.761719c-2.210937 0-4-1.785156-4-3.992188v-78.179687zm0 0" fill="#663b29"/><path d="m140.632812 127.5h126.917969v190h-126.917969zm0 0" fill="#de4121"/><path d="m284.066406 160.101562-18.339844 75.050782h-93.761718l18.804687-76.949219c.4375-1.792969 2.039063-3.050781 3.882813-3.050781h85.527344c2.59375 0 4.5 2.429687 3.886718 4.949218zm0 0" fill="#663b29"/><path d="m58.65625 155.152344 19.546875 80h93.761719l-18.804688-76.949219c-.4375-1.792969-2.042968-3.050781-3.886718-3.050781zm0 0" fill="#663b29"/><path d="m153.160156 158.203125c-.4375-1.792969-2.042968-3.050781-3.886718-3.050781h-30c1.84375 0 3.449218 1.261718 3.886718 3.050781l18.804688 76.949219h30zm0 0" fill="#5c3425"/><path d="m7.5 235.152344h226.621094v82.347656h-226.621094zm0 0" fill="#5c3525"/><path d="m120.808594 155.152344-19.546875 80h-93.761719l18.804688-76.949219c.4375-1.792969 2.042968-3.050781 3.886718-3.050781zm0 0" fill="#804d36"/><path d="m500.5 317.5h-270.992188v-190h270.992188c2.210938 0 4 1.789062 4 4v182c0 2.210938-1.789062 4-4 4zm0 0" fill="#fe5555"/><path d="m500.5 127.5h-30c2.210938 0 4 1.789062 4 4v182c0 2.210938-1.789062 4-4 4h30c2.210938 0 4-1.789062 4-4v-182c0-2.210938-1.789062-4-4-4zm0 0" fill="#e84141"/><path d="m393.308594 127.5h60v190h-60zm0 0" fill="#fff0d0"/><path d="m7.5 235.152344h93.761719v82.347656h-93.761719zm0 0" fill="#663b29"/><path d="m500.5 120c-17.398438 0-47.597656 0-60.539062 0-.003907-35.179688.019531-32.886719-.054688-33.53125-.023438-.21875-.136719-.820312-.160156-.921875l-18.804688-76.808594c-1.273437-5.144531-5.863281-8.738281-11.160156-8.738281-11.023438 0-107.703125 0-119.089844 0-5.316406 0-9.910156 3.601562-11.171875 8.761719l-11.519531 47.03125-11.519531-47.054688c-1.269531-5.144531-5.867188-8.738281-11.171875-8.738281-11.050782 0-107.902344 0-119.082032 0-5.316406 0-9.910156 3.605469-11.171874 8.761719-19.867188 81.15625-18.882813 76.964843-18.96875 77.765625-.011719.101562-.046876.59375-.046876.816406v18.824219c0 4.144531 3.359376 7.5 7.5 7.5 4.144532 0 7.5-3.355469 7.5-7.5v-11.339844h78.761719v25.171875h-49.167969c-4.144531 0-7.5 3.355469-7.5 7.5v20.148438h-22.09375v-9.316407c0-4.140625-3.355468-7.5-7.5-7.5-4.140624 0-7.5 3.359375-7.5 7.5v9.316407c-4.625 0-58.289062.003906-65.847656.003906-5.316406 0-9.910156 3.605468-11.171875 8.769531l-18.804687 76.949219c-.007813.027344-.007813.054687-.015625.082031-.046875.199219-.082031.398437-.1093752.605469-.0117188.074218-.0273438.144531-.0351563.21875-.0234375.195312-.03125.390625-.0390625.589844-.0039062.078124-.01171875.15625-.01171875.234374 0 .015626-.00390625.035157-.00390625.050782v82.347656c0 4.144531 3.355469 7.5 7.5 7.5h120.375c4.144531 0 7.5-3.355469 7.5-7.5s-3.355469-7.5-7.5-7.5h-19.113281v-67.351562h113.246093v67.351562h-61.882812c-4.144531 0-7.5 3.355469-7.5 7.5s3.355469 7.5 7.5 7.5h340.375c6.339844 0 11.5-5.160156 11.5-11.5v-182c0-6.339844-5.160156-11.5-11.5-11.5zm-77.597656-40.171875h-51.582032l15.875-64.828125h19.835938zm-129.46875-64.828125h78.316406l-15.875 64.828125h-78.316406zm-34.992188 64.828125h-51.585937l15.875-64.828125h19.839843zm-129.472656-64.828125h78.316406l-15.875 64.828125h-78.316406zm75.832031 79.828125h220.160157v25.171875c-15.058594 0-57.761719 0-72.792969 0-4.144531 0-7.5 3.355469-7.5 7.5s3.355469 7.5 7.5 7.5h33.640625v175h-148.800782c0-21.386719 0-167.058594 0-175h82.824219c4.144531 0 7.5-3.355469 7.5-7.5s-3.355469-7.5-7.5-7.5c-53.433593 0-61.382812 0-115.03125 0zm-56.671875 40.171875h73.878906v12.648438h-27.359374c-5.304688 0-9.894532 3.605468-11.164063 8.769531l-11.523437 47.136719-11.519532-47.148438c-1.269531-5.152344-5.855468-8.757812-11.160156-8.757812h-1.152344zm-115.191406 27.652344h78.320312l-15.882812 64.996094c-16 0-62.328125 0-78.320312 0zm-17.9375 147.347656v-67.347656h78.761719v67.347656zm95.8125-82.351562 15.882812-65h19.832032l15.878906 65zm70.703125 0 15.886719-65h24.605468v65zm219.292969 82.351562v-175h45v175zm96.191406 0h-36.191406v-175h36.191406zm0 0"/></svg>