<svg height="511pt" viewBox="-49 1 511 511.99926" width="511pt" xmlns="http://www.w3.org/2000/svg"><path d="m385.410156 67.5c0-7.351562-3.96875-13.777344-9.878906-17.253906-2.070312-1.21875-1.964844-4.320313.097656-5.550782 6.867188-4.09375 11.078125-12.183593 9.417969-21.058593-1.472656-7.867188-7.914063-14.316407-15.800781-15.78125-8.867188-1.644531-16.945313 2.5625-21.03125 9.421875-1.230469 2.066406-4.335938 2.171875-5.554688.097656-3.472656-5.910156-9.898437-9.875-17.25-9.875-7.34375 0-13.765625 3.957031-17.242187 9.855469-1.199219 2.035156-4.320313 2.035156-5.519531 0-3.476563-5.898438-9.898438-9.855469-17.242188-9.855469s-13.761719 3.957031-17.238281 9.855469c-1.199219 2.035156-4.320313 2.035156-5.519531 0-3.480469-5.898438-9.898438-9.855469-17.242188-9.855469s-13.761719 3.957031-17.242188 9.855469c-1.199218 2.035156-4.316406 2.035156-5.515624 0-3.480469-5.898438-9.898438-9.855469-17.242188-9.855469s-13.761719 3.957031-17.242188 9.855469c-1.199218 2.035156-4.320312 2.035156-5.519531 0-3.476562-5.898438-9.894531-9.855469-17.238281-9.855469-7.355469 0-13.78125 3.964844-17.253906 9.875-1.21875 2.074219-4.324219 1.96875-5.550782-.097656-4.089843-6.859375-12.167968-11.066406-21.035156-9.421875-7.886718 1.464843-14.328125 7.914062-15.800781 15.78125-1.660156 8.875 2.550781 16.964843 9.417969 21.058593 2.066406 1.230469 2.171875 4.332032.097656 5.550782-5.910156 3.476562-9.875 9.902344-9.875 17.253906 0 7.34375 3.957031 13.761719 9.855469 17.242188 2.035156 1.195312 2.035156 4.316406 0 5.515624-5.898438 3.480469-9.855469 9.898438-9.855469 17.242188s3.957031 13.761719 9.855469 17.242188c2.035156 1.199218 2.035156 4.316406 0 5.519531-5.898438 3.476562-9.855469 9.894531-9.855469 17.238281s3.957031 13.765625 9.855469 17.242188c2.035156 1.199218 2.035156 4.320312 0 5.519531-5.898438 3.476562-9.855469 9.898437-9.855469 17.242187s3.957031 13.761719 9.855469 17.238282c2.035156 1.199218 2.035156 4.320312 0 5.519531-5.898438 3.480469-9.855469 9.898437-9.855469 17.242187s3.957031 13.761719 9.855469 17.242188c2.035156 1.195312 2.035156 4.316406 0 5.515625-5.898438 3.480469-9.855469 9.898437-9.855469 17.242187s3.957031 13.761719 9.855469 17.242188c2.035156 1.199218 2.035156 4.316406 0 5.519531-5.898438 3.476563-9.855469 9.894531-9.855469 17.238281 0 7.351563 3.964844 13.78125 9.875 17.253906 2.074219 1.21875 1.96875 4.324219-.097656 5.550782-6.867188 4.09375-11.078125 12.183594-9.417969 21.0625 1.472656 7.863281 7.914063 14.3125 15.800781 15.777344 8.867188 1.648437 16.945313-2.5625 21.035156-9.421876 1.226563-2.066406 4.332032-2.171874 5.550782-.097656 3.472656 5.910156 9.898437 9.875 17.253906 9.875 7.34375 0 13.761719-3.957031 17.238281-9.855468 1.199219-2.035157 4.320313-2.035157 5.519531 0 3.480469 5.898437 9.898438 9.855468 17.242188 9.855468s13.761719-3.957031 17.242188-9.855468c1.195312-2.035157 4.316406-2.035157 5.515624 0 3.480469 5.898437 9.898438 9.855468 17.242188 9.855468s13.761719-3.957031 17.242188-9.855468c1.199218-2.035157 4.316406-2.035157 5.519531 0 3.476562 5.898437 9.894531 9.855468 17.238281 9.855468s13.765625-3.957031 17.242188-9.855468c1.199218-2.035157 4.320312-2.035157 5.519531 0 3.476562 5.898437 9.898437 9.855468 17.242187 9.855468 7.351563 0 13.777344-3.964844 17.25-9.875 1.21875-2.074218 4.324219-1.96875 5.554688.097656 4.085937 6.859376 12.164062 11.070313 21.03125 9.421876 7.886718-1.464844 14.328125-7.914063 15.800781-15.777344 1.660156-8.878906-2.550781-16.96875-9.417969-21.0625-2.066406-1.226563-2.167968-4.332032-.097656-5.550782 5.910156-3.472656 9.878906-9.902343 9.878906-17.253906 0-7.34375-3.960937-13.761718-9.859375-17.238281-2.03125-1.199219-2.03125-4.320313 0-5.519531 5.898438-3.480469 9.859375-9.898438 9.859375-17.242188s-3.960937-13.761718-9.859375-17.242187c-2.03125-1.199219-2.03125-4.316407 0-5.515625 5.898438-3.480469 9.859375-9.898438 9.859375-17.242188s-3.960937-13.761718-9.859375-17.242187c-2.03125-1.199219-2.03125-4.320313 0-5.519531 5.898438-3.476563 9.859375-9.894532 9.859375-17.238282s-3.960937-13.765625-9.859375-17.242187c-2.03125-1.199219-2.03125-4.320313 0-5.519531 5.898438-3.476563 9.859375-9.898438 9.859375-17.242188s-3.960937-13.761719-9.859375-17.238281c-2.03125-1.199219-2.03125-4.320313 0-5.519531 5.898438-3.480469 9.859375-9.898438 9.859375-17.242188s-3.960937-13.761719-9.859375-17.242188c-2.03125-1.199218-2.03125-4.316406 0-5.515624 5.898438-3.480469 9.859375-9.898438 9.859375-17.242188zm0 0" fill="#db9a6c"/><path d="m317.257812 67.5c0-7.351562-3.96875-13.777344-9.878906-17.253906-2.070312-1.21875-1.964844-4.320313.097656-5.550782 6.871094-4.09375 11.078126-12.183593 9.417969-21.058593-1.472656-7.867188-7.914062-14.316407-15.800781-15.78125-8.867188-1.644531-16.945312 2.5625-21.03125 9.421875-1.230469 2.066406-4.332031 2.171875-5.550781.097656-3.476563-5.910156-9.902344-9.875-17.253907-9.875-7.34375 0-13.761718 3.957031-17.242187 9.855469-1.199219 2.035156-4.316406 2.035156-5.519531 0-3.476563-5.898438-9.894532-9.855469-17.238282-9.855469s-13.765624 3.957031-17.242187 9.855469c-1.199219 2.035156-4.320313 2.035156-5.519531 0-3.476563-5.898438-9.894532-9.855469-17.242188-9.855469-7.34375 0-13.761718 3.957031-17.238281 9.855469-1.199219 2.035156-4.320313 2.035156-5.519531 0-3.476563-5.898438-9.898438-9.855469-17.242188-9.855469s-13.761718 3.957031-17.242187 9.855469c-1.195313 2.035156-4.316407 2.035156-5.515625 0-3.480469-5.898438-9.898438-9.855469-17.242188-9.855469-7.351562 0-13.777344 3.964844-17.253906 9.875-1.21875 2.074219-4.320312 1.96875-5.550781-.097656-4.085938-6.859375-12.164063-11.066406-21.03125-9.421875-7.886719 1.464843-14.332031 7.914062-15.800781 15.78125-1.664063 8.875 2.546874 16.964843 9.417968 21.058593 2.0625 1.230469 2.167969 4.332032.09375 5.550782-5.910156 3.476562-9.875 9.902344-9.875 17.253906 0 7.34375 3.957032 13.761719 9.855469 17.242188 2.035156 1.195312 2.035156 4.316406 0 5.515624-5.898437 3.480469-9.855469 9.898438-9.855469 17.242188s3.957032 13.761719 9.855469 17.242188c2.035156 1.199218 2.035156 4.316406 0 5.519531-5.898437 3.476562-9.855469 9.894531-9.855469 17.238281s3.957032 13.765625 9.855469 17.242188c2.035156 1.199218 2.035156 4.320312 0 5.519531-5.898437 3.476562-9.855469 9.898437-9.855469 17.242187s3.957032 13.761719 9.855469 17.238282c2.035156 1.199218 2.035156 4.320312 0 5.519531-5.898437 3.480469-9.855469 9.898437-9.855469 17.242187s3.957032 13.761719 9.855469 17.242188c2.035156 1.195312 2.035156 4.316406 0 5.515625-5.898437 3.480469-9.855469 9.898437-9.855469 17.242187s3.957032 13.761719 9.855469 17.242188c2.035156 1.199218 2.035156 4.316406 0 5.519531-5.898437 3.476563-9.855469 9.894531-9.855469 17.238281 0 7.351563 3.964844 13.78125 9.875 17.253906 2.074219 1.21875 1.96875 4.324219-.09375 5.550782-6.871094 4.09375-11.082031 12.183594-9.417968 21.0625 1.46875 7.863281 7.914062 14.3125 15.800781 15.777344 8.867187 1.648437 16.945312-2.5625 21.03125-9.421876 1.230469-2.066406 4.332031-2.171874 5.550781-.097656 3.476562 5.910156 9.902344 9.875 17.253906 9.875 7.34375 0 13.761719-3.957031 17.242188-9.855468 1.199218-2.035157 4.316406-2.035157 5.515625 0 3.480469 5.898437 9.898437 9.855468 17.242187 9.855468s13.765625-3.957031 17.242188-9.855468c1.199218-2.035157 4.320312-2.035157 5.519531 0 3.476563 5.898437 9.894531 9.855468 17.238281 9.855468 7.347656 0 13.765625-3.957031 17.242188-9.855468 1.199218-2.035157 4.320312-2.035157 5.519531 0 3.476563 5.898437 9.898437 9.855468 17.242187 9.855468s13.761719-3.957031 17.238282-9.855468c1.199218-2.035157 4.320312-2.035157 5.519531 0 3.480469 5.898437 9.898437 9.855468 17.242187 9.855468 7.351563 0 13.777344-3.964844 17.253907-9.875 1.21875-2.074218 4.320312-1.96875 5.550781.097656 4.085938 6.859376 12.164062 11.070313 21.03125 9.421876 7.886719-1.464844 14.332031-7.914063 15.800781-15.777344 1.660157-8.878906-2.546875-16.96875-9.417969-21.0625-2.0625-1.226563-2.167968-4.332032-.097656-5.550782 5.910156-3.472656 9.878906-9.902343 9.878906-17.253906 0-7.34375-3.957031-13.761718-9.855468-17.238281-2.035156-1.199219-2.035156-4.320313 0-5.519531 5.898437-3.480469 9.855468-9.898438 9.855468-17.242188s-3.957031-13.761718-9.855468-17.242187c-2.035156-1.199219-2.035156-4.316407 0-5.515625 5.898437-3.480469 9.855468-9.898438 9.855468-17.242188s-3.957031-13.761718-9.855468-17.242187c-2.035156-1.199219-2.035156-4.320313 0-5.519531 5.898437-3.476563 9.855468-9.894532 9.855468-17.238282s-3.957031-13.765625-9.855468-17.242187c-2.035156-1.199219-2.035156-4.320313 0-5.519531 5.898437-3.476563 9.855468-9.898438 9.855468-17.242188s-3.957031-13.761719-9.855468-17.238281c-2.035156-1.199219-2.035156-4.320313 0-5.519531 5.898437-3.480469 9.855468-9.898438 9.855468-17.242188s-3.957031-13.761719-9.855468-17.242188c-2.035156-1.199218-2.035156-4.316406 0-5.515624 5.898437-3.480469 9.855468-9.898438 9.855468-17.242188zm0 0" fill="#f5b387"/><path d="m402 143h-390c-2.210938 0-4-1.792969-4-4v-22c0-2.210938 1.789062-4 4-4h390c2.207031 0 4 1.789062 4 4v22c0 2.207031-1.792969 4-4 4zm0 0" fill="#edcfb2"/><path d="m402 113h-30c2.207031 0 4 1.789062 4 4v22c0 2.207031-1.792969 4-4 4h30c2.207031 0 4-1.792969 4-4v-22c0-2.210938-1.792969-4-4-4zm0 0" fill="#cfb49b"/><path d="m397 143v321.519531c0 22.078125-17.898438 39.980469-39.980469 39.980469h-149.941406v-361.5zm0 0" fill="#fff0d0"/><path d="m397 143v321.519531c0 22.078125-17.898438 39.980469-39.980469 39.980469h-30c22.082031 0 39.980469-17.902344 39.980469-39.980469v-321.519531zm0 0" fill="#edcfb2"/><path d="m310.320312 504.5h-253.339843c-22.082031 0-39.980469-17.902344-39.980469-39.980469v-321.519531h253.328125v321.519531c0 22.078125 17.902344 39.980469 39.992187 39.980469zm0 0" fill="#ffd659"/><path d="m310.320312 504.5h-30c-22.089843 0-39.992187-17.902344-39.992187-39.980469v-321.519531h30v321.519531c0 22.078125 17.902344 39.980469 39.992187 39.980469zm0 0" fill="#ffbd54"/><path d="m17 208h253.328125v190h-253.328125zm0 0" fill="#60d9fe"/><path d="m240.328125 208h30v190h-30zm0 0" fill="#40ccf7"/><path d="m147.140625 373.160156c5.898437 3.480469 9.859375 9.890625 9.859375 17.238282 0 2.691406-.53125 5.261718-1.5 7.601562h-138.5v-147.601562c7.339844 0 13.757812 3.960937 17.238281 9.859374 1.203125 2.03125 4.320313 2.03125 5.519531 0 3.480469-5.898437 9.902344-9.859374 17.242188-9.859374s13.757812 3.960937 17.238281 9.859374c1.203125 2.03125 4.320313 2.03125 5.519531 0 3.480469-5.898437 9.902344-9.859374 17.242188-9.859374 7.351562 0 13.78125 3.972656 17.25 9.878906 1.21875 2.070312 4.320312 1.960937 5.550781-.097656 4.089844-6.859376 12.167969-11.070313 21.039063-9.421876 7.878906 1.460938 14.328125 7.910157 15.800781 15.769532 1.660156 8.882812-2.550781 16.972656-9.421875 21.0625-2.058594 1.230468-2.167969 4.339844-.097656 5.558594 5.910156 3.472656 9.878906 9.902343 9.878906 17.25 0 7.339843-3.960938 13.761718-9.859375 17.242187-2.03125 1.199219-2.03125 4.320313 0 5.519531 5.898437 3.480469 9.859375 9.890625 9.859375 17.238282 0 7.339843-3.960938 13.761718-9.859375 17.242187-2.03125 1.199219-2.03125 4.320313 0 5.519531zm0 0" fill="#f5b387"/><path d="m332.808594 207.453125c-4.140625 0-7.5 3.355469-7.5 7.5v232.707031c0 4.140625 3.359375 7.5 7.5 7.5 4.144531 0 7.5-3.359375 7.5-7.5v-232.707031c0-4.144531-3.355469-7.5-7.5-7.5zm0 0"/><path d="m402 105.5h-9.171875c-.507813-6.875-3.601563-13.3125-8.554687-18 5.429687-5.144531 8.636718-12.382812 8.636718-20 0-7.609375-3.199218-14.84375-8.621094-19.984375 6.773438-6.347656 9.914063-15.726563 8.128907-25.257813-2.054688-10.984374-10.816407-19.734374-21.800781-21.773437-9.523438-1.765625-18.882813 1.371094-25.222657 8.136719-5.140625-5.421875-12.375-8.621094-19.984375-8.621094-5.027344 0-9.855468 1.34375-14.066406 3.859375-2.703125-1.609375-5.691406-2.78125-8.878906-3.375-9.519532-1.765625-18.882813 1.375-25.222656 8.136719-5.140626-5.417969-12.371094-8.61718775-19.984376-8.61718775-7.617187 0-14.859374 3.20312475-20 8.63281275-5.144531-5.429688-12.382812-8.63281275-20-8.63281275-7.617187 0-14.859374 3.20312475-20 8.63281275-5.144531-5.429688-12.382812-8.63281275-20-8.63281275-7.617187 0-14.859374 3.20312475-20 8.63281275-5.144531-5.429688-12.382812-8.63281275-20-8.63281275-7.617187 0-14.859374 3.20312475-20 8.63281275-5.144531-5.429688-12.382812-8.63281275-20-8.63281275-7.613281 0-14.84375 3.19921875-19.984374 8.61718775-6.339844-6.761719-15.703126-9.902344-25.222657-8.136719-10.984375 2.039063-19.75 10.789063-21.804687 21.773437-1.78125 9.535157 1.355468 18.910157 8.128906 25.257813-5.417969 5.144531-8.617188 12.375-8.617188 19.984375 0 7.621094 3.207032 14.859375 8.636719 20-4.953125 4.691406-8.046875 11.128906-8.554687 18h-17.839844c-6.339844 0-11.5 5.160156-11.5 11.5v22c0 5.480469 3.859375 10.074219 9 11.21875v265.449219c0 4.140625 3.359375 7.5 7.5 7.5s7.5-3.359375 7.5-7.5v-10.167969h238.328125v59.019531c0 12.550781 4.898437 23.980469 12.882813 32.480469-6.527344 0-212.210938 0-218.730469 0-17.910157 0-32.480469-14.570312-32.480469-32.480469v-16.851562c0-4.144531-3.359375-7.5-7.5-7.5s-7.5 3.355469-7.5 7.5v16.851562c0 26.179688 21.296875 47.480469 47.480469 47.480469h300.039062c26.179688 0 47.480469-21.300781 47.480469-47.480469v-314.300781c5.140625-1.144531 9-5.738281 9-11.21875v-22c0-6.339844-5.160156-11.5-11.5-11.5zm-65.804688-84.324219c1.910157 3.25 5.320313 5.195313 9.125 5.207031 3.785157.042969 7.394532-2.007812 9.335938-5.265624 2.71875-4.5625 7.90625-6.871094 13.21875-5.886719 4.859375.902343 8.890625 4.925781 9.800781 9.785156.992188 5.316406-1.316406 10.515625-5.882812 13.234375-3.257813 1.941406-5.273438 5.519531-5.265625 9.335938.011718 3.804687 1.957031 7.21875 5.203125 9.125 3.8125 2.242187 6.179687 6.375 6.179687 10.789062 0 4.40625-2.363281 8.535156-6.167968 10.777344-3.214844 1.898437-5.214844 5.433594-5.214844 9.222656s2 7.320312 5.21875 9.21875 5.386718 5.15625 5.984375 8.78125h-53.054688c-.507812-6.875-3.601562-13.3125-8.550781-18 5.425781-5.144531 8.632812-12.382812 8.632812-20 0-7.613281-3.199218-14.84375-8.621093-19.984375 6.777343-6.347656 9.914062-15.726563 8.132812-25.257813-.449219-2.386718-1.226562-4.65625-2.261719-6.785156 1.09375-.304687 2.234376-.472656 3.402344-.472656 4.410156 0 8.546875 2.367188 10.785156 6.175781zm-320.695312 99.324219h63.75c4.140625 0 7.5-3.355469 7.5-7.5s-3.359375-7.5-7.5-7.5h-34.308594c.59375-3.625 2.761719-6.878906 5.984375-8.78125 3.21875-1.898438 5.214844-5.429688 5.214844-9.21875s-1.996094-7.320312-5.21875-9.222656c-3.800781-2.238282-6.164063-6.371094-6.164063-10.777344 0-4.414062 2.367188-8.546875 6.179688-10.785156 3.246094-1.910156 5.191406-5.324219 5.199219-9.128906.011719-3.816407-2.003907-7.394532-5.261719-9.332032-4.566406-2.722656-6.878906-7.917968-5.882812-13.238281.910156-4.855469 4.9375-8.882813 9.800781-9.785156 5.3125-.984375 10.5 1.324219 13.214843 5.890625 1.9375 3.246094 5.5 5.261718 9.304688 5.261718h.03125c3.808594-.011718 7.21875-1.957031 9.125-5.203124 2.242188-3.8125 6.375-6.179688 10.789062-6.179688 4.40625 0 8.539063 2.363281 10.78125 6.167969 1.898438 3.21875 5.429688 5.214843 9.21875 5.214843 3.789063 0 7.324219-1.996093 9.222657-5.214843 2.242187-3.804688 6.371093-6.167969 10.777343-6.167969s8.539063 2.363281 10.78125 6.167969c1.898438 3.21875 5.429688 5.214843 9.21875 5.214843 3.789063 0 7.324219-1.996093 9.222657-5.214843 2.242187-3.804688 6.371093-6.167969 10.777343-6.167969s8.539063 2.363281 10.78125 6.167969c1.898438 3.21875 5.429688 5.214843 9.21875 5.214843 3.789063 0 7.324219-1.996093 9.222657-5.214843 2.242187-3.804688 6.371093-6.167969 10.777343-6.167969s8.539063 2.363281 10.78125 6.167969c1.898438 3.21875 5.429688 5.214843 9.21875 5.214843 3.789063 0 7.324219-1.996093 9.222657-5.214843 2.242187-3.804688 6.371093-6.167969 10.777343-6.167969 4.414063 0 8.546876 2.367188 10.789063 6.179688 1.90625 3.246093 5.320313 5.191406 9.125 5.203124h.03125c3.804687 0 7.367187-2.015624 9.304687-5.261718 2.71875-4.5625 7.902344-6.875 13.21875-5.890625 2.347657.4375 4.5 1.609375 6.199219 3.242187.027344.03125.054688.0625.082031.089844.058594.0625.121094.113281.183594.167969 1.683594 1.714843 2.886719 3.898437 3.332032 6.285156.996093 5.320313-1.3125 10.515625-5.882813 13.234375-3.257813 1.941406-5.273437 5.519531-5.265625 9.335938.011719 3.804687 1.957031 7.21875 5.203125 9.125 3.8125 2.242187 6.179687 6.375 6.179687 10.789062 0 4.40625-2.363281 8.539062-6.167968 10.78125-3.214844 1.898438-5.214844 5.429688-5.214844 9.21875s2 7.320312 5.214844 9.222656c3.222656 1.898438 5.390625 5.152344 5.984375 8.777344h-198.824219c-4.140625 0-7.5 3.355469-7.5 7.5s3.359375 7.5 7.5 7.5h287.75v15c-14.671875 0-371.238281 0-383 0zm9 139.917969c1.304688.976562 2.429688 2.210937 3.28125 3.65625 1.898438 3.214843 5.429688 5.207031 9.21875 5.207031 3.785156 0 7.320312-1.992188 9.21875-5.210938 2.246094-3.804687 6.375-6.171874 10.78125-6.171874s8.535156 2.367187 10.78125 6.175781c1.898438 3.214843 5.429688 5.207031 9.21875 5.207031 3.785156 0 7.320312-1.992188 9.21875-5.210938 2.246094-3.804687 6.375-6.171874 10.78125-6.171874 4.414062 0 8.542969 2.367187 10.789062 6.1875 1.90625 3.242187 5.316407 5.183593 9.117188 5.191406h.03125c3.804688 0 7.363281-2.011719 9.304688-5.257813 2.722656-4.5625 7.914062-6.871093 13.230468-5.886719 4.859375.902344 8.886719 4.921876 9.792969 9.773438.996094 5.320312-1.3125 10.519531-5.894531 13.242188-3.25 1.945312-5.261719 5.523437-5.253906 9.339843.011718 3.800781 1.953124 7.210938 5.203124 9.128907 3.8125 2.238281 6.179688 6.367187 6.179688 10.78125 0 4.40625-2.367188 8.535156-6.175781 10.78125-3.210938 1.898437-5.207031 5.429687-5.207031 9.21875 0 3.785156 1.992187 7.316406 5.210937 9.222656 3.863281 2.277344 6.171875 6.308594 6.171875 10.777344 0 4.40625-2.367188 8.535156-6.175781 10.78125-3.210938 1.898437-5.207031 5.429687-5.207031 9.21875 0 3.785156 1.992187 7.316406 5.210937 9.222656 3.863281 2.277344 6.171875 6.308594 6.171875 10.777344 0 .035156-.007812.066406-.007812.101562h-124.992188zm139.996094 130.082031c0-.035156.003906-.066406.003906-.101562 0-7.613282-3.210938-14.855469-8.640625-20 5.433594-5.144532 8.640625-12.382813 8.640625-20 0-7.613282-3.210938-14.855469-8.640625-20 5.433594-5.144532 8.640625-12.382813 8.640625-20 0-7.617188-3.203125-14.851563-8.621094-19.984376 6.773438-6.347656 9.914063-15.726562 8.132813-25.265624-2.054688-10.980469-10.816407-19.726563-21.800781-21.761719-9.519532-1.773438-18.886719 1.367187-25.226563 8.128906-5.140625-5.417969-12.371094-8.617187-19.984375-8.617187-7.617188 0-14.859375 3.207031-20 8.640624-5.144531-5.433593-12.382812-8.640624-20-8.640624s-14.859375 3.207031-20 8.640624c-3.410156-3.601562-7.746094-6.21875-12.5-7.578124v-28.460938h182.5c4.140625 0 7.5-3.359375 7.5-7.5 0-4.144531-3.359375-7.5-7.5-7.5h-182.5v-50h238.328125v50h-24.328125c-4.140625 0-7.5 3.355469-7.5 7.5 0 4.140625 3.359375 7.5 7.5 7.5h24.328125v175zm192.523437 106.5h-46.699219c-17.914062 0-32.492187-14.570312-32.492187-32.480469v-314.019531h111.671875v314.019531c0 17.910157-14.570312 32.480469-32.480469 32.480469zm0 0"/><path d="m99.5 55.277344v-.5c0-4.144532-3.359375-7.5-7.5-7.5s-7.5 3.355468-7.5 7.5v.5c0 4.144531 3.359375 7.5 7.5 7.5s7.5-3.355469 7.5-7.5zm0 0"/><path d="m147.578125 62.777344c4.140625 0 7.5-3.355469 7.5-7.5v-.5c0-4.144532-3.359375-7.5-7.5-7.5s-7.5 3.355468-7.5 7.5v.5c0 4.144531 3.359375 7.5 7.5 7.5zm0 0"/><path d="m203.15625 62.777344c4.140625 0 7.5-3.355469 7.5-7.5v-.5c0-4.144532-3.359375-7.5-7.5-7.5-4.144531 0-7.5 3.355468-7.5 7.5v.5c0 4.144531 3.355469 7.5 7.5 7.5zm0 0"/><path d="m232.480469 98.332031c4.140625 0 7.5-3.355469 7.5-7.5v-.5c0-4.140625-3.359375-7.5-7.5-7.5s-7.5 3.359375-7.5 7.5v.5c0 4.144531 3.359375 7.5 7.5 7.5zm0 0"/><path d="m174.246094 98.332031c4.140625 0 7.5-3.355469 7.5-7.5v-.5c0-4.140625-3.359375-7.5-7.5-7.5-4.144532 0-7.5 3.359375-7.5 7.5v.5c0 4.144531 3.355468 7.5 7.5 7.5zm0 0"/><path d="m120.410156 98.332031c4.144532 0 7.5-3.355469 7.5-7.5v-.5c0-4.140625-3.355468-7.5-7.5-7.5-4.140625 0-7.5 3.359375-7.5 7.5v.5c0 4.144531 3.359375 7.5 7.5 7.5zm0 0"/><path d="m258.734375 62.777344c4.140625 0 7.5-3.355469 7.5-7.5v-.5c0-4.144532-3.359375-7.5-7.5-7.5-4.144531 0-7.5 3.355468-7.5 7.5v.5c0 4.144531 3.355469 7.5 7.5 7.5zm0 0"/><path d="m55.730469 295.25c-4.144531 0-7.5 3.355469-7.5 7.5v.5c0 4.144531 3.355469 7.5 7.5 7.5 4.140625 0 7.5-3.355469 7.5-7.5v-.5c0-4.144531-3.359375-7.5-7.5-7.5zm0 0"/><path d="m82.75 336.75c-4.140625 0-7.5 3.355469-7.5 7.5v.5c0 4.144531 3.359375 7.5 7.5 7.5s7.5-3.355469 7.5-7.5v-.5c0-4.144531-3.359375-7.5-7.5-7.5zm0 0"/><path d="m107.25 295.25c-4.140625 0-7.5 3.355469-7.5 7.5v.5c0 4.144531 3.359375 7.5 7.5 7.5s7.5-3.355469 7.5-7.5v-.5c0-4.144531-3.359375-7.5-7.5-7.5zm0 0"/></svg>