<svg height="512pt" viewBox="-151 0 512 512" width="512pt" xmlns="http://www.w3.org/2000/svg"><path d="m203.398438 313.636719-6.386719 153.804687c-.863281 20.710938-17.898438 37.058594-38.621094 37.058594h-105.78125c-20.722656 0-37.757813-16.347656-38.617187-37.058594l-6.390626-153.804687c-1.320312-31.746094 10.492188-62.632813 32.65625-85.394531 21-21.566407 32.753907-50.484376 32.753907-80.59375v-106h64.976562v106c0 30.109374 11.753907 59.027343 32.757813 80.59375 22.160156 22.761718 33.972656 53.648437 32.652344 85.394531zm0 0" fill="#fff0d0"/><path d="m170.746094 228.242188c-21.003906-21.566407-32.757813-50.484376-32.757813-80.59375v-106h-29.988281v106c0 30.109374 11.753906 59.027343 32.753906 80.59375 22.164063 22.761718 33.976563 53.648437 32.65625 85.394531l-6.390625 153.804687c-.859375 20.710938-17.894531 37.058594-38.617187 37.058594h29.992187c20.71875 0 37.757813-16.347656 38.617188-37.058594l6.390625-153.804687c1.316406-31.746094-10.496094-62.632813-32.65625-85.394531zm0 0" fill="#edcfb2"/><path d="m158.53125 355.210938c0-34.796876-23.726562-63-53-63-29.269531 0-53 28.203124-53 63 0 34.792968 23.730469 63 53 63 29.273438 0 53-28.207032 53-63zm0 0" fill="#ffd659"/><path d="m137.53125 163.5h-64c-2.207031 0-4-1.789062-4-4v-148c0-2.210938 1.792969-4 4-4h64c2.210938 0 4 1.789062 4 4v148c0 2.210938-1.789062 4-4 4zm0 0" fill="#60d9fe"/><path d="m137.53125 7.5h-30c2.210938 0 4 1.789062 4 4v148c0 2.210938-1.789062 4-4 4h30c2.210938 0 4-1.789062 4-4v-148c0-2.210938-1.789062-4-4-4zm0 0" fill="#40ccf7"/><path d="m69.53125 80h72v30h-72zm0 0" fill="#ffd659"/><path d="m111.53125 80h30v30h-30zm0 0" fill="#ffbd54"/><path d="m11.824219 422.976562c.105469 0 .210937-.003906.316406-.007812 4.136719-.171875 7.355469-3.664062 7.183594-7.804688l-4.230469-101.835937c-1.230469-29.5625 9.898438-58.667969 30.535156-79.855469 11.136719-11.429687 19.824219-24.71875 25.828125-39.5 3.019531-7.433594 5.289063-15.132812 6.804688-22.972656h54.484375c3.828125 19.851562 12.480468 38.480469 25.277344 54.222656 1.480468 1.824219 3.644531 2.773438 5.824218 2.773438 1.664063 0 3.335938-.550782 4.726563-1.679688 3.214843-2.613281 3.703125-7.335937 1.089843-10.550781-11.710937-14.410156-19.480468-31.566406-22.609374-49.828125 1.25-1.835938 1.976562-4.054688 1.976562-6.4375 0-27.445312 0-113.484375 0-148 0-6.339844-5.160156-11.5-11.5-11.5h-64c-6.339844 0-11.5 5.160156-11.5 11.5v20.332031c0 4.144531 3.359375 7.5 7.5 7.5 4.144531 0 7.5-3.355469 7.5-7.5v-16.832031h57v57.5h-57v-8.667969c0-4.140625-3.355469-7.5-7.5-7.5-4.140625 0-7.5 3.359375-7.5 7.5v95.667969c0 2.351562.710938 4.535156 1.925781 6.359375-1.308593 7.671875-3.453125 15.214844-6.398437 22.46875-5.269532 12.976563-12.898438 24.644531-22.671875 34.679687-23.503907 24.128907-36.183594 57.277344-34.78125 90.941407l4.230469 101.835937c.167968 4.035156 3.488281 7.191406 7.488281 7.191406zm65.207031-335.476562h57v15h-57zm0 30h57v38.5h-57zm0 0"/><path d="m190.558594 240.921875c-2.285156-3.453125-6.941406-4.394531-10.394532-2.113281-3.453124 2.289062-4.398437 6.941406-2.113281 10.394531 11.742188 17.738281 17.949219 38.355469 17.949219 59.628906 0 1.5625-.03125 3.066407-.09375 4.496094l-6.390625 153.800781c-.695313 16.75-14.367187 29.871094-31.125 29.871094h-105.78125c-16.757813 0-30.429687-13.121094-31.128906-29.871094l-.824219-19.914062c-.171875-4.140625-3.6875-7.402344-7.804688-7.183594-4.140624.171875-7.355468 3.664062-7.183593 7.804688l.824219 19.917968c1.03125 24.808594 21.289062 44.246094 46.117187 44.246094h105.78125c24.828125 0 45.082031-19.4375 46.113281-44.246094l6.390625-153.785156c.070313-1.632812.105469-3.359375.105469-5.140625 0-24.222656-7.070312-47.707031-20.441406-67.90625zm0 0"/><path d="m105.53125 284.710938c-33.359375 0-60.5 31.625-60.5 70.5 0 38.871093 27.140625 70.5 60.5 70.5s60.5-31.628907 60.5-70.5c0-38.875-27.140625-70.5-60.5-70.5zm0 126c-25.089844 0-45.5-24.898438-45.5-55.5 0-30.605469 20.410156-55.5 45.5-55.5s45.5 24.894531 45.5 55.5c0 30.601562-20.410156 55.5-45.5 55.5zm0 0"/></svg>