<svg height="512pt" viewBox="-59 0 512 512.001" width="512pt" xmlns="http://www.w3.org/2000/svg"><path d="m338.5 57.5h-284c-4.417969 0-8-3.582031-8-8v-34c0-4.417969 3.582031-8 8-8h284c4.417969 0 8 3.582031 8 8v34c0 4.417969-3.582031 8-8 8zm0 0" fill="#4c779f"/><path d="m338.5 7.5h-30c4.417969 0 8 3.582031 8 8v34c0 4.417969-3.582031 8-8 8h30c4.417969 0 8-3.582031 8-8v-34c0-4.417969-3.582031-8-8-8zm0 0" fill="#3a5c7a"/><path d="m335.5 504.5h-278c-27.613281 0-50-22.386719-50-50v-320c0-27.613281 22.386719-50 50-50h278c27.613281 0 50 22.386719 50 50v320c0 27.613281-22.386719 50-50 50zm0 0" fill="#bdf9ff"/><path d="m335.5 84.5h-30c27.613281 0 50 22.386719 50 50v320c0 27.613281-22.386719 50-50 50h30c27.613281 0 50-22.386719 50-50v-320c0-27.613281-22.386719-50-50-50zm0 0" fill="#8cf2ff"/><path d="m56.5 57.5h280v27h-280zm0 0" fill="#8cf2ff"/><path d="m7.5 164.058594v290.441406c0 27.613281 22.386719 50 50 50h278c27.613281 0 50-22.386719 50-50v-290.441406zm0 0" fill="#ffd659"/><path d="m355.5 164.058594v290.441406c0 27.613281-22.386719 50-50 50h30c27.613281 0 50-22.386719 50-50v-290.441406zm0 0" fill="#ffbd54"/><path d="m248.171875 465.191406c-16.5 0-30-13.5-30-30s13.5-30 30-30 30 13.5 30 30-13.5 30-30 30zm0 0" fill="#3bd387"/><path d="m248.171875 405.191406c-5.457031 0-10.582031 1.484375-15 4.054688 8.945313 5.207031 15 14.902344 15 25.945312 0 11.042969-6.054687 20.738282-15 25.945313 4.417969 2.570312 9.542969 4.054687 15 4.054687 16.5 0 30-13.5 30-30s-13.5-30-30-30zm0 0" fill="#37c487"/><path d="m194.664062 368.851562c-16.5 0-30-13.5-30-30s13.5-30 30-30 30 13.5 30 30-13.5 30-30 30zm0 0" fill="#fe5555"/><path d="m194.664062 308.851562c-5.453124 0-10.578124 1.484376-15 4.058594 8.949219 5.207032 15 14.898438 15 25.941406 0 11.046876-6.050781 20.738282-15 25.945313 4.421876 2.574219 9.546876 4.054687 15 4.054687 16.5 0 30-13.5 30-30s-13.5-30-30-30zm0 0" fill="#e84141"/><path d="m81.003906 349.527344c-16.5 0-30-13.5-30-30s13.5-30 30-30 30 13.5 30 30-13.5 30-30 30zm0 0" fill="#fe5555"/><path d="m81.003906 289.527344c-5.453125 0-10.578125 1.484375-15 4.054687 8.949219 5.207031 15 14.902344 15 25.945313 0 11.042968-6.050781 20.738281-15 25.945312 4.421875 2.570313 9.546875 4.054688 15 4.054688 16.5 0 30-13.5 30-30s-13.5-30-30-30zm0 0" fill="#e84141"/><path d="m253.421875 266.773438c-16.5 0-30-13.5-30-30s13.5-30 30-30 30 13.5 30 30-13.5 30-30 30zm0 0" fill="#3bd387"/><path d="m253.421875 206.773438c-5.457031 0-10.582031 1.480468-15 4.054687 8.945313 5.207031 15 14.898437 15 25.945313 0 11.042968-6.054687 20.734374-15 25.941406 4.417969 2.574218 9.542969 4.058594 15 4.058594 16.5 0 30-13.5 30-30s-13.5-30-30-30zm0 0" fill="#37c487"/><path d="m139.394531 285.234375c-14.125-8.53125-18.703125-27.0625-10.175781-41.1875l6.15625-10.199219c8.53125-14.125 27.066406-18.703125 41.191406-10.175781s18.703125 27.0625 10.175782 41.1875l-6.160157 10.199219c-8.527343 14.125-27.0625 18.703125-41.1875 10.175781zm0 0" fill="#ff9e4a"/><path d="m176.566406 223.671875c-4.671875-2.820313-9.824218-4.199219-14.9375-4.28125 4.964844 9.082031 5.136719 20.507813-.570312 29.964844l-6.15625 10.195312c-5.707032 9.457031-15.898438 14.625-26.25 14.457031 2.453125 4.488282 6.074218 8.40625 10.746094 11.226563 14.125 8.527344 32.660156 3.949219 41.1875-10.175781l6.15625-10.199219c8.527343-14.125 3.949218-32.660156-10.175782-41.1875zm0 0" fill="#fc843a"/><path d="m294.097656 372.578125c-15.476562 5.71875-32.820312-2.265625-38.539062-17.742187l-4.128906-11.171876c-5.71875-15.476562 2.265624-32.820312 17.742187-38.539062s32.820313 2.265625 38.539063 17.742188l4.128906 11.171874c5.71875 15.480469-2.265625 32.820313-17.742188 38.539063zm0 0" fill="#ff9e4a"/><path d="m269.171875 305.125c-5.117187 1.890625-9.410156 5.058594-12.664063 9.003906 10.199219 1.78125 19.234376 8.777344 23.0625 19.136719l4.128907 11.171875c3.828125 10.359375 1.511719 21.550781-5.078125 29.535156 5.039062.882813 10.359375.5 15.476562-1.394531 15.476563-5.71875 23.460938-23.058594 17.742188-38.539063l-4.128906-11.171874c-5.71875-15.476563-23.0625-23.460938-38.539063-17.742188zm0 0" fill="#fc843a"/><path d="m138.785156 446.152344c-15.933594 4.289062-32.480468-5.238282-36.769531-21.171875l-3.09375-11.503907c-4.289063-15.929687 5.238281-32.476562 21.171875-36.765624 15.933594-4.289063 32.476562 5.238281 36.765625 21.171874l3.09375 11.503907c4.289063 15.933593-5.238281 32.476562-21.167969 36.765625zm0 0" fill="#ff9e4a"/><path d="m120.09375 376.710938c-5.269531 1.417968-9.832031 4.183593-13.429688 7.816406 9.992188 2.703125 18.355469 10.488281 21.226563 21.152344l3.097656 11.503906c2.867188 10.664062-.457031 21.597656-7.742187 28.949218 4.9375 1.335938 10.269531 1.4375 15.539062.019532 15.933594-4.289063 25.460938-20.832032 21.171875-36.765625l-3.097656-11.503907c-4.289063-15.933593-20.832031-25.460937-36.765625-21.171874zm0 0" fill="#fc843a"/><path d="m306.5 57.5h30v27h-30zm0 0" fill="#6bdae8"/><path d="m248.171875 472.691406c20.675781 0 37.5-16.824218 37.5-37.5 0-20.679687-16.824219-37.5-37.5-37.5-20.679687 0-37.5 16.820313-37.5 37.5 0 20.675782 16.820313 37.5 37.5 37.5zm0-60c12.40625 0 22.5 10.09375 22.5 22.5s-10.09375 22.5-22.5 22.5-22.5-10.09375-22.5-22.5 10.09375-22.5 22.5-22.5zm0 0"/><path d="m232.164062 338.851562c0-20.675781-16.820312-37.5-37.5-37.5-20.675781 0-37.5 16.824219-37.5 37.5 0 20.679688 16.824219 37.5 37.5 37.5 20.679688 0 37.5-16.820312 37.5-37.5zm-60 0c0-12.40625 10.09375-22.5 22.5-22.5s22.5 10.09375 22.5 22.5-10.09375 22.5-22.5 22.5-22.5-10.09375-22.5-22.5zm0 0"/><path d="m81.003906 282.027344c-20.675781 0-37.5 16.820312-37.5 37.5 0 20.675781 16.824219 37.5 37.5 37.5 20.679688 0 37.5-16.824219 37.5-37.5 0-20.679688-16.820312-37.5-37.5-37.5zm0 60c-12.40625 0-22.5-10.09375-22.5-22.5s10.09375-22.5 22.5-22.5 22.5 10.09375 22.5 22.5-10.09375 22.5-22.5 22.5zm0 0"/><path d="m253.421875 274.269531c20.675781 0 37.5-16.820312 37.5-37.5 0-20.675781-16.824219-37.5-37.5-37.5-20.679687 0-37.5 16.824219-37.5 37.5 0 20.679688 16.820313 37.5 37.5 37.5zm0-60c12.40625 0 22.5 10.09375 22.5 22.5s-10.09375 22.5-22.5 22.5-22.5-10.09375-22.5-22.5 10.09375-22.5 22.5-22.5zm0 0"/><path d="m135.519531 291.652344c5.894531 3.5625 12.515625 5.386718 19.257813 5.386718 3.03125 0 6.085937-.371093 9.109375-1.117187 9.746093-2.40625 17.957031-8.441406 23.117187-16.988281l6.15625-10.195313c5.160156-8.546875 6.675782-18.625 4.269532-28.371093-2.40625-9.746094-8.441407-17.957032-16.988282-23.113282-17.703125-10.691406-40.796875-4.980468-51.484375 12.71875l-6.15625 10.199219c-10.6875 17.699219-4.984375 40.796875 12.71875 51.480469zm.121094-43.730469 6.15625-10.195313c3.089844-5.117187 8.015625-8.734374 13.875-10.179687 1.820313-.449219 3.660156-.675781 5.484375-.675781 4.042969 0 8.007812 1.09375 11.53125 3.222656 5.117188 3.089844 8.730469 8.015625 10.179688 13.871094 1.449218 5.859375.542968 11.902344-2.546876 17.019531l-6.15625 10.195313c-3.089843 5.117187-8.015624 8.730468-13.875 10.179687-5.855468 1.445313-11.898437.542969-17.015624-2.546875-10.621094-6.414062-14.046876-20.269531-7.632813-30.890625zm0 0"/><path d="m317.730469 360.105469c4.199219-9.121094 4.605469-19.300781 1.144531-28.664063l-4.128906-11.175781c-7.167969-19.394531-28.777344-29.339844-48.171875-22.175781-19.398438 7.167968-29.347657 28.777344-22.179688 48.171875l4.128907 11.175781c3.460937 9.363281 10.390624 16.832031 19.507812 21.03125 5.023438 2.3125 10.367188 3.472656 15.71875 3.472656 4.367188 0 8.738281-.773437 12.949219-2.328125 9.363281-3.460937 16.832031-10.386719 21.03125-19.507812zm-43.425781 4.738281c-5.480469-2.523438-9.640626-7-11.710938-12.605469l-4.128906-11.171875c-4.300782-11.640625 1.671875-24.605468 13.308594-28.90625 2.5625-.945312 5.1875-1.394531 7.773437-1.394531 9.152344 0 17.777344 5.628906 21.128906 14.703125l4.128907 11.171875c2.070312 5.605469 1.824218 11.714844-.699219 17.195313-2.523438 5.476562-7 9.636718-12.605469 11.710937-5.609375 2.070313-11.714844 1.820313-17.195312-.703125zm0 0"/><path d="m94.773438 426.929688c4.5 16.71875 19.679687 27.757812 36.222656 27.757812 3.214844 0 6.488281-.417969 9.738281-1.292969 19.964844-5.375 31.835937-25.992187 26.460937-45.957031l-3.09375-11.503906c-2.597656-9.640625-8.816406-17.707032-17.515624-22.71875-8.703126-5.011719-18.800782-6.339844-28.445313-3.746094-9.640625 2.597656-17.707031 8.816406-22.71875 17.515625-5.007813 8.703125-6.339844 18.804687-3.742187 28.445313zm13.648437-32.457032c3.011719-5.230468 7.847656-8.964844 13.621094-10.519531 1.921875-.515625 3.875-.773437 5.820312-.773437 3.894531 0 7.75 1.027343 11.234375 3.035156 5.230469 3.011718 8.964844 7.847656 10.519532 13.617187l3.09375 11.503907c3.226562 11.980468-3.894532 24.351562-15.875 27.574218-11.988282 3.226563-24.351563-3.898437-27.578126-15.878906l-3.09375-11.503906c-1.554687-5.769532-.75-11.828125 2.257813-17.054688zm0 0"/><path d="m344 77.632812v-13.660156c5.835938-2.226562 10-7.863281 10-14.472656v-34c0-8.546875-6.953125-15.5-15.5-15.5h-45.375c-4.140625 0-7.5 3.355469-7.5 7.5s3.359375 7.5 7.5 7.5h45.375c.277344 0 .5.226562.5.5v34c0 .273438-.222656.5-.5.5h-284c-.273438 0-.5-.226562-.5-.5v-34c0-.273438.226562-.5.5-.5h205.523438c4.144531 0 7.5-3.355469 7.5-7.5s-3.355469-7.5-7.5-7.5h-205.523438c-8.546875 0-15.5 6.953125-15.5 15.5v34c0 6.609375 4.164062 12.246094 10 14.472656v13.660156c-27.6875 4.121094-49 28.050782-49 56.867188v320c0 31.707031 25.792969 57.5 57.5 57.5h278c31.707031 0 57.5-25.792969 57.5-57.5v-39c0-4.140625-3.355469-7.5-7.5-7.5-4.140625 0-7.5 3.359375-7.5 7.5v39c0 23.4375-19.066406 42.5-42.5 42.5h-278c-23.433594 0-42.5-19.0625-42.5-42.5v-282.941406h36.003906c4.144532 0 7.5-3.359375 7.5-7.5 0-4.144532-3.355468-7.5-7.5-7.5h-36.003906v-22.058594c0-23.433594 19.066406-42.5 42.5-42.5h278c23.433594 0 42.5 19.066406 42.5 42.5v22.058594h-294.746094c-4.140625 0-7.5 3.355468-7.5 7.5 0 4.140625 3.359375 7.5 5.945313 7.5h294.746093l1.554688 212.191406c0 4.144531 3.359375 7.5 7.5 7.5 4.144531 0 7.5-3.355469 7.5-7.5v-249.25c0-28.816406-21.308594-52.746094-49-56.867188zm-280-.632812v-12h265v12zm0 0"/></svg>