<svg height="512pt" viewBox="0 0 512 512" width="512pt" xmlns="http://www.w3.org/2000/svg"><path d="m7.5 108h497v370h-497zm0 0" fill="#4c779f"/><path d="m7.5 109h30v345.5h-30zm0 0" fill="#fe5555"/><path d="m474.5 109h30v345.5h-30zm0 0" fill="#fe5555"/><path d="m129 158.5h254v296h-254zm0 0" fill="#8cf2ff"/><path d="m7.5 7.5h497v123.5h-497zm0 0" fill="#ffd659"/><path d="m474.5 7.5h30v123.5h-30zm0 0" fill="#ffbd54"/><path d="m7.5 454.5h497v50h-497zm0 0" fill="#3a5c7a"/><path d="m43.164062 199h-.328124c-19.515626 0-35.335938-15.820312-35.335938-35.335938v-32.664062h71v32.664062c0 19.515626-15.820312 35.335938-35.335938 35.335938zm0 0" fill="#fff0d0"/><path d="m114.164062 199h-.328124c-19.515626 0-35.335938-15.820312-35.335938-35.335938v-32.664062h71v32.664062c0 19.515626-15.820312 35.335938-35.335938 35.335938zm0 0" fill="#fe5555"/><path d="m185.164062 199h-.328124c-19.515626 0-35.335938-15.820312-35.335938-35.335938v-32.664062h71v32.664062c0 19.515626-15.820312 35.335938-35.335938 35.335938zm0 0" fill="#fff0d0"/><path d="m256.164062 199h-.328124c-19.515626 0-35.335938-15.820312-35.335938-35.335938v-32.664062h71v32.664062c0 19.515626-15.820312 35.335938-35.335938 35.335938zm0 0" fill="#fe5555"/><path d="m327.164062 199h-.328124c-19.515626 0-35.335938-15.820312-35.335938-35.335938v-32.664062h71v32.664062c0 19.515626-15.820312 35.335938-35.335938 35.335938zm0 0" fill="#fff0d0"/><path d="m398.164062 199h-.328124c-19.515626 0-35.335938-15.820312-35.335938-35.335938v-32.664062h71v32.664062c0 19.515626-15.820312 35.335938-35.335938 35.335938zm0 0" fill="#fe5555"/><path d="m469.164062 199h-.328124c-19.515626 0-35.335938-15.820312-35.335938-35.335938v-32.664062h71v32.664062c0 19.515626-15.820312 35.335938-35.335938 35.335938zm0 0" fill="#fff0d0"/><path d="m333 69c0-16.015625-34.472656-29-77-29s-77 12.984375-77 29 34.472656 29 77 29 77-12.984375 77-29zm0 0" fill="#fe5555"/><path d="m93.5 454.5h-82c-2.210938 0-4-1.789062-4-4v-116c0-2.210938 1.789062-4 4-4h82c2.210938 0 4 1.789062 4 4v116c0 2.210938-1.789062 4-4 4zm0 0" fill="#ffd659"/><path d="m504.5 0h-497c-4.144531 0-7.5 3.355469-7.5 7.5v24.5c0 4.144531 3.355469 7.5 7.5 7.5s7.5-3.355469 7.5-7.5v-17h482v108.5s-356.648438 0-482 0v-60c0-4.144531-3.355469-7.5-7.5-7.5s-7.5 3.355469-7.5 7.5v441c0 4.144531 3.355469 7.5 7.5 7.5h497c4.144531 0 7.5-3.355469 7.5-7.5 0-99.980469 0-397.042969 0-497 0-4.144531-3.355469-7.5-7.5-7.5zm-22.5 204.53125c5.578125-1.753906 10.660156-4.628906 15-8.347656v250.816406h-15zm15-40.867188c0 15.347657-12.488281 27.835938-27.835938 27.835938h-.328124c-15.347657 0-27.835938-12.488281-27.835938-27.835938v-25.164062h56zm-71 0c0 15.347657-12.488281 27.835938-27.835938 27.835938h-.328124c-15.347657 0-27.835938-12.488281-27.835938-27.835938v-25.164062h56zm-289.5 283.335938v-31.625c0-4.144531-3.355469-7.5-7.5-7.5s-7.5 3.355469-7.5 7.5v31.625h-16.5v-112.5c0-6.339844-5.160156-11.5-11.5-11.5h-48.5v-116.546875c13.898438-.589844 26.097656-7.824219 33.5-18.609375 7.726562 11.253906 20.679688 18.65625 35.335938 18.65625h.328124c2.5 0 4.949219-.226562 7.335938-.640625v178.140625c0 4.144531 3.355469 7.5 7.5 7.5s7.5-3.355469 7.5-7.5v-183.800781c5.152344-3.160157 9.585938-7.382813 13-12.355469 7.726562 11.253906 20.679688 18.65625 35.335938 18.65625h.328124c14.65625 0 27.609376-7.402344 35.335938-18.65625 6.4375 9.378906 16.507812 16.070312 28.164062 18.042969v241.113281zm-121.5 0v-109h75v109zm15-124h-15v-126.816406c4.339844 3.71875 9.421875 6.59375 15 8.347656zm233.664062-117.171875c11.519532-2.042969 21.457032-8.695313 27.835938-17.984375 7.726562 11.253906 20.679688 18.65625 35.335938 18.65625h.328124c14.65625 0 27.609376-7.402344 35.335938-18.65625 3.414062 4.972656 7.847656 9.195312 13 12.355469v246.800781h-111.835938zm91.335938-42.164063c0 15.347657-12.488281 27.835938-27.835938 27.835938h-.328124c-15.347657 0-27.835938-12.488281-27.835938-27.835938v-25.164062h56zm-71 0c0 15.347657-12.488281 27.835938-27.835938 27.835938h-.328124c-15.347657 0-27.835938-12.488281-27.835938-27.835938v-25.164062h56zm-71 0c0 15.347657-12.488281 27.835938-27.835938 27.835938h-.328124c-15.347657 0-27.835938-12.488281-27.835938-27.835938v-25.164062h56zm-71 0c0 15.347657-12.488281 27.835938-27.835938 27.835938h-.328124c-15.347657 0-27.835938-12.488281-27.835938-27.835938v-25.164062h56zm-71-25.164062v25.164062c0 15.347657-12.488281 27.835938-27.835938 27.835938h-.328124c-15.347657 0-27.835938-12.488281-27.835938-27.835938v-25.164062zm426 358.5h-482v-35h401c4.144531 0 7.5-3.355469 7.5-7.5s-3.355469-7.5-7.5-7.5h-25.5v-241.140625c2.386719.414063 4.835938.640625 7.335938.640625h.328124c14.65625 0 27.609376-7.402344 35.335938-18.65625 7.402344 10.785156 19.601562 18.019531 33.5 18.609375v240.546875h-19c-4.144531 0-7.5 3.355469-7.5 7.5s3.355469 7.5 7.5 7.5h49zm0 0"/><path d="m256 105.5c21.449219 0 41.722656-3.1875 57.089844-8.976562 17.675781-6.65625 27.410156-16.429688 27.410156-27.523438s-9.734375-20.867188-27.410156-27.523438c-15.367188-5.789062-35.640625-8.976562-57.089844-8.976562s-41.722656 3.1875-57.089844 8.976562c-17.675781 6.65625-27.410156 16.429688-27.410156 27.523438s9.734375 20.867188 27.410156 27.523438c15.367188 5.789062 35.640625 8.976562 57.089844 8.976562zm-69.5-36.5c0-3.394531 5.472656-8.882812 17.695312-13.488281 13.71875-5.164063 32.117188-8.011719 51.804688-8.011719s38.085938 2.847656 51.804688 8.011719c12.222656 4.605469 17.695312 10.09375 17.695312 13.488281s-5.472656 8.882812-17.695312 13.488281c-13.71875 5.164063-32.117188 8.011719-51.804688 8.011719s-38.085938-2.847656-51.804688-8.011719c-12.222656-4.605469-17.695312-10.09375-17.695312-13.488281zm0 0"/><path d="m78.304688 367.195312c-2.929688-2.925781-7.679688-2.925781-10.609376 0l-40 40c-2.925781 2.929688-2.925781 7.679688 0 10.609376 1.464844 1.464843 3.386719 2.195312 5.304688 2.195312s3.839844-.730469 5.304688-2.195312l40-40c2.925781-2.929688 2.925781-7.679688 0-10.609376zm0 0"/><path d="m30.375 377.125c4.144531 0 7.5-3.355469 7.5-7.5s-3.355469-7.5-7.5-7.5h-.5c-4.144531 0-7.5 3.355469-7.5 7.5s3.355469 7.5 7.5 7.5zm0 0"/><path d="m76.125 407.875h-.5c-4.144531 0-7.5 3.355469-7.5 7.5s3.355469 7.5 7.5 7.5h.5c4.144531 0 7.5-3.355469 7.5-7.5s-3.355469-7.5-7.5-7.5zm0 0"/></svg>