<svg height="512pt" viewBox="-58 0 512 512" width="512pt" xmlns="http://www.w3.org/2000/svg"><path d="m189.75 77.710938v20.527343c0 24.570313-19.921875 44.492188-44.5 44.492188h-38.140625c-24.570313 0-44.488281-19.921875-44.488281-44.492188v-20.527343c0-16.589844 9.078125-31.0625 22.527344-38.710938 9.160156-5.210938 20.101562-6.289062 30.261718-3.53125l.039063.011719c7.230469 1.960937 14.742187 1.847656 21.460937 0l.039063-.011719c10.171875-2.757812 21.101562-1.679688 30.261719 3.53125 13.460937 7.648438 22.539062 22.121094 22.539062 38.710938zm0 0" fill="#ffd659"/><path d="m189.75 77.710938v20.527343c0 24.570313-19.921875 44.492188-44.5 44.492188h-22.269531c-.308594-20.570313-.808594-63.320313.191406-77.058594.878906-12.140625 6.4375-23.25 10.089844-29.382813 1.226562-.210937 2.449219-.480468 3.648437-.808593l.039063-.011719c10.171875-2.757812 21.101562-1.679688 30.261719 3.53125 13.460937 7.648438 22.539062 22.121094 22.539062 38.710938zm0 0" fill="#ffbd54"/><path d="m104.609375 193.339844h-38.140625c-24.574219 0-44.492188-19.921875-44.492188-44.496094v-20.535156c0-16.585938 9.078126-31.054688 22.535157-38.707032 9.15625-5.203124 20.09375-6.289062 30.257812-3.527343l.039063.011719c7.027344 1.90625 14.433594 1.90625 21.460937 0l.039063-.011719c10.164062-2.761719 21.101562-1.675781 30.257812 3.527343 13.457032 7.652344 22.535156 22.121094 22.535156 38.707032v20.535156c.003907 24.574219-19.917968 44.496094-44.492187 44.496094zm0 0" fill="#fe5555"/><path d="m126.566406 89.601562c-9.15625-5.203124-20.09375-6.289062-30.257812-3.527343l-.039063.011719c-1.65625.449218-3.335937.78125-5.023437 1.019531 1.824218.691406 3.605468 1.519531 5.320312 2.496093 13.460938 7.652344 22.539063 22.121094 22.539063 38.707032v20.535156c0 24.574219-19.921875 44.496094-44.496094 44.496094h30c24.574219 0 44.496094-19.921875 44.496094-44.496094v-20.535156c0-16.585938-9.078125-31.054688-22.539063-38.707032zm0 0" fill="#e84141"/><path d="m292.539062 233.238281c-41.640624 0-75.394531-33.753906-75.394531-75.394531v-74.949219c0-41.640625 33.753907-75.394531 75.394531-75.394531 41.640626 0 75.394532 33.753906 75.394532 75.394531v74.949219c0 41.640625-33.753906 75.394531-75.394532 75.394531zm0 0" fill="#3bd387"/><path d="m292.539062 7.5c-5.136718 0-10.152343.519531-15 1.496094 34.453126 6.957031 60.394532 37.394531 60.394532 73.898437v74.949219c0 36.503906-25.941406 66.941406-60.394532 73.898438 4.847657.980468 9.863282 1.496093 15 1.496093 41.640626 0 75.394532-33.753906 75.394532-75.394531v-74.949219c0-41.640625-33.753906-75.394531-75.394532-75.394531zm0 0" fill="#37c487"/><path d="m224.5 233.238281c-41.640625 0-75.394531-33.753906-75.394531-75.394531v-74.949219c0-41.640625 33.753906-75.394531 75.394531-75.394531s75.394531 33.753906 75.394531 75.394531v74.949219c0 41.640625-33.753906 75.394531-75.394531 75.394531zm0 0" fill="#3bd387"/><path d="m224.5 7.5c-5.136719 0-10.152344.519531-15 1.496094 34.453125 6.957031 60.394531 37.394531 60.394531 73.898437v74.949219c0 36.503906-25.941406 66.941406-60.394531 73.898438 4.847656.980468 9.863281 1.496093 15 1.496093 41.640625 0 75.394531-33.753906 75.394531-75.394531v-74.949219c0-41.640625-33.753906-75.394531-75.394531-75.394531zm0 0" fill="#37c487"/><path d="m387.5 165.949219v298.570312c0 22.082031-17.898438 39.980469-39.980469 39.980469h-149.941406v-344.589844c3.160156-2.96875 6.351563-5.910156 12.671875-5.910156 12.761719 0 12.761719 12 25.519531 12 12.601563 0 12.761719-11.710938 25.058594-11.988281.152344-.011719.300781-.011719.460937-.011719 12.769532 0 12.769532 12 25.53125 12 12.757813 0 12.757813-12 25.53125-12 12.757813 0 12.757813 12 25.527344 12 10.410156 0 12.332032-7.988281 19.621094-10.929688 1.640625-.660156 3.550781-1.070312 5.898438-1.070312 12.273437 0 12.75 11.089844 24.101562 11.949219zm0 0" fill="#db9a6c"/><path d="m387.5 165.949219v298.570312c0 22.082031-17.898438 39.980469-39.980469 39.980469h-30c22.082031 0 39.980469-17.898438 39.980469-39.980469v-309.449219c1.640625-.660156 3.550781-1.070312 5.898438-1.070312 12.273437 0 12.75 11.089844 24.101562 11.949219zm0 0" fill="#c48252"/><path d="m300.820312 504.5h-253.339843c-22.082031 0-39.980469-17.898438-39.980469-39.980469v-310.460937c11.328125.871094 11.808594 11.941406 24.070312 11.941406 12.757813 0 12.757813-12 25.53125-12 12.757813 0 12.757813 12 25.519532 12 12.757812 0 12.757812-12 25.527344-12 12.761718 0 12.761718 12 25.523437 12 12.757813 0 12.757813-12 25.527344-12 12.761719 0 12.761719 12 25.519531 12 6.453125 0 9.640625-3.058594 12.859375-6.089844 3.160156-2.96875 6.351563-5.910156 12.671875-5.910156 12.761719 0 12.761719 12 25.519531 12 12.601563 0 12.761719-11.710938 25.058594-11.988281v310.507812c0 22.082031 17.902344 39.980469 39.992187 39.980469zm0 0" fill="#f5b387"/><path d="m388.066406 158.472656c-2.691406-.203125-4.015625-1.355468-6.761718-3.933594-1.601563-1.507812-3.46875-3.257812-5.863282-4.742187v-66.898437c0-13.628907-3.386718-27.152344-9.785156-39.101563-1.957031-3.652344-6.5-5.023437-10.152344-3.070313-3.652344 1.957032-5.027344 6.5-3.070312 10.152344 5.238281 9.777344 8.007812 20.851563 8.007812 32.019532v63.789062c-2.011718.234375-3.917968.691406-5.746094 1.425781-4.128906 1.664063-6.9375 4.304688-9.191406 6.421875-3 2.820313-4.347656 3.964844-7.621094 3.964844-3.285156 0-4.636718-1.144531-7.636718-3.96875-3.605469-3.390625-8.546875-8.03125-17.894532-8.03125-1.8125 0-3.457031.175781-4.960937.484375v-3.613281l30.324219-16.007813c3.660156-1.933593 5.0625-6.472656 3.128906-10.136719-1.933594-3.660156-6.46875-5.066406-10.132812-3.128906l-23.320313 12.308594v-30.945312l30.324219-16.007813c3.660156-1.933594 5.0625-6.472656 3.128906-10.136719-1.933594-3.660156-6.46875-5.0625-10.132812-3.128906l-23.4375 12.371094c-1.050782-20.507813-9.53125-39.644532-24.160157-54.28125-2.535156-2.535156-5.21875-4.867188-8.007812-7.023438 5.632812-1.496094 11.460937-2.253906 17.433593-2.253906 15.113282 0 29.421876 4.859375 41.375 14.054688 1.363282 1.046874 2.972657 1.554687 4.566407 1.554687 2.25 0 4.472656-1.007813 5.949219-2.929687 2.527343-3.28125 1.910156-7.992188-1.371094-10.515626-14.597656-11.230468-32.066406-17.164062-50.519532-17.164062-11.886718 0-23.304687 2.453125-34 7.285156-10.5625-4.757812-22.105468-7.285156-34.039062-7.285156-24.957031 0-47.355469 11.101562-62.566406 28.605469-8.546875-2.648438-17.886719-2.8125-26.859375-.398438-.050781.015625-.101563.027344-.152344.042969-5.59375 1.539062-11.8125 1.535156-17.507813-.007812-.03125-.007813-.070312-.019532-.109374-.027344-12.222657-3.300782-25.289063-1.746094-35.859376 4.265625-16.238281 9.234375-26.324218 26.566406-26.324218 45.230469v.214843c-5.042969.925781-9.894532 2.644531-14.316406 5.152344-16.242188 9.234375-26.332032 26.566406-26.332032 45.230469v19.699218c-1.851562-.71875-3.960937-1.238281-6.398437-1.425781-2.085938-.15625-4.136719.558594-5.667969 1.976563-1.535156 1.417968-2.40234375 3.414062-2.40234375 5.5v37.691406c0 4.140625 3.35546875 7.5 7.49999975 7.5 4.140625 0 7.5-3.359375 7.5-7.5v-25.050781c3.496094 3.183593 8.3125 6.800781 16.566406 6.800781 9.351563 0 14.292969-4.644531 17.898438-8.035156 3-2.820313 4.347656-3.964844 7.632812-3.964844 3.277344 0 4.625 1.144531 7.621094 3.964844 3.605469 3.390625 8.546875 8.035156 17.898438 8.035156 9.351562 0 14.289062-4.644531 17.894531-8.035156 3.003906-2.820313 4.351563-3.964844 7.636719-3.964844 3.273437 0 4.621094 1.144531 7.621094 3.964844 3.605468 3.390625 8.542968 8.035156 17.898437 8.035156 9.347656 0 14.289063-4.644531 17.894531-8.035156 3-2.820313 4.347656-3.964844 7.632813-3.964844 3.277343 0 4.625 1.144531 7.621093 3.964844 3.605469 3.390625 8.546876 8.035156 17.898438 8.035156 9.359375 0 14.300781-4.648438 17.90625-8.039062l.089844-.085938c2.933594-2.757812 4.253906-3.875 7.535156-3.875 3.273438 0 4.621094 1.144531 7.621094 3.964844 3.605468 3.390625 8.542968 8.035156 17.898437 8.035156 9.0625 0 13.980469-4.363281 17.558594-7.71875v298.738281c0 12.550781 4.898437 23.980469 12.882813 32.480469h-164.960938c-4.144531 0-7.5 3.359375-7.5 7.5s3.355469 7.5 7.5 7.5h246.269531c26.179688 0 47.480469-21.300781 47.480469-47.480469v-298.570312c0-3.921875-3.023438-7.179688-6.933594-7.476563zm-299.207031-112.953125c7.175781-4.082031 16.132813-5.109375 24.585937-2.8125.03125.007813.070313.019531.113282.03125 8.3125 2.242188 17.039062 2.242188 25.246094 0 .035156-.007812.070312-.019531.105468-.027343 4.535156-1.230469 9.175782-1.511719 13.625-.886719-6.941406 12.121093-10.933594 26.136719-10.933594 41.074219v8.886718c-3.320312-3.367187-7.113281-6.3125-11.328124-8.707031-10.601563-6.019531-23.699219-7.566406-35.863282-4.261719-.035156.007813-.070312.019532-.105468.027344-5.734376 1.558594-11.792969 1.558594-17.527344 0-.019532-.003906-.054688-.015625-.082032-.023438-2.167968-.585937-4.363281-1.011718-6.566406-1.292968.0625-13.214844 7.226563-25.464844 18.730469-32.007813zm37.1875 109.015625c-3.605469-3.390625-8.542969-8.035156-17.894531-8.035156-9.359375 0-14.300782 4.644531-17.910156 8.039062-2.996094 2.816407-4.34375 3.960938-7.621094 3.960938s-4.625-1.144531-7.625-3.964844c-3.605469-3.390625-8.542969-8.035156-17.894532-8.035156-9.359374 0-14.300781 4.644531-17.90625 8.035156-3 2.820313-4.347656 3.964844-7.625 3.964844-.296874 0-.5625-.019531-.832031-.039062-.839843-3.117188-1.265625-6.339844-1.265625-9.609376v-20.542968c0-13.28125 7.183594-25.617188 18.742188-32.1875 7.1875-4.082032 16.148437-5.105469 24.589844-2.8125.019531.003906.054687.011718.085937.019531 8.292969 2.246094 17.058594 2.242187 25.28125.007813.035156-.011719.070313-.019532.105469-.027344 8.4375-2.292969 17.402344-1.269532 24.589844 2.8125 11.554687 6.566406 18.734374 18.902344 18.734374 32.1875v20.539062c0 1.964844-.160156 3.917969-.460937 5.828125-2.886719 2.710938-4.25 3.824219-7.46875 3.824219-3.277344 0-4.625-1.144531-7.625-3.964844zm117.34375 0c-3 2.820313-4.347656 3.964844-7.621094 3.964844-1.566406 0-2.691406-.269531-3.769531-.855469v-10.390625l37.667969-19.886718c3.664062-1.933594 5.0625-6.472657 3.128906-10.136719-1.933594-3.660157-6.46875-5.0625-10.132813-3.128907l-30.664062 16.191407v-30.953125l37.667969-19.890625c3.664062-1.933594 5.0625-6.472657 3.128906-10.132813-1.933594-3.664062-6.46875-5.066406-10.132813-3.132812l-30.664062 16.191406v-20.804688c0-4.140624-3.355469-7.5-7.5-7.5s-7.5 3.359376-7.5 7.5v20.804688l-30.664062-16.191406c-3.667969-1.933594-8.203126-.53125-10.136719 3.132812-1.933594 3.660156-.53125 8.199219 3.128906 10.132813l37.671875 19.890625v30.953125l-30.664062-16.191407c-3.667969-1.933593-8.203126-.53125-10.136719 3.132813-1.933594 3.660156-.53125 8.199219 3.128906 10.132813l37.671875 19.890624v.175782c-1.964844-.574219-4.1875-.933594-6.75-.933594-9.355469 0-14.441406 4.78125-17.808594 7.949219l-.09375.085937c-2.996094 2.820313-4.34375 3.964844-7.628906 3.964844-3.277344 0-4.625-1.144531-7.621094-3.964844-3.605468-3.390625-8.546875-8.035156-17.898437-8.035156-.910157 0-1.769531.054688-2.601563.140625v-63.742187c0-37.4375 30.460938-67.898438 67.902344-67.898438 18.136719 0 35.183594 7.0625 48.003906 19.882812 12.824219 12.832032 19.886719 29.882813 19.886719 48.015626v7.9375.054687 47.855469.054687 17.589844c-1.769531 1.472656-3.140625 2.109375-5.570313 2.109375-3.273437 0-4.625-1.144531-7.621093-3.964844-3.609375-3.390625-8.550781-8.035156-17.910157-8.035156-.117187 0-.238281.011719-.355468.015625-.09375 0-.183594-.007813-.273438-.003906-8.949218.203125-13.757812 4.722656-17.269531 8.023437zm136.609375 309.984375c0 17.910157-14.570312 32.480469-32.480469 32.480469h-46.699219c-17.914062 0-32.492187-14.570312-32.492187-32.480469v-299.605469c.199219.183594.386719.351563.597656.550782 3.605469 3.390625 8.542969 8.035156 17.894531 8.035156 9.351563 0 14.289063-4.644531 17.894532-8.035156 3.003906-2.820313 4.351562-3.964844 7.632812-3.964844 3.277344 0 4.625 1.144531 7.625 3.960938 3.605469 3.394531 8.546875 8.039062 17.90625 8.039062 9.347656 0 14.289063-4.644531 17.894532-8.03125 1.683593-1.582031 3.011718-2.832031 4.523437-3.441406.894531-.359375 1.882813-.527344 3.101563-.527344.886718 0 1.628906.09375 2.300781.269531.007812.003907.011719.003907.015625.007813 1.816406.480468 3.128906 1.636718 5.3125 3.691406 2.210937 2.078125 4.964844 4.667969 8.972656 6.335938zm0 0"/><path d="m69.5 497h-22.019531c-17.910157 0-32.480469-14.570312-32.480469-32.480469v-240.769531c0-4.140625-3.355469-7.5-7.5-7.5s-7.5 3.359375-7.5 7.5v240.769531c0 26.179688 21.300781 47.480469 47.480469 47.480469h22.019531c4.144531 0 7.5-3.359375 7.5-7.5s-3.355469-7.5-7.5-7.5zm0 0"/><path d="m325.5 192.5c-4.144531 0-7.5 3.359375-7.5 7.5v260c0 4.140625 3.355469 7.5 7.5 7.5s7.5-3.359375 7.5-7.5v-260c0-4.140625-3.355469-7.5-7.5-7.5zm0 0"/></svg>