<svg height="512pt" viewBox="0 0 512 512" width="512pt" xmlns="http://www.w3.org/2000/svg"><path d="m272 37.5h225v437h-225zm0 0" fill="#60d9fe"/><path d="m467 37.5h30v437h-30zm0 0" fill="#40ccf7"/><path d="m498.5 504.5h-228c-3.3125 0-6-2.6875-6-6v-18c0-3.3125 2.6875-6 6-6h228c3.3125 0 6 2.6875 6 6v18c0 3.3125-2.6875 6-6 6zm0 0" fill="#d1ffff"/><path d="m498.5 37.5h-228c-3.3125 0-6-2.6875-6-6v-18c0-3.3125 2.6875-6 6-6h228c3.3125 0 6 2.6875 6 6v18c0 3.3125-2.6875 6-6 6zm0 0" fill="#d1ffff"/><path d="m459 256c0-66.273438-33.132812-120-74-120s-74 53.726562-74 120 33.132812 120 74 120 74-53.726562 74-120zm0 0" fill="#ffcd6b"/><path d="m498.5 7.5h-30c3.3125 0 6 2.6875 6 6v18c0 3.3125-2.6875 6-6 6h30c3.3125 0 6-2.6875 6-6v-18c0-3.3125-2.6875-6-6-6zm0 0" fill="#bbeded"/><path d="m498.5 474.5h-30c3.3125 0 6 2.6875 6 6v18c0 3.3125-2.6875 6-6 6h30c3.3125 0 6-2.6875 6-6v-18c0-3.3125-2.6875-6-6-6zm0 0" fill="#bbeded"/><path d="m77.960938 130.734375h199.039062v139.765625h-199.039062zm0 0" fill="#3bd387"/><path d="m247 130.734375h30v139.765625h-30zm0 0" fill="#37c487"/><path d="m225.902344 263.617188c0-34.792969-21.832032-63-48.765625-63-26.933594 0-48.765625 28.207031-48.765625 63 0 34.792968 21.832031 63 48.765625 63 26.933593 0 48.765625-28.207032 48.765625-63zm0 0" fill="#ffcd6b"/><path d="m281 130.734375h-207.039062c-3.3125 0-6-2.683594-6-6v-18c0-3.3125 2.6875-6 6-6h207.039062c3.3125 0 6 2.6875 6 6v18c0 3.316406-2.6875 6-6 6zm0 0" fill="#d1ffff"/><path d="m281 100.734375h-30c3.3125 0 6 2.6875 6 6v18c0 3.316406-2.6875 6-6 6h30c3.3125 0 6-2.683594 6-6v-18c0-3.3125-2.6875-6-6-6zm0 0" fill="#bbeded"/><path d="m17.5 300.5h310v174h-310zm0 0" fill="#fe5555"/><path d="m297.5 300.5h30v174h-30zm0 0" fill="#e84141"/><path d="m331.5 504.5h-318c-3.3125 0-6-2.6875-6-6v-18c0-3.3125 2.6875-6 6-6h318c3.3125 0 6 2.6875 6 6v18c0 3.3125-2.6875 6-6 6zm0 0" fill="#d1ffff"/><path d="m331.5 300.5h-318c-3.3125 0-6-2.6875-6-6v-18c0-3.3125 2.6875-6 6-6h318c3.3125 0 6 2.6875 6 6v18c0 3.3125-2.6875 6-6 6zm0 0" fill="#d1ffff"/><path d="m331.5 474.5h-30c3.3125 0 6 2.6875 6 6v18c0 3.3125-2.6875 6-6 6h30c3.3125 0 6-2.6875 6-6v-18c0-3.3125-2.6875-6-6-6zm0 0" fill="#bbeded"/><path d="m331.5 270.5h-30c3.3125 0 6 2.6875 6 6v18c0 3.3125-2.6875 6-6 6h30c3.3125 0 6-2.6875 6-6v-18c0-3.3125-2.6875-6-6-6zm0 0" fill="#bbeded"/><path d="m277.5 387c0-30.375-47.011719-55-105-55s-105 24.625-105 55 47.011719 55 105 55 105-24.625 105-55zm0 0" fill="#ffcd6b"/><path d="m512 31.5v-18c0-7.445312-6.054688-13.5-13.5-13.5h-228c-7.445312 0-13.5 6.054688-13.5 13.5v18c0 5.285156 3.0625 9.859375 7.5 12.074219v49.660156h-190.539062c-7.445313 0-13.5 6.058594-13.5 13.5v18c0 6.234375 4.25 11.476563 10 13.023437v86.492188c0 4.140625 3.359374 7.5 7.5 7.5 4.140624 0 7.5-3.359375 7.5-7.5v-86.015625h184.039062v124.765625h-36.113281c-.269531-38.589844-25.390625-69.878906-56.246094-69.878906-30.863281 0-55.992187 31.289062-56.257813 69.878906h-35.421874v-7c0-4.140625-3.359376-7.5-7.5-7.5-4.140626 0-7.5 3.359375-7.5 7.5v7h-56.960938c-7.445312 0-13.5 6.054688-13.5 13.5v18c0 6.230469 4.25 11.476562 10 13.023438v159.953124c-5.75 1.546876-10 6.792969-10 13.023438v18c0 7.441406 6.054688 13.5 13.5 13.5h485c7.445312 0 13.5-6.058594 13.5-13.5v-18c0-5.289062-3.0625-9.863281-7.5-12.078125v-424.847656c4.4375-2.214844 7.5-6.789063 7.5-12.074219zm-436.539062 91.734375v-15h204.039062v15zm209.039062 14.523437c5.75-1.546874 10-6.789062 10-13.023437v-18c0-7.441406-6.054688-13.5-13.5-13.5h-1.5v-48.234375h168.167969c4.140625 0 7.5-3.359375 7.5-7.5s-3.359375-7.5-7.5-7.5h-175.667969v-15h225v15h-16.667969c-4.140625 0-7.5 3.359375-7.5 7.5s3.359375 7.5 7.5 7.5h9.167969v422h-154.5v-109.988281c14.085938 17.066406 31.523438 26.488281 50 26.488281 22.464844 0 43.316406-13.746094 58.710938-38.710938 14.695312-23.835937 22.789062-55.367187 22.789062-88.789062s-8.09375-64.953125-22.789062-88.789062c-15.394532-24.964844-36.246094-38.710938-58.710938-38.710938s-43.316406 13.746094-58.710938 38.710938c-14.695312 23.835937-22.789062 55.367187-22.789062 88.789062 0 2.34375.046875 4.679688.125 7h-19.125zm34.128906 125.242188c-.085937-2.316406-.128906-4.65625-.128906-7 0-30.679688 7.300781-59.417969 20.558594-80.914062 12.558594-20.367188 28.875-31.585938 45.941406-31.585938s33.382812 11.21875 45.941406 31.585938c13.257813 21.496093 20.558594 50.234374 20.558594 80.914062s-7.300781 59.417969-20.558594 80.914062c-12.558594 20.367188-28.875 31.585938-45.941406 31.585938-19.0625 0-37.214844-14.109375-50-38.773438v-22.203124c5.75-1.546876 10-6.792969 10-13.023438v-18c0-7.445312-6.054688-13.5-13.5-13.5zm-141.488281-54.878906c22.59375 0 41 24.5625 41.246094 54.878906h-82.503907c.25-30.316406 18.65625-54.878906 41.257813-54.878906zm-162.140625 69.878906h315v15c-15.070312 0-301.789062 0-315 0zm0 219v-15h260.832031c4.144531 0 7.5-3.359375 7.5-7.5s-3.355469-7.5-7.5-7.5h-250.832031v-159h295v159h-11.832031c-4.144531 0-7.5 3.359375-7.5 7.5s3.355469 7.5 7.5 7.5h21.832031v15c-5.453125 0-302.902344 0-315 0zm482 0h-152v-15h152zm0 0"/><path d="m172.5 324.5c-63.085938 0-112.5 27.453125-112.5 62.5s49.414062 62.5 112.5 62.5 112.5-27.453125 112.5-62.5-49.414062-62.5-112.5-62.5zm70.765625 94.746094c-18.777344 9.835937-43.910156 15.253906-70.765625 15.253906s-51.988281-5.417969-70.765625-15.253906c-16.992187-8.898438-26.734375-20.652344-26.734375-32.246094s9.742188-23.347656 26.734375-32.246094c18.777344-9.835937 43.910156-15.253906 70.765625-15.253906s51.988281 5.417969 70.765625 15.253906c16.992187 8.898438 26.734375 20.652344 26.734375 32.246094s-9.742188 23.347656-26.734375 32.246094zm0 0"/></svg>