<svg height="511pt" viewBox="0 -118 511.998 511" width="511pt" xmlns="http://www.w3.org/2000/svg"><path d="m181 249.75c-23.472656 0-42.5-19.027344-42.5-42.5v-13.5h85v13.5c0 23.472656-19.027344 42.5-42.5 42.5zm0 0" fill="#ace0e0"/><path d="m331 249.75c-23.472656 0-42.5-19.027344-42.5-42.5v-13.5h85v13.5c0 23.472656-19.027344 42.5-42.5 42.5zm0 0" fill="#ace0e0"/><path d="m246 84c0-41.976562-27.757812-76-62-76s-62 34.023438-62 76c0 41.972656 27.757812 76 62 76s62-34.027344 62-76zm0 0" fill="#db9a6c"/><path d="m184 8c-5.175781 0-10.195312.789062-15 2.253906 26.992188 8.222656 47 38.113282 47 73.746094 0 35.628906-20.007812 65.523438-47 73.746094 4.804688 1.464844 9.824219 2.253906 15 2.253906 34.242188 0 62-34.027344 62-76 0-41.976562-27.757812-76-62-76zm0 0" fill="#c48252"/><path d="m394 84c0-41.976562-27.757812-76-62-76s-62 34.023438-62 76c0 41.972656 27.757812 76 62 76s62-34.027344 62-76zm0 0" fill="#db9a6c"/><path d="m332 8c-5.175781 0-10.195312.789062-15 2.253906 26.992188 8.222656 47 38.113282 47 73.746094 0 35.628906-20.007812 65.523438-47 73.746094 4.804688 1.464844 9.824219 2.253906 15 2.253906 34.242188 0 62-34.027344 62-76 0-41.976562-27.757812-76-62-76zm0 0" fill="#c48252"/><path d="m168 132c0-41.976562-27.757812-76-62-76s-62 34.023438-62 76c0 41.972656 27.757812 76 62 76s62-34.027344 62-76zm0 0" fill="#f5b387"/><path d="m468 132c0-41.976562-27.757812-76-62-76s-62 34.023438-62 76c0 41.972656 27.757812 76 62 76s62-34.027344 62-76zm0 0" fill="#f5b387"/><path d="m318 132c0-41.976562-27.757812-76-62-76s-62 34.023438-62 76c0 41.972656 27.757812 76 62 76s62-34.027344 62-76zm0 0" fill="#f5b387"/><path d="m106 56c-5.175781 0-10.195312.789062-15 2.253906 26.992188 8.222656 47 38.113282 47 73.746094 0 35.628906-20.007812 65.523438-47 73.746094 4.804688 1.464844 9.824219 2.253906 15 2.253906 34.242188 0 62-34.027344 62-76 0-41.976562-27.757812-76-62-76zm0 0" fill="#db9a6c"/><path d="m406 56c-5.175781 0-10.195312.789062-15 2.253906 26.992188 8.222656 47 38.113282 47 73.746094 0 35.628906-20.007812 65.523438-47 73.746094 4.804688 1.464844 9.824219 2.253906 15 2.253906 34.242188 0 62-34.027344 62-76 0-41.976562-27.757812-76-62-76zm0 0" fill="#db9a6c"/><path d="m256 56c-5.175781 0-10.195312.789062-15 2.253906 26.992188 8.222656 47 38.113282 47 73.746094 0 35.628906-20.007812 65.523438-47 73.746094 4.804688 1.464844 9.824219 2.253906 15 2.253906 34.242188 0 62-34.027344 62-76 0-41.976562-27.757812-76-62-76zm0 0" fill="#db9a6c"/><path d="m464 163.5v45.632812c0 31.875-25.351562 58.445313-57.222656 58.859376-32.386719.425781-58.777344-25.707032-58.777344-57.992188v-.867188c0-7.527343-6.105469-13.632812-13.636719-13.632812h-6.730469c-7.527343 0-13.632812 6.101562-13.632812 13.632812 0 31.160157-24.238281 57.433594-55.371094 58.808594-33.226562 1.46875-60.628906-25.039062-60.628906-57.941406v-.867188c0-7.527343-6.105469-13.632812-13.636719-13.632812h-6.730469c-7.527343 0-13.632812 6.101562-13.632812 13.632812 0 31.160157-24.238281 57.433594-55.371094 58.808594-33.226562 1.46875-60.628906-25.039062-60.628906-57.941406v-46.5zm0 0" fill="#d1ffff"/><g fill="#bbeded"><path d="m154.363281 195.5h-6.730469c-7.527343 0-13.632812 6.101562-13.632812 13.632812 0 26.90625-18.078125 50.152344-43.054688 56.886719 5.609376 1.503907 11.546876 2.195313 17.683594 1.921875 31.132813-1.375 55.371094-27.644531 55.371094-58.804687 0-2.597657.738281-5.019531 2-7.082031-2.394531-3.925782-6.703125-6.554688-11.636719-6.554688zm0 0"/><path d="m304.363281 195.5h-6.730469c-7.527343 0-13.632812 6.101562-13.632812 13.632812 0 26.90625-18.078125 50.152344-43.054688 56.886719 5.609376 1.503907 11.546876 2.195313 17.683594 1.921875 31.132813-1.375 55.371094-27.644531 55.371094-58.804687 0-2.597657.738281-5.019531 2-7.082031-2.394531-3.925782-6.703125-6.554688-11.636719-6.554688zm0 0"/><path d="m434 163.5v45.632812c0 26.96875-18.148438 50.132813-43.035156 56.878907 5.035156 1.351562 10.335937 2.054687 15.8125 1.980469 31.871094-.414063 57.222656-26.984376 57.222656-58.859376v-45.632812zm0 0"/><path d="m489.5 178.5h-467c-8.285156 0-15-6.71875-15-15 0-8.285156 6.714844-15 15-15h467c8.285156 0 15 6.714844 15 15 0 8.28125-6.714844 15-15 15zm0 0"/></g><path d="m489.5 148.5h-30c8.285156 0 15 6.714844 15 15 0 8.28125-6.714844 15-15 15h30c8.285156 0 15-6.71875 15-15 0-8.285156-6.714844-15-15-15zm0 0" fill="#ace0e0"/><path d="m489.5 141h-14.410156c.265625-2.984375.410156-5.992188.410156-9 0-17.269531-4.335938-33.839844-12.539062-47.910156-2.085938-3.578125-6.675782-4.789063-10.257813-2.703125-3.578125 2.085937-4.789063 6.675781-2.699219 10.253906 6.867188 11.785156 10.496094 25.738281 10.496094 40.355469 0 3.019531-.175781 6.027344-.488281 9h-108.023438c-.3125-2.972656-.488281-5.980469-.488281-9 0-37.769532 24.449219-68.5 54.5-68.5 8.695312 0 17.011719 2.515625 24.714844 7.472656 3.484375 2.242188 8.125 1.234375 10.367187-2.25 2.238281-3.484375 1.230469-8.125-2.25-10.367188-10.023437-6.445312-21.375-9.851562-32.832031-9.851562-3.636719 0-7.207031.339844-10.691406.988281-11.160156-29.578125-35.871094-48.988281-63.308594-48.988281-27.640625 0-52.386719 19.5625-63.453125 49.386719-4.074219-.894531-8.261719-1.386719-12.546875-1.386719-2.984375 0-5.914062.253906-8.800781.691406-11.210938-29.390625-35.90625-48.691406-63.199219-48.691406-27.835938 0-52.625 19.71875-63.617188 49.808594-4.640624-1.179688-9.453124-1.808594-14.382812-1.808594-38.320312 0-69.5 37.457031-69.5 83.5 0 3.011719.132812 6.015625.398438 9h-14.398438c-12.40625 0-22.5 10.09375-22.5 22.5s10.09375 22.5 22.5 22.5h18v24c0 10.539062 2.566406 21.015625 7.417969 30.300781 1.339843 2.5625 3.949219 4.027344 6.652343 4.027344 1.171876 0 2.359376-.273437 3.46875-.855469 3.671876-1.917968 5.09375-6.449218 3.171876-10.121094-3.789063-7.25-5.710938-15.105468-5.710938-23.351562v-24h401v23.128906c0 27.96875-22.347656 51.007813-49.820312 51.363282-.230469 0-.460938.003906-.691407.003906-13.363281 0-25.933593-5.152344-35.457031-14.550782-2.761719-2.722656-5.152344-5.714843-7.183594-8.90625-.042968-.066406-.085937-.128906-.128906-.195312-5.019531-7.964844-7.71875-17.1875-7.71875-26.84375v-.871094c0-11.652344-9.476562-21.128906-21.128906-21.128906h-6.738282c-11.652343 0-21.132812 9.476562-21.132812 21.128906 0 9.851563-2.757812 19.347656-7.886719 27.53125-.058593.09375-.117187.183594-.171875.277344-1.71875 2.703125-3.699218 5.265625-5.925781 7.648438-9.042969 9.65625-21.191406 15.292968-34.214844 15.859374-13.9375.617188-27.15625-4.335937-37.203125-13.953124-2.96875-2.839844-5.535156-5.976563-7.6875-9.339844-.125-.210938-.261718-.421875-.414062-.628906-4.886719-7.878907-7.496094-16.976563-7.496094-26.527344v-.867188c0-11.652344-9.480469-21.132812-21.128906-21.132812h-6.742188c-11.648437 0-21.128906 9.480468-21.128906 21.132812 0 9.851563-2.757812 19.347656-7.890625 27.53125-.058594.089844-.113281.183594-.167969.273438-1.71875 2.707031-3.699218 5.269531-5.925781 7.648437-9.042969 9.660157-21.195313 15.296875-34.21875 15.863281-9.847656.433594-19.503906-1.957031-27.910156-6.914062-3.566407-2.105469-8.167969-.921875-10.273438 2.648438-2.101562 3.566406-.917969 8.164062 2.648438 10.269531 10.921875 6.441406 23.441406 9.546875 36.191406 8.980469 16.964844-.738282 32.773437-8.054688 44.511719-20.597657 1.160156-1.238281 2.253906-2.527343 3.308594-3.839843 7.367187 4.105468 15.609374 6.253906 24.222656 6.253906 8.535156 0 16.710937-2.105469 24.023437-6.136719 1.757813 2.167969 3.648438 4.253906 5.703125 6.21875 12.3125 11.78125 28.277344 18.167969 45.230469 18.167969.996094 0 2-.019532 3-.066406 16.964844-.738282 32.773437-8.054688 44.511719-20.597657 1.160156-1.238281 2.253906-2.527343 3.308594-3.839843 7.367187 4.105468 15.609374 6.253906 24.222656 6.253906 8.535156 0 16.710937-2.105469 24.019531-6.136719 1.550781 1.910156 3.199219 3.753906 4.976563 5.507813 12.566406 12.402343 29.210937 19.113281 46.882812 18.867187 35.632812-.457031 64.621094-30.226563 64.621094-66.359375v-23.125h18c12.40625 0 22.5-10.09375 22.5-22.5s-10.089844-22.5-22.496094-22.5zm-308.5 101.25c-5.730469 0-11.226562-1.359375-16.183594-3.960938 4.359375-8.996093 6.683594-18.925781 6.683594-29.160156 0-3.378906 2.75-6.128906 6.128906-6.128906h6.742188c3.378906 0 6.128906 2.75 6.128906 6.128906v.871094c0 10.03125 2.226562 19.679688 6.441406 28.417969-4.890625 2.515625-10.300781 3.832031-15.941406 3.832031zm150 0c-5.730469 0-11.226562-1.359375-16.183594-3.960938 4.359375-8.996093 6.683594-18.925781 6.683594-29.160156 0-3.378906 2.75-6.128906 6.128906-6.128906h6.742188c3.378906 0 6.128906 2.75 6.128906 6.128906v.871094c0 10.011719 2.230469 19.667969 6.449219 28.414062-4.890625 2.519532-10.308594 3.835938-15.949219 3.835938zm1-226.75c20.90625 0 39.953125 15.261719 49.011719 38.601562-26.007813 12.085938-44.511719 42.433594-44.511719 77.898438 0 3.007812.132812 6.015625.398438 9h-11.808594c.265625-2.984375.410156-5.992188.410156-9 0-34.6875-17.699219-64.496094-42.816406-77.09375 8.910156-23.8125 28.105468-39.40625 49.316406-39.40625zm-148 0c20.636719 0 39.539062 14.941406 48.714844 37.835938-26.902344 11.53125-46.214844 42.433593-46.214844 78.664062 0 3.011719.132812 6.015625.398438 9h-11.808594c.265625-2.984375.410156-5.992188.410156-9 0-33.914062-16.925781-63.148438-41.152344-76.210938 8.765625-24.335937 28.125-40.289062 49.652344-40.289062zm-132.5 116.5c0-37.769531 24.449219-68.5 54.5-68.5s54.5 30.730469 54.5 68.5c0 3.015625-.175781 6.023438-.488281 9h-108.023438c-.3125-2.976562-.488281-5.984375-.488281-9zm438 39h-467c-4.136719 0-7.5-3.363281-7.5-7.5s3.363281-7.5 7.5-7.5h201.5c4.144531 0 7.5-3.359375 7.5-7.5 0-4.144531-3.355469-7.5-7.5-7.5h-22.011719c-.3125-2.976562-.488281-5.984375-.488281-9 0-37.773438 24.449219-68.5 54.5-68.5s54.5 30.726562 54.5 68.5c0 3.015625-.175781 6.023438-.488281 9h-54.011719c-4.144531 0-7.5 3.355469-7.5 7.5 0 4.140625 3.355469 7.5 7.5 7.5h233.5c4.136719 0 7.5 3.363281 7.5 7.5s-3.363281 7.5-7.5 7.5zm0 0"/></svg>