<svg height="512pt" viewBox="-63 0 512 512" width="512pt" xmlns="http://www.w3.org/2000/svg"><path d="m327.5 504.5h-270c-27.613281 0-50-22.386719-50-50v-397c0-27.613281 22.386719-50 50-50h270c27.613281 0 50 22.386719 50 50v397c0 27.613281-22.386719 50-50 50zm0 0" fill="#bbeded"/><path d="m327.5 7.5h-30c27.613281 0 50 22.386719 50 50v397c0 27.613281-22.386719 50-50 50h30c27.613281 0 50-22.386719 50-50v-397c0-27.613281-22.386719-50-50-50zm0 0" fill="#ace0e0"/><path d="m57.5 474.5c-11.027344 0-20-8.972656-20-20v-397c0-11.027344 8.972656-20 20-20h270c11.027344 0 20 8.972656 20 20v397c0 11.027344-8.972656 20-20 20zm0 0" fill="#d1ffff"/><path d="m274.5 154.613281c0 36.628907-16.003906 73.101563-39.921875 93.640625-2.511719 2.160156-6.4375.65625-6.878906-2.617187-4.984375-36.953125-18.859375-59.015625-35.199219-59.015625s-30.207031 22.0625-35.1875 59.027344c-.441406 3.273437-4.367188 4.773437-6.878906 2.617187-23.921875-20.539063-39.933594-57.011719-39.933594-93.652344 0-55.476562 36.710938-90.339843 82-90.339843s82 34.863281 82 90.339843zm0 0" fill="#fd825e"/><path d="m162.5 186.621094c-13.152344 0-24.699219 14.308594-31.304688 39.164062 5.550782 8.648438 12.03125 16.292969 19.234376 22.480469 2.515624 2.15625 6.441406.65625 6.882812-2.617187 3.351562-24.882813 10.738281-43 20.1875-52.195313-4.589844-4.460937-9.660156-6.832031-15-6.832031zm0 0" fill="#eb6044"/><path d="m192.5 64.273438c-5.125 0-10.136719.46875-15 1.34375 38.121094 6.835937 67 39.796874 67 88.996093 0 25.597657-7.820312 51.105469-20.6875 71.164063 1.601562 6.019531 2.914062 12.652344 3.886719 19.859375.441406 3.273437 4.367187 4.777343 6.878906 2.617187 23.917969-20.539062 39.921875-57.011718 39.921875-93.640625 0-55.476562-36.710938-90.339843-82-90.339843zm0 0" fill="#eb6044"/><path d="m208.214844 128.140625c0-12.652344-7.035156-22.910156-15.714844-22.910156s-15.714844 10.257812-15.714844 22.910156c0 12.648437 7.035156 22.90625 15.714844 22.90625s15.714844-10.257813 15.714844-22.90625zm0 0" fill="#fff0d0"/><path d="m274.5 353.066406c0 36.628906-16.003906 73.101563-39.921875 93.640625-2.511719 2.160157-6.4375.65625-6.878906-2.617187-4.984375-36.953125-18.859375-59.015625-35.199219-59.015625s-30.207031 22.0625-35.1875 59.027343c-.441406 3.273438-4.367188 4.773438-6.878906 2.617188-23.921875-20.542969-39.933594-57.011719-39.933594-93.652344 0-55.476562 36.710938-90.339844 82-90.339844s82 34.863282 82 90.339844zm0 0" fill="#fd825e"/><path d="m162.5 385.074219c-13.152344 0-24.699219 14.304687-31.304688 39.164062 5.550782 8.648438 12.03125 16.289063 19.234376 22.476563 2.515624 2.160156 6.441406.65625 6.882812-2.613282 3.351562-24.886718 10.738281-43.003906 20.1875-52.195312-4.589844-4.460938-9.660156-6.832031-15-6.832031zm0 0" fill="#eb6044"/><path d="m192.5 262.726562c-5.125 0-10.136719.46875-15 1.339844 38.121094 6.835938 67 39.800782 67 89 0 25.59375-7.820312 51.105469-20.6875 71.164063 1.601562 6.019531 2.914062 12.652343 3.886719 19.859375.441406 3.273437 4.367187 4.773437 6.878906 2.617187 23.917969-20.539062 39.921875-57.011719 39.921875-93.640625 0-55.476562-36.710938-90.339844-82-90.339844zm0 0" fill="#eb6044"/><path d="m208.214844 326.59375c0-12.652344-7.035156-22.910156-15.714844-22.910156s-15.714844 10.257812-15.714844 22.910156c0 12.648438 7.035156 22.90625 15.714844 22.90625s15.714844-10.257812 15.714844-22.90625zm0 0" fill="#fff0d0"/><path d="m255.925781 83.480469c-16.328125-17.222657-38.851562-26.707031-63.425781-26.707031-23.671875 0-45.609375 8.878906-61.765625 25-2.933594 2.925781-2.9375 7.675781-.011719 10.609374 2.925782 2.929688 7.671875 2.933594 10.605469.011719 13.328125-13.296875 31.5-20.621093 51.171875-20.621093 20.414062 0 39.074219 7.820312 52.539062 22.023437 14.367188 15.152344 21.960938 36.183594 21.960938 60.816406 0 31.660157-12.726562 63.808594-32.8125 83.789063-6.253906-37.257813-21.621094-59.28125-41.6875-59.28125-20.0625 0-35.429688 22.027344-41.679688 59.289062-20.089843-19.980468-32.820312-52.132812-32.820312-83.796875 0-13.910156 2.4375-26.734375 7.25-38.113281 1.613281-3.816406-.171875-8.21875-3.988281-9.828125-3.8125-1.613281-8.214844.171875-9.828125 3.984375-5.597656 13.238281-8.4375 28.027344-8.4375 43.957031 0 38.152344 16.703125 77.144531 42.546875 99.339844 3.238281 2.78125 7.746093 3.578125 11.769531 2.050781 4.011719-1.527344 6.859375-5.113281 7.429688-9.355468 3.410156-25.300782 13.550781-52.527344 27.753906-52.527344 14.214844 0 24.355468 27.222656 27.769531 52.519531.570313 4.242187 3.417969 7.828125 7.429687 9.351563 4.007813 1.523437 8.519532.742187 11.769532-2.050782 25.839844-22.1875 42.535156-61.179687 42.535156-99.328125 0-28.546875-9.015625-53.144531-26.074219-71.132812zm0 0"/><path d="m192.5 158.546875c13.019531 0 23.214844-13.355469 23.214844-30.40625s-10.195313-30.410156-23.214844-30.410156-23.214844 13.359375-23.214844 30.410156 10.195313 30.40625 23.214844 30.40625zm0-45.816406c3.800781 0 8.214844 6.730469 8.214844 15.410156 0 8.675781-4.414063 15.40625-8.214844 15.40625s-8.214844-6.730469-8.214844-15.40625c0-8.679687 4.414063-15.410156 8.214844-15.410156zm0 0"/><path d="m192.5 255.226562c-24.574219 0-47.097656 9.484376-63.425781 26.707032-17.058594 17.988281-26.074219 42.585937-26.074219 71.132812 0 38.152344 16.699219 77.148438 42.546875 99.339844 3.234375 2.777344 7.738281 3.582031 11.769531 2.050781 4.007813-1.527343 6.855469-5.109375 7.425782-9.355469 3.410156-25.296874 13.550781-52.527343 27.757812-52.527343 14.210938 0 24.355469 27.226562 27.765625 52.519531.574219 4.242188 3.421875 7.828125 7.433594 9.355469 4.007812 1.523437 8.519531.738281 11.769531-2.050781 25.835938-22.191407 42.53125-61.179688 42.53125-99.332032 0-28.546875-9.015625-53.144531-26.074219-71.132812-16.328125-17.222656-38.851562-26.707032-63.425781-26.707032zm74.5 97.839844c0 31.660156-12.726562 63.808594-32.8125 83.789063-6.25-37.257813-21.621094-59.28125-41.6875-59.28125-20.0625 0-35.429688 22.027343-41.679688 59.289062-20.089843-19.980469-32.820312-52.132812-32.820312-83.796875 0-24.636718 7.59375-45.664062 21.957031-60.8125 13.46875-14.203125 32.128907-22.027344 52.542969-22.027344s39.074219 7.824219 52.539062 22.027344c14.367188 15.148438 21.960938 36.179688 21.960938 60.8125zm0 0"/><path d="m192.5 296.183594c-13.019531 0-23.214844 13.355468-23.214844 30.410156 0 17.050781 10.195313 30.40625 23.214844 30.40625s23.214844-13.355469 23.214844-30.40625c0-17.054688-10.195313-30.410156-23.214844-30.410156zm0 45.816406c-3.800781 0-8.214844-6.730469-8.214844-15.40625 0-8.679688 4.414063-15.410156 8.214844-15.410156s8.214844 6.730468 8.214844 15.410156c0 8.675781-4.414063 15.40625-8.214844 15.40625zm0 0"/><path d="m327.5 0h-270c-31.707031 0-57.5 25.792969-57.5 57.5v326.9375c0 4.144531 3.359375 7.5 7.5 7.5s7.5-3.355469 7.5-7.5v-326.9375c0-23.433594 19.066406-42.5 42.5-42.5h270c23.433594 0 42.5 19.066406 42.5 42.5v397c0 23.433594-19.066406 42.5-42.5 42.5h-270c-23.433594 0-42.5-19.066406-42.5-42.5v-38.394531c0-4.144531-3.359375-7.5-7.5-7.5s-7.5 3.355469-7.5 7.5v38.394531c0 31.707031 25.792969 57.5 57.5 57.5h270c31.707031 0 57.5-25.792969 57.5-57.5v-397c0-31.707031-25.792969-57.5-57.5-57.5zm0 0"/><path d="m347.5 71.5c4.144531 0 7.5-3.355469 7.5-7.5v-6.5c0-15.164062-12.335938-27.5-27.5-27.5h-270c-15.164062 0-27.5 12.335938-27.5 27.5v397c0 15.164062 12.335938 27.5 27.5 27.5h270c15.164062 0 27.5-12.335938 27.5-27.5 0-.109375 0-358.363281 0-358.5 0-4.144531-3.355469-7.5-7.5-7.5s-7.5 3.355469-7.5 7.5v97.710938h-31.832031c-4.144531 0-7.5 3.355468-7.5 7.5 0 4.144531 3.355469 7.5 7.5 7.5h31.832031v160.765624h-21.691406c-4.144532 0-7.5 3.355469-7.5 7.5 0 4.140626 3.355468 7.5 7.5 7.5h21.691406v70.023438c0 6.894531-5.605469 12.5-12.5 12.5h-270c-6.894531 0-12.5-5.605469-12.5-12.5v-42h18.617188c4.144531 0 7.5-3.355469 7.5-7.5s-3.355469-7.5-7.5-7.5h-18.617188v-162.371094h44.757812c4.140626 0 7.5-3.359375 7.5-7.5 0-4.144531-3.359374-7.5-7.5-7.5h-44.757812v-86.453125h26.964844c4.140625 0 7.5-3.355469 7.5-7.5 0-4.140625-3.359375-7.5-7.5-7.5h-26.964844v-61.175781c0-6.894531 5.605469-12.5 12.5-12.5h270c6.894531 0 12.5 5.605469 12.5 12.5v6.5c0 4.144531 3.355469 7.5 7.5 7.5zm0 0"/></svg>