<svg height="512pt" viewBox="-58 0 512 512" width="512pt" xmlns="http://www.w3.org/2000/svg"><path d="m387.5 143.152344v321.367187c0 22.082031-17.898438 39.980469-39.980469 39.980469h-149.941406v-389.902344c0-49.449218 40.089844-89.539062 89.539063-89.539062h36.191406c.082031 10.75 3.621094 21.210937 10.113281 29.792968l43.960937 58.148438c6.566407 8.683594 10.117188 19.269531 10.117188 30.152344zm0 0" fill="#fff0d0"/><path d="m377.382812 113-43.960937-58.148438c-6.492187-8.582031-10.03125-19.042968-10.113281-29.792968h-30c.082031 10.75 3.621094 21.210937 10.113281 29.792968l43.960937 58.148438c6.566407 8.683594 10.117188 19.269531 10.117188 30.152344v321.367187c0 22.082031-17.898438 39.980469-39.980469 39.980469h30c22.082031 0 39.980469-17.898438 39.980469-39.980469v-321.367187c0-10.882813-3.550781-21.46875-10.117188-30.152344zm0 0" fill="#edcfb2"/><path d="m323.308594 23.140625v1.917969c0 10.660156-3.410156 21.042968-9.730469 29.632812l-43.019531 58.46875c-6.320313 8.585938-9.730469 18.972656-9.730469 29.632813v321.726562c0 22.082031 17.902344 39.980469 39.992187 39.980469h-253.339843c-22.082031 0-39.980469-17.898438-39.980469-39.980469v-321.726562c0-10.660157 3.40625-21.046875 9.726562-29.632813l43.023438-58.46875c6.320312-8.589844 9.730469-18.972656 9.730469-29.632812v-1.917969c0-8.636719 7-15.640625 15.640625-15.640625h222.050781c8.636719 0 15.636719 7.003906 15.636719 15.640625zm0 0" fill="#fe5555"/><path d="m307.671875 7.5h-30c8.636719 0 15.636719 7.003906 15.636719 15.640625v1.917969c0 10.660156-3.410156 21.042968-9.730469 29.632812l-43.019531 58.46875c-6.320313 8.585938-9.730469 18.972656-9.730469 29.632813v321.726562c0 22.082031 17.902344 39.980469 39.992187 39.980469h30c-22.089843 0-39.992187-17.898438-39.992187-39.980469v-321.726562c0-10.660157 3.410156-21.046875 9.730469-29.632813l43.019531-58.46875c6.320313-8.589844 9.730469-18.972656 9.730469-29.632812v-1.917969c0-8.636719-7-15.640625-15.636719-15.640625zm0 0" fill="#e84141"/><path d="m161.691406 243.890625c0 20.0625-19.972656 29.535156-25.632812 31.816406-.953125.382813-2.007813.382813-2.960938 0-5.660156-2.28125-25.632812-11.753906-25.632812-31.816406 0-18.683594 17.320312-38.089844 24.273437-45.128906 1.566407-1.582031 4.113281-1.582031 5.675781 0 6.953126 7.039062 24.277344 26.445312 24.277344 45.128906zm0 0" fill="#ffd659"/><path d="m137.414062 198.761719c-1.5625-1.582031-4.109374-1.582031-5.675781 0-2.601562 2.636719-6.660156 7.003906-10.714843 12.421875 6.777343 9.046875 13.558593 21.019531 13.558593 32.707031s-6.78125 19.773437-13.558593 24.945313c4.855468 3.707031 9.710937 5.917968 12.074218 6.867187.953125.386719 2.007813.386719 2.960938 0 5.660156-2.28125 25.636718-11.75 25.636718-31.8125-.003906-18.683594-17.328124-38.089844-24.28125-45.128906zm0 0" fill="#ffbd54"/><path d="m94.421875 272.863281c14.1875 14.1875 6.757813 35.007813 4.367187 40.625-.402343.945313-1.148437 1.691407-2.09375 2.09375-5.617187 2.390625-26.433593 9.8125-40.617187-4.375-13.214844-13.210937-14.6875-39.179687-14.75-49.074219-.011719-2.222656 1.789063-4.027343 4.015625-4.011718 9.890625.058594 35.863281 1.53125 49.078125 14.742187zm0 0" fill="#ffd659"/><path d="m174.738281 272.863281c-14.183593 14.1875-6.757812 35.007813-4.367187 40.625.402344.945313 1.148437 1.691407 2.09375 2.09375 5.617187 2.390625 26.433594 9.8125 40.621094-4.375 13.210937-13.210937 14.683593-39.179687 14.746093-49.074219.011719-2.222656-1.789062-4.027343-4.015625-4.011718-9.890625.058594-35.863281 1.53125-49.078125 14.742187zm0 0" fill="#ffd659"/><path d="m94.421875 272.863281c-13.210937-13.210937-39.1875-14.683593-49.078125-14.742187-1.675781-.011719-3.109375 1.007812-3.710938 2.464844 9.347657 2.03125 19.09375 5.695312 25.675782 12.277343 14.1875 14.1875 6.757812 35.007813 4.367187 40.625-.402343.945313-1.148437 1.691407-2.089843 2.09375-1.042969.441407-2.605469 1.058594-4.550782 1.675781 12.820313 5.40625 27.148438.242188 31.664063-1.675781.941406-.402343 1.691406-1.148437 2.089843-2.09375 2.390626-5.617187 9.816407-26.4375-4.367187-40.625zm0 0" fill="#ffbd54"/><path d="m223.816406 258.121094c-4.964844.027344-13.980468.414062-23.402344 2.464844.199219.476562.308594 1 .304688 1.546874-.0625 9.894532-1.535156 35.863282-14.746094 49.074219-2.789062 2.785157-5.828125 4.730469-8.960937 6.050781 8.554687 2.722657 24.511719 5.507813 36.074219-6.050781 13.210937-13.210937 14.6875-39.179687 14.746093-49.074219.011719-2.226562-1.789062-4.027343-4.015625-4.011718zm0 0" fill="#ffbd54"/><path d="m387.5 423.332031c4.144531 0 7.5-3.355469 7.5-7.5v-272.683593c0-12.445313-4.132812-24.757813-11.636719-34.671876l-43.960937-58.152343c-5.46875-7.222657-8.515625-16.203125-8.59375-25.285157v-1.898437c.003906-12.761719-10.378906-23.140625-23.136719-23.140625h-222.050781c-12.761719 0-23.140625 10.378906-23.140625 23.140625v1.917969c0 9.125-2.859375 17.832031-8.269531 25.1875l-9.328126 12.671875c-2.453124 3.335937-1.738281 8.03125 1.597657 10.484375 3.335937 2.457031 8.03125 1.742187 10.484375-1.59375l9.324218-12.671875c7.320313-9.949219 11.191407-21.734375 11.191407-34.078125v-1.917969c0-4.488281 3.652343-8.140625 8.140625-8.140625h222.050781c4.484375 0 8.140625 3.652344 8.140625 8.140625v1.917969c0 9.125-2.863281 17.832031-8.273438 25.1875l-43.019531 58.46875c-7.320312 9.945312-11.1875 21.730468-11.1875 34.078125v321.726562c0 12.550781 4.894531 23.980469 12.878907 32.480469-8.582032 0-158.707032 0-164.210938 0-4.140625 0-7.5 3.359375-7.5 7.5s3.359375 7.5 7.5 7.5h245.519531c26.183594 0 47.480469-21.300781 47.480469-47.480469v-16.859375c0-4.140625-3.355469-7.5-7.5-7.5-4.140625 0-7.5 3.359375-7.5 7.5v16.859375c0 17.910157-14.570312 32.480469-32.480469 32.480469h-46.699219c-17.914062 0-32.492187-14.570312-32.492187-32.480469v-321.726562c0-9.128907 2.859375-17.835938 8.269531-25.1875l43.023438-58.46875c1.394531-1.894531 2.660156-3.855469 3.800781-5.871094 1.207031 2.117187 2.542969 4.160156 4.015625 6.105469l43.960938 58.15625c5.546874 7.324218 8.601562 16.425781 8.601562 25.621094v272.6875c0 4.140624 3.355469 7.496093 7.5 7.496093zm0 0"/><path d="m315.8125 141.660156v306c0 4.140625 3.355469 7.5 7.5 7.5 4.140625 0 7.5-3.359375 7.5-7.5v-306c0-4.140625-3.359375-7.5-7.5-7.5-4.144531 0-7.5 3.359375-7.5 7.5zm0 0"/><path d="m69.75 497h-22.269531c-17.910157 0-32.480469-14.570312-32.480469-32.480469v-321.726562c0-9.128907 2.859375-17.835938 8.269531-25.1875l14.734375-20.023438c2.453125-3.335937 1.738282-8.03125-1.597656-10.488281-3.339844-2.453125-8.03125-1.738281-10.484375 1.597656l-14.734375 20.023438c-7.320312 9.945312-11.1875 21.730468-11.1875 34.078125v321.726562c0 26.179688 21.300781 47.480469 47.480469 47.480469h22.269531c4.144531 0 7.5-3.359375 7.5-7.5s-3.355469-7.5-7.5-7.5zm0 0"/><path d="m127.078125 348.382812v26.277344c0 4.140625 3.359375 7.5 7.5 7.5 4.144531 0 7.5-3.359375 7.5-7.5v-26.277344l30.265625-24.792968c4.015625 1.460937 10.023438 3.171875 16.84375 3.511718.792969.039063 1.574219.058594 2.351562.058594 10.613282 0 19.855469-3.65625 26.847657-10.648437 15.085937-15.085938 16.875-43.019531 16.945312-54.332031.019531-3.09375-1.175781-6.003907-3.363281-8.195313-2.1875-2.1875-5.074219-3.359375-8.195312-3.363281-11.3125.066406-39.25 1.855468-54.335938 16.941406-7.503906 7.503906-11.164062 17.601562-10.589844 29.203125.3125 6.296875 1.796875 11.898437 3.175782 15.886719l-19.945313 16.335937v-47.742187c3.84375-1.828125 9.082031-4.808594 13.953125-9.21875 8.609375-7.796875 13.160156-17.523438 13.160156-28.136719 0-21.335937-18.492187-42.355469-26.441406-50.402344-2.175781-2.203125-5.078125-3.414062-8.171875-3.414062s-5.996094 1.210937-8.175781 3.417969c-7.949219 8.042968-26.4375 29.0625-26.4375 50.398437 0 10.613281 4.550781 20.339844 13.160156 28.132813 4.871094 4.414062 10.113281 7.394531 13.953125 9.222656v47.742187l-19.941406-16.335937c1.378906-3.988282 2.859375-9.589844 3.175781-15.890625.574219-11.601563-3.085938-21.695313-10.589844-29.203125-15.085937-15.085938-43.023437-16.871094-54.335937-16.941406-.023438 0-.046875 0-.070313 0-3.070312 0-5.953125 1.195312-8.125 3.367187-2.1875 2.1875-3.382812 5.097656-3.363281 8.195313.070313 11.308593 1.859375 39.246093 16.945313 54.332031 6.992187 6.992187 16.234374 10.648437 26.847656 10.648437.773437 0 1.5625-.019531 2.351562-.058594 6.820313-.339843 12.824219-2.050781 16.84375-3.515624zm52.964844-70.214843c10.007812-10.007813 30.292969-12.070313 40.203125-12.464844-.394532 9.914063-2.460938 30.195313-12.46875 40.199219-9.9375 9.945312-24.960938 5.664062-31.046875 3.316406-2.347657-6.089844-6.628907-21.109375 3.3125-31.050781zm-65.074219-34.277344c0-14.152344 12.882812-29.953125 19.609375-37.238281 6.730469 7.285156 19.613281 23.089844 19.613281 37.238281 0 14.0625-13.644531 21.65625-19.613281 24.296875-5.96875-2.644531-19.609375-10.238281-19.609375-24.296875zm-53.589844 62.011719c-10.003906-10.003906-12.070312-30.285156-12.464844-40.199219 9.910157.394531 30.195313 2.457031 40.203126 12.464844 9.945312 9.945312 5.660156 24.96875 3.3125 31.050781-6.089844 2.347656-21.109376 6.628906-31.050782-3.316406zm0 0"/><path d="m247.5 47.5c4.144531 0 7.5-3.359375 7.5-7.5s-3.355469-7.5-7.5-7.5h-120c-4.144531 0-7.5 3.359375-7.5 7.5s3.355469 7.5 7.5 7.5zm0 0"/></svg>