<svg height="512pt" viewBox="0 -23 512.00142 512" width="512pt" xmlns="http://www.w3.org/2000/svg"><path d="m327.5 247.5c0 88.367188-71.632812 160-160 160s-160-71.632812-160-160c0-88.363281 71.632812-160 160-160s160 71.636719 160 160zm0 0" fill="#ff9e4a"/><path d="m167.5 87.5c-5.058594 0-10.0625.246094-15 .707031 81.328125 7.5625 145 75.988281 145 159.292969 0 83.308594-63.671875 151.730469-145 159.296875 4.9375.457031 9.941406.703125 15 .703125 88.363281 0 160-71.632812 160-160s-71.636719-160-160-160zm0 0" fill="#fc843a"/><path d="m500.492188 298.5c2.257812 0 4.0625 1.867188 4.007812 4.125-2.1875 86.460938-72.980469 155.875-160 155.875s-157.8125-69.414062-160-155.875c-.054688-2.257812 1.75-4.125 4.007812-4.125zm0 0" fill="#fff0d0"/><path d="m500.492188 298.5h-30c2.257812 0 4.0625 1.867188 4.003906 4.125-2.058594 81.4375-64.980469 147.738281-144.996094 155.171875 4.9375.460937 9.941406.703125 15 .703125 87.019531 0 157.808594-69.414062 159.996094-155.875.058594-2.257812-1.746094-4.125-4.003906-4.125zm0 0" fill="#edcfb2"/><path d="m474.539062 298.5c0 71.679688-58.335937 130-130.039062 130s-130.039062-58.320312-130.039062-130zm0 0" fill="#ffd659"/><path d="m444.539062 298.5c0 66.609375-50.375 121.671875-115.039062 129.128906 4.921875.570313 9.925781.871094 15 .871094 71.703125 0 130.039062-58.320312 130.039062-130zm0 0" fill="#ffbd54"/><path d="m210.527344 19.980469c-19.277344 5.558593-22.839844 27.375-23.460938 33.449219-.105468 1.019531.1875 2.035156.820313 2.84375 3.761719 4.808593 18.394531 21.371093 37.671875 15.808593 17.953125-5.179687 31.796875-27.203125 36.632812-35.832031 1.085938-1.941406.378906-4.390625-1.574218-5.453125-8.6875-4.730469-32.136719-15.996094-50.089844-10.816406zm0 0" fill="#3bd387"/><path d="m260.617188 30.796875c-8.6875-4.730469-32.136719-15.996094-50.089844-10.816406-1.152344.332031-2.246094.726562-3.292969 1.167969 9.941406 2.757812 18.757813 7.128906 23.382813 9.648437 1.953124 1.0625 2.660156 3.511719 1.574218 5.453125-4.175781 7.453125-15.070312 24.882812-29.527344 32.839844 6.273438 3.457031 14.097657 5.53125 22.894532 2.992187 17.953125-5.179687 31.796875-27.199219 36.632812-35.832031 1.085938-1.941406.378906-4.390625-1.574218-5.453125zm0 0" fill="#37c487"/><path d="m508.726562 294.472656c-2.183593-2.238281-5.109374-3.472656-8.234374-3.472656h-171.207032c3.792969-14.117188 5.714844-28.707031 5.714844-43.5 0-89.84375-71.109375-163.386719-160-167.324219v-12.304687c2.621094-1.320313 5.988281-2.914063 9.273438-4.226563 2.824218 3.175781 7.125 7.359375 12.683593 10.796875 6.710938 4.152344 13.757813 6.257813 20.785157 6.257813 3.3125 0 6.625-.46875 9.894531-1.414063 20.503906-5.914062 35.570312-29.503906 41.097656-39.371094 1.511719-2.703124 1.871094-5.828124 1.015625-8.800781-.855469-2.972656-2.824219-5.421875-5.546875-6.90625-9.933594-5.410156-35.253906-17.347656-55.757813-11.433593-10.195312 2.941406-18.28125 10.011718-23.382812 20.445312-2.886719 5.902344-4.300781 11.765625-4.988281 15.960938-1.722657.65625-3.4375 1.371093-5.074219 2.097656v-43.777344c0-4.140625-3.359375-7.5-7.5-7.5-4.144531 0-7.5 3.359375-7.5 7.5v72.671875c-43.230469 1.878906-83.273438 19.96875-113.433594 51.429687-2.867187 2.988282-2.765625 7.738282.222656 10.605469 2.992188 2.863281 7.742188 2.765625 10.605469-.226562 29.042969-30.292969 68.144531-46.980469 110.105469-46.980469 84.089844 0 152.5 68.410156 152.5 152.5 0 14.839844-2.121094 29.449219-6.304688 43.5h-25.570312c-4.144531 0-7.5 3.359375-7.5 7.5 0 4.144531 3.355469 7.5 7.5 7.5h38.265625l-44.910156 44.898438c-2.929688 2.925781-2.929688 7.675781-.003907 10.605468 1.464844 1.464844 3.386719 2.195313 5.304688 2.195313s3.839844-.730469 5.304688-2.195313l44.914062-44.898437v63.496093c0 4.140626 3.355469 7.5 7.5 7.5s7.5-3.359374 7.5-7.5v-63.496093l44.914062 44.898437c1.46875 1.464844 3.386719 2.199219 5.304688 2.199219 1.921875 0 3.839844-.734375 5.304688-2.199219 2.929687-2.929687 2.925781-7.679687 0-10.605468l-44.914063-44.898438h104.195313c-3.890626 64.066406-57.253907 115-122.304688 115s-118.414062-50.933594-122.304688-115h33.804688c4.144531 0 7.5-3.355469 7.5-7.5 0-4.140625-3.355469-7.5-7.5-7.5h-67.492188c-3.125 0-6.050781 1.234375-8.234374 3.472656-2.15625 2.210938-3.347657 5.25-3.269532 8.339844.84375 33.382812 11.445313 65.132812 30.324219 91.925781-12.914063 3.492188-26.265625 5.261719-39.828125 5.261719-84.089844 0-152.5-68.410156-152.5-152.5 0-28.996094 8.164062-57.199219 23.617188-81.558594 2.21875-3.5 1.179687-8.132812-2.316407-10.351562-3.5-2.21875-8.132812-1.179688-10.351562 2.316406-16.976563 26.769531-25.949219 57.75-25.949219 89.59375 0 92.359375 75.140625 167.5 167.5 167.5 17 0 33.707031-2.535156 49.75-7.53125 3.222656 3.753906 6.617188 7.390625 10.199219 10.882812 31.476562 30.726563 73.046875 47.648438 117.050781 47.648438 40.234375 0 79.136719-14.46875 109.53125-40.742188 3.136719-2.707031 3.480469-7.445312.773438-10.578124-2.707032-3.132813-7.445313-3.476563-10.578126-.769532-27.675781 23.917969-63.09375 37.089844-99.726562 37.089844-40.066406 0-77.914062-15.40625-106.570312-43.378906-4.316407-4.210938-8.351563-8.636719-12.09375-13.253906-.117188-.164063-.242188-.316407-.367188-.464844-20.117188-24.996094-31.773438-55.535156-33.335938-87.902344h15.035157c3.90625 72.34375 64.007812 130 137.332031 130s133.425781-57.65625 137.335938-130h15.035156c-1.511719 31.339844-12.425782 60.9375-31.683594 85.792969-2.535156 3.277343-1.9375 7.988281 1.335938 10.523437 1.367187 1.058594 2.984374 1.570313 4.589843 1.570313 2.238281 0 4.457031-1 5.933594-2.90625 21.957031-28.34375 34.042969-62.289063 34.949219-98.167969.078125-3.089844-1.113282-6.128906-3.269532-8.339844zm-296.121093-267.289062c13.597656-3.921875 32.355469 4.078125 41.21875 8.523437-5.132813 8.488281-16.746094 25.242188-30.34375 29.167969-13.507813 3.894531-24.582031-7.105469-28.78125-12.109375.886719-6.464844 4.394531-21.683594 17.90625-25.582031zm0 0"/><path d="m111.234375 136.824219 8.667969-8c3.042968-2.808594 3.230468-7.554688.421875-10.597657-2.808594-3.042968-7.554688-3.234374-10.597657-.425781l-8.667968 8c-3.042969 2.8125-3.230469 7.558594-.421875 10.601563 1.476562 1.601562 3.492187 2.410156 5.511719 2.410156 1.820312 0 3.644531-.65625 5.085937-1.988281zm0 0"/><path d="m224.765625 136.824219c1.441406 1.332031 3.265625 1.988281 5.085937 1.988281 2.019532 0 4.035157-.8125 5.511719-2.410156 2.808594-3.042969 2.621094-7.789063-.425781-10.601563l-8.664062-8c-3.046876-2.808593-7.792969-2.617187-10.597657.425781-2.8125 3.042969-2.621093 7.789063.421875 10.597657zm0 0"/><path d="m175 150.648438v-12c0-4.144532-3.355469-7.5-7.5-7.5s-7.5 3.355468-7.5 7.5v12c0 4.140624 3.355469 7.5 7.5 7.5 4.140625 0 7.5-3.359376 7.5-7.5zm0 0"/></svg>