<svg height="512pt" viewBox="-158 0 512 512" width="512pt" xmlns="http://www.w3.org/2000/svg"><path d="m120.5 7.5h-46c-2.210938 0-4 1.789062-4 4v52c0 2.210938 1.789062 4 4 4h46c2.210938 0 4-1.789062 4-4v-52c0-2.210938-1.789062-4-4-4zm0 0" fill="#804d36"/><path d="m120.5 7.5h-30c2.210938 0 4 1.789062 4 4v52c0 2.210938-1.789062 4-4 4h30c2.210938 0 4-1.789062 4-4v-52c0-2.210938-1.789062-4-4-4zm0 0" fill="#663b29"/><path d="m187.5 310.378906v164.121094c0 16.570312-13.429688 30-30 30h-120c-16.570312 0-30-13.429688-30-30v-164.121094c0-28.945312 10.175781-56.972656 28.75-79.171875 18.574219-22.203125 28.75-50.226562 28.75-79.175781v-106.382812c0-2.207032 1.789062-4 4-4h57c2.210938 0 4 1.792968 4 4v106.382812c0 28.949219 10.175781 56.972656 28.75 79.175781 18.574219 22.199219 28.75 50.226563 28.75 79.171875zm0 0" fill="#bdf9ff"/><path d="m158.75 231.207031c-18.574219-22.203125-28.75-50.230469-28.75-79.175781v-106.382812c0-2.207032-1.789062-4-4-4h-30c2.210938 0 4 1.792968 4 4v106.382812c0 28.949219 10.175781 56.972656 28.75 79.175781 18.574219 22.199219 28.75 50.226563 28.75 79.171875v164.121094c0 16.566406-13.429688 30-30 30h30c16.570312 0 30-13.433594 30-30v-164.121094c0-28.945312-10.175781-56.972656-28.75-79.171875zm0 0" fill="#8cf2ff"/><path d="m158.75 231.207031c-18.574219-22.203125-28.75-50.230469-28.75-79.175781v-16.183594h-65v16.183594c0 28.949219-10.175781 56.972656-28.75 79.175781-18.574219 22.199219-28.75 50.226563-28.75 79.171875v164.121094c0 16.566406 13.429688 30 30 30h120c16.570312 0 30-13.433594 30-30v-164.121094c0-28.945312-10.175781-56.972656-28.75-79.171875zm0 0" fill="#3bd387"/><path d="m158.75 231.207031c-18.574219-22.203125-28.75-50.230469-28.75-79.175781v-16.183594h-30v16.183594c0 28.949219 10.175781 56.972656 28.75 79.175781 18.574219 22.199219 28.75 50.226563 28.75 79.171875v164.121094c0 16.566406-13.429688 30-30 30h30c16.570312 0 30-13.433594 30-30v-164.121094c0-28.945312-10.175781-56.972656-28.75-79.171875zm0 0" fill="#37c487"/><path d="m7.5 328h180v120h-180zm0 0" fill="#ffd659"/><path d="m157.5 328h30v120h-30zm0 0" fill="#ffbd54"/><path d="m177.03125 244.1875c-2.097656-3.574219-6.6875-4.773438-10.265625-2.679688-3.574219 2.097657-4.773437 6.691407-2.675781 10.265626 10.40625 17.757812 15.910156 38.023437 15.910156 58.605468v10.121094h-165v-10.121094c0-27.136718 9.589844-53.546875 27-74.359375 19.667969-23.511719 30.5-53.335937 30.5-83.988281v-8.683594h50v8.683594c0 26.660156 7.996094 52.351562 23.128906 74.296875 1.457032 2.109375 3.800782 3.246094 6.183594 3.246094 1.46875 0 2.949219-.433594 4.25-1.328125 3.410156-2.351563 4.269531-7.019532 1.917969-10.429688-13.398438-19.433594-20.480469-42.179687-20.480469-65.785156v-106.382812c0-4.140626-2.207031-7.765626-5.5-9.789063v-24.359375c0-6.339844-5.160156-11.5-11.5-11.5h-46c-6.339844 0-11.5 5.160156-11.5 11.5v24.359375c-3.292969 2.023437-5.5 5.648437-5.5 9.789063v17.976562c0 4.144531 3.359375 7.5 7.5 7.5s7.5-3.355469 7.5-7.5v-14.476562h50v79.199218h-50v-32.472656c0-4.144531-3.359375-7.5-7.5-7.5s-7.5 3.355469-7.5 7.5v56.15625c0 27.140625-9.589844 53.546875-27.003906 74.363281-19.664063 23.507813-30.496094 53.335938-30.496094 83.984375v164.121094c0 20.679688 16.820312 37.5 37.5 37.5h120c20.679688 0 37.5-16.820312 37.5-37.5v-164.121094c0-23.246094-6.214844-46.136718-17.96875-66.191406zm-60.03125-229.1875v19.148438h-39v-19.148438zm40.5 482h-120c-12.40625 0-22.5-10.09375-22.5-22.5v-19h18.667969c4.140625 0 7.5-3.355469 7.5-7.5s-3.359375-7.5-7.5-7.5h-18.667969v-105h165v105h-114.667969c-4.140625 0-7.5 3.355469-7.5 7.5s3.359375 7.5 7.5 7.5h114.667969v19c0 12.40625-10.09375 22.5-22.5 22.5zm0 0"/></svg>