<svg height="512pt" viewBox="-63 0 512 512" width="512pt" xmlns="http://www.w3.org/2000/svg"><path d="m327.5 504.5h-270c-27.613281 0-50-22.386719-50-50v-397c0-27.613281 22.386719-50 50-50h270c27.613281 0 50 22.386719 50 50v397c0 27.613281-22.386719 50-50 50zm0 0" fill="#bbeded"/><path d="m327.5 7.5h-30c27.613281 0 50 22.386719 50 50v397c0 27.613281-22.386719 50-50 50h30c27.613281 0 50-22.386719 50-50v-397c0-27.613281-22.386719-50-50-50zm0 0" fill="#ace0e0"/><path d="m57.5 474.5c-11.027344 0-20-8.972656-20-20v-397c0-11.027344 8.972656-20 20-20h270c11.027344 0 20 8.972656 20 20v397c0 11.027344-8.972656 20-20 20zm0 0" fill="#d1ffff"/><path d="m112.199219 456c-16.566407 0-30-13.429688-30-30v-340c0-16.570312 13.433593-30 30-30 16.570312 0 30 13.429688 30 30v340c0 16.570312-13.429688 30-30 30zm0 0" fill="#fd825e"/><path d="m112.199219 56c-5.464844 0-10.585938 1.46875-15 4.023438 8.964843 5.1875 15 14.875 15 25.976562v340c0 11.101562-6.035157 20.789062-15 25.976562 4.414062 2.554688 9.535156 4.023438 15 4.023438 16.570312 0 30-13.429688 30-30v-340c0-16.570312-13.429688-30-30-30zm0 0" fill="#eb6044"/><path d="m192.5 456c-16.570312 0-30-13.429688-30-30v-340c0-16.570312 13.429688-30 30-30s30 13.429688 30 30v340c0 16.570312-13.429688 30-30 30zm0 0" fill="#fd825e"/><path d="m192.5 56c-5.464844 0-10.585938 1.46875-15 4.023438 8.964844 5.1875 15 14.875 15 25.976562v340c0 11.101562-6.035156 20.789062-15 25.976562 4.414062 2.554688 9.535156 4.023438 15 4.023438 16.570312 0 30-13.429688 30-30v-340c0-16.570312-13.429688-30-30-30zm0 0" fill="#eb6044"/><path d="m272.800781 456c-16.570312 0-30-13.429688-30-30v-340c0-16.570312 13.429688-30 30-30 16.566407 0 30 13.429688 30 30v340c0 16.570312-13.433593 30-30 30zm0 0" fill="#fd825e"/><path d="m272.800781 56c-5.46875 0-10.585937 1.46875-15 4.023438 8.960938 5.1875 15 14.875 15 25.976562v340c0 11.101562-6.039062 20.789062-15 25.976562 4.414063 2.554688 9.53125 4.023438 15 4.023438 16.566407 0 30-13.429688 30-30v-340c0-16.570312-13.433593-30-30-30zm0 0" fill="#eb6044"/><path d="m74.699219 86v340c0 20.679688 16.824219 37.5 37.5 37.5 20.679687 0 37.5-16.820312 37.5-37.5v-340c0-20.679688-16.820313-37.5-37.5-37.5-20.675781 0-37.5 16.820312-37.5 37.5zm60 0v340c0 12.40625-10.089844 22.5-22.5 22.5-12.40625 0-22.5-10.09375-22.5-22.5v-340c0-12.40625 10.09375-22.5 22.5-22.5 12.410156 0 22.5 10.09375 22.5 22.5zm0 0"/><path d="m162.5 216.332031c-4.140625 0-7.5 3.359375-7.5 7.5v202.167969c0 20.679688 16.820312 37.5 37.5 37.5s37.5-16.820312 37.5-37.5v-340c0-20.679688-16.820312-37.5-37.5-37.5s-37.5 16.820312-37.5 37.5v105.667969c0 4.140625 3.359375 7.5 7.5 7.5s7.5-3.359375 7.5-7.5v-105.667969c0-12.40625 10.09375-22.5 22.5-22.5s22.5 10.09375 22.5 22.5v340c0 12.40625-10.09375 22.5-22.5 22.5s-22.5-10.09375-22.5-22.5v-202.167969c0-4.140625-3.359375-7.5-7.5-7.5zm0 0"/><path d="m235.300781 86v340c0 20.679688 16.820313 37.5 37.5 37.5 20.675781 0 37.5-16.820312 37.5-37.5v-340c0-20.679688-16.824219-37.5-37.5-37.5-20.679687 0-37.5 16.820312-37.5 37.5zm60 0v340c0 12.40625-10.09375 22.5-22.5 22.5-12.410156 0-22.5-10.09375-22.5-22.5v-340c0-12.40625 10.089844-22.5 22.5-22.5 12.40625 0 22.5 10.09375 22.5 22.5zm0 0"/><path d="m327.5 0h-270c-31.707031 0-57.5 25.792969-57.5 57.5v328.332031c0 4.144531 3.359375 7.5 7.5 7.5s7.5-3.355469 7.5-7.5v-328.332031c0-23.433594 19.066406-42.5 42.5-42.5h270c23.433594 0 42.5 19.066406 42.5 42.5v397c0 23.433594-19.066406 42.5-42.5 42.5h-270c-23.433594 0-42.5-19.066406-42.5-42.5v-37c0-4.144531-3.359375-7.5-7.5-7.5s-7.5 3.355469-7.5 7.5v37c0 31.707031 25.792969 57.5 57.5 57.5h270c31.707031 0 57.5-25.792969 57.5-57.5v-397c0-31.707031-25.792969-57.5-57.5-57.5zm0 0"/><path d="m347.5 104.652344c4.140625 0 7.5-3.355469 7.5-7.5v-39.652344c0-15.164062-12.335938-27.5-27.5-27.5h-270c-15.164062 0-27.5 12.335938-27.5 27.5v397c0 15.164062 12.335938 27.5 27.5 27.5h270c15.164062 0 27.5-12.335938 27.5-27.5 0-9.9375 0-314.808594 0-325.347656 0-4.144532-3.359375-7.5-7.5-7.5s-7.5 3.355468-7.5 7.5v64.558594h-10.226562c-4.140626 0-7.5 3.355468-7.5 7.5 0 4.144531 3.359374 7.5 7.5 7.5h10.226562v160.765624h-18.300781c-4.140625 0-7.5 3.355469-7.5 7.5 0 4.140626 3.359375 7.5 7.5 7.5h18.300781v70.023438c0 6.894531-5.605469 12.5-12.5 12.5h-270c-6.894531 0-12.5-5.605469-12.5-12.5v-18.5h15.167969c4.140625 0 7.5-3.355469 7.5-7.5s-3.359375-7.5-7.5-7.5h-15.167969v-117.5h10c4.140625 0 7.5-3.355469 7.5-7.5s-3.359375-7.5-7.5-7.5h-10v-164.425781h15.167969c4.140625 0 7.5-3.355469 7.5-7.5 0-4.140625-3.359375-7.5-7.5-7.5h-15.167969v-51.574219c0-6.894531 5.605469-12.5 12.5-12.5h270c6.894531 0 12.5 5.605469 12.5 12.5v39.652344c0 4.144531 3.359375 7.5 7.5 7.5zm0 0"/></svg>