<svg height="512pt" viewBox="-49 0 512 512" width="512pt" xmlns="http://www.w3.org/2000/svg"><g fill="#ffbd54"><path d="m344.503906 181.5c-25.957031 0-47-15.039062-47-58 0-42.761719 21.042969-58 47-58 25.957032 0 47 13.214844 47 58s-21.042968 58-47 58zm0 0"/><path d="m70.503906 186c-25.957031 0-47-15.039062-47-58 0-42.761719 21.042969-58 47-58 25.957032 0 47 13.214844 47 58s-21.042968 58-47 58zm0 0"/><path d="m206.5 123.5c-25.957031 0-47-15.039062-47-58 0-42.761719 21.042969-58 47-58s47 13.214844 47 58-21.042969 58-47 58zm0 0"/></g><path d="m131.101562 147.992188c-25.957031 0-47-15.039063-47-58 0-42.761719 21.042969-58 47-58 25.957032 0 47 13.214843 47 58 0 44.785156-21.042968 58-47 58zm0 0" fill="#ffd659"/><path d="m277.179688 154.847656c-25.957032 0-47-15.039062-47-58 0-42.761718 21.042968-58 47-58 25.957031 0 47 13.214844 47 58s-21.042969 58-47 58zm0 0" fill="#ffd659"/><path d="m401.5 143h-390c-2.210938 0-4-1.789062-4-4v-22c0-2.210938 1.789062-4 4-4h390c2.210938 0 4 1.789062 4 4v22c0 2.210938-1.789062 4-4 4zm0 0" fill="#edcfb2"/><path d="m401.5 113h-30c2.210938 0 4 1.789062 4 4v22c0 2.210938-1.789062 4-4 4h30c2.210938 0 4-1.789062 4-4v-22c0-2.210938-1.789062-4-4-4zm0 0" fill="#cfb49b"/><path d="m396.5 143v321.519531c0 22.082031-17.898438 39.980469-39.980469 39.980469h-149.941406v-361.5zm0 0" fill="#fff0d0"/><path d="m396.5 143v321.519531c0 22.082031-17.898438 39.980469-39.980469 39.980469h-30c22.082031 0 39.980469-17.898438 39.980469-39.980469v-321.519531zm0 0" fill="#edcfb2"/><path d="m309.820312 504.5h-253.339843c-22.082031 0-39.980469-17.898438-39.980469-39.980469v-321.519531h253.328125v321.519531c0 22.082031 17.902344 39.980469 39.992187 39.980469zm0 0" fill="#fe5555"/><path d="m309.820312 504.5h-30c-22.089843 0-39.992187-17.898438-39.992187-39.980469v-321.519531h30v321.519531c0 22.082031 17.902344 39.980469 39.992187 39.980469zm0 0" fill="#e84141"/><path d="m16.5 208h253v190h-253zm0 0" fill="#60d9fe"/><path d="m239.828125 208h29.671875v190h-29.671875zm0 0" fill="#40ccf7"/><path d="m139.597656 359.632812c-25.957031 0-47-15.039062-47-58 0-42.761718 21.042969-58 47-58 25.957032 0 47 13.214844 47 58 0 44.785157-21.042968 58-47 58zm0 0" fill="#ffd659"/><path d="m324.8125 214.949219v232.710937c0 4.144532 3.355469 7.5 7.5 7.5 4.140625 0 7.5-3.355468 7.5-7.5v-232.710937c0-4.140625-3.359375-7.5-7.5-7.5-4.144531 0-7.5 3.359375-7.5 7.5zm0 0"/><path d="m401.5 105.5h-3.78125c-5.941406-39.027344-31.871094-47.5-53.21875-47.5-6.871094 0-13.21875.980469-19 2.878906-8.257812-19.355468-24.800781-29.527344-48.320312-29.527344-7.457032 0-14.289063 1.128907-20.425782 3.347657-7.4375-22.746094-24.640625-34.699219-50.253906-34.699219-23.066406 0-39.894531 10.703125-48.308594 30.394531-7.589844-3.917969-16.65625-5.902343-27.09375-5.902343-26.25 0-44.183594 13.632812-51.183594 38.597656-30.992187-3.992188-54.667968 10.171875-61.699218 42.410156h-6.714844c-6.339844 0-11.5 5.160156-11.5 11.5v22c0 5.480469 3.859375 10.074219 9 11.21875v265.78125c0 4.144531 3.355469 7.5 7.5 7.5s7.5-3.355469 7.5-7.5v-10.5h238.328125v59.019531c0 12.550781 4.898437 23.980469 12.882813 32.480469-6.527344 0-212.207032 0-218.730469 0-17.910157 0-32.480469-14.570312-32.480469-32.480469v-16.894531c0-4.144531-3.355469-7.5-7.5-7.5-4.140625 0-7.5 3.355469-7.5 7.5v16.894531c0 26.179688 21.300781 47.480469 47.480469 47.480469h300.039062c26.179688 0 47.480469-21.300781 47.480469-47.480469v-272.6875c0-4.140625-3.359375-7.5-7.5-7.5-4.144531 0-7.5 3.359375-7.5 7.5v272.6875c0 17.910157-14.570312 32.480469-32.480469 32.480469h-46.699219c-17.914062 0-32.492187-14.570312-32.492187-32.480469v-314.019531h111.671875v9.167969c0 4.140625 3.355469 7.5 7.5 7.5s7.5-3.359375 7.5-7.5v-9.449219c5.140625-1.148438 9-5.738281 9-11.21875v-22c0-6.339844-5.160156-11.5-11.5-11.5zm-18.984375 0h-51.109375c.179688-2.792969.273438-5.679688.273438-8.648438 0-7.875-.632813-15.109374-1.886719-21.597656 4.367187-1.488281 9.28125-2.253906 14.707031-2.253906 14.074219 0 32.707031 3.585938 38.015625 32.5zm-65.835937-8.648438c0 3.003907-.113282 5.886719-.316407 8.648438h-78.339843c-.21875-2.773438-.34375-5.65625-.34375-8.648438 0-29.261718 10.253906-50.5 39.5-50.5 23.242187 0 39.5 11.417969 39.5 50.5zm-110.179688-81.851562c20.082031 0 31.890625 8.675781 36.847656 27.195312-13.703125 10.90625-20.667968 29.242188-20.667968 54.65625 0 2.960938.101562 5.847657.296874 8.648438h-38.300781c2.660157-21.0625.644531-49.214844-14.085937-65.546875 5.5625-16.558594 17.625-24.953125 35.910156-24.953125zm-75.398438 24.488281c23.496094 0 39.5 11.683594 39.5 50.5 0 5.625-.363281 10.8125-1.066406 15.511719h-76.78125c-.761718-4.71875-1.152344-9.902344-1.152344-15.511719 0-29.257812 10.371094-50.5 39.5-50.5zm-53.910156 38.378907c-.390625 3.855468-.59375 7.90625-.59375 12.125 0 5.480468.339844 10.664062.992188 15.507812h-43.941406c5.910156-21.574219 21.722656-30.09375 43.542968-27.632812zm-53.191406 312.632812v-175h238.328125v175zm55-255c-4.144531 0-7.5 3.355469-7.5 7.5s3.355469 7.5 7.5 7.5h183.328125v50h-238.328125v-50h22.5c4.144531 0 7.5-3.355469 7.5-7.5s-3.355469-7.5-7.5-7.5h-31.5v-15h383v15c-9.066406 0-319 0-319 0zm0 0"/><path d="m139.597656 236.132812c-16 0-29.394531 5.3125-38.730468 15.359376-10.464844 11.265624-15.769532 28.136718-15.769532 50.140624 0 22.089844 5.308594 38.984376 15.777344 50.222657 9.3125 9.996093 22.699219 15.277343 38.722656 15.277343 24.863282 0 54.5-11.363281 54.5-65.5 0-54.136718-29.636718-65.5-54.5-65.5zm0 116c-26.210937 0-39.5-16.988281-39.5-50.5 0-33.507812 13.289063-50.5 39.5-50.5 16.957032 0 39.5 5.234376 39.5 50.5 0 45.265626-22.542968 50.5-39.5 50.5zm0 0"/></svg>