<svg height="512pt" viewBox="-158 0 512 512" width="512pt" xmlns="http://www.w3.org/2000/svg"><path d="m187.5 197.972656v259.097656c0 26.195313-21.234375 47.429688-47.429688 47.429688h-85.140624c-26.195313 0-47.429688-21.234375-47.429688-47.429688v-259.097656c0-21.558594 7.578125-42.429687 21.410156-58.964844l14.679688-17.542968c13.832031-16.535156 21.410156-37.40625 21.410156-58.964844v-20.851562h65v20.851562c0 21.558594 7.578125 42.429688 21.410156 58.964844l14.679688 17.542968c13.832031 16.535157 21.410156 37.40625 21.410156 58.964844zm0 0" fill="#bdf9ff"/><path d="m166.089844 139.007812-14.679688-17.542968c-13.832031-16.535156-21.410156-37.40625-21.410156-58.964844v-20.851562h-30v20.851562c0 21.558594 7.578125 42.429688 21.410156 58.964844l14.679688 17.542968c13.832031 16.535157 21.410156 37.40625 21.410156 58.964844v259.097656c0 26.195313-21.234375 47.429688-47.429688 47.429688h30c26.195313 0 47.429688-21.234375 47.429688-47.429688v-259.097656c0-21.558594-7.578125-42.429687-21.410156-58.964844zm0 0" fill="#8cf2ff"/><path d="m151.410156 121.464844c-.152344-.1875-.296875-.375-.445312-.5625h-106.929688c-.148437.1875-.292968.375-.445312.5625l-14.679688 17.542968c-13.832031 16.535157-21.410156 37.40625-21.410156 58.964844v259.097656c0 26.195313 21.234375 47.429688 47.429688 47.429688h85.140624c26.195313 0 47.429688-21.234375 47.429688-47.429688v-259.097656c0-21.558594-7.578125-42.429687-21.410156-58.964844zm0 0" fill="#804d36"/><path d="m166.089844 139.007812-14.679688-17.542968c-.152344-.183594-.296875-.375-.445312-.5625h-30c.148437.1875.292968.378906.445312.5625l14.679688 17.542968c13.832031 16.535157 21.410156 37.40625 21.410156 58.964844v259.097656c0 26.195313-21.234375 47.429688-47.429688 47.429688h30c26.195313 0 47.429688-21.234375 47.429688-47.429688v-259.097656c0-21.558594-7.578125-42.429687-21.410156-58.964844zm0 0" fill="#663b29"/><path d="m7.5 204h180v240h-180zm0 0" fill="#fe5555"/><path d="m157.5 204h30v240h-30zm0 0" fill="#e84141"/><path d="m133.5 67.5h-72c-2.210938 0-4-1.789062-4-4v-52c0-2.210938 1.789062-4 4-4h72c2.210938 0 4 1.789062 4 4v52c0 2.210938-1.789062 4-4 4zm0 0" fill="#fe5555"/><path d="m133.5 7.5h-30c2.210938 0 4 1.789062 4 4v52c0 2.210938-1.789062 4-4 4h30c2.210938 0 4-1.789062 4-4v-52c0-2.210938-1.789062-4-4-4zm0 0" fill="#e84141"/><path d="m147.5 323c0-35.898438-22.386719-65-50-65s-50 29.101562-50 65 22.386719 65 50 65 50-29.101562 50-65zm0 0" fill="#fff0d0"/><path d="m156.746094 116.128906c0-.003906-.003906-.003906-.007813-.007812-9.898437-12.03125-16.324219-26.773438-18.449219-42.179688 3.953126-1.820312 6.710938-5.808594 6.710938-10.441406v-52c0-6.339844-5.160156-11.5-11.5-11.5h-8c-4.144531 0-7.5 3.355469-7.5 7.5s3.355469 7.5 7.5 7.5h4.5v45h-65v-45h28.25c4.144531 0 7.5-3.355469 7.5-7.5s-3.355469-7.5-7.5-7.5h-31.75c-6.339844 0-11.5 5.160156-11.5 11.5v52c0 4.632812 2.757812 8.621094 6.710938 10.441406-3.582032 25.964844-18.519532 42.289063-18.457032 42.1875-16.851562 20.460938-38.253906 41-38.253906 81.839844v259.101562c0 30.289063 24.640625 54.929688 54.929688 54.929688h85.140624c30.289063 0 54.929688-24.640625 54.929688-54.929688v-259.101562c0-42-23.789062-64.28125-38.253906-81.839844zm-33.4375-41.128906c1.730468 13.539062 6.269531 26.679688 13.242187 38.402344h-78.101562c6.972656-11.726563 11.511719-24.863282 13.242187-38.402344zm-75.75 53.402344h99.882812c6.144532 9.324218 31.839844 28.875 32.527344 68.097656h-114.636719c-4.140625 0-7.5 3.355469-7.5 7.5s3.359375 7.5 7.5 7.5h114.667969v225h-165v-225h18.5c4.144531 0 7.5-3.355469 7.5-7.5s-3.355469-7.5-7.5-7.5h-18.46875c.695312-39.585938 26.570312-59.050781 32.527344-68.097656zm92.511718 368.597656h-85.140624c-22.019532 0-39.929688-17.910156-39.929688-39.929688v-5.570312h165v5.570312c0 22.019532-17.910156 39.929688-39.929688 39.929688zm0 0"/><path d="m97.5 395.5c11.460938 0 22.515625-4.203125 31.964844-12.15625 3.167968-2.667969 3.574218-7.398438.910156-10.566406-2.667969-3.167969-7.398438-3.578125-10.566406-.910156-6.714844 5.648437-14.425782 8.632812-22.308594 8.632812-23.433594 0-42.5-25.792969-42.5-57.5 0-31.703125 19.066406-57.5 42.5-57.5s42.5 25.796875 42.5 57.5c0 9.035156-1.519531 17.6875-4.515625 25.714844-1.449219 3.882812.523437 8.199218 4.40625 9.648437 3.878906 1.449219 8.199219-.523437 9.644531-4.402343 3.625-9.714844 5.464844-20.128907 5.464844-30.960938 0-39.976562-25.796875-72.5-57.5-72.5-31.707031 0-57.5 32.523438-57.5 72.5s25.792969 72.5 57.5 72.5zm0 0"/></svg>