<svg height="512pt" viewBox="0 -15 512 512" width="512pt" xmlns="http://www.w3.org/2000/svg"><path d="m275 89.5c-8.285156 0-15-6.714844-15-15v-52c0-8.285156 6.714844-15 15-15s15 6.714844 15 15v52c0 8.285156-6.714844 15-15 15zm0 0" fill="#804d36"/><path d="m390 135.609375v111.78125c0 25.359375-20.75 46.109375-46.109375 46.109375h-9.839844c-6.152343 0-11.960937-1.558594-17.039062-4.296875-2.089844-1.125-4.644531-.277344-5.632813 1.875-6.332031 13.785156-20.289062 23.421875-36.378906 23.421875s-30.046875-9.636719-36.378906-23.421875c-.988282-2.152344-3.542969-3-5.632813-1.875-5.078125 2.738281-10.886719 4.296875-17.039062 4.296875h-9.839844c-25.359375 0-46.109375-20.75-46.109375-46.109375v-111.78125c0-25.359375 20.75-46.109375 46.109375-46.109375h9.839844c6.152343 0 11.960937 1.558594 17.039062 4.296875 2.089844 1.125 4.644531.277344 5.632813-1.875 6.332031-13.785156 20.289062-23.421875 36.378906-23.421875 11 0 21 4.5 28.25 11.75 3.359375 3.359375 6.128906 7.308594 8.132812 11.671875.984376 2.152344 3.542969 3 5.628907 1.875 5.082031-2.738281 10.886719-4.296875 17.039062-4.296875h9.839844c25.359375 0 46.109375 20.75 46.109375 46.109375zm0 0" fill="#ff9e4a"/><path d="m343.945312 89.5h-9.933593c-3.246094 0-6.394531.441406-9.390625 1.257812 20.257812 4.832032 35.449218 23.167969 35.449218 44.902344v111.679688c0 21.730468-15.191406 40.066406-35.449218 44.902344 2.996094.816406 6.144531 1.257812 9.390625 1.257812h9.933593c25.332032 0 46.054688-20.769531 46.054688-46.160156v-111.679688c0-25.390625-20.722656-46.160156-46.054688-46.160156zm0 0" fill="#fc843a"/><path d="m275 68.5c-5.300781 0-10.359375 1.054688-15 2.945312 14.621094 5.964844 25 20.355469 25 37.054688v166c0 16.699219-10.378906 31.089844-25 37.054688 4.640625 1.890624 9.699219 2.945312 15 2.945312 22 0 40-18 40-40v-166c0-22-18-40-40-40zm0 0" fill="#fc843a"/><path d="m122.5 211.5c-8.285156 0-15-6.714844-15-15v-52c0-8.285156 6.714844-15 15-15s15 6.714844 15 15v52c0 8.285156-6.714844 15-15 15zm0 0" fill="#804d36"/><path d="m237.5 257.609375v111.78125c0 25.359375-20.75 46.109375-46.109375 46.109375h-9.839844c-6.152343 0-11.960937-1.558594-17.039062-4.296875-2.089844-1.125-4.644531-.277344-5.632813 1.875-6.332031 13.785156-20.289062 23.421875-36.378906 23.421875s-30.046875-9.636719-36.378906-23.421875c-.988282-2.152344-3.542969-3-5.632813-1.875-5.078125 2.738281-10.886719 4.296875-17.039062 4.296875h-9.839844c-25.359375 0-46.109375-20.75-46.109375-46.109375v-111.78125c0-25.359375 20.75-46.109375 46.109375-46.109375h9.839844c6.152343 0 11.960937 1.558594 17.039062 4.296875 2.089844 1.125 4.644531.277344 5.632813-1.875 6.332031-13.785156 20.289062-23.421875 36.378906-23.421875 11 0 21 4.5 28.25 11.75 3.359375 3.359375 6.128906 7.308594 8.132812 11.671875.984376 2.152344 3.542969 3 5.628907 1.875 5.082031-2.738281 10.886719-4.296875 17.039062-4.296875h9.839844c25.359375 0 46.109375 20.75 46.109375 46.109375zm0 0" fill="#fe5555"/><path d="m191.445312 211.5h-9.933593c-3.246094 0-6.394531.441406-9.390625 1.257812 20.257812 4.832032 35.449218 23.167969 35.449218 44.902344v111.679688c0 21.730468-15.191406 40.066406-35.449218 44.902344 2.996094.816406 6.144531 1.257812 9.390625 1.257812h9.933593c25.332032 0 46.054688-20.769531 46.054688-46.160156v-111.679688c0-25.390625-20.722656-46.160156-46.054688-46.160156zm0 0" fill="#e84141"/><path d="m122.5 190.5c-5.300781 0-10.359375 1.054688-15 2.945312 14.621094 5.964844 25 20.355469 25 37.054688v166c0 16.699219-10.378906 31.089844-25 37.054688 4.640625 1.890624 9.699219 2.945312 15 2.945312 22 0 40-18 40-40v-166c0-22-18-40-40-40zm0 0" fill="#e84141"/><path d="m389.5 248.5c-8.285156 0-15-6.714844-15-15v-52c0-8.285156 6.714844-15 15-15s15 6.714844 15 15v52c0 8.285156-6.714844 15-15 15zm0 0" fill="#804d36"/><path d="m504.5 294.609375v111.78125c0 25.359375-20.75 46.109375-46.109375 46.109375h-9.839844c-6.152343 0-11.960937-1.558594-17.039062-4.296875-2.089844-1.125-4.644531-.277344-5.632813 1.875-6.332031 13.785156-20.289062 23.421875-36.378906 23.421875s-30.046875-9.636719-36.378906-23.421875c-.988282-2.152344-3.542969-3-5.632813-1.875-5.078125 2.738281-10.886719 4.296875-17.039062 4.296875h-9.839844c-25.359375 0-46.109375-20.75-46.109375-46.109375v-111.78125c0-25.359375 20.75-46.109375 46.109375-46.109375h9.839844c6.152343 0 11.960937 1.558594 17.039062 4.296875 2.089844 1.125 4.644531.277344 5.632813-1.875 6.332031-13.785156 20.289062-23.421875 36.378906-23.421875 11 0 21 4.5 28.25 11.75 3.359375 3.359375 6.128906 7.308594 8.132812 11.671875.984376 2.152344 3.542969 3 5.628907 1.875 5.082031-2.738281 10.886719-4.296875 17.039062-4.296875h9.839844c25.359375 0 46.109375 20.75 46.109375 46.109375zm0 0" fill="#3bd387"/><path d="m458.445312 248.5h-9.933593c-3.246094 0-6.394531.441406-9.390625 1.257812 20.257812 4.832032 35.449218 23.167969 35.449218 44.902344v111.679688c0 21.730468-15.191406 40.066406-35.449218 44.902344 2.996094.816406 6.144531 1.257812 9.390625 1.257812h9.933593c25.332032 0 46.054688-20.769531 46.054688-46.160156v-111.679688c0-25.390625-20.722656-46.160156-46.054688-46.160156zm0 0" fill="#37c487"/><path d="m389.5 227.5c-5.300781 0-10.359375 1.054688-15 2.945312 14.621094 5.964844 25 20.355469 25 37.054688v166c0 16.699219-10.378906 31.089844-25 37.054688 4.640625 1.890624 9.699219 2.945312 15 2.945312 22 0 40-18 40-40v-166c0-22-18-40-40-40zm0 0" fill="#37c487"/><path d="m504.5 376c4.144531 0 7.5-3.359375 7.5-7.5v-73.890625c0-29.558594-24.050781-53.609375-53.609375-53.609375h-9.839844c-6.066406 0-11.964843 1.25-17.421875 3.648438-4.417968-8.011719-11.074218-14.621094-19.128906-18.96875v-44.179688c0-6.019531-2.347656-11.671875-6.585938-15.894531-2.269531-2.277344-4.972656-3.992188-7.914062-5.113281v-24.882813c0-11.1875-3.445312-21.929687-9.972656-31.058594-2.40625-3.371093-7.09375-4.148437-10.460938-1.742187-3.371094 2.40625-4.152344 7.089844-1.742187 10.460937 4.695312 6.574219 7.175781 14.296875 7.175781 22.339844v24.511719c-8.988281 2.949218-15.5 11.414062-15.5 21.378906v44.179688c-8.050781 4.347656-14.710938 10.957031-19.125 18.96875-5.46875-2.398438-11.378906-3.648438-17.429688-3.648438h-9.839843c-29.558594 0-53.605469 24.046875-53.605469 53.605469v11.390625c-5.597656-1.429688-10.742188-4.347656-14.945312-8.550782-3.007813-3.003906-5.425782-6.628906-7.054688-10.515624v-29.320313c0-29.558594-24.050781-53.609375-53.609375-53.609375h-9.839844c-4.835937 0-9.566406.796875-14.050781 2.332031v-70.722656c0-21.289063 17.320312-38.609375 38.609375-38.609375h9.839844c4.308593 0 8.511719.972656 12.359375 2.828125-.523438 2.816406-.808594 5.710937-.808594 8.671875v47.75c0 4.140625 3.359375 7.5 7.5 7.5s7.5-3.359375 7.5-7.5v-47.75c0-13.484375 8.253906-25.074219 19.976562-29.988281.199219-.070313.398438-.144531.589844-.234375 3.699219-1.464844 7.722656-2.277344 11.933594-2.277344s8.234375.8125 11.933594 2.277344c.191406.089844.390625.164062.589844.234375 8.671874 3.636719 15.441406 10.929687 18.378906 19.9375.039062.132812.082031.261719.128906.386719.953125 3.054687 1.46875 6.300781 1.46875 9.664062v14.5c0 4.140625 3.355469 7.5 7.5 7.5s7.5-3.359375 7.5-7.5v-14.5c0-2.960938-.285156-5.851562-.804688-8.660156 3.835938-1.859375 8.027344-2.839844 12.355469-2.839844h9.839844c3.292969 0 6.566406.421875 9.726563 1.25 4.003906 1.054688 8.105468-1.34375 9.15625-5.351562 1.050781-4.007813-1.34375-8.105469-5.351563-9.15625-4.402344-1.15625-8.953125-1.742188-13.53125-1.742188h-9.839844c-6.066406 0-11.964843 1.25-17.421875 3.648438-4.417968-8.011719-11.074218-14.621094-19.128906-18.96875v-44.179688c0-6.019531-2.347656-11.671875-6.585938-15.894531-4.246093-4.257813-9.898437-6.605469-15.914062-6.605469-12.40625 0-22.5 10.09375-22.5 22.5v44.179688c-8.050781 4.347656-14.710938 10.957031-19.125 18.96875-5.472656-2.402344-11.378906-3.648438-17.425781-3.648438h-9.839844c-29.558594 0-53.609375 24.046875-53.609375 53.609375v58.09375c-2.328125-1.898437-4.835938-3.585937-7.5-5.023437v-44.179688c0-6.015625-2.34375-11.667969-6.585938-15.894531-4.246093-4.257813-9.894531-6.605469-15.914062-6.605469-12.40625 0-22.5 10.09375-22.5 22.5v44.179688c-8.050781 4.347656-14.710938 10.957031-19.125 18.964843-5.46875-2.398437-11.378906-3.644531-17.425781-3.644531h-9.84375c-29.558594 0-53.605469 24.046875-53.605469 53.605469v14.644531c0 4.140625 3.359375 7.5 7.5 7.5s7.5-3.359375 7.5-7.5v-14.644531c0-21.289063 17.316406-38.605469 38.605469-38.605469h9.839843c4.3125 0 8.519532.972656 12.363282 2.828125-.523438 2.8125-.808594 5.707031-.808594 8.671875v47.75c0 4.140625 3.359375 7.5 7.5 7.5s7.5-3.359375 7.5-7.5v-47.75c0-13.484375 8.257812-25.074219 19.980469-29.988281.199219-.070313.394531-.148438.585937-.230469 3.695313-1.464844 7.71875-2.28125 11.933594-2.28125s8.234375.8125 11.933594 2.28125c.191406.085938.386718.160156.585937.230469 8.210938 3.4375 14.714844 10.15625 17.878907 18.503906.0625.1875.128906.371094.203124.550781.105469.289063.203126.582032.296876.875.042968.136719.089843.269532.136718.402344.953125 3.054688 1.464844 6.296875 1.464844 9.65625v14.5c0 4.140625 3.359375 7.5 7.5 7.5s7.5-3.359375 7.5-7.5v-14.5c0-2.960938-.285156-5.851562-.804688-8.660156 3.835938-1.859375 8.027344-2.839844 12.355469-2.839844h9.839844c21.289063 0 38.609375 17.320312 38.609375 38.609375v26.265625c-.367188.882812-.570312 1.851562-.570312 2.867188v.007812c0 .363281.035156.71875.085937 1.066406.007813.070313.019531.140625.03125.210938.058594.351562.140625.695312.25 1.03125 0 .007812 0 .015625.003906.023437.0625.1875.132813.378907.199219.566407v79.742187c0 21.289063-17.320312 38.609375-38.609375 38.609375h-9.839844c-4.328125 0-8.519531-.980469-12.359375-2.835938.523438-2.8125.808594-5.703124.808594-8.664062v-7.105469c0-4.144531-3.359375-7.5-7.5-7.5-4.144531 0-7.5 3.355469-7.5 7.5v7.105469c0 3.359375-.515625 6.601562-1.464844 9.65625-.050781.132812-.09375.265625-.136718.402344-4.246094 13.011718-16.488282 22.441406-30.898438 22.441406-14.371094 0-26.585938-9.378906-30.863281-22.332031-.054688-.195313-.121094-.386719-.191407-.578125-.9375-3.03125-1.445312-6.253906-1.445312-9.589844v-22.988281c0-4.140625-3.359375-7.5-7.5-7.5s-7.5 3.359375-7.5 7.5v22.988281c0 2.960938.285156 5.851562.804688 8.660156-3.839844 1.859375-8.03125 2.839844-12.359376 2.839844h-9.839843c-21.289063 0-38.605469-17.316406-38.605469-38.605469v-65.144531c0-4.140625-3.359375-7.5-7.5-7.5s-7.5 3.359375-7.5 7.5v65.144531c0 29.558594 24.046875 53.605469 53.605469 53.605469h9.839843c6.066407 0 11.964844-1.25 17.425782-3.648438 8.09375 14.679688 23.714844 24.648438 41.628906 24.648438 17.910156 0 33.535156-9.96875 41.625-24.648438 5.457031 2.398438 11.355469 3.648438 17.421875 3.648438h9.839844c29.5625 0 53.609375-24.050781 53.609375-53.609375v-58.121094c6.386718 5.234375 13.9375 8.667969 22 10.046875v85.078125c0 29.558594 24.050781 53.605469 53.609375 53.605469h9.839843c6.066407 0 11.964844-1.25 17.425782-3.648438 8.089844 14.679688 23.714844 24.648438 41.625 24.648438 17.914062 0 33.535156-9.96875 41.625-24.648438 5.460937 2.398438 11.359375 3.648438 17.425781 3.648438h9.839844c29.558593 0 53.609375-24.050781 53.609375-53.609375v-6.058594c0-4.140625-3.355469-7.5-7.5-7.5-4.144532 0-7.5 3.359375-7.5 7.5v6.058594c0 21.289063-17.320313 38.609375-38.609375 38.609375h-9.839844c-4.328125 0-8.519531-.980469-12.355469-2.839844.519532-2.808594.804688-5.699218.804688-8.660156v-7.109375c0-4.140625-3.355469-7.5-7.5-7.5-4.144532 0-7.5 3.359375-7.5 7.5v7.109375c0 3.363281-.515625 6.609375-1.46875 9.664062-.046875.125-.089844.253907-.128906.386719-4.242188 13.015625-16.488282 22.449219-30.902344 22.449219-14.371094 0-26.582032-9.378906-30.863282-22.328125-.054687-.199219-.121093-.390625-.191406-.582031-.933594-3.035156-1.441406-6.253906-1.441406-9.589844v-22.988281c0-4.140625-3.355469-7.5-7.5-7.5s-7.5 3.359375-7.5 7.5v22.988281c0 2.960938.285156 5.851562.804688 8.660156-3.839844 1.859375-8.03125 2.839844-12.359376 2.839844h-9.839843c-21.289063 0-38.605469-17.316406-38.605469-38.605469v-111.789062c0-21.289063 17.316406-38.605469 38.605469-38.605469h9.839843c4.3125 0 8.519532.972656 12.363282 2.828125-.523438 2.8125-.808594 5.707031-.808594 8.671875v47.75c0 4.140625 3.355469 7.5 7.5 7.5 4.140625 0 7.5-3.359375 7.5-7.5v-47.75c0-13.484375 8.253906-25.074219 19.972656-29.988281.203125-.070313.402344-.144531.59375-.234375 3.699219-1.464844 7.71875-2.277344 11.933594-2.277344 4.210938 0 8.234375.8125 11.929688 2.277344.195312.089844.390624.164062.59375.234375 8.671874 3.636719 15.441406 10.929687 18.378906 19.9375.039062.132812.082031.261719.128906.386719.953125 3.054687 1.46875 6.300781 1.46875 9.664062v14.5c0 4.140625 3.355469 7.5 7.5 7.5 4.140625 0 7.5-3.359375 7.5-7.5v-14.5c0-2.960938-.285156-5.851562-.808594-8.660156 3.839844-1.859375 8.03125-2.839844 12.359375-2.839844h9.839844c21.289063 0 38.609375 17.320312 38.609375 38.609375v73.890625c0 4.140625 3.355469 7.5 7.5 7.5zm-237-353.5c0-4.136719 3.363281-7.5 7.5-7.5 2 0 3.878906.777344 5.308594 2.214844 1.414062 1.40625 2.191406 3.285156 2.191406 5.285156v39.097656c-2.445312-.386718-4.949219-.597656-7.5-.597656s-5.054688.207031-7.5.597656zm-152.5 161.097656v-39.097656c0-4.136719 3.363281-7.5 7.5-7.5 2 0 3.878906.777344 5.304688 2.214844 1.417968 1.40625 2.195312 3.285156 2.195312 5.285156v39.097656c-2.445312-.386718-4.949219-.597656-7.5-.597656s-5.054688.207031-7.5.597656zm267 37v-39.097656c0-4.136719 3.363281-7.5 7.5-7.5h.125c.042969.003906.085938.003906.128906.003906 1.902344.0625 3.6875.839844 5.054688 2.210938 1.414062 1.40625 2.191406 3.285156 2.191406 5.285156v39.097656c-2.445312-.386718-4.949219-.597656-7.5-.597656s-5.054688.207031-7.5.597656zm0 0"/></svg>